<svg xmlns="http://www.w3.org/2000/svg" width="390" height="245" viewBox="0 0 390 245"><path d="M198.976 29.014c-6.972-.832-9.16 4.102-9.16 4.102s.676-5.354-5.725-8.243c-2.772-1.252-9.43-.96-11.06 6.898-1.634 7.86 5.236 16.974 10.203 25.007 8.405-4.313 18.993-8.57 21.655-16.143 2.66-7.573-2.89-11.26-5.912-11.62zM270.033 63.948c-9.094 0-16.465 7.37-16.465 16.463 0 9.095 16.465 37.482 16.465 37.482s16.462-28.387 16.462-37.48c0-9.093-7.37-16.464-16.462-16.464zm0 26.622c-5.61 0-10.16-4.548-10.16-10.16 0-5.608 4.55-10.157 10.16-10.157 5.608 0 10.157 4.55 10.157 10.158 0 5.612-4.55 10.16-10.157 10.16z" fill="#ec6146"/><g fill="#ec6146"><path d="M259.777 159.45h.004v-26.325l-18.144 1.892v24.174a5.85 5.85 0 0 0-2.37.063c-2.793.65-4.605 3.133-4.044 5.545.564 2.41 3.283 3.837 6.082 3.185 2.64-.616 4.402-2.87 4.11-5.152h.003v-19.39l10.58-1.102v13.467a5.827 5.827 0 0 0-2.366.062c-2.793.65-4.606 3.132-4.045 5.543.564 2.41 3.285 3.837 6.08 3.186 2.643-.615 4.403-2.87 4.112-5.15zM269.55 162.53l6.73 3.227v-8.822l-10.51-5.04V173.073a5.858 5.858 0 0 0-2.367.063c-2.795.652-4.607 3.133-4.046 5.543.562 2.41 3.283 3.837 6.08 3.186 2.643-.617 4.4-2.87 4.11-5.15h.004v-14.187z"/></g><path fill="#ec6146" d="M107.025 80.695l4.638-14.266 4.634 14.265h15l-12.134 8.82 4.636 14.265-12.137-8.817-12.137 8.817 4.636-14.266-12.136-8.82z"/><path d="M191.25 240.97c-64.595 0-117.145-52.553-117.145-117.146C74.105 59.23 126.655 6.68 191.25 6.68c64.593 0 117.145 52.55 117.145 117.144 0 64.593-52.552 117.145-117.146 117.145zm0-220.386c-56.927 0-103.24 46.314-103.24 103.24 0 56.926 46.313 103.238 103.24 103.238 56.926 0 103.24-46.312 103.24-103.24 0-56.924-46.314-103.238-103.24-103.238z" fill="#ec6146"/><path fill="#f5f5f5" d="M134.084 67.97H246.58v130.01H134.083z"/><path fill="#3f3f41" d="M247.425 186.692v13.235H133.238v-1.204z"/><path fill="#ec6146" d="M133.238 110.788V50.842h114.187v44.376z"/><path d="M248.72 202.068H131.942V49.48H248.72V202.07zm-114.052-2.726h111.326V52.206H134.668v147.136z" fill="#fff"/><g fill="#aaafb2"><path d="M194.185 159.38l-6.808 2.905c0 .43.016.868.045 1.303l2.57 1.096c.567-1.11 1.936-3.047 3.665-.364l-2.837.72 2.466 1.05c0 .616-.032 1.24-.09 1.86 1.16-.43 2.674-.11 4.395 2.382h-4.755a20.33 20.33 0 0 1-1.233 3.944c.797.712 1.67 1.127 2.583 1.127 3.762 0 6.81-6.978 6.81-13.117l-6.81-2.906zm.528 4.94c2.293-3.556 3.952 1 3.952 1l-3.952-1zM190.7 173.3c-1.093 2.75-2.683 4.707-4.223 4.707-2.602 0-5.348-5.585-5.59-11.13l5.59-2.385 1.083.46a20.56 20.56 0 0 1-.138-1.364l-.945-.402-6.81 2.905c0 6.14 3.05 13.12 6.81 13.12 2.044 0 3.878-2.065 5.125-4.934a7.825 7.825 0 0 1-.903-.975z"/><path d="M191.605 170.33a19.668 19.668 0 0 1-.906 2.972c.287.366.59.693.902.973a20.33 20.33 0 0 0 1.233-3.944h-1.23zM192.067 166.877a19.345 19.345 0 0 1-.188 1.962c.36-.36.805-.7 1.316-.89.058-.62.09-1.245.09-1.86l-2.465-1.05-1.112.28s.1-.274.284-.636l-2.57-1.096c.03.456.08.91.14 1.365l4.505 1.924z"/><path d="M191.88 168.838a20.99 20.99 0 0 1-.275 1.492h1.23c.164-.783.284-1.58.36-2.38-.51.19-.955.528-1.316.888zM190.82 165.04l-.83-.357a6.305 6.305 0 0 0-.283.637l1.113-.28zM189.882 172.396h-6.81c3.95 5.72 6.81 0 6.81 0zM182.07 169.326h3.952s-1.66-3.554-3.95 0zM186.933 169.326h1.676c-.157-.435-.3-.88-.43-1.34-.386.234-.804.654-1.247 1.34z"/><path d="M190.883 169.326s-1.08-2.312-2.702-1.34c.13.46.273.905.43 1.34h2.273z"/></g><path d="M220.032 105.012c-.024-.293-.048-.586-.076-.88-.04-.255-.088-.57-.117-.726-.154-.787-.314-1.575-.537-2.348-.318-1.095-.767-2.138-1.173-3.203a49.32 49.32 0 0 1-.45-1.25c-.826-1.332-1.764-2.632-2.354-4.084-1.286-.63-2.388-1.616-3.08-2.945a11.077 11.077 0 0 0-.764-1.297l-.174-.196c-.71-.812-1.46-1.594-2.145-2.428-.34-.414-.675-.84-1.063-1.21-.192-.183-.752-.608-.85-.696a37.264 37.264 0 0 0-2.003-1.212c-.49-.276-.97-.57-1.48-.808-.135-.064-.24-.113-.32-.154h-.005c-1.53-.6-3.075-1.185-4.56-1.883-.53-.25-1.045-.523-1.57-.782-.247-.122-1.243-.5-1.092-.46a8.234 8.234 0 0 0-.55-.157c-.02 0-.04-.002-.066-.004a8.468 8.468 0 0 1-1.725-.25 7.733 7.733 0 0 1-2.365.4c-.78.007-1.563.03-2.343.092-.02.03-1.84.308-2.2.393-1.967.463-3.916 1.022-5.864 1.547-.58.157-1.165.305-1.73.51-.04.012-.074.026-.107.037a72.278 72.278 0 0 1-3.635 1.577c-.33.136-2.088.874-2.025.83a25.23 25.23 0 0 0-1.863.956 7.97 7.97 0 0 1-.844.408 7.866 7.866 0 0 1-3.554 3.677 7.73 7.73 0 0 1-2.168 4.2 7.806 7.806 0 0 1-2.35 3.59c.002.05.005.102.005.154 0 2.013-.807 3.863-2.11 5.244.067.4.102.81.102 1.226a7.51 7.51 0 0 1-.588 2.892c.378.9.587 1.883.587 2.906 0 .952-.183 1.868-.512 2.715a7.533 7.533 0 0 1 .884 3.532c0 .035-.005.07-.006.106a7.585 7.585 0 0 1 1.494 4.502c0 .165-.008.328-.02.49a7.718 7.718 0 0 1 2.317 4.446 7.833 7.833 0 0 1 3.083 4.127c3.938 1.39 6.977 4.7 10.654 6.627.273.12.714.31.89.36.565.168 1.133.325 1.705.475 1.17.306 2.327.662 3.5.946.582.14 1.165.282 1.753.392.19.036.747.106 1.036.145.778.062 1.56.102 2.344.112.504.004.995.06 1.474.158.807-.26 1.67-.406 2.616-.53 1.39-.182 2.727-.037 4.096.064a7.68 7.68 0 0 1 3.075-1.446 7.688 7.688 0 0 1 4.354-2.053 7.75 7.75 0 0 1 3.597-2.005 7.83 7.83 0 0 1 5.108-5.073c.186-2.146 1.29-4.056 2.906-5.344a7.602 7.602 0 0 1 1.24-3.48 7.61 7.61 0 0 1 1.437-4.176 7.298 7.298 0 0 1 .06-1.874 8.895 8.895 0 0 1 .106-3.103c.013-.064.027-.14.037-.22.024-.318.042-.637.046-.957a29.758 29.758 0 0 0-.074-2.6z" fill="#c6e4e1"/><path d="M210.008 129.648l-2.02-4.53-10.246-3.88-13.628 1.092-6.864 3.582-3.083 5.47c7.95 6.106 16.747 6.643 23.777 5.53 1.262-1.454 3.076-2.424 5.09-2.552a7.435 7.435 0 0 1 3.224-1.935 7.518 7.518 0 0 1 3.75-2.777zm-19.33-.942c-1.233 0-1.91-.86-2.033-1.806-.337-1.226.32-2.765 1.97-2.765 1.232 0 1.91.86 2.033 1.805.335 1.226-.32 2.766-1.97 2.766z" fill="#3f3f41"/><path d="M194.53 119.525c0 4.148-1.78 9.146-3.978 9.146-2.2 0-3.98-4.997-3.98-9.145 0-4.147 1.78-7.51 3.98-7.51 2.198 0 3.98 3.363 3.98 7.51z" fill="#3f3f41"/><path fill="#3f3f41" d="M189.386 125.913l1.293 2.795-1.746-.022zM191.46 125.968l1.197 2.675-1.978.065z"/><path d="M190.873 129.2c-.068 0-.14 0-.21-.004-4.817-.147-6.956-4.508-7.046-4.692l.887-.424c.02.04 1.98 4.007 6.19 4.136.057.002.115.003.173.003 4.08 0 6.095-4.477 6.115-4.523l.898.396c-.093.212-2.302 5.107-7.007 5.107z" fill="#3f3f41"/><path d="M187.234 121.934s-.096 1.592 2.153 3.98l-.685 3.978s-8.432-5.185-4.696-9.35c3.062-3.417 3.228 1.392 3.228 1.392zM194.26 119.547s.2 3.78-2.815 6.47l1.708 3.712s9.088-7.358 4.385-10.437c-4.38-2.868-3.278.254-3.278.254z" fill="#3f3f41"/><path d="M175.61 98.513s1.04 4.418.13 7.666c-.91 3.247-1.274 9.686 8.647 15.645 0 0 14.09 1.115 17.987-9.93 0 0 3.248.39 3.508-4.547.26-4.937-3.376-3.638-3.376-3.638s-8.835-26.894-26.895-5.197z" fill="#3f3f41"/><ellipse cx="209.849" cy="124.582" rx=".991" ry="2.03" clip-rule="evenodd" fill="#3f3f41" fill-rule="evenodd" transform="matrix(.9 0 0 .9 -7.773 -7.885)"/><ellipse cx="222.099" cy="125.041" rx="1.057" ry="2.165" clip-rule="evenodd" fill="#3f3f41" fill-rule="evenodd" transform="matrix(.9 0 0 .9 -7.773 -7.885)"/><path d="M184.83 106.018s-2.272 3.78-1.83 5.546c.44 1.764 4.79-.66 4.79-.66s-3.562.755-3.75-.002c-.19-.756.19-2.993.79-4.884zM179 100.927s2.213-3.073 4.55.122c0 0-.37-2.336-2.337-2.336-1.966 0-2.212 2.213-2.212 2.213zM194.597 101.09s-2.34-3.248-4.807.13c0 0 .39-2.47 2.468-2.47 2.08 0 2.34 2.34 2.34 2.34z" clip-rule="evenodd" fill="#3f3f41" fill-rule="evenodd"/><path d="M187.563 92.797s-12.342 4.028-15.2 10.004c0 0-3.248-14.16 8.704-16.5 11.954-2.338 16.89-.13 17.02 3.638l-13.642 7.536s.78-2.727 3.118-4.677z" clip-rule="evenodd" fill="#3f3f41" fill-rule="evenodd"/><path d="M194.448 91.368s.26 4.677 2.858 6.235l.26-1.82s4.16 5.07 2.86 10.396c0 0 1.433-2.143 4.552-2.013 0 0 1.943-7.473-.265-12.41-2.206-4.937-9.743-5.456-10.265-.39z" clip-rule="evenodd" fill="#3f3f41" fill-rule="evenodd"/><path d="M197.567 95.784s3.508 8.576 1.95 14.942l1.428-.26s-.39-5.066 1.04-5.976c1.43-.91-.26-15.72-4.418-8.706zM196.137 91.887s-4.807 5.067-11.692 5.587c0 0 8.055-8.575 11.692-5.587zM197.697 88.38s-.65-6.368-11.563-5.068c-10.913 1.3-16.63 8.965-15.202 13.383 0 0 1.43-3.638 4.028-3.638 2.6 0 22.737-4.677 22.737-4.677z" clip-rule="evenodd" fill="#3f3f41" fill-rule="evenodd"/><path d="M181.232 115.473l10.522-1.747s-3.376 9.543-10.522 1.747zM196.714 88.698s-4.704-7.42-17.038-1.776c0 0 5.435-1.568 9.198-1.046 0 0-8.908.04-13.914 7.18 0 0 7.852-7.702 15.902-5.717 0 0-5.228.104-9.827 3.658 0 0 8.677-3.24 12.335-2.3 0 0-3.032 1.88-4.912 5.227 0 0 4.39-4.704 6.373-4.808 0 0-1.147 2.926-2.61 4.076 0 0 3.03-1.776 3.763-3.762 0 0-.626 3.346.522 5.333 0 0 2.09-3.45.21-6.065z" fill="#3f3f41"/><path d="M196.82 89.535s5.852-.626 7 3.973c0 0-2.297-2.927-4.388-2.927 0 0 3.764 2.405 2.716 10.872 0 0-1.043-10.87-5.12-10.662M204.45 105.843s-1.987.104-2.195 1.88c0 0 1.15.105 1.15.94 0 .838-.838 1.047-.838 1.047l1.15.835s1.986-2.612.733-4.702zM206.677 131.89c.05-1.825.323-4.39 1.31-6.772 0 0-1.778 3.007-1.996 7.39.087-.027.175-.046.26-.072.135-.19.277-.372.427-.546zM177.25 125.913l-1.232 6.583.626.64z" fill="#3f3f41"/><path d="M190.33 80.333c15.346 0 27.833 12.485 27.833 27.83 0 15.347-12.487 27.833-27.833 27.833-15.346 0-27.83-12.487-27.83-27.833 0-15.345 12.484-27.83 27.83-27.83m0-2.725c-16.875 0-30.556 13.68-30.556 30.555s13.68 30.557 30.556 30.557c16.877 0 30.557-13.68 30.557-30.557 0-16.875-13.68-30.555-30.557-30.555z" fill="#fff"/><g><path d="M118.997 47.458c-.04-.465-.077-.93-.122-1.393-.06-.405-.14-.905-.185-1.15-.242-1.246-.496-2.496-.847-3.72-.504-1.737-1.215-3.39-1.858-5.077a75.237 75.237 0 0 1-.714-1.98c-1.307-2.112-2.793-4.17-3.73-6.47-2.038-1-3.785-2.565-4.882-4.67-.368-.71-.75-1.405-1.208-2.057a39.526 39.526 0 0 1-.276-.31c-1.127-1.287-2.314-2.526-3.4-3.846-.537-.656-1.068-1.333-1.683-1.92-.3-.29-1.19-.963-1.344-1.102a59 59 0 0 0-3.174-1.92c-.774-.438-1.537-.903-2.344-1.28-.216-.103-.38-.18-.51-.245l-.006-.002c-2.424-.95-4.873-1.878-7.227-2.983-.84-.396-1.656-.83-2.49-1.24-.39-.193-1.966-.794-1.728-.727a12.388 12.388 0 0 0-.87-.25l-.105-.008a13.382 13.382 0 0 1-2.736-.394 12.252 12.252 0 0 1-3.745.63 54.99 54.99 0 0 0-3.712.147c-.03.047-2.916.488-3.488.622-3.114.73-6.203 1.618-9.292 2.45-.917.25-1.844.484-2.742.807-.06.02-.114.042-.168.062-1.892.896-3.822 1.707-5.762 2.498-.522.213-3.31 1.383-3.208 1.313a39.668 39.668 0 0 0-2.952 1.515c-.437.247-.882.456-1.336.645a12.46 12.46 0 0 1-5.633 5.83c-.417 2.56-1.658 4.87-3.433 6.65a12.374 12.374 0 0 1-3.725 5.69c0 .08.01.163.01.247 0 3.188-1.28 6.12-3.346 8.31.106.632.163 1.282.163 1.943 0 1.615-.34 3.16-.932 4.582.6 1.427.932 2.983.932 4.606 0 1.51-.29 2.96-.81 4.302a11.93 11.93 0 0 1 1.4 5.597c0 .057-.008.11-.01.168 1.482 2.016 2.365 4.488 2.365 7.134 0 .262-.01.52-.03.78 1.932 1.846 3.27 4.308 3.672 7.043a12.406 12.406 0 0 1 4.884 6.54c6.242 2.2 11.056 7.445 16.884 10.5.433.187 1.13.49 1.407.57.897.266 1.798.516 2.703.753 1.854.485 3.69 1.05 5.55 1.5.92.223 1.846.448 2.778.62.3.06 1.184.17 1.643.232 1.233.097 2.47.162 3.716.176a12.21 12.21 0 0 1 2.334.252c1.28-.415 2.648-.646 4.145-.84 2.2-.29 4.32-.06 6.488.1a12.206 12.206 0 0 1 4.873-2.29 12.178 12.178 0 0 1 6.9-3.254 12.27 12.27 0 0 1 5.704-3.178c1.207-3.81 4.275-6.85 8.094-8.038.294-3.4 2.043-6.428 4.604-8.468.193-2.013.89-3.895 1.966-5.516.08-2.448.918-4.725 2.276-6.616a11.7 11.7 0 0 1 .09-2.97 14.1 14.1 0 0 1 .17-4.915c.022-.1.043-.223.06-.347.038-.505.065-1.012.074-1.52.01-1.373-.012-2.748-.12-4.118z" fill="#95755c"/><path d="M50.796 32.238S34.2 79.17 63.986 84.118c29.787 4.947 36.163-13.74 36.93-28.03" clip-rule="evenodd" fill="#dbaf7e" fill-rule="evenodd"/><path clip-rule="evenodd" fill="#d4baa9" fill-rule="evenodd" d="M68.19 78.836V69.92h6.687l1.006 8.916z"/><path d="M48.252 36.14s5.118 8.807 3.72 13.802c-1.4 4.993-3.554 14.895 11.7 24.057 0 0 14.242 1.374 24.227-15.267 0 0 4.993.6 5.394-6.993.398-7.593-5.196-5.595-5.196-5.595S76.023 2.778 48.252 36.14z" fill="#fcdac6"/><path d="M59.427 41.793s-3.934-5.375-8.064-.7c0 0 2.032-1.924 8.064.7z" clip-rule="evenodd" fill="#dbaf7e" fill-rule="evenodd"/><ellipse cx="70.399" cy="61.462" rx="1.525" ry="3.12" clip-rule="evenodd" fill="#554132" fill-rule="evenodd" transform="matrix(.9 0 0 .9 -7.773 -7.885)"/><ellipse cx="87" cy="61.669" rx="1.627" ry="3.331" clip-rule="evenodd" fill="#554132" fill-rule="evenodd" transform="matrix(.9 0 0 .9 -7.773 -7.885)"/><path d="M61.337 64.236s.63-3.16 2.676 0c0 0 .23-2.706 4.244-.346 0 0-3.93 6.243-6.92.346z" clip-rule="evenodd" fill="#daaeb4" fill-rule="evenodd"/><path d="M73.7 29.017s23.16 46.8 6.773 55.32c0 0 .35 4.915 14.51-.33 14.157-5.243 10.31-73.737-21.156-61.152l-.128 6.162z" clip-rule="evenodd" fill="#fbc78e" fill-rule="evenodd"/><path d="M61.714 64.236s6.43 1.096 8.485-1.656c0 0-2.448 5.463-5.484 5.332-3.036-.13-3.166-1.757-3.002-3.676z" clip-rule="evenodd" fill="#daaeb4" fill-rule="evenodd"/><path d="M55.08 46.454s-2.623-.262-1.835-2.49c0 0 .655 1.44 2.097 1.18l-.26 1.31zM71.468 46.79s2.737-.26 1.916-2.49c0 0-.685 1.442-2.19 1.18l.273 1.31z" clip-rule="evenodd" fill="#554132" fill-rule="evenodd"/><path d="M66.9 41.975s3.934-5.376 8.065-.698c0 0-2.032-1.925-8.064.698z" clip-rule="evenodd" fill="#dbaf7e" fill-rule="evenodd"/><path d="M69.24 76.87S53.9 87.095 70.42 91.813c16.52 4.722 12.716-13.24 4.46-15.207-8.263-1.966-5.64.262-5.64.262z" clip-rule="evenodd" fill="#d4baa9" fill-rule="evenodd"/><path d="M75.533 76.738s11.628 4.68 16.74 15.3c0 0-19.362 18.44-37.98-.177 0 0 5.114-11.45 14.03-14.335 0 0-5.812 6.546 3.235 6.416 9.046-.13 3.975-7.202 3.975-7.202z" clip-rule="evenodd" fill="#3f3f41" fill-rule="evenodd"/><path d="M68.322 77.525l-4.396.966s-1.09 7.904 5.178 12.536l2.454-7.084s-4.564-1.932-3.236-6.417zM71.558 83.942l2.724 7.084s8.175-4.088 7.086-12.263l-5.835-2.024c0-.002.385 5.838-3.975 7.202z" clip-rule="evenodd" fill="#1d1d1d" fill-rule="evenodd"/><path d="M73.7 29.017s-26.202.583-23.894 15.97c0 0-7.254-3.406-8.024-12.97-.77-9.562 21.433-24.18 32.426-8.9" clip-rule="evenodd" fill="#fbc78e" fill-rule="evenodd"/><path d="M78.274 22.456S70.8 8.386 48.597 19.488c0 0 21.104-.88 22.313 4.617 1.208 5.495 7.364-1.65 7.364-1.65z" clip-rule="evenodd" fill="#fbc78e" fill-rule="evenodd"/><path d="M74.868 18.61S97.62 8.057 103.114 49.384l-10.33-16.158-15.17-8.354-2.746-6.264z" clip-rule="evenodd" fill="#fbc78e" fill-rule="evenodd"/><path d="M74.537 20.147s-12.53-5.606-20.663-.11h10.223s-14.73 1.868-15.72 11.76c0 0 9.123-10.66 20.226-8.133 0 0-7.475.88-12.2 6.155-.002 0 10.55-3.737 17.365-3.078 0 0 13.19 17.477 14.18 37.042 0 0 1.1-19.345-5.606-32.534 0 0 7.144 6.923 10.44 21.653 0 0-.218-16.927-11.21-29.02 0 0 6.485-.11 13.41 7.915 0 0-3.628-15.937-20.445-11.65z" clip-rule="evenodd" fill="#dbaf7e" fill-rule="evenodd"/><path d="M61.235 52.697L59.34 58.54s2.368 1.898 4.74.16c0 0-2.53.315-3.477-.79l.632-5.213z" clip-rule="evenodd" fill="#d4baa9" fill-rule="evenodd"/><path d="M71.932 8.35c24.318 0 44.104 19.784 44.104 44.103 0 24.32-19.787 44.103-44.104 44.103-24.32 0-44.105-19.785-44.105-44.103 0-24.32 19.784-44.104 44.105-44.104m0-4.32c-26.744 0-48.423 21.68-48.423 48.423 0 26.742 21.678 48.42 48.422 48.42 26.743 0 48.42-21.678 48.42-48.42 0-26.743-21.677-48.422-48.42-48.422z" fill="#fff"/></g><g><path d="M365.136 114.404c-.04-.464-.078-.93-.122-1.393-.062-.404-.14-.905-.185-1.15-.243-1.246-.497-2.494-.848-3.72-.504-1.735-1.215-3.388-1.86-5.076a78.718 78.718 0 0 1-.713-1.98c-1.31-2.112-2.795-4.17-3.732-6.472-2.037-1-3.785-2.563-4.88-4.67-.37-.708-.75-1.403-1.21-2.056a25.18 25.18 0 0 1-.277-.31c-1.126-1.288-2.313-2.526-3.4-3.848-.537-.656-1.068-1.332-1.683-1.92-.302-.288-1.19-.962-1.344-1.1a58.327 58.327 0 0 0-3.175-1.922c-.773-.438-1.538-.9-2.344-1.28-.215-.102-.38-.18-.51-.244-.003 0-.004-.003-.007-.003-2.424-.95-4.87-1.878-7.226-2.983-.84-.395-1.655-.83-2.487-1.24-.392-.193-1.968-.793-1.73-.727a13.073 13.073 0 0 0-.87-.25l-.106-.007a13.364 13.364 0 0 1-2.736-.394 12.275 12.275 0 0 1-3.743.63 53.83 53.83 0 0 0-3.713.146c-.03.048-2.916.49-3.488.622-3.115.73-6.205 1.617-9.29 2.45-.92.25-1.846.484-2.744.806l-.17.062c-1.89.897-3.822 1.708-5.76 2.5-.52.212-3.308 1.382-3.208 1.312a40.194 40.194 0 0 0-2.95 1.515 12.55 12.55 0 0 1-1.337.647 12.465 12.465 0 0 1-5.634 5.828c-.417 2.56-1.658 4.87-3.433 6.65a12.363 12.363 0 0 1-3.724 5.69c0 .082.01.164.01.247 0 3.19-1.28 6.12-3.347 8.31.106.634.163 1.283.163 1.943 0 1.616-.34 3.162-.93 4.583.597 1.428.93 2.985.93 4.606 0 1.51-.29 2.96-.81 4.302.89 1.684 1.4 3.59 1.4 5.598 0 .057-.008.112-.01.17 1.482 2.016 2.366 4.487 2.366 7.134 0 .26-.013.52-.03.777 1.93 1.848 3.27 4.31 3.67 7.046a12.405 12.405 0 0 1 4.885 6.54c6.24 2.198 11.054 7.445 16.884 10.5.43.187 1.13.49 1.405.57a89.02 89.02 0 0 0 2.706.753c1.855.485 3.69 1.05 5.55 1.5.92.222 1.844.448 2.777.62.3.058 1.183.17 1.64.23 1.237.097 2.473.163 3.718.177a12.29 12.29 0 0 1 2.336.25c1.28-.412 2.648-.645 4.145-.84 2.202-.288 4.323-.058 6.49.102a12.19 12.19 0 0 1 4.874-2.292 12.178 12.178 0 0 1 6.898-3.253 12.268 12.268 0 0 1 5.703-3.177c1.208-3.812 4.275-6.85 8.095-8.04.293-3.4 2.042-6.428 4.603-8.467.19-2.013.89-3.895 1.967-5.517.08-2.448.918-4.724 2.273-6.617a12.02 12.02 0 0 1-.055-1.113c0-.63.05-1.252.146-1.856a14.122 14.122 0 0 1 .168-4.916c.02-.102.044-.223.06-.346a26.69 26.69 0 0 0 .074-1.52c.013-1.373-.007-2.747-.116-4.118z" fill="#b19b74"/><path d="M293.92 105.15s-7.278 17.427.574 31.216l3.637-5.937-.38-27.197-3.83 1.916zM297.942 135.025s.956 12.065 10.533 19.533c9.575 7.47 33.322-4.02 33.322-4.02l-1.148-4.98 2.298 4.406 2.68-1.15s-5.744-11.3-2.3-24.897c3.45-13.598 2.3-27.002-9.574-33.898" clip-rule="evenodd" fill="#1d1d1d" fill-rule="evenodd"/><path d="M308.936 90.373s10.13-9.546 24.158-1.167c14.028 8.378 14.612 28.055 5.26 33.315-9.35 5.26-29.418-32.147-29.418-32.147z" clip-rule="evenodd" fill="#1d1d1d" fill-rule="evenodd"/><path clip-rule="evenodd" fill="#67503e" fill-rule="evenodd" d="M314.53 147.627v-9.148h6.858l1.033 9.147z"/><path d="M294.07 103.82s1.64 4.39.207 9.515c-1.438 5.124-3.558 19.928 12.094 29.33 0 0 18.135 1.408 28.378-15.666 0 0 5.126.614 5.535-7.175.41-7.79-5.33-5.74-5.33-5.74s-12.39-44.496-40.882-10.264z" fill="#7a5f4b"/><path d="M305.537 109.62s-4.038-5.517-8.275-.718c0 0 2.086-1.972 8.275.717z" clip-rule="evenodd" fill="#1d1d1d" fill-rule="evenodd"/><ellipse cx="343.743" cy="136.988" rx="1.564" ry="3.202" clip-rule="evenodd" fill="#483729" fill-rule="evenodd" transform="matrix(.9 0 0 .9 -7.773 -7.885)"/><ellipse cx="360.776" cy="137.202" rx="1.669" ry="3.416" clip-rule="evenodd" fill="#483729" fill-rule="evenodd" transform="matrix(.9 0 0 .9 -7.773 -7.885)"/><path d="M303.408 132.646s.864-3.24 3.674 0c0 0 .317-2.775 5.833-.354 0 0-5.402 6.405-9.507.354z" clip-rule="evenodd" fill="#7b4540" fill-rule="evenodd"/><path d="M303.924 132.646s8.833 1.125 11.658-1.7c0 0-3.364 5.606-7.533 5.47-4.17-.132-4.35-1.8-4.126-3.77z" clip-rule="evenodd" fill="#7b4540" fill-rule="evenodd"/><path d="M301.077 114.402s-2.69-.27-1.883-2.556c0 0 .673 1.48 2.153 1.21l-.27 1.346zM317.89 114.748s2.81-.27 1.967-2.556c0 0-.702 1.48-2.246 1.21l.28 1.346z" clip-rule="evenodd" fill="#483729" fill-rule="evenodd"/><path d="M313.207 109.806s4.033-5.515 8.272-.716c0 0-2.088-1.973-8.273.716z" clip-rule="evenodd" fill="#1d1d1d" fill-rule="evenodd"/><path d="M315.604 145.61s-15.736 10.49 1.212 15.333c16.95 4.843 13.047-13.585 4.573-15.604-8.475-2.02-5.786.27-5.786.27z" clip-rule="evenodd" fill="#67503e" fill-rule="evenodd"/><path d="M314.588 145.903s-2.923 8.767 4.09 13.053c0 0 5.26-2.34 3.507-13.444 0 0 13.754 3.898 18.04 9.548 0 0-.896 13.442-21.547 12.857-20.652-.584-19.482-11.69-19.482-11.69s4.286-4.87 15.392-10.324z" clip-rule="evenodd" fill="#fbc78e" fill-rule="evenodd"/><path d="M327.25 100.507s8.378 15 4.482 19.872c0 0 5.65-3.898 5.26-10.522-.39-6.625-5.065-13.64-9.742-9.352z" clip-rule="evenodd" fill="#1d1d1d" fill-rule="evenodd"/><path d="M338.55 116.55s-3.702.196-3.896 4.092c0 0 2.727.39.585 2.728l.97 1.558s3.898-1.17 2.34-8.377zM306.6 119.21l-2.34 7.208s2.922 2.338 5.844.194c0 0-3.116.39-4.286-.975l.78-6.428z" clip-rule="evenodd" fill="#67503e" fill-rule="evenodd"/><path d="M310.39 95.766s22.407 5.363 14.746 38.877c0 0 9.96-4.98 8.426-20.3-1.53-15.322-8.427-31.408-23.172-18.577z" clip-rule="evenodd" fill="#1d1d1d" fill-rule="evenodd"/><path d="M325.327 87.53s-30.45-12.45-31.024 14.362l9.767-7.85 9.96-2.68 11.297-3.83z" clip-rule="evenodd" fill="#1d1d1d" fill-rule="evenodd"/><path d="M310.39 95.766s-9.576 10.724-19.342 11.49c0 0-7.852-8.81 0-16.278 7.85-7.47 23.554-12.64 30.45-4.02 6.895 8.616-11.108 8.808-11.108 8.808z" clip-rule="evenodd" fill="#1d1d1d" fill-rule="evenodd"/><path d="M310.964 92.703s-5.937 9.383-8.043 11.49c0 0 15.32 5.554 22.982-3.64 7.66-9.192-14.938-7.85-14.938-7.85z" clip-rule="evenodd" fill="#1d1d1d" fill-rule="evenodd"/><path d="M318.068 75.297c24.32 0 44.106 19.783 44.106 44.102 0 24.317-19.787 44.103-44.106 44.103-24.318 0-44.103-19.786-44.103-44.104 0-24.32 19.784-44.103 44.103-44.103m0-4.32c-26.742 0-48.42 21.68-48.42 48.422 0 26.742 21.678 48.42 48.42 48.42 26.745 0 48.423-21.678 48.423-48.42 0-26.743-21.677-48.423-48.422-48.423z" fill="#fff"/></g><g fill="#ec6146"><path d="M105.91 129.466c1.8-.29 3.563-.11 5.175.448a10.606 10.606 0 0 1 4.77-2.052 10.61 10.61 0 0 1 3.667.056c-.017-.174-.03-.35-.058-.526-.763-4.722-5.223-7.943-9.945-7.18-4.722.76-7.943 5.22-7.18 9.944.028.176.072.346.11.518a10.61 10.61 0 0 1 3.46-1.208zM109.173 145.027a10.6 10.6 0 0 1-2.166-4.91c-.08-.49-.113-.973-.123-1.454a10.34 10.34 0 0 1 .164-2.13 10.734 10.734 0 0 1 2.344-4.996 8.617 8.617 0 0 0-3.16-.082 8.632 8.632 0 0 0-3.95 1.726c-.27.21-.523.444-.765.686-1.917 1.905-2.926 4.67-2.464 7.534a8.612 8.612 0 0 0 2.55 4.85l1.23-.2 6.34-1.023z"/><path d="M121.41 130.655a8.517 8.517 0 0 0-.943-.41 8.755 8.755 0 0 0-.977-.282 8.58 8.58 0 0 0-6.288.96c-.324.19-.64.39-.932.618-.286.22-.55.466-.807.72a8.7 8.7 0 0 0-2.495 4.966 8.39 8.39 0 0 0-.074 1.012c-.006.342.012.685.045 1.03.016.177.027.35.056.53a8.62 8.62 0 0 0 2.55 4.848l3.738-.604 1.214-.196 1.158-.187 6.44-1.04 1.133-.183a8.63 8.63 0 0 0 .89-5.404c-.463-2.867-2.292-5.173-4.71-6.378zM104.218 150.146l15.996 31.646 3.952-34.986.167-1.49.082-.707-.954.152-6.93 1.12-1.405.226-1.173.188-.434.07-1.175.19-1.405.227-6.93 1.12-.854.137.385.76z"/></g><g fill="#ec6146"><path d="M179.405 205.52v-1.665h-7.077v1.664h-2.675v11.598h11.222a7.793 7.793 0 0 1 15.47 0h11.222v-11.6h-28.162zm26.198 6.628h-7.025v-4.752h7.025v4.752zM188.61 225.872c-3.934 0-7.18-2.917-7.713-6.705h-11.244v11.458h37.913v-11.458h-11.244c-.532 3.788-3.78 6.705-7.712 6.705z"/><path d="M188.61 223.822a5.752 5.752 0 0 0 5.75-5.75c0-.326-.035-.643-.086-.955a5.75 5.75 0 0 0-5.664-4.797 5.747 5.747 0 0 0-5.664 4.797 5.74 5.74 0 0 0-.086.954 5.75 5.75 0 0 0 5.75 5.75z"/></g><g><path d="M122.074 184.367c-.037-.465-.075-.928-.12-1.394-.063-.404-.14-.903-.186-1.15-.242-1.246-.495-2.495-.848-3.72-.503-1.737-1.214-3.388-1.858-5.077a86.43 86.43 0 0 1-.714-1.98c-1.308-2.112-2.793-4.17-3.73-6.47-2.04-1-3.786-2.564-4.88-4.67-.37-.708-.75-1.404-1.21-2.055-.077-.086-.168-.187-.275-.31-1.13-1.288-2.315-2.526-3.4-3.847-.538-.656-1.07-1.33-1.683-1.92-.303-.288-1.19-.962-1.347-1.102a58.54 58.54 0 0 0-3.175-1.92c-.773-.438-1.537-.9-2.342-1.28-.217-.102-.38-.18-.51-.244-.003 0-.005-.003-.008-.003-2.424-.95-4.873-1.877-7.226-2.982-.84-.394-1.657-.828-2.49-1.238-.39-.196-1.967-.794-1.728-.728-.288-.094-.578-.18-.87-.25l-.105-.008a13.285 13.285 0 0 1-2.736-.395 12.27 12.27 0 0 1-3.748.633 54.96 54.96 0 0 0-3.71.146c-.032.047-2.918.488-3.49.62-3.114.73-6.203 1.62-9.29 2.45-.918.25-1.845.484-2.744.808-.06.02-.114.042-.168.06-1.89.898-3.822 1.708-5.763 2.5-.52.214-3.305 1.383-3.204 1.313a39.53 39.53 0 0 0-2.953 1.517c-.438.247-.88.456-1.337.646a12.467 12.467 0 0 1-5.635 5.828c-.414 2.562-1.655 4.872-3.43 6.652a12.365 12.365 0 0 1-3.724 5.69c.002.083.01.164.01.248 0 3.188-1.282 6.12-3.345 8.308.105.633.163 1.284.163 1.943 0 1.617-.34 3.163-.933 4.585.6 1.426.933 2.983.933 4.605a11.9 11.9 0 0 1-.81 4.302c.89 1.682 1.398 3.588 1.398 5.597 0 .055-.006.11-.008.17 1.482 2.014 2.367 4.484 2.367 7.132 0 .262-.013.52-.032.778 1.93 1.848 3.27 4.31 3.67 7.045a12.403 12.403 0 0 1 4.885 6.54c6.24 2.2 11.057 7.445 16.884 10.5.432.188 1.132.49 1.41.57.895.267 1.797.515 2.702.754 1.853.485 3.687 1.05 5.548 1.498.922.222 1.846.448 2.778.622.3.057 1.183.167 1.643.23 1.233.098 2.47.163 3.715.176.796.007 1.578.094 2.335.25 1.28-.414 2.647-.645 4.145-.84 2.202-.288 4.323-.057 6.49.1a12.21 12.21 0 0 1 4.872-2.29 12.198 12.198 0 0 1 6.9-3.254 12.274 12.274 0 0 1 5.703-3.178c1.21-3.81 4.275-6.85 8.095-8.038.294-3.4 2.042-6.427 4.602-8.467a12.11 12.11 0 0 1 1.967-5.52 12.032 12.032 0 0 1 2.277-6.615c-.035-.37-.058-.738-.058-1.114 0-.63.052-1.25.15-1.855a14.124 14.124 0 0 1 .168-4.915c.022-.1.044-.222.06-.347.038-.505.064-1.01.075-1.518.01-1.373-.01-2.747-.12-4.118z" fill="#bd989d"/><path clip-rule="evenodd" fill="#e6baa0" fill-rule="evenodd" d="M70.017 207.083h9.495v9.243h-9.495z"/><path d="M55.678 169.396s12.016-16.67 27.147-10.83c15.13 5.844 16.48 18.367 8.766 30.48l-35.912-19.65z" clip-rule="evenodd" fill="#aa605a" fill-rule="evenodd"/><path d="M57.892 172.003S43.5 161.21 53.698 157.255c10.2-3.952 25.305-1.565 28.514 19.308l-24.32-4.56z" clip-rule="evenodd" fill="#7b4540" fill-rule="evenodd"/><path d="M51.865 178.935s1.475 6.023.187 10.45c-1.293 4.428 6.402 22.05 17.294 22.524 0 0 14.972.32 20.502-14.732 0 0 4.61.53 4.98-6.2.37-6.73-4.796-4.96-4.796-4.96s-12.537-36.658-38.167-7.083z" fill="#facaad"/><ellipse cx="73.42" cy="217.317" rx="1.407" ry="2.769" clip-rule="evenodd" fill="#554132" fill-rule="evenodd" transform="matrix(.9 0 0 .9 -7.773 -7.885)"/><ellipse cx="89.259" cy="217.943" rx="1.501" ry="2.95" clip-rule="evenodd" fill="#554132" fill-rule="evenodd" transform="matrix(.9 0 0 .9 -7.773 -7.885)"/><path d="M84.992 176.508l-37.977 5.814 5.118-7.638-4.524 1.54s3.263-15.245 19.727-13.537c16.466 1.71 17.655 13.82 17.655 13.82z" clip-rule="evenodd" fill="#3f3f41" fill-rule="evenodd"/><path d="M81.132 173.374s6.083 9.83 3.56 20.944l4.452-.712.887-7.586s1.197-.5 2.928.105c0 0-.85-13.75-11.826-12.75z" clip-rule="evenodd" fill="#3f3f41" fill-rule="evenodd"/><path d="M93.157 188.275s-2.794-1.023-3.15 3.024c0 0 2.204.793.118 2.835 0 0 1.655 1.59 2.678-.682 1.024-2.267 1.418-4.007.354-5.178zM62.758 190.252s-3.438 4.112-2.594 7.954c.84 3.842 6.806 1.147 6.806 1.147s-4.632.874-5.332-1.957c-.703-2.83 1.12-7.144 1.12-7.144z" clip-rule="evenodd" fill="#e6baa0" fill-rule="evenodd"/><path d="M63.18 204.004s8.63 2.765 14.597-5.122l1.122 2.896-1.335-1.076s-6.736 8.558-14.386 3.302z" clip-rule="evenodd" fill="#a98b78" fill-rule="evenodd"/><path d="M53.637 183.827s3.312-3.997 6.806.162c0 0-.55-3.51-3.495-3.51-2.943-.002-3.31 3.347-3.31 3.347z" clip-rule="evenodd" fill="#2c2c2d" fill-rule="evenodd"/><path d="M76.983 183.632s-3.5-4.37-7.197.174c0 0 .584-3.792 3.697-3.792 3.11 0 3.5 3.618 3.5 3.618z" clip-rule="evenodd" fill="#3f3f41" fill-rule="evenodd"/><path d="M83.573 174.077s-7.702-16.083-26.037-8.964l7.313.096-7.285 4.622 12.226-1.75-7.672 3.873 14.304-.5-14.826 4.998 21.07-.626s3.51 3.748 3.64 7.246l1.3-3.874 3.93 4.813s-1.75-9.657-7.963-9.936z" clip-rule="evenodd" fill="#2c2c2d" fill-rule="evenodd"/><path d="M70.018 214.328l-13.563 3.248-5.07 7.766s23.054 21.358 50.317 1l-6.027-8.766-16.162-2.998s-4.553 4.247-9.495-.25z" clip-rule="evenodd" fill="#b19b74" fill-rule="evenodd"/><path d="M95.675 217.577s-3.632 2.7-3.237 14.094c0 0 3.77-.782 9.264-5.328l-6.027-8.765zM56.456 217.577l-1.758 10.168-3.314-2.402z" clip-rule="evenodd" fill="#8b7a5b" fill-rule="evenodd"/><path d="M74.545 217.832c-.345 0-.687-.024-1.026-.076-3.177-.472-4.878-3.013-4.95-3.122l1.86-1.126-.932.562.928-.567c.013.02 1.27 1.855 3.45 2.17 1.662.24 3.5-.443 5.46-2.03l1.417 1.613c-2.112 1.714-4.195 2.576-6.208 2.576z" fill="#8b7a5b"/><path d="M75.008 145.26c24.318 0 44.105 19.783 44.105 44.103s-19.787 44.103-44.105 44.103c-24.32 0-44.104-19.784-44.104-44.103 0-24.32 19.784-44.103 44.104-44.103m0-4.32c-26.742 0-48.42 21.68-48.42 48.423 0 26.742 21.677 48.42 48.42 48.42 26.744 0 48.423-21.678 48.423-48.42.002-26.744-21.678-48.422-48.422-48.422z" fill="#fff"/></g><g fill="#3f3f41"><path d="M179.515 154.952v-4.62l-3.293-6.354h2.125l2.115 4.34 2.084-4.34h2.088l-3.308 6.368v4.605h-1.81zM185.165 149.532c0-1.307.194-2.384.58-3.23.388-.845.893-1.476 1.517-1.89.625-.414 1.38-.62 2.268-.62 1.288 0 2.337.49 3.148 1.474.81.984 1.216 2.382 1.216 4.2 0 1.835-.43 3.27-1.288 4.302-.753.914-1.776 1.37-3.068 1.37-1.302 0-2.33-.452-3.084-1.355-.86-1.033-1.29-2.45-1.29-4.25zm1.87-.075c0 1.262.242 2.21.72 2.84.48.632 1.075.947 1.786.947.715 0 1.307-.314 1.778-.938.47-.628.703-1.59.703-2.887 0-1.272-.227-2.213-.684-2.822-.458-.61-1.056-.914-1.795-.914-.74 0-1.342.307-1.807.92-.464.616-.697 1.566-.697 2.853zM195.3 143.978h1.812v5.944c0 .922.022 1.523.067 1.803.08.484.27.86.574 1.123.302.265.7.396 1.196.396.42 0 .763-.093 1.027-.28.266-.188.447-.448.544-.778.097-.333.147-1.045.147-2.137v-6.072h1.812v5.764c0 1.47-.08 2.535-.237 3.192a2.72 2.72 0 0 1-1.063 1.594c-.552.408-1.28.61-2.183.61-.937 0-1.67-.167-2.197-.505a2.848 2.848 0 0 1-1.143-1.422c-.238-.61-.357-1.736-.357-3.377v-5.855z"/></g></svg>