<svg xmlns="http://www.w3.org/2000/svg" width="390" height="245" viewBox="0 0 390 245"><path d="M124.353 64.846c0 25.645-20.79 52.587-46.436 52.587-25.647 0-46.436-26.942-46.436-52.587" fill="#f3f1f1"/><circle cx="77.917" cy="63.615" r="46.436" fill="#7e634e"/><circle cx="78.486" cy="63.615" r="41.878" fill="#95755c"/><circle cx="78.532" cy="63.615" r="30.94" fill="#fff"/><path d="M77.94 64.756c-.607 0-1.1-.423-1.1-.945V38.297c0-.522.493-.945 1.1-.945.61 0 1.102.424 1.102.946V63.81c0 .523-.493.946-1.102.946z" fill="#3f3f41"/><path d="M93.212 65.306H77.75c-.503 0-.91-.492-.91-1.1 0-.61.407-1.1.91-1.1H93.21c.503 0 .91.49.91 1.1 0 .608-.407 1.1-.91 1.1z" fill="#3f3f41"/><path fill="#c6e4e1" d="M143.984 4.36L341.64 29.91l-15.305 118.396-197.655-25.55z"/><g clip-rule="evenodd" fill="#c6997a" fill-rule="evenodd"><path d="M250.646 30.36c.005 1.186-1.74 1.27-2.215.495-.066-1.262 1.532-.87 2.216-.496zM241.56 29.576c-.508 1.007-.913 1.05-1.07 2.207-.812-.064-.713-.836-1.44-.968-.468.364-.643 1.11-1.157 1.415-1.99-.083-2.21-1.53-2.128-3.208 1.627-.084 4.148-.126 5.794.554zM223.015 35.39c-.205 1.838-4.56 1.246-5.074-.07.4-1.69 4.12-.075 5.075.07zM185.072 62.744c.035.718-.26 1.008-.558 1.297-.71-.086-1.313-.256-1.248-.943.098-.772 1.073-.405 1.806-.353zM186.053 64.24c-.51-.01-.82-.177-.694-.676.564-.128.845-.113.693.676zM186.603 64.506c.514.01.597.35.477.845-.51-.01-.818-.176-.693-.675.16.056.19-.052.216-.17zM295.21 81.865c.734.01.823.52 1.056.92-.204 1.066-1.16 2.16-2.15 1.48.412-.877 1.132-1.557 1.094-2.4zM313.823 93.655c.698.097.772.675.596 1.445.55.095 1.27.06 1.513.39-.632 1.322-2.33 2.99-3.927 1.644.027-.94.513-1.28 1.16-1.413-.185-.92.06-1.618.657-2.065zM316.694 97.153c.788.318 1.498.693 1.34 1.738-.786.298-1.755-.55-1.34-1.737z"/><path d="M319.455 98.49c-.303.757.04 1.193-.608 1.68-1.18-.103-.718-2.3.608-1.68zM302.796 119.99c-.923.826-1.3 2.358-3.016 2.153-.516-.51-.256-2.52.373-2.884.43-.395 1.19.526 1.755.03.018-.502-.366.222-.77-.1-.01-.612.28-.836.87-.668-3.862-1.234-4.38-5.047-7.957-6.503-3.076.124-4.802 2.004-7.896 2.107.857-2.344.11-8.68 3.45-8.548.815-2.536 3.955-2.058 5.88-3.15.638-1.273 1.162-2.688 2.54-2.996.863.083.62 1.023.762 1.662.86-1.797 3.917-3.483 5.825-1.202.013.988-.443 1.37-.656 2.065.432.585 1.754 1.23 2.183 1.26.635-1.2.324-3.622 1.34-4.325 2.454 1.7 1.865 6.068 2.945 8.982.736 1.988 1.843 3.667.023 5.87-1.307 1.582-4.358 2.778-5.528 4.954-.74.032-2.086.162-2.69-.347.264.488.613.912.57 1.638zM251.23 92.408c.317-.014.307.225.55.268-.89 3.8-1.532 9.824-5.287 10.654-.04-2.506-.497-5.23.225-7.79 1.823-.63 3.647-1.258 4.51-3.132zM179.428 61.038c1.39-.325 3.026.354 3.77 1.074-.384 1.053-4.875 1.24-4.012-.714-1.465-.142-2.045-.963-2.71-1.72-1.272-.115-2.41-.334-3.22-.806.185-1.788 2.285-.672 3.583-.515.336 1.3 2.673 1.055 2.588 2.68zM297.027 90.507c-.003.405.84.162.912.508-.344.38-.37 1.168-.945 1.247.494.528 1.37 2.183.06 2.55-.63-.03-.895-.348-.86-.894-.407.222-.487.866-1.087.838-1.342-.726.036-4.404.696-5.383 1.017.324 1.59-.23 2.433-.664 2.736.65.064 3.122-1.21 1.797zM303.974 91.21c.076.863.876 1.17.69 2.24.548-1.085 2.294-.618 3.61-.71.34 1.44 2.007 1.496 2.802 2.514.93 1.19.894 3.063 2.003 4.168-.502.098-.824.43-1.422.403-.818-.58-.964-1.68-1.432-2.53-.83.045-.98.974-1.71 1.146-1.196-1.175-2.298.358-3.388-1.023-.017-.694.742-.385.726-1.08-.16-.874-.838-1.824-1.967-1.426-.783-.993-3.7-4.167.087-3.7zM321.603 119.685l-.074.576c-1.472 1.918-4.558 1.74-6.626 2.86-1.565.85-2.854 3.297-4.746 1.93 2.16-2.366 5.637-3.02 8.078-5.018.265-1.38.106-3.305 1.576-3.12 1.322.365.338 2.508 1.79 2.773zM255.26 30.954c-.935 1.04-3.48 1.018-4.28-.162.796-1.397 3.022-.413 4.28.162zM269.825 33.228c-.062.453.258.61.043 1.18-.177.144-.542.046-.627.31-.862-.778-2.934-.622-3.285-1.794.958-1.933 2.06.407 3.87.304zM188.888 24.137c.813.006.775.672 1.682.608.334-.22-.733-.925.006-1.563 1.05-.293 2.374.243 2.592 1.118-.114.674-.933.435-1.444.596-.34-.04.188.946-.342 1.128-1.233.326-3.207-.148-2.494-1.887zM189.18 23.393c-.156.544-.518.824-1.087.837.067.455.233 1.21-.2 1.538-1.2-.034-4.76.076-5.283-1.465-.087-.862.512-.834.75-1.272 1.66-.007 1.7 1.228 2.928 1.552.528-.428-.585-.567-.21-1.395.688-.495 2.453-.548 3.1.206z"/><path d="M288.717 76.14c.734 1.657 2.522 3.318 1.395 5.85-1.665-.138-1.823 1.677-3.518 1.5.596-1.962-1.206-2.072-1.525-3.325-1.52 3.174 3.24 5.438 1.163 9.143.526.518 1.84.427 2.21 1.067.104-2.558 2.36-2.325 3.908-3.014a9.79 9.79 0 0 1 1.285-2.374c1.235.032 2.247 1.147 2.134 1.645-1.403 1.33-1.447 3.317-2.118 5.788-1.443 1.013-3.47-.824-4.9-1.416-.177.67-.99.51-1.806.354.17.902-.1 1.565-.657 2.065-2.56-.623-1.68-3.898-3.66-4.968.83-2.657-2.242-2.31-1.518-4.89 1.717-.264 1.05 2.6 2.754 2.9.216-.818-.77-2.686-.08-3.92-.635-1.53-1.97-2.52-1.3-5.057-.95-.26-1.383.153-2.333-.105-.91-.742-.31-2.647-.465-3.97-1.037.076-1.747 0-2.475-.516-1.346 1.323-2.322 3.126-4.367 3.54-.34 1.538.52 2.835-.665 3.63 1.643.476 1.844 3.902-.806 3.218-.243-.435-.747-1.242-.162-1.78-3.857.24-.962-6.168-3.745-7.326.082-.642.166-1.282.25-1.924-.748-.538-.927-.647-2.067-.658-.687-.68-.712-1.875-1.215-2.698-1.25.085-4.405.65-5.336-1.08.295 1.41 1.294 1.667.973 3.057-.435 1.887-5.866 4.475-7.86 4.85.718.62 1.746-.275 2.91.18.07.29.238.508.5.65-.29 2.284-2.624 2.804-4.057 4.17-1.385 1.32-3.94 4.41-4.883 6.014-1.07 1.82.084 4.138-.386 6.01-.64 2.564-3.47 2.655-4.4 5.3-.546 1.557.13 3.835-1.867 3.863-1.137 4.212-4.17 5.967-9.59 4.625-1.13-.828-.8-2.376-.992-4.43-.262-2.812-2.21-5.423-2.207-7.127.003-2.456 2.352-3.927 2.19-6.364-.07-1.08-1.328-2.616-1.517-4.888-.277-3.343-.396-5.71-4.062-6.39-2.35-.437-5.193 1.488-7.264.234-3.218-1.95-3.08-8.41-3.005-11.532.105-4.266 3.272-3.638 5.076-5.99.794-1.036.75-2.715 1.65-3.698.76-.827 1.603-.513 2.75-1.6-.883.12-1.506.49-2.358.087.223-2.106.798-3.756 1.466-5.285 1.41.067 2.19.62 3.412.833.44-.028.2-.938.366-1.322-.37-.58-1.48-.59-1.367-1.545-.014-1.068 1.607-.013 1.522-1.173-.14-.406-1.554.18-1.898-.44.293-1.303 2.566-1.794 1.598-3.312-.465.294-.226 1.502-.632 1.873-.98.303-1.584 1.088-3.033.78-.374-1.13.597-1.292.106-2.33 1.292-.045 1.504-1.492 3.08-1.166.007-.815.278-1.29.61-1.68.27.05.542.1.603-.12 1.097.54 1.182 1.858 1.14 3.277.187.838 1.5.806 1.315 1.93-.19 1.025-1.415.71-2.264.88 1.318 1.42 3.112-1.794 4.937-1.903-.186-1 .068-2.146.733-2.642-.816-.006-1.29-.276-1.68-.608-.34-.953.225-1.898.707-2.45 2.208.244 3.114-1.2 4.386-2.17.58-.168-.765-.668-.068-.987 3.566-1.736 9.282-.332 12.908 1.473.3.346.12 1.062.403 1.422.787-.28-.255-.644.364-1.322 1.737.15 2.166-.195 3.87.305-.215-.64-1.318-.6-1.17-1.52 1.284-1.938 4.013-3.166 6.936-2.232-.725 1.905-3.965.548-4.795 2.313-.344.728.46.567.668.87.015.54-.74.087-.844.477.253.323.805.418 1.296.56.432.026-.188-.518.123-.963 1.662.047 2.283.895 3.99.906.45-.087.213-1.068.39-1.513.946-.558 2.16-.404 2.668.54.365-.852 1.8-.353 2.333.107.52-.098-.26-.892.342-1.13 1.68.085 2.543-.892 4.547-.39.358.018.2-.635.482-.718 2.605.074 6.897.177 7.737 2.172.086.64-.552.335-.68.695 2.316 1.082 5.07.368 7.284 1.135 1.16.402 1.52 1.79 3.338 1.408-.24-.316-.07-.63.46-.527-.112-.49-1.05-.346-.84-1.085.245-1.356 3.225-.943 2.643.733.87.136 1.594.387 1.825 1.018 3.18-.407 5.555 1.926 8.644 2.682 2.282.558 5.144.178 7.91.826 3.287.773 7.285 2.128 8.398 4.605-1.398-.02-1.7-.884-3-.975-.46.477.543 1.304.52 2.023-1.358.974-2.5 1.38-4.456 1.184 1.522 1.763.66 4.148.067 7.047-1.375-.24-.926-1.66-1.433-2.53-.65-1.12-2.45-1.58-2.32-3.233.182-.662.944-.572 1.303-1.004.202-.905-.043-1.467-.328-1.997-.442.023-.107 1.057-.7.886-.927.08-1.052-.457-1.465-.775.063.588.466.91.162 1.782-2.46.882-5.3-.704-7.43.016 0 .806.446 1.27.736 1.855 1.78-.636 2.176 1.353 3.436.64 1.925 1.484 3.538 3.956 2.665 6.6-1.463-.198-1.12-1.79-1.6-2.748-.867 1.12-.52 3.816-1.415 4.9-.684.236-1.864-.173-2.55.062.164 1.49 1.297 2.232 1.693 3.543-.67.76-.816 1.78-1.785 1.725-1.706-.1-1.286-3.784-3.182-4.126-.388.413 1.202 1.272-.365 1.32.758 2.188 2.66 3.49 1.85 6.887-1.632 1.776-2.8 4.155-6.318 3.485-.082.79-.166 1.58-.466 2.09-.804-.077-1.613-.148-1.873-.64zM238.1 39.684c.343 2.097-.87 3.702-2.133 4.417.972.14 1.634-.125 2.716.155.063-1.19.306-2.15.924-2.618-.106-.668-.472-1.135-.544-1.83.094-.642 1.657-1.467.825-1.85-.15 1.155-1.347.95-1.787 1.725zm-3.932 3.207c-.07-.688.38-.702.365-1.32-.11-.073-.68-.575-.77-.1.594.43-.77 1.364.405 1.42zm8.514 11.266c2.212-1.473 4.442 1.16 6.587.46-.307-1.475-2.15-2.078-3.698-1.65-.766-.333-.616-1.37-1.773-1.403.213 1.38-1.702 2.208-1.118 2.593zm-.906 3.99c-.61-.17-1.055-2.102-1.39-1.354-.4.548 1.2 1.032 1.34 1.738-.77.64-3.013.066-3.003-.974.064-.318 1.58.138 1.01-.26-2.087-.295-2.937-1.543-3.522-2.998-.08 1.248-1.06 2.51-2.17 1.674.038-.922.848-.846.994-1.63-1.096-1.06-1.787-2.43-2.87-3.5-1.308.852-3.048 1.138-4.53 1.76-.55 1.457-1.423 2.496-2.897 2.755-.804.255-.9-.903-1.322-.367 1.55 2.374 7.443-2.154 8.988 1.552-.078.81-.49 1.03-.224 1.73 1.976.497 3.253 1.53 4.775 2.377 1.18-3.098 2.87.244 4.615.596 1.395.28 2.36-.918 3.704.09.024-1.09.63-1.427.707-2.452-1.358-.86-2.415-.81-4.204-.74zm-2.077-3.593c-.004.695.585.932.786 1.47.093-.55.057-1.273.39-1.514-.57-.213-.607.26-1.177.045zm14.96 11.318c1.115.003 1.282.74 1.362 1.543.994.09 1.465-.495 2.072-.903-2.23.472-2.17-1.757-3.596-2.42-.207.792.197 1.116.16 1.78zm-6.443 4.446c-1.02-1.986-1.386-4.473-2.933-6.05.256 1.776 1.694 5.033 2.933 6.05zM215.848 24.297c1.922.25 3.844.498 5.77.746 2.062 1.214 4.732.91 6.12 2.55-.868.497-2.094.232-2.84.806-.574.44-.522 1.357-1.02 1.823-.43.406-1.21.237-1.637.57-.876.683-.717 1.972-1.834 2.11-4.018-.196-5.835 2.46-10.205 1.808-.87 1.528-3.38 4.045-5.105 1.687-.1-1.135-.004-2.422-.13-3.535.203-.862 1.27-.597 1.545-1.366-.924-1.522.62-2 .28-3.677-1.155-.593-5.1.636-5.067-1.634.62-1.36 2.962.494 3.418-.73-2.68-.635-5.127.98-7.102 2.013 1.147.806 3.252 1.737 2.704 3.28 1.074.096 1.998.307 2.208 1.068-.552.896-2.167 1.224-3.395.54.53 1.298-.714 1.597-1.593 1.748.373.19.71.68.26 1.012-2.342.825-2.035-2.08-3.888-1.676-.105.748 1.368 1.994 1.406 2.723.85.112 1.414-1.03 2.19-.304.976.535.078 1.358.303 2.19.24.89 1.04 1.233 1.097 2.098.05.714-.62 1.224-.632 1.874-.018 1.01 1.39 1.553.64 2.623-.455.522-1.836.304-1.9-.44-.657.276-1.917.368-2.09-.465.26-1.013 1.022-1.37 1.787-1.725-.942-.025-2.288-.573-2.74.037 1.146.958-.88.89-.944 1.247 4.013 1.024-1.067 2.264-2.68 2.585-.778-.083.1-1.177-.236-1.203-4.077 2.943-8.57 5.348-12.612 8.34-.444 1.75.878 5.075-1.61 4.877-.298-.925.23-2.486.282-3.68-1.337-.065-1.727-.86-2.784-1.142-1.688 1.705-6.173-.224-7.152 2.4-.27 1.824-.44 3.57-.045 4.882 2.864 1.096 2.85-1.543 5.055-1.3.708 1.69-1.32 2.476-1.05 3.577.64.19 2.55-.32 2.81.95-.273 1.468-1.135 2.748-.303 3.87.933.65 1.775.336 3.244.615.8-1.204 2.2-1.636 3.59-2.078 1.163 1.804 3.17.31 4.59.79 1.586.537 1.15 2.46 2.487 3.448 3.274.19 4.206 2.183 4.045 5.02 1.318.527 2.285 2.363 4.075 3.263 2.18 1.096 4.037.92 4.46 3.313.125.714.046 1.48-.132 2.525-.44 1.262-2.394 1.957-2.997 3.523-1.014 2.633.02 5-2.334 5.954-.69.28-1.277.138-2.574.254-1.32 2.353-1.758 6.97-4.74 6.426.838.334 1.25.998.88 2.264-.854.59-1.463.186-2.742.038-.27 1.22-1.574 1.102-2.53 1.432.77 1.278.112 2.628-.666 3.63 2.116.246.75 2.386 1.092 3.66.413 1.532 2.038 1.44 2.56 2.87-.162.466-.558.626-.892.863a899.3 899.3 0 0 1-1.54-.2c-1.16-1.92-4.06-2.805-4.837-4.924-2.125-5.792.948-14.792-.05-22.295-.777-1.292-1.88-1.166-2.685-1.912-.986-.91-1.104-2.665-1.812-4.143-.848-1.777-2.54-3.31-1.78-5.9.378-1.286 2.22-1.718 2.73-2.97.395-.966-.096-3.114.882-3.796-.41.29-1.055.277-1.613.377-2.192-1.54-3.506-3.76-6.643-4.573-.388-.506-.388-1.316-.737-1.854-1.978-.9-4.61-1.294-5.47-3.053.587-2.952-.682-4.18-1.37-6.042-.484-1.304-.49-2.538-1.283-3.684-.232 2.456 2.625 5.54.644 7.122-.735-1.15-1.503-3.09-1.738-4.72-.21-1.468.228-3.86-.048-5.678-.13-.856-.896-2.757-.768-3.396.375-1.876 2.226-.477 3.494-4.07.414-1.176-.956-2.22.564-2.86-.745-.15-1.657.356-1.9-.44.198-1.183 1.21-1.833 2.073-.906-1.608-1.342-.43-2.854.38-4.448-3.293-.742-6.963-.056-9.336 1.14-2.32-1.89-4.325 1.654-6.596 1.103l.075-.577c1.2-.54 2.362-1.126 3.542-1.693.122-.613-.235-.856.006-1.563.375-1.536 3.89-.19 3.902-1.45-.663.762-1.785-.125-1.63-.992.347-1.953 2.295-.413 3.367-.347-.1-.005 1.888-.3 1.997-.327 1.726-.427 2.99-1.958 4.746-1.93.663.013 1.402.602 2.067.66.453.037.98-.395 1.42-.404 2.357-.05 3.223 1.028 4.273 1.724.84-.034 1.16-.74 2.215-.496 1.325 1.345 3.736.103 5.72 1.13-.148-3.43 3.99-1.37 5.44-1.253.312.025.794-.312 1.01-.26.252.06.42.64.696.675.865.113 2.27-.862 2.692.35-.83.39-1.385 2.18-1.526 2.734 1.153.522.56-1.22 1.328-1.197.337.26.877.363 1.295.56.783-1.355 3.26-2.744 4.722-1.738-.602.64-1.636.72-2.313 1.264-.028.714.66.875.352 1.806.83.102 1.504.003 1.83-.546-.614.01-.837-.28-.67-.868 1.33-1.404.142-3.6 2.035-3.647 1.08-.027 1.77 1.86 3.17 1.19-2.335-.536-2.89-3.052-.012-2.934 3.107.88 9.1-.767 12.14 1.374.01.345-.984.478-.486.72 1.87-1.018 4.91-.514 7.338-.813zm-24.728 6.775c.486.26 1.052.458 1.028 1.11-.478 1.192-3.093.48-3.652-.47-2.75.025-4.12 1.843-5.882 3.15.696 1.425 2.512 1.987 3.715 3.02-.55.484-.93 1.19-1.236 1.992 2.166.038 1.898-3.076 4.27-2.772.168-.65.063-1.087.005-1.563 1.265-1.354 2.57-2.653 4.174-3.568 1.28.464 1.575-.352 2.24-.687-.48-.034-.938-.085-.91-.51-.004-.45.58-.14.65-.5-1.234-1.03-2.828.83-4.404.797z"/><path d="M307.007 61.69c.09.787-1.085-.06-1.062.644.615 1.14.968 3.217.15 4.906-1.896.46-3.34 1.51-4.99 2.288-1.612-2.055 1.422-2.806 2.756-3.163.02-1.4.543-2.142 1.31-2.57-.04-1.063-.632-1.702-.83-2.646.316-1.502 2.704-.653 2.667.54zM178.342 61.875c.257 1.846-1.818 1.647-2.023.52-.12-1.146 1.45-.983 2.022-.52zM302.137 93.318c-.957-.052-1.888.9-2.766.23 1.228-1.23.194-2.772.957-4.373.32.04.64.082.96.124.614.81-.198 1.244-.3 2.305-.188 1.012 1.272.754 1.15 1.713zM188.282 112.035c-.265 1.148-1.895 1.293-2.165.11-.076-1.372 2.004-.89 2.165-.11z"/></g><g stroke-miterlimit="10" fill="none" stroke="#fff" stroke-width="2"><path d="M186.496 35.73s.134-.073.396-.205" stroke-width="1.8"/><path d="M188.454 34.78a69.178 69.178 0 0 1 3.997-1.66" stroke-dasharray=".962,1.924,.962,1.924" stroke-width="1.8"/><path d="M193.262 32.817c14.222-5.24 49.218-13.658 89.106 9.8" stroke-dasharray=".962,1.924,.962,1.924,.962,1.924" stroke-width="1.8"/><path d="M283.118 43.06l.387.233" stroke-width="1.8"/></g><path d="M286.11 27.215a4.922 4.922 0 0 0-5.513 4.252c-.35 2.696 3.445 11.745 3.445 11.745s5.97-7.787 6.318-10.484a4.924 4.924 0 0 0-4.25-5.513zm-1.02 7.895a3.037 3.037 0 1 1 3.4-2.623 3.035 3.035 0 0 1-3.4 2.623z" fill="#2c2c2d"/><path fill="#95755c" d="M35.217 230.223H358.52v13.13H35.217z"/><g transform="matrix(.9 0 0 .9 -1.144 -7.79)" clip-rule="evenodd" fill-rule="evenodd"><ellipse cx="88.235" cy="268.976" rx="12.992" ry="4.786" fill="#7e634e"/><path d="M90.06 168.722s12.09 27.007-3.396 68.39c0 0-14.294-43 3.397-68.39z" fill="#b3ac43"/><path d="M86.162 241.534s-21.158-18.668-20.536-62.85c0 0 28.625 32.982 20.536 62.85z" fill="#c9c14a"/><path d="M87.55 239.046s-5.602-29.248 21.78-58.495c0 0 1.244 42.938-21.78 58.496z" fill="#c9c14a"/><path d="M83.96 236.557s-20.537-1.867-29.25-24.89c0 0 20.537 3.73 29.25 24.89zM91.62 239.754s3.062-23.85 25.125-30.663c0 0-6.722 25.297-25.124 30.664z" fill="#b3ac43"/><path d="M106.983 233.445v17.424c0 10.31-8.358 18.668-18.668 18.668-10.31 0-18.668-8.36-18.668-18.67v-17.423h37.336z" fill="#ec6146"/></g><g transform="matrix(.9 0 0 .9 -1.144 -7.79)"><ellipse cx="365.402" cy="271.711" rx="12.992" ry="4.786" clip-rule="evenodd" fill="#7e634e" fill-rule="evenodd"/><path d="M355.988 244.202s-14.258-14.017-3.624-31.9c10.634-17.883 16.917-18.125 11.842-31.176 0 0 9.425 7.01 9.183 20.543-.242 13.532-13.293 29-3.625 42.532h-13.777z" fill="#e5e5e5"/><path d="M383.452 242.724v8.307c0 10.31-8.358 18.67-18.668 18.67-10.31 0-18.67-8.36-18.67-18.67v-8.306h37.338z" clip-rule="evenodd" fill="#ec6146" fill-rule="evenodd"/><path clip-rule="evenodd" fill="#ec6146" fill-rule="evenodd" d="M356.858 263.99h16.308v7.414h-16.308z"/><path d="M382.47 250.513c2.227-.72 4.52.193 5.114 2.033.593 1.84-.735 3.922-2.962 4.64-2.227.718-4.52-.194-5.115-2.033-.592-1.84.736-3.923 2.962-4.64m-1.3-4.023c-4.715 1.52-7.475 6.05-6.163 10.114 1.312 4.064 6.198 6.126 10.913 4.604 4.718-1.522 7.476-6.05 6.164-10.116-1.312-4.064-6.197-6.124-10.913-4.602z" fill="#ec6146"/></g><path fill="#aaafb2" d="M187.855 206.828h39.36v22.576h-39.36z"/><path fill="#f5f5f5" d="M112.003 82.626h191.065v131.89H112.003z"/><path fill="#3f3f41" d="M117.324 87.27h180.424v114.397H117.324z"/><path fill="#f5f5f5" d="M153.032 228.246H262.04v4.702H153.032z"/><circle cx="207.536" cy="208.829" r="2.336" fill="#aaafb2"/><path fill="#7e634e" d="M153.032 233.17H262.04v2.24H153.032z"/><g fill="#fff"><path d="M161.403 136.3v4.043h-1.288V136.3l-2.518-6.08H159l1.764 4.763 1.81-4.762h1.37l-2.54 6.08zM171.324 135.268c0 .79-.077 1.514-.236 2.166-.158.653-.385 1.214-.687 1.68-.3.467-.66.83-1.086 1.086a2.735 2.735 0 0 1-1.45.387c-.543 0-1.03-.13-1.46-.387a3.367 3.367 0 0 1-1.094-1.086c-.3-.467-.53-1.028-.685-1.68a9.2 9.2 0 0 1-.235-2.166c0-.79.075-1.514.226-2.166.153-.654.378-1.21.675-1.672.297-.464.66-.82 1.094-1.072a2.88 2.88 0 0 1 1.48-.38c.543 0 1.027.127 1.45.38.425.252.787.61 1.087 1.072.303.462.53 1.02.688 1.672.158.652.236 1.375.236 2.166zm-1.357 0c0-.573-.045-1.11-.136-1.616a5.273 5.273 0 0 0-.4-1.316c-.178-.372-.395-.664-.656-.88a1.4 1.4 0 0 0-.91-.32c-.353 0-.663.106-.93.32a2.47 2.47 0 0 0-.665.88c-.177.372-.307.81-.394 1.316a9.78 9.78 0 0 0-.13 1.616c0 .572.044 1.11.13 1.616.087.505.217.943.393 1.315.176.37.398.664.664.88.266.214.577.32.93.32.344 0 .647-.106.91-.32.26-.216.478-.508.657-.88a5.2 5.2 0 0 0 .4-1.316 9.13 9.13 0 0 0 .137-1.616zM178.832 138.314a3.38 3.38 0 0 1-.516 1.18c-.24.338-.55.604-.936.8-.386.196-.862.294-1.423.294-.565 0-1.033-.098-1.41-.293a2.56 2.56 0 0 1-.92-.8 3.267 3.267 0 0 1-.508-1.18 6.68 6.68 0 0 1-.152-1.446v-6.65h1.288v6.52c0 .343.026.675.08.994.05.32.142.602.27.85.127.25.306.446.53.594.224.147.505.222.85.222.343 0 .623-.075.843-.222.22-.148.392-.345.523-.593.127-.25.217-.53.27-.85.052-.32.08-.653.08-.995v-6.52h1.287v6.65c0 .515-.055.995-.158 1.444zM185.22 140.343l-1.714-4.518h-1.172v4.518h-1.26V130.22h2.625c.373 0 .725.05 1.053.15.33.1.618.26.867.48.248.22.444.505.587.858.145.352.216.777.216 1.27 0 .41-.054.77-.16 1.074a2.647 2.647 0 0 1-.412.78 2.072 2.072 0 0 1-.557.506c-.2.124-.397.206-.587.243l1.903 4.762h-1.39zm-.084-7.312c0-.344-.047-.626-.144-.847a1.478 1.478 0 0 0-.37-.53 1.272 1.272 0 0 0-.53-.28c-.2-.055-.4-.08-.6-.08h-1.158v3.532h1.188c.486 0 .876-.156 1.17-.466.296-.313.444-.756.444-1.33zM196.947 135.296c0 1.64-.334 2.89-.998 3.754-.67.863-1.606 1.293-2.805 1.293h-2.316V130.22h2.33c1.2 0 2.13.435 2.794 1.302.66.867.993 2.125.993 3.774zm-1.285 0c0-.666-.065-1.25-.193-1.745-.13-.494-.305-.904-.528-1.228a2.247 2.247 0 0 0-.798-.73 2.094 2.094 0 0 0-.99-.242h-1.04v7.864h1.04c.352 0 .68-.08.99-.244.308-.162.574-.404.798-.73.223-.323.398-.73.527-1.222.127-.49.192-1.064.192-1.722zM198.735 140.343V130.22h4.26v1.145h-3.017v3.188h2.816v1.072h-2.816v3.562h3.16v1.156h-4.403zM209.402 137.655c0 .458-.073.87-.216 1.237a2.714 2.714 0 0 1-.578.923 2.522 2.522 0 0 1-.867.57c-.333.134-.69.202-1.07.202a3.45 3.45 0 0 1-1.466-.322 2.957 2.957 0 0 1-1.108-.85l.76-.93c.217.287.493.51.82.673.33.162.66.244.995.244.427 0 .78-.144 1.057-.43.278-.287.415-.7.415-1.244a1.7 1.7 0 0 0-.128-.68 1.796 1.796 0 0 0-.358-.528 3 3 0 0 0-.52-.43c-.196-.13-.41-.25-.638-.365a5.772 5.772 0 0 1-.78-.45 3.46 3.46 0 0 1-.65-.58c-.19-.218-.34-.48-.45-.78-.11-.298-.165-.655-.165-1.064 0-.485.075-.91.23-1.27.152-.364.355-.663.607-.903.254-.238.543-.414.866-.53.323-.112.652-.17.985-.17.49 0 .925.08 1.31.244.386.163.707.406.966.73l-.774.915c-.36-.476-.846-.714-1.456-.714-.182 0-.36.032-.54.094a1.304 1.304 0 0 0-.476.3c-.143.138-.26.313-.343.522-.086.21-.13.462-.13.758 0 .257.042.478.12.665.084.184.192.352.33.5.14.148.3.28.48.4s.376.232.586.335c.267.134.528.284.786.45.257.168.49.365.7.594.21.228.377.497.508.807.13.31.194.668.194 1.078zM213.133 131.322v9.02h-1.286v-9.02h-1.932v-1.102h5.148v1.102h-1.93zM216.164 140.343V130.22h1.288v10.123h-1.288zM224.14 140.343l-3.23-7.85h-.043v7.85h-1.187V130.22h1.546l3.188 7.865h.043v-7.864h1.188v10.123h-1.504zM232.263 140.343l-.57-2.373h-2.933l-.584 2.373h-1.303l2.548-10.122h1.7l2.49 10.123h-1.347zm-1.986-8.92h-.056l-1.288 5.533h2.59l-1.245-5.534zM236.684 131.322v9.02h-1.29v-9.02h-1.928v-1.102h5.146v1.102h-1.928zM239.714 140.343V130.22h1.288v10.123h-1.288zM249.722 135.268c0 .79-.077 1.514-.236 2.166-.157.653-.387 1.214-.687 1.68-.3.467-.662.83-1.087 1.086a2.74 2.74 0 0 1-1.45.387c-.545 0-1.03-.13-1.46-.387a3.34 3.34 0 0 1-1.094-1.086c-.3-.467-.53-1.028-.687-1.68a9.25 9.25 0 0 1-.235-2.166c0-.79.075-1.514.227-2.166.152-.654.378-1.21.674-1.672.294-.464.657-.82 1.092-1.072a2.88 2.88 0 0 1 1.48-.38c.543 0 1.027.127 1.45.38.426.252.787.61 1.087 1.072.3.462.53 1.02.686 1.672.16.652.236 1.375.236 2.166zm-1.36 0a9.13 9.13 0 0 0-.133-1.616 5.236 5.236 0 0 0-.4-1.316 2.534 2.534 0 0 0-.658-.88 1.4 1.4 0 0 0-.91-.32c-.353 0-.662.106-.93.32-.266.215-.487.507-.664.88a5.17 5.17 0 0 0-.393 1.316 9.684 9.684 0 0 0-.13 1.616c0 .572.044 1.11.13 1.616.087.505.217.943.393 1.315.177.37.398.664.665.88.267.214.577.32.93.32.344 0 .646-.106.91-.32.26-.216.478-.508.656-.88a5.2 5.2 0 0 0 .4-1.316 9.05 9.05 0 0 0 .133-1.616zM255.97 140.343l-3.23-7.85h-.043v7.85h-1.186V130.22h1.546l3.187 7.865h.044v-7.864h1.187v10.123h-1.504z"/></g><path fill="#fff" d="M143.962 145.666H271.11v17.78H143.96z"/><path fill="#e5e5e5" d="M140.392 10.455l9.735-8.808 2.202 2.434-9.736 8.81zM335.946 26.56l7.087 11.053-2.764 1.772-7.088-11.05zM331.072 142.264l-10.887 7.338-1.835-2.722 10.887-7.338z"/><path d="M169.063 44.95c-.575.59-7.116 5.577-8.35 5.577-1.208 0-1.608-3.205-2.555-3.375-1.924-.345-3.362-1.055-4.51-2.203-1.62-1.713-2.128-4.212-2.128-9.028 0-4.814.508-7.313 2.128-9.026 1.712-1.712 4.073-2.453 7.73-2.453 3.656 0 6.02.74 7.685 2.453 1.666 1.713 2.13 4.213 2.13 9.026 0 4.815-.464 7.314-2.13 9.027m-7.684-17.962c-6.898 0-7.177 3.1-7.177 8.842 0 5.74.28 8.98 7.176 8.98 6.897 0 7.128-3.286 7.128-8.98 0-5.973-.418-8.842-7.13-8.842" fill="#e53312"/><g fill="#fff"><path d="M174.678 39.758c-.795.408-1.69 1.68-1.282 2.475.408.798 1.96.818 2.757.412l13.714-7.008 5.51 1.515-.842-1.65-3.162-2.455-.382.272c-.01-.02-.016-.043-.027-.063l-.033-.06.443-.15-.134-4-.845-1.65-2 5.355-13.717 7.006z"/><path d="M183.897 39.624l-3.463 1.768 6.91 13.53s4.822.89-3.28-14.968c-.056-.112-.113-.22-.167-.33zM171.29 23.493L178.2 37.02l3.46-1.767-.168-.33c-8.1-15.858-10.205-11.43-10.205-11.43z"/></g></svg>