<?xml version="1.0" encoding="utf-8"?>
<!-- Generator: Adobe Illustrator 15.0.2, SVG Export Plug-In . SVG Version: 6.00 Build 0)  -->
<!DOCTYPE svg PUBLIC "-//W3C//DTD SVG 1.1//EN" "http://www.w3.org/Graphics/SVG/1.1/DTD/svg11.dtd">
<svg version="1.1" id="Ebene_1" xmlns="http://www.w3.org/2000/svg" xmlns:xlink="http://www.w3.org/1999/xlink" x="0px" y="0px"
	 width="440px" height="290px" viewBox="0 0 440 290" enable-background="new 0 0 440 290" xml:space="preserve">
<g>
	
		<rect x="99.341" y="12.855" transform="matrix(-0.105 -0.9945 0.9945 -0.105 92.6576 335.1415)" fill="#C6997A" width="195.589" height="226.044"/>
	<polygon fill="#C6997A" points="321.242,212.589 279.59,17.352 302.474,14.935 323.322,212.368 	"/>
	<polygon fill="#C6997A" points="121.427,34.054 169.197,228.644 65.549,239.589 44.702,42.155 	"/>
	<polygon fill="#FFFFFF" points="293.146,219.609 191.973,79.693 50.488,94.632 49.641,86.618 195.769,71.188 299.676,214.887 	"/>
	
		<rect x="16.521" y="114.724" transform="matrix(0.105 0.9945 -0.9945 0.105 203.6687 11.1974)" fill="#FFFFFF" width="158.185" height="8.059"/>
	
		<rect x="44.483" y="127.503" transform="matrix(0.105 0.9945 -0.9945 0.105 257.8498 -23.4463)" fill="#FFFFFF" width="194.937" height="8.058"/>
	<polygon fill="#FFFFFF" points="57.072,149.369 56.225,141.354 96.578,137.092 137.928,110.231 312.088,91.842 312.935,99.857 
		140.694,118.044 99.346,144.905 	"/>
	<g>
		<path fill="#3F3F41" d="M208.82,60.257l-3.257,0.345l0.399,3.785l30.276-3.197l-0.399-3.785l-3.26,0.344l-1.308-12.364
			l5.175-0.547l-18.246-11.743l-15.857,15.345l5.173-0.546L208.82,60.257z M211.301,47.495l6.202-0.655l1.306,12.364l-6.201,0.655
			L211.301,47.495z M228.795,58.149l-6.202,0.654l-1.304-12.363l6.202-0.655L228.795,58.149z"/>
		
			<rect x="219.53" y="48.395" transform="matrix(-0.1055 -0.9944 0.9944 -0.1055 179.2139 293.0942)" fill="#3F3F41" width="3.805" height="35.093"/>
	</g>
	<polygon fill="#EC6146" points="89.112,54.028 97.958,73.869 119.56,71.587 103.423,86.131 112.27,105.973 93.451,95.12 
		77.314,109.663 81.821,88.412 63.003,77.56 84.604,75.279 	"/>
	<path fill="#F5F5F5" d="M305.939,12.308l21.321,201.909L63.43,242.075L42.109,40.167L305.939,12.308z M322.051,210.004
		L301.725,17.516L47.317,44.379l20.327,192.489L322.051,210.004z"/>
	<path fill="#3F3F41" d="M286.945,84.831l-6.296-10.231l0.272-0.027l-0.319-3.151l-1.616,0.164l-6.422-13.618l-0.018,0.003
		l-2.645-18.197l1.133-0.115l-0.414-4.079l-1.309,0.133l-0.275-1.904l-0.51,0.052l-0.741-7.31l-2.132,0.217l0.742,7.309
		l-0.512,0.052l0.112,1.92l-1.309,0.133l0.415,4.079l1.131-0.114l1.066,18.356l-0.018,0.002l-3.555,14.629l-1.615,0.163l0.319,3.153
		l0.274-0.028l-4.112,11.287l-3.002,0.305l0.433,4.274l11.451-1.163l-0.434-4.274l-3.352,0.34c0.745-5.64,3.913-9.958,8.118-10.386
		c4.204-0.427,8.175,3.167,10.036,8.543l-3.352,0.341l0.435,4.273l11.452-1.162l-0.437-4.274L286.945,84.831z M267.373,72.659
		l2.734-12.636l5.213,11.829L267.373,72.659z"/>
	<g>
		<path fill="#3F3F41" d="M66.895,161.303l7.158,66.688l20.086-2.157l-7.158-66.687L66.895,161.303z M80.809,215.209l-3.215,0.345
			l-0.575-5.356l3.216-0.345L80.809,215.209z M79.983,207.519l-3.215,0.347l-0.574-5.357l3.214-0.345L79.983,207.519z
			 M79.191,200.135l-3.215,0.346l-0.576-5.355l3.214-0.345L79.191,200.135z M77.901,188.115l-3.216,0.346l-0.576-5.357l3.217-0.344
			L77.901,188.115z M77.074,180.427l-3.214,0.345l-0.575-5.355l3.215-0.346L77.074,180.427z M76.281,173.042l-3.216,0.346
			l-0.574-5.356l3.214-0.346L76.281,173.042z M88.039,214.432l-3.213,0.346l-0.576-5.356l3.216-0.345L88.039,214.432z
			 M87.214,206.742L84,207.088l-0.574-5.357l3.212-0.344L87.214,206.742z M86.422,199.358l-3.215,0.346l-0.574-5.354l3.214-0.346
			L86.422,199.358z M85.131,187.34l-3.213,0.345l-0.576-5.356l3.215-0.345L85.131,187.34z M84.306,179.65l-3.215,0.345l-0.575-5.356
			l3.214-0.344L84.306,179.65z M83.513,172.266l-3.214,0.346l-0.575-5.356l3.214-0.345L83.513,172.266z"/>
	</g>
	<circle fill="#FFFFFF" cx="104.541" cy="203.946" r="9.312"/>
</g>
<g>
	<path fill="#FCDAC6" d="M304.611,242.791c0,0-18.327,21.34-49.324,8.156c-30.99-13.184-45.326-34.117-69.207-41.188
		c-23.878-7.074-8.485-39.846,12.902-31.064c21.389,8.779,33.322,16.245,33.322,16.245s-90.492-50.208-99.449-69.697
		c-4.339-9.445,3.873-25.347,18.174-20.501c14.303,4.847,82.624,50.473,82.624,50.473s-10.19-24.501,19.612-25.878
		c0,0-6.492-23.375,20.168-21.865c26.658,1.51,81.228,51.26,81.999,72.694C356.201,201.602,304.611,242.791,304.611,242.791z"/>
	<path fill="#FCDAC6" d="M293.17,238.914l56.53,32.299c0,0,47.797-23.219,50.514-47.041l-54.119-40.54l-52.952,53.104"/>
	<path fill="#EBCDBA" d="M148.524,132.083l13.19-17.087c0,0-13.23-12.902-21.648-2.745
		C131.648,122.41,148.524,132.083,148.524,132.083z"/>
	<path fill="#EBCDBA" d="M177.979,201.131c0,0,1.68-8.236,6.322-12.148c4.642-3.91,14.371,9.225,14.371,9.225l-5.244,9.449
		C193.428,207.656,180.21,205.46,177.979,201.131z"/>
	<path fill="#C9C14A" d="M321.724,257.859c0,0,39.421-36.512,40.433-62.83l46.297,31.254c0,0-2.37,38.23-40.328,57.639
		L321.724,257.859z"/>
	<path fill="#B3AC43" d="M318.184,257.357c0,0,37.428-22.705,43.759-65.843l17.74,12.011c0,0-2.943,45.941-43.576,65.717
		L318.184,257.357z"/>
</g>
</svg>
