<?xml version="1.0" encoding="utf-8"?>
<!-- Generator: Adobe Illustrator 15.0.2, SVG Export Plug-In . SVG Version: 6.00 Build 0)  -->
<!DOCTYPE svg PUBLIC "-//W3C//DTD SVG 1.1//EN" "http://www.w3.org/Graphics/SVG/1.1/DTD/svg11.dtd">
<svg version="1.1" id="Ebene_1" xmlns="http://www.w3.org/2000/svg" xmlns:xlink="http://www.w3.org/1999/xlink" x="0px" y="0px"
	 width="440px" height="290px" viewBox="0 0 440 290" enable-background="new 0 0 440 290" xml:space="preserve">
<g>
	<g>
		
			<rect x="253.554" y="55.339" transform="matrix(0.9909 0.1346 -0.1346 0.9909 23.0201 -43.6286)" fill="#E7E7E7" width="160.993" height="186.062"/>
		<polygon fill="#3F3F41" points="240.416,230.605 404.661,235.551 402.11,254.316 240.184,232.311 		"/>
		<polygon fill="#95755C" points="422.289,105.83 257.363,105.904 268.916,20.896 430.841,42.902 		"/>
		<path fill="#E7E7E7" d="M403.534,257.604l-165.601-22.506l29.407-216.384l165.601,22.505L403.534,257.604z M242.324,231.76
			l157.869,21.453l28.357-208.655l-157.87-21.454L242.324,231.76z"/>
		<g>
			<path fill="#3F3F41" d="M285.409,171.6l1.529-11.254l2.993,0.407c1.116,0.151,1.838,0.304,2.167,0.458
				c0.523,0.249,0.924,0.682,1.203,1.298s0.356,1.372,0.234,2.268c-0.11,0.813-0.356,1.476-0.739,1.983
				c-0.381,0.508-0.817,0.843-1.309,1.002c-0.49,0.16-1.298,0.164-2.424,0.012l-1.221-0.166l-0.577,4.244L285.409,171.6z
				 M288.537,162.502l-0.435,3.201l1.03,0.141c0.693,0.094,1.169,0.109,1.432,0.045s0.49-0.211,0.683-0.443
				c0.195-0.232,0.316-0.533,0.366-0.902c0.052-0.375,0.012-0.701-0.117-0.98c-0.129-0.278-0.309-0.479-0.538-0.598
				c-0.229-0.121-0.733-0.233-1.513-0.34L288.537,162.502z"/>
			<path fill="#3F3F41" d="M301.391,173.771l-2.02-0.273l-0.461-2.659l-3.694-0.503l-1.109,2.445l-1.981-0.269l5.124-10.766
				l1.973,0.269L301.391,173.771z M298.568,168.854l-0.707-4.35l-1.817,4.006L298.568,168.854z"/>
			<path fill="#3F3F41" d="M303.88,162.648l1.858,0.252l-0.828,6.096c-0.129,0.947-0.19,1.566-0.184,1.859
				c0.015,0.508,0.159,0.918,0.432,1.232c0.274,0.312,0.666,0.504,1.174,0.572c0.43,0.059,0.795,0.011,1.093-0.145
				c0.297-0.154,0.52-0.396,0.666-0.723c0.146-0.326,0.295-1.05,0.447-2.171l0.846-6.226l1.858,0.252l-0.804,5.912
				c-0.205,1.509-0.433,2.59-0.687,3.24c-0.253,0.65-0.69,1.146-1.312,1.487s-1.396,0.447-2.323,0.321
				c-0.962-0.131-1.688-0.404-2.182-0.824c-0.493-0.418-0.819-0.958-0.977-1.618c-0.157-0.659-0.123-1.831,0.106-3.516
				L303.88,162.648z"/>
			<path fill="#3F3F41" d="M311.724,175.176l1.517-11.162l1.857,0.253l-1.258,9.259l4.638,0.629l-0.259,1.904L311.724,175.176z"/>
			<path fill="#3F3F41" d="M329.383,173.361l1.709,0.944c-0.452,1.221-1.046,2.077-1.78,2.569c-0.733,0.491-1.579,0.672-2.536,0.542
				c-1.203-0.163-2.114-0.759-2.735-1.786c-0.715-1.188-0.948-2.689-0.701-4.506c0.261-1.919,0.897-3.361,1.91-4.329
				c0.881-0.84,1.957-1.173,3.228-1.001c1.035,0.141,1.853,0.611,2.452,1.413c0.431,0.569,0.692,1.363,0.788,2.382l-1.915,0.287
				c-0.035-0.625-0.206-1.123-0.513-1.496c-0.308-0.373-0.699-0.592-1.176-0.656c-0.684-0.094-1.28,0.128-1.79,0.663
				c-0.512,0.535-0.859,1.485-1.046,2.853c-0.192,1.418-0.119,2.455,0.219,3.109c0.338,0.656,0.842,1.029,1.512,1.121
				c0.492,0.066,0.943-0.066,1.353-0.398C328.771,174.74,329.11,174.17,329.383,173.361z"/>
			<path fill="#3F3F41" d="M340.543,179.092l-2.02-0.273l-0.462-2.658l-3.694-0.503l-1.109,2.445l-1.98-0.269l5.123-10.766
				l1.973,0.268L340.543,179.092z M337.721,174.174l-0.707-4.349l-1.817,4.006L337.721,174.174z"/>
			<path fill="#3F3F41" d="M341.525,179.227l1.529-11.254l3.923,0.533c1.003,0.136,1.706,0.334,2.108,0.595s0.708,0.659,0.916,1.195
				c0.209,0.537,0.266,1.153,0.171,1.849c-0.119,0.881-0.427,1.561-0.922,2.041c-0.496,0.48-1.142,0.736-1.938,0.769
				c0.36,0.341,0.648,0.699,0.863,1.075c0.214,0.375,0.487,1.035,0.817,1.976l0.823,2.349l-2.223-0.303l-1.016-2.632
				c-0.364-0.951-0.619-1.55-0.764-1.796c-0.144-0.247-0.307-0.426-0.49-0.536c-0.183-0.11-0.488-0.195-0.919-0.254l-0.383-0.052
				l-0.639,4.697L341.525,179.227z M344.267,172.984l1.382,0.188c0.844,0.115,1.387,0.15,1.627,0.107
				c0.24-0.042,0.447-0.166,0.621-0.373c0.174-0.205,0.286-0.494,0.337-0.869c0.048-0.357,0.017-0.654-0.098-0.893
				c-0.113-0.236-0.287-0.412-0.522-0.527c-0.166-0.08-0.667-0.178-1.501-0.291l-1.458-0.197L344.267,172.984z"/>
			<path fill="#3F3F41" d="M352.902,180.772l1.271-9.351l-2.74-0.372l0.259-1.903l7.331,0.996l-0.259,1.904l-2.732-0.372
				l-1.271,9.351L352.902,180.772z"/>
			<path fill="#3F3F41" d="M358.706,181.561l1.529-11.254l6.847,0.932l-0.259,1.902l-4.989-0.678l-0.339,2.495l4.637,0.63
				l-0.258,1.896l-4.637-0.631l-0.415,3.057l5.159,0.701l-0.259,1.904L358.706,181.561z"/>
			<path fill="#3F3F41" d="M367.304,182.73l1.529-11.255l3.923,0.533c1.002,0.136,1.706,0.335,2.108,0.595
				c0.402,0.262,0.707,0.66,0.917,1.195c0.207,0.537,0.265,1.154,0.17,1.85c-0.119,0.88-0.427,1.561-0.922,2.041
				c-0.496,0.479-1.143,0.735-1.938,0.768c0.36,0.342,0.648,0.699,0.862,1.076c0.215,0.375,0.487,1.033,0.817,1.975l0.824,2.348
				l-2.223-0.301l-1.017-2.633c-0.364-0.951-0.619-1.551-0.763-1.797c-0.145-0.246-0.308-0.424-0.49-0.535s-0.488-0.195-0.919-0.254
				l-0.384-0.052l-0.639,4.698L367.304,182.73z M370.044,176.487l1.382,0.188c0.844,0.113,1.387,0.15,1.627,0.107
				s0.447-0.168,0.622-0.373c0.173-0.206,0.286-0.495,0.337-0.869c0.049-0.357,0.016-0.656-0.098-0.893
				c-0.114-0.237-0.288-0.413-0.523-0.528c-0.166-0.08-0.666-0.177-1.5-0.29l-1.459-0.198L370.044,176.487z"/>
		</g>
		<g>
			<path fill="#C6E4E1" d="M381.558,114.438c0.023-0.42,0.045-0.841,0.06-1.261c-0.005-0.373-0.014-0.828-0.024-1.052
				c-0.065-1.146-0.14-2.295-0.307-3.434c-0.239-1.615-0.675-3.179-1.046-4.767c-0.142-0.62-0.271-1.239-0.397-1.861
				c-0.916-2.049-1.992-4.071-2.552-6.245c-1.702-1.144-3.076-2.754-3.8-4.772c-0.246-0.678-0.499-1.347-0.834-1.987
				c-0.057-0.086-0.126-0.186-0.206-0.312c-0.854-1.288-1.765-2.54-2.576-3.855c-0.402-0.652-0.795-1.322-1.272-1.922
				c-0.235-0.295-0.948-1.004-1.071-1.148c-0.844-0.731-1.715-1.428-2.607-2.106c-0.639-0.486-1.267-0.994-1.942-1.43
				c-0.181-0.119-0.317-0.208-0.426-0.282c-0.001,0-0.003-0.001-0.006-0.001c-2.054-1.146-4.132-2.273-6.104-3.549
				c-0.702-0.455-1.382-0.943-2.077-1.411c-0.324-0.221-1.664-0.951-1.458-0.862c-0.247-0.12-0.496-0.229-0.747-0.33
				c-0.033-0.007-0.06-0.012-0.097-0.019c-0.835-0.147-1.638-0.379-2.397-0.685c-1.11,0.208-2.264,0.253-3.43,0.108
				c-1.109-0.138-2.224-0.257-3.338-0.319c-0.035,0.039-2.671,0.082-3.199,0.132c-2.877,0.275-5.746,0.694-8.613,1.062
				c-0.85,0.111-1.707,0.208-2.552,0.387c-0.057,0.013-0.108,0.026-0.157,0.037c-1.802,0.573-3.629,1.062-5.461,1.535
				c-0.492,0.128-3.127,0.836-3.029,0.785c-0.956,0.296-1.896,0.621-2.827,0.999c-0.42,0.167-0.846,0.299-1.274,0.414
				c-1.347,2.105-3.395,3.708-5.751,4.53c-0.682,2.241-2.074,4.159-3.88,5.535c-0.881,1.908-2.298,3.507-4.025,4.639
				c-0.007,0.075-0.01,0.148-0.02,0.222c-0.389,2.854-1.893,5.321-4.006,7.03c0.019,0.579-0.009,1.167-0.09,1.758
				c-0.197,1.446-0.688,2.788-1.393,3.988c0.364,1.35,0.473,2.782,0.274,4.235c-0.183,1.351-0.62,2.614-1.247,3.75
				c0.59,1.616,0.814,3.382,0.57,5.181c-0.008,0.05-0.02,0.099-0.029,0.149c1.081,1.984,1.572,4.302,1.25,6.672
				c-0.031,0.235-0.072,0.464-0.123,0.692c1.504,1.888,2.404,4.255,2.429,6.75c1.864,1.666,3.152,3.945,3.577,6.445
				c5.316,2.729,8.987,8.008,13.831,11.451c0.365,0.22,0.953,0.577,1.192,0.682c0.769,0.347,1.545,0.68,2.327,1.002
				c1.599,0.661,3.173,1.388,4.781,2.018c0.8,0.311,1.598,0.626,2.411,0.896c0.26,0.086,1.039,0.291,1.442,0.402
				c1.093,0.238,2.19,0.449,3.304,0.611c0.712,0.104,1.402,0.279,2.061,0.509c1.195-0.215,2.447-0.257,3.81-0.247
				c2.007,0.009,3.876,0.474,5.796,0.879c1.402-0.813,2.984-1.323,4.641-1.457c1.879-1.344,4.17-2.109,6.569-2.072
				c1.583-1.182,3.479-1.945,5.491-2.15c1.543-3.264,4.659-5.612,8.221-6.21c0.677-3.006,2.608-5.504,5.148-7.017
				c0.418-1.779,1.271-3.377,2.43-4.697c0.372-2.181,1.396-4.116,2.841-5.645c0.013-0.333,0.039-0.669,0.084-1.003
				c0.077-0.564,0.198-1.112,0.358-1.642c-0.01-1.455,0.234-2.94,0.75-4.378c0.033-0.088,0.066-0.193,0.097-0.304
				c0.096-0.446,0.182-0.896,0.251-1.351C381.338,116.91,381.488,115.679,381.558,114.438z"/>
			<g>
				
					<rect x="331.609" y="128.974" transform="matrix(0.9909 0.1345 -0.1345 0.9909 20.9675 -43.9807)" fill-rule="evenodd" clip-rule="evenodd" fill="#E6BAA0" width="8.576" height="8.348"/>
				<path fill-rule="evenodd" clip-rule="evenodd" fill="#AA605A" d="M323.962,92.966c0,0,12.779-13.457,25.608-6.388
					c12.83,7.069,12.515,18.437,4.138,28.338L323.962,92.966z"/>
				<path fill-rule="evenodd" clip-rule="evenodd" fill="#7B4540" d="M325.625,95.569c0,0-11.565-11.411-1.96-13.709
					c9.609-2.297,22.836,1.677,23.169,20.748L325.625,95.569z"/>
				<path fill="#FACAAD" d="M319.389,101.039c0,0,0.587,5.569-1.105,9.375c-1.693,3.805,3.049,20.51,12.738,22.259
					c0,0,13.357,2.109,20.139-10.69c0,0,4.061,1.035,5.209-4.941c1.148-5.979-3.688-5.021-3.688-5.021
					S345.921,77.689,319.389,101.039z"/>
				<g>
					<path fill-rule="evenodd" clip-rule="evenodd" fill="#554132" d="M325.218,109.819c-0.167,1.231-0.809,2.162-1.435,2.076
						c-0.627-0.085-0.998-1.152-0.83-2.385c0.166-1.229,0.81-2.158,1.436-2.074C325.015,107.522,325.385,108.589,325.218,109.819z"
						/>
				</g>
				<g>
					
						<ellipse transform="matrix(0.9909 0.1347 -0.1347 0.9909 18.1372 -44.3327)" fill-rule="evenodd" clip-rule="evenodd" fill="#554132" cx="336.772" cy="111.902" rx="1.22" ry="2.401"/>
				</g>
				<path fill-rule="evenodd" clip-rule="evenodd" fill="#3F3F41" d="M349.328,102.894l-34.691,0.586l5.508-6.213l-4.236,0.828
					c0,0,4.775-13.246,19.303-9.714C349.737,91.913,349.328,102.894,349.328,102.894z"/>
				<path fill-rule="evenodd" clip-rule="evenodd" fill="#3F3F41" d="M346.256,99.621c0,0,4.246,9.538,0.638,19.176l4.072-0.096
					l1.715-6.68c0,0,1.133-0.303,2.606,0.451C355.287,112.471,356.2,100.063,346.256,99.621z"/>
				<path fill-rule="evenodd" clip-rule="evenodd" fill="#E6BAA0" d="M355.204,114.418c0,0-2.378-1.253-3.187,2.323
					c0,0,1.874,0.981-0.239,2.553c0,0,1.288,1.621,2.479-0.283C355.448,117.105,356.014,115.595,355.204,114.418z"/>
				<path fill-rule="evenodd" clip-rule="evenodd" fill="#E6BAA0" d="M327.76,112.491c0,0-3.576,3.261-3.289,6.802
					c0.284,3.539,5.952,1.852,5.952,1.852s-4.252,0.222-4.534-2.396C325.604,116.128,327.76,112.491,327.76,112.491z"/>
				<path fill-rule="evenodd" clip-rule="evenodd" fill="#A98B78" d="M326.465,124.848c0,0,7.387,3.522,13.687-2.811l0.651,2.73
					l-1.062-1.126C339.74,123.641,332.671,130.482,326.465,124.848z"/>
				<path fill-rule="evenodd" clip-rule="evenodd" fill="#2C2C2D" d="M320.378,105.632c0,0,3.45-3.176,6.071,0.97
					c0,0-0.066-3.207-2.701-3.565C321.115,102.679,320.378,105.632,320.378,105.632z"/>
				<path fill-rule="evenodd" clip-rule="evenodd" fill="#3F3F41" d="M341.296,108.296c0,0-2.603-4.335-6.463-0.72
					c0,0,0.984-3.322,3.769-2.943C341.387,105.012,341.296,108.296,341.296,108.296z"/>
				<path fill-rule="evenodd" clip-rule="evenodd" fill="#2C2C2D" d="M348.354,100.548c0,0-4.937-15.33-22.21-11.189l6.531,0.975
					l-7.078,3.25l11.151-0.077l-7.337,2.532l12.861,1.294L328.399,100l18.929,2.002c0,0,2.686,3.782,2.376,6.925l1.634-3.306
					l2.935,4.786C354.272,110.407,353.88,101.553,348.354,100.548z"/>
				<path fill-rule="evenodd" clip-rule="evenodd" fill="#B19B74" d="M331.328,134.919l-12.532,1.258l-5.482,6.332
					c0,0,18.035,21.917,44.909,7.013l-4.329-8.575l-14.098-4.65C339.796,136.297,335.205,139.545,331.328,134.919z"/>
				<path fill-rule="evenodd" clip-rule="evenodd" fill="#8B7A5B" d="M353.894,140.947c0,0-3.577,1.972-4.611,12.218
					c0,0,3.468-0.243,8.94-3.644L353.894,140.947z"/>
				<polygon fill-rule="evenodd" clip-rule="evenodd" fill="#8B7A5B" points="318.796,136.177 315.988,145.062 313.313,142.509 				
					"/>
				<path fill="#8B7A5B" d="M334.954,138.604c-0.31-0.042-0.611-0.105-0.911-0.192c-2.782-0.81-3.996-3.292-4.046-3.396l1.8-0.782
					l-0.901,0.39l0.899-0.395c0.01,0.019,0.91,1.814,2.824,2.361c1.457,0.419,3.187,0.03,5.133-1.151l1.072,1.616
					C338.724,138.331,336.756,138.85,334.954,138.604z"/>
			</g>
			<path fill="#FFFFFF" d="M344.194,73.717c21.762,2.958,37.062,23.068,34.104,44.831c-2.958,21.763-23.07,37.063-44.832,34.107
				c-21.763-2.958-37.061-23.072-34.104-44.833C302.321,86.057,322.431,70.759,344.194,73.717 M344.719,69.853
				c-23.931-3.251-45.966,13.511-49.218,37.442c-3.253,23.932,13.51,45.968,37.44,49.221c23.934,3.251,45.971-13.512,49.222-37.444
				C385.416,95.143,368.652,73.106,344.719,69.853L344.719,69.853z"/>
		</g>
		<g>
			<path fill="#AAAFB2" d="M329.489,199.736L329.489,199.736l1.386-10.193l0.212-1.553l0.487-3.588l-10.721-0.336l-0.605,4.461
				l-0.093,0.68l-1.216,8.943c-0.426-0.139-0.895-0.197-1.384-0.15c-1.68,0.16-2.932,1.461-2.796,2.91
				c0.137,1.449,1.608,2.496,3.289,2.336c1.589-0.148,2.791-1.322,2.804-2.676h0.001l1.534-11.293l6.254,0.195l-1.066,7.846
				c-0.427-0.141-0.896-0.199-1.384-0.154c-1.68,0.16-2.933,1.461-2.797,2.912c0.138,1.447,1.609,2.494,3.289,2.336
				C328.273,202.264,329.477,201.088,329.489,199.736z"/>
			<path fill="#AAAFB2" d="M334.938,202.307l3.664,2.41l0.699-5.137l-5.724-3.768l-0.369,2.713l-0.329,2.426l-0.979,7.197
				c-0.426-0.139-0.895-0.195-1.385-0.15c-1.68,0.158-2.931,1.463-2.795,2.91c0.136,1.449,1.609,2.494,3.289,2.338
				c1.588-0.15,2.79-1.322,2.803-2.676h0.002L334.938,202.307z"/>
		</g>
	</g>
	<g>
		
			<rect x="25.995" y="55.346" transform="matrix(0.9915 -0.1302 0.1302 0.9915 -18.4083 15.1248)" fill="#E7E7E7" width="160.995" height="186.061"/>
		<polygon fill="#3F3F41" points="37.728,252.305 197.512,213.963 199.977,232.742 37.952,254.014 		"/>
		<polygon fill="#C6E4E1" points="180.471,84.165 21.347,127.529 10.181,42.471 172.204,21.199 		"/>
		<path fill="#E7E7E7" d="M202.214,235.539L36.515,257.293L8.09,40.777l165.699-21.753L202.214,235.539z M39.872,252.92
			l157.968-20.738L170.43,23.398L12.462,44.137L39.872,252.92z"/>
		<g>
			<path fill="#3F3F41" d="M68.426,183.195l-1.479-11.26l1.857-0.244l0.658,5.012l3.117-5.508l2.513-0.33l-2.905,4.846l4.568,6.391
				l-2.413,0.318l-3.243-4.959l-1.264,2.088l0.447,3.402L68.426,183.195z"/>
			<path fill="#3F3F41" d="M86.046,180.883l-2.021,0.266l-1.144-2.445l-3.697,0.485l-0.428,2.651l-1.982,0.26l2.118-11.732
				l1.974-0.26L86.046,180.883z M82.031,176.878l-1.824-4.011l-0.702,4.342L82.031,176.878z"/>
			<path fill="#3F3F41" d="M88.158,180.605l-1.229-9.357l-2.742,0.361l-0.25-1.904l7.336-0.963l0.25,1.904l-2.734,0.358l1.229,9.356
				L88.158,180.605z"/>
			<path fill="#3F3F41" d="M93.966,179.843l-1.479-11.261l6.852-0.899l0.25,1.904l-4.992,0.655l0.328,2.497l4.639-0.608l0.249,1.896
				l-4.639,0.609l0.401,3.058l5.162-0.678l0.25,1.904L93.966,179.843z"/>
			<path fill="#3F3F41" d="M106.125,178.246l-1.479-11.26l2.788-0.367l2.688,7.469l0.656-7.907l2.801-0.368l1.479,11.262
				l-1.736,0.228l-1.165-8.872l-0.676,9.113l-1.793,0.236l-2.992-8.633l1.165,8.872L106.125,178.246z"/>
			<path fill="#3F3F41" d="M116.84,176.84l-1.479-11.261l1.859-0.244l1.479,11.261L116.84,176.84z"/>
			<path fill="#3F3F41" d="M120.535,176.355l-1.467-11.17l1.859-0.244l1.217,9.266l4.64-0.609l0.25,1.904L120.535,176.355z"/>
			<path fill="#3F3F41" d="M128.416,175.32l-1.467-11.17l1.858-0.243l1.217,9.265l4.641-0.609l0.25,1.904L128.416,175.32z"/>
			<path fill="#3F3F41" d="M136.252,174.291l-1.479-11.26l6.852-0.9l0.25,1.904l-4.993,0.656l0.328,2.496l4.64-0.609l0.249,1.898
				l-4.64,0.609l0.401,3.057l5.162-0.678l0.25,1.904L136.252,174.291z"/>
			<path fill="#3F3F41" d="M144.854,173.162l-1.479-11.262l3.926-0.515c1.003-0.132,1.733-0.126,2.19,0.021
				c0.456,0.146,0.855,0.449,1.197,0.914c0.342,0.463,0.56,1.041,0.65,1.738c0.116,0.881-0.002,1.618-0.354,2.212
				c-0.352,0.593-0.908,1.009-1.668,1.25c0.438,0.233,0.809,0.504,1.115,0.811c0.305,0.306,0.741,0.871,1.307,1.692l1.411,2.049
				l-2.224,0.293l-1.672-2.274c-0.602-0.822-1.004-1.333-1.208-1.532c-0.203-0.199-0.407-0.33-0.613-0.389
				c-0.205-0.059-0.522-0.061-0.954-0.004l-0.383,0.051l0.617,4.701L144.854,173.162z M145.86,166.42l1.383-0.182
				c0.844-0.111,1.378-0.22,1.599-0.324c0.22-0.104,0.388-0.278,0.502-0.523c0.113-0.242,0.146-0.552,0.097-0.926
				c-0.047-0.358-0.157-0.637-0.328-0.836c-0.173-0.199-0.387-0.323-0.644-0.373c-0.182-0.033-0.689,0.004-1.524,0.113l-1.459,0.192
				L145.86,166.42z"/>
		</g>
		<g>
			<path fill="#C9C14A" d="M143.429,103.164c-0.091-0.411-0.18-0.823-0.274-1.232c-0.104-0.357-0.23-0.795-0.3-1.008
				c-0.364-1.089-0.737-2.179-1.196-3.233c-0.655-1.495-1.486-2.891-2.261-4.326c-0.302-0.561-0.588-1.124-0.873-1.691
				c-1.421-1.736-2.993-3.405-4.101-5.355c-1.942-0.656-3.691-1.85-4.92-3.608c-0.414-0.59-0.836-1.168-1.325-1.699
				c-0.078-0.067-0.171-0.147-0.283-0.246c-1.161-1.02-2.369-1.989-3.497-3.044c-0.559-0.525-1.113-1.068-1.732-1.521
				c-0.308-0.223-1.181-0.721-1.333-0.827c-1.009-0.484-2.032-0.927-3.069-1.347c-0.746-0.302-1.483-0.627-2.25-0.872
				c-0.205-0.066-0.36-0.116-0.484-0.16c-0.003,0.001-0.004,0-0.006,0c-2.283-0.566-4.585-1.109-6.823-1.822
				c-0.798-0.255-1.579-0.548-2.374-0.817c-0.372-0.127-1.854-0.48-1.634-0.448c-0.269-0.051-0.536-0.091-0.808-0.122
				c-0.035,0.001-0.061,0.003-0.096,0.006c-0.846,0.078-1.682,0.064-2.496-0.031c-1.015,0.492-2.116,0.838-3.281,1.003
				c-1.105,0.159-2.211,0.336-3.307,0.569c-0.021,0.046-2.553,0.779-3.051,0.967c-2.701,1.02-5.361,2.177-8.029,3.286
				c-0.793,0.331-1.597,0.65-2.361,1.043c-0.051,0.026-0.098,0.053-0.145,0.076c-1.587,1.026-3.221,1.978-4.866,2.915
				c-0.44,0.252-2.798,1.627-2.717,1.552c-0.845,0.538-1.665,1.097-2.464,1.706c-0.362,0.271-0.738,0.511-1.122,0.734
				c-0.749,2.385-2.302,4.469-4.358,5.881c-0.073,2.342-0.912,4.558-2.293,6.359c-0.35,2.073-1.296,3.987-2.666,5.534
				c0.012,0.073,0.029,0.146,0.039,0.219c0.374,2.855-0.428,5.63-2.02,7.834c0.169,0.554,0.295,1.13,0.373,1.721
				c0.189,1.447,0.067,2.871-0.295,4.215c0.705,1.206,1.185,2.56,1.375,4.014c0.177,1.351,0.088,2.684-0.219,3.945
				c0.994,1.404,1.676,3.049,1.911,4.85c0.007,0.051,0.007,0.101,0.012,0.151c1.563,1.632,2.646,3.739,2.957,6.11
				c0.03,0.236,0.05,0.467,0.063,0.701c1.947,1.428,3.436,3.475,4.117,5.876c2.232,1.118,4.075,2.98,5.141,5.281
				c5.848,1.236,10.775,5.368,16.354,7.418c0.409,0.117,1.07,0.307,1.326,0.346c0.836,0.131,1.673,0.249,2.51,0.355
				c1.717,0.217,3.428,0.507,5.146,0.69c0.853,0.091,1.707,0.187,2.562,0.231c0.273,0.016,1.077,0.01,1.497,0.012
				c1.117-0.057,2.23-0.144,3.348-0.279c0.715-0.088,1.423-0.1,2.122-0.049c1.097-0.521,2.294-0.89,3.611-1.238
				c1.938-0.52,3.863-0.561,5.823-0.674c1.139-1.154,2.532-2.061,4.095-2.625c1.46-1.79,3.471-3.129,5.795-3.723
				c1.219-1.555,2.846-2.792,4.732-3.517c0.633-3.555,3.023-6.638,6.303-8.149c-0.135-3.08,1.074-5.996,3.128-8.124
				c-0.065-1.826,0.339-3.593,1.112-5.17c-0.215-2.201,0.266-4.338,1.26-6.193c-0.075-0.325-0.14-0.655-0.184-0.99
				c-0.073-0.564-0.102-1.125-0.086-1.678c-0.389-1.403-0.546-2.898-0.425-4.422c0.006-0.094,0.012-0.204,0.013-0.318
				c-0.025-0.457-0.062-0.913-0.112-1.37C143.866,105.605,143.688,104.378,143.429,103.164z"/>
			<g>
				<path fill-rule="evenodd" clip-rule="evenodd" fill="#483729" d="M100.167,91.519c-1.216,4.48-5.565,8.208-11.038,8.927
					c-2.158,0.284-9.495,0.437-11.403-0.172c2.748,8.567,10.384,22.351-1.904,26.118c0,0,5.909,11.928,21.057,9.023
					C108.056,133.271,110.701,102.207,100.167,91.519z"/>
				<polygon fill-rule="evenodd" clip-rule="evenodd" fill="#A27E64" points="109.143,136.547 102.27,137.45 101.224,129.482 
					107.198,128.699 				"/>
				<path fill="#BA9173" d="M79.445,101.639c0,0,5.605,7.266,4.941,11.893c-0.662,4.626-4.495,14.131,10.209,20.528
					c0,0,15.956-0.844,22.928-16.885c0,0,4.53-0.052,3.996-6.882c-0.532-6.832-5.297-4.392-5.297-4.392
					S100.345,68.567,79.445,101.639z"/>
				<path fill-rule="evenodd" clip-rule="evenodd" fill="#483729" d="M90.093,105.375c0,0-4.146-4.34-7.288,0.323
					C82.805,105.698,84.396,103.74,90.093,105.375z"/>
				<g>
					
						<ellipse transform="matrix(0.9915 -0.1304 0.1304 0.9915 -13.7155 12.338)" fill-rule="evenodd" clip-rule="evenodd" fill="#554132" cx="87.322" cy="110.864" rx="1.237" ry="2.533"/>
				</g>
				<g>
					
						<ellipse transform="matrix(0.9915 -0.1303 0.1303 0.9915 -13.3828 14.0545)" fill-rule="evenodd" clip-rule="evenodd" fill="#554132" cx="100.694" cy="109.281" rx="1.319" ry="2.7"/>
				</g>
				<path fill-rule="evenodd" clip-rule="evenodd" fill="#AA605A" d="M90.87,125.675c0,0,0.385-2.923,3.202-0.42
					c0,0-0.04-2.455,5.038-0.977C99.11,124.278,95.141,130.475,90.87,125.675z"/>
				<path fill-rule="evenodd" clip-rule="evenodd" fill="#554132" d="M103.141,93.243c0,0-17.067,17.971-27.953,11.297
					c0,0-0.836-26.346,27.747-18.3L103.141,93.243z"/>
				<path fill-rule="evenodd" clip-rule="evenodd" fill="#554132" d="M101.346,92.288c0,0,16.926,28.802,3.282,38.341
					c0,0,6.761,7.291,18.796,0.943c12.037-6.346,3.956-59.745-22.685-44.807L101.346,92.288z"/>
				<path fill-rule="evenodd" clip-rule="evenodd" fill="#A27E64" d="M90.814,116.353c0,0-1.335,4.76,4.139,4.237
					C94.953,120.589,91.538,120.413,90.814,116.353z"/>
				<path fill-rule="evenodd" clip-rule="evenodd" fill="#483729" d="M102.823,91.735c0,0,6.778,6.26,10.741,19.205
					c0,0,2.558-8.676-6.081-19.102c0,0,8.206-0.125,12.321,6.724c0,0-3.146-11.266-13.461-10.864c0,0,2.111-2.067,5.524-2.395
					c0,0-4.61-1.539-9.583,2.331L102.823,91.735z"/>
				<path fill-rule="evenodd" clip-rule="evenodd" fill="#483729" d="M103.352,87.753c0,0-8.931-3.733-18.973,0.563
					c0,0,6.208-0.815,10.908,0.478c0,0-8.778,0.316-15.617,8.125c0,0,12.271-1.847,18.43-5.756c0,0-4.025,5.653-11.628,8.558
					c0,0,10.322,0.553,17.194-8.811L103.352,87.753z"/>
				<path fill-rule="evenodd" clip-rule="evenodd" fill="#AA605A" d="M91.322,125.615c0,0,7.821-0.029,9.959-2.814
					c0,0-2.29,5.267-5.936,5.627C91.697,128.789,91.35,127.355,91.322,125.615z"/>
				<path fill-rule="evenodd" clip-rule="evenodd" fill="#554132" d="M86.756,110.052c0,0-2.373,0.072-1.933-2.011
					c0,0,0.755,1.21,2.013,0.809L86.756,110.052z"/>
				<path fill-rule="evenodd" clip-rule="evenodd" fill="#554132" d="M101.438,108.431c0,0,2.415-0.555,1.42-2.45
					c0,0-0.441,1.369-1.816,1.312L101.438,108.431z"/>
				<path fill-rule="evenodd" clip-rule="evenodd" fill="#554132" d="M96.793,104.662c0,0,2.884-5.263,7.123-1.569
					C103.916,103.093,101.873,101.613,96.793,104.662z"/>
				<path fill-rule="evenodd" clip-rule="evenodd" fill="#A27E64" d="M102.974,135.567c0,0-12.505,10.938,2.809,13.218
					c15.315,2.279,9.812-13.324,2.2-14.113C100.372,133.885,102.974,135.567,102.974,135.567z"/>
				<path fill-rule="evenodd" clip-rule="evenodd" fill="#BD989D" d="M108.582,134.712c0,0,10.939,2.818,16.754,11.708
					c0,0-15.138,18.748-33.957,4.297c0,0,3.226-10.832,10.854-14.455c0,0-3.654,8.464,4.411,7.287
					C114.713,142.369,108.582,134.712,108.582,134.712z"/>
				<path fill-rule="evenodd" clip-rule="evenodd" fill="#7F6569" d="M102.233,136.262c0,0-3.38,6.798,3.844,6.446
					c7.222-0.353,2.505-7.996,2.505-7.996l1.756,0.367c0,0,6.072,9.332-3.36,10.092C97.545,145.935,98.842,137.661,102.233,136.262z
					"/>
			</g>
			<path fill="#FFFFFF" d="M96.686,73.679c21.775-2.859,41.818,12.529,44.677,34.306c2.858,21.774-12.532,41.818-34.307,44.678
				c-21.776,2.859-41.818-12.534-44.678-34.308C59.52,96.578,74.909,76.537,96.686,73.679 M96.179,69.813
				c-23.948,3.144-40.811,25.103-37.667,49.049c3.145,23.946,25.104,40.809,49.052,37.666c23.945-3.145,40.808-25.104,37.664-49.05
				S120.125,66.669,96.179,69.813L96.179,69.813z"/>
		</g>
		<polygon fill="#AAAFB2" points="111.167,183.969 115.799,193.693 126.477,192.291 118.662,199.703 123.297,209.424 
			113.833,204.281 106.017,211.691 107.985,201.104 98.521,195.961 109.201,194.559 		"/>
	</g>
	<g>
		<g>
			<rect x="131.881" y="67.943" fill="#F5F5F5" width="176.826" height="204.358"/>
			<polygon fill="#3F3F41" points="130.552,273.471 310.038,254.557 310.038,275.361 130.552,275.361 			"/>
			<polygon fill="#EC6146" points="310.038,110.771 130.552,135.246 130.552,41.021 310.038,41.021 			"/>
			<path fill="#F5F5F5" d="M312.072,278.727H128.517V38.878h183.556V278.727z M132.799,274.443h174.99V43.162h-174.99V274.443z"/>
			<g>
				<path fill="#3F3F41" d="M180.973,190.123h2.06v7.896c0,1.277-0.128,2.227-0.383,2.852c-0.256,0.623-0.637,1.104-1.145,1.438
					s-1.133,0.502-1.876,0.502c-0.981,0-1.75-0.338-2.307-1.012c-0.556-0.676-0.837-1.693-0.842-3.055l1.948-0.273
					c0.022,0.732,0.116,1.252,0.282,1.557c0.222,0.42,0.555,0.631,0.998,0.631c0.433,0,0.752-0.152,0.957-0.455
					c0.204-0.305,0.307-0.979,0.307-2.021V190.123z"/>
				<path fill="#3F3F41" d="M184.802,196.438c0-1.486,0.22-2.711,0.659-3.672s1.015-1.678,1.724-2.148s1.568-0.707,2.578-0.707
					c1.464,0,2.656,0.559,3.578,1.678c0.922,1.117,1.383,2.709,1.383,4.773c0,2.088-0.488,3.719-1.464,4.893
					c-0.856,1.037-2.02,1.557-3.488,1.557c-1.48,0-2.649-0.514-3.506-1.541C185.29,200.096,184.802,198.484,184.802,196.438z
					 M186.929,196.352c0,1.436,0.273,2.512,0.818,3.23c0.546,0.717,1.222,1.076,2.028,1.076c0.812,0,1.485-0.355,2.02-1.068
					c0.534-0.711,0.801-1.805,0.801-3.279c0-1.447-0.26-2.518-0.779-3.209s-1.2-1.037-2.041-1.037s-1.525,0.348-2.054,1.045
					C187.193,193.809,186.929,194.889,186.929,196.352z"/>
				<path fill="#3F3F41" d="M196.35,202.598v-12.475h2.059v4.91h4.06v-4.91h2.059v12.475h-2.059v-5.455h-4.06v5.455H196.35z"/>
				<path fill="#3F3F41" d="M206.679,202.598v-12.475h2.009l4.186,8.33v-8.33h1.924v12.475h-2.076l-4.119-8.135v8.135H206.679z"/>
				<path fill="#3F3F41" d="M220.422,198.531l2.017-0.238c0.227,1.594,0.97,2.391,2.229,2.391c0.624,0,1.115-0.164,1.473-0.488
					c0.357-0.326,0.536-0.73,0.536-1.213c0-0.283-0.062-0.525-0.188-0.723c-0.125-0.199-0.314-0.361-0.57-0.49
					c-0.255-0.127-0.873-0.34-1.854-0.641c-0.88-0.266-1.523-0.555-1.932-0.867c-0.408-0.311-0.733-0.721-0.975-1.229
					s-0.361-1.053-0.361-1.637c0-0.68,0.154-1.293,0.464-1.836c0.309-0.545,0.735-0.955,1.28-1.232
					c0.545-0.279,1.217-0.418,2.017-0.418c1.203,0,2.142,0.326,2.816,0.979c0.676,0.652,1.032,1.586,1.072,2.801l-2.067,0.109
					c-0.091-0.668-0.287-1.137-0.587-1.404c-0.301-0.266-0.729-0.398-1.285-0.398s-0.984,0.115-1.285,0.348s-0.451,0.52-0.451,0.865
					c0,0.34,0.137,0.625,0.41,0.855c0.272,0.232,0.899,0.488,1.881,0.766c1.038,0.301,1.788,0.617,2.25,0.949
					s0.814,0.76,1.059,1.285c0.244,0.523,0.365,1.16,0.365,1.91c0,1.082-0.333,1.992-0.999,2.73
					c-0.667,0.736-1.709,1.105-3.128,1.105C222.101,202.811,220.705,201.385,220.422,198.531z"/>
				<path fill="#3F3F41" d="M230.445,202.598v-12.475h3.088l1.86,8.518l1.845-8.518h3.104v12.475h-1.924v-9.828l-2.039,9.828h-1.986
					l-2.024-9.828v9.828H230.445z"/>
				<path fill="#3F3F41" d="M242.315,202.598v-12.475h2.06v12.475H242.315z"/>
				<path fill="#3F3F41" d="M248.654,202.598v-10.363h-3.037v-2.111h8.126v2.111h-3.029v10.363H248.654z"/>
				<path fill="#3F3F41" d="M255.088,202.598v-12.475h2.059v4.91h4.06v-4.91h2.059v12.475h-2.059v-5.455h-4.06v5.455H255.088z"/>
			</g>
			<g>
				<path fill="#AAAFB2" d="M226.354,211.625l-10.703,4.564c0,0.68,0.025,1.365,0.072,2.051l4.039,1.723
					c0.892-1.748,3.044-4.791,5.762-0.574l-4.46,1.131l3.877,1.652c0,0.967-0.05,1.945-0.143,2.926
					c1.824-0.678,4.204-0.174,6.908,3.742h-7.474c-0.455,2.193-1.116,4.307-1.939,6.197c1.252,1.121,2.623,1.775,4.061,1.775
					c5.912,0,10.704-10.971,10.704-20.623L226.354,211.625z M227.184,219.389c3.602-5.588,6.211,1.574,6.211,1.574L227.184,219.389z
					"/>
				<path fill="#AAAFB2" d="M220.874,233.51c-1.716,4.318-4.216,7.395-6.638,7.395c-4.09,0-8.407-8.777-8.787-17.496l8.787-3.748
					l1.701,0.727c-0.095-0.715-0.168-1.432-0.215-2.146l-1.486-0.633l-10.704,4.564c0,9.65,4.792,20.621,10.704,20.621
					c3.214,0,6.094-3.246,8.057-7.756C221.801,234.596,221.326,234.084,220.874,233.51z"/>
				<path fill="#AAAFB2" d="M222.297,228.84c-0.366,1.648-0.851,3.229-1.423,4.67c0.452,0.574,0.927,1.086,1.419,1.527
					c0.823-1.891,1.484-4.004,1.939-6.197H222.297z"/>
				<path fill="#AAAFB2" d="M223.023,223.408c-0.045,1.031-0.146,2.064-0.295,3.084c0.568-0.566,1.266-1.096,2.069-1.395
					c0.093-0.98,0.143-1.959,0.143-2.926l-3.877-1.652l-1.751,0.443c0,0,0.158-0.432,0.449-1l-4.039-1.723
					c0.047,0.715,0.12,1.432,0.215,2.146L223.023,223.408z"/>
				<path fill="#AAAFB2" d="M222.729,226.492c-0.116,0.795-0.261,1.578-0.432,2.348h1.936c0.256-1.232,0.447-2.488,0.565-3.742
					C223.994,225.396,223.297,225.926,222.729,226.492z"/>
				<path fill="#AAAFB2" d="M221.063,220.52l-1.302-0.557c-0.291,0.568-0.449,1-0.449,1L221.063,220.52z"/>
				<path fill="#AAAFB2" d="M219.588,232.084h-10.703C215.093,241.076,219.588,232.084,219.588,232.084z"/>
				<path fill="#AAAFB2" d="M207.31,227.26h6.21C213.52,227.26,210.912,221.672,207.31,227.26z"/>
				<path fill="#AAAFB2" d="M214.952,227.26h2.636c-0.244-0.684-0.47-1.385-0.672-2.104
					C216.307,225.521,215.648,226.18,214.952,227.26z"/>
				<path fill="#AAAFB2" d="M221.162,227.26c0,0-1.698-3.633-4.246-2.104c0.202,0.719,0.428,1.42,0.672,2.104H221.162z"/>
			</g>
		</g>
		<g>
			<path fill="#BD989D" d="M266.981,126.166c-0.039-0.46-0.077-0.921-0.121-1.381c-0.062-0.402-0.138-0.898-0.184-1.141
				c-0.239-1.237-0.491-2.476-0.841-3.69c-0.499-1.722-1.205-3.361-1.843-5.035c-0.248-0.652-0.48-1.307-0.709-1.964
				c-1.298-2.096-2.771-4.138-3.7-6.419c-2.021-0.993-3.755-2.542-4.842-4.632c-0.367-0.702-0.742-1.393-1.199-2.04
				c-0.077-0.085-0.166-0.185-0.273-0.308c-1.119-1.276-2.297-2.505-3.373-3.815c-0.534-0.651-1.061-1.322-1.67-1.904
				c-0.301-0.286-1.182-0.955-1.334-1.092c-1.027-0.67-2.079-1.3-3.15-1.906c-0.767-0.434-1.524-0.894-2.324-1.27
				c-0.213-0.101-0.377-0.178-0.505-0.242c-0.004,0-0.005-0.002-0.007-0.002c-2.405-0.942-4.834-1.862-7.169-2.959
				c-0.833-0.393-1.643-0.822-2.468-1.23c-0.388-0.192-1.952-0.787-1.717-0.721c-0.285-0.094-0.572-0.177-0.861-0.249
				c-0.037-0.002-0.068-0.005-0.105-0.007c-0.933-0.037-1.84-0.171-2.714-0.391c-1.175,0.391-2.425,0.612-3.716,0.626
				c-1.227,0.013-2.457,0.047-3.682,0.145c-0.031,0.047-2.893,0.485-3.461,0.618c-3.089,0.725-6.152,1.604-9.215,2.43
				c-0.91,0.247-1.83,0.479-2.721,0.799c-0.06,0.021-0.114,0.042-0.167,0.062c-1.876,0.89-3.792,1.694-5.715,2.479
				c-0.518,0.212-3.282,1.372-3.183,1.304c-0.996,0.463-1.971,0.956-2.928,1.502c-0.434,0.245-0.876,0.453-1.325,0.64
				c-1.157,2.491-3.146,4.538-5.589,5.781c-0.413,2.541-1.645,4.832-3.405,6.597c-0.677,2.206-1.98,4.157-3.694,5.644
				c0.002,0.082,0.01,0.162,0.01,0.245c0,3.163-1.271,6.071-3.318,8.242c0.105,0.628,0.161,1.272,0.161,1.927
				c0,1.603-0.337,3.137-0.924,4.546c0.595,1.415,0.924,2.959,0.924,4.568c0,1.497-0.288,2.936-0.804,4.267
				c0.883,1.67,1.389,3.56,1.389,5.553c0,0.057-0.007,0.111-0.01,0.168c1.471,1.999,2.348,4.451,2.348,7.076
				c0,0.26-0.013,0.516-0.03,0.772c1.917,1.832,3.243,4.274,3.641,6.987c2.274,1.538,4.013,3.828,4.846,6.486
				c6.19,2.183,10.966,7.387,16.747,10.416c0.43,0.187,1.122,0.486,1.396,0.566c0.891,0.263,1.783,0.511,2.682,0.746
				c1.84,0.482,3.659,1.042,5.504,1.488c0.916,0.221,1.831,0.444,2.756,0.616c0.297,0.057,1.174,0.166,1.629,0.228
				c1.225,0.098,2.451,0.161,3.686,0.176c0.791,0.007,1.565,0.095,2.317,0.249c1.269-0.411,2.627-0.641,4.111-0.834
				c2.185-0.286,4.287-0.058,6.438,0.101c1.405-1.094,3.051-1.881,4.833-2.271c1.847-1.742,4.229-2.913,6.844-3.229
				c1.551-1.52,3.499-2.631,5.657-3.152c1.198-3.78,4.241-6.795,8.028-7.973c0.292-3.373,2.027-6.377,4.567-8.399
				c0.19-1.997,0.884-3.864,1.949-5.472c0.082-2.428,0.911-4.687,2.257-6.563c-0.034-0.365-0.056-0.733-0.056-1.105
				c0-0.625,0.05-1.24,0.146-1.84c-0.225-1.582-0.18-3.234,0.169-4.876c0.021-0.101,0.042-0.221,0.061-0.344
				c0.036-0.5,0.063-1.003,0.072-1.506C267.109,128.889,267.09,127.526,266.981,126.166z"/>
			<g>
				<path fill="#554132" d="M251.225,164.893l-3.179-7.124l-16.102-6.098l-21.42,1.72l-10.789,5.629l-4.847,8.6
					c12.499,9.599,26.323,10.44,37.375,8.692c1.983-2.288,4.834-3.812,8.001-4.013c1.389-1.414,3.13-2.479,5.065-3.043
					C246.77,167.234,248.835,165.679,251.225,164.893z M220.842,163.41c-1.94,0-3.002-1.352-3.197-2.84
					c-0.529-1.926,0.503-4.347,3.097-4.347c1.938,0,3.001,1.353,3.195,2.839C224.463,160.99,223.434,163.41,220.842,163.41z"/>
				<path fill="#F2CDBB" d="M226.896,148.979c0,6.521-2.8,14.376-6.253,14.376c-3.456,0-6.256-7.855-6.256-14.376
					c0-6.519,2.8-11.804,6.256-11.804C224.096,137.174,226.896,142.46,226.896,148.979z"/>
				<polygon fill="#DEDEDE" points="218.811,159.02 220.842,163.412 218.099,163.379 				"/>
				<polygon fill="#DEDEDE" points="222.066,159.106 223.951,163.312 220.842,163.412 				"/>
				<path fill="#413123" d="M221.147,164.188c-0.108,0-0.22,0-0.331-0.006c-7.571-0.232-10.936-7.086-11.076-7.376l1.395-0.667
					c0.029,0.062,3.112,6.301,9.73,6.503c0.089,0.003,0.181,0.005,0.271,0.005c6.411,0,9.582-7.036,9.613-7.108l1.411,0.622
					C232.016,156.492,228.543,164.188,221.147,164.188z"/>
				<path fill="#FFFFFF" d="M215.427,152.766c0,0-0.153,2.502,3.384,6.254l-1.077,6.255c0,0-13.254-8.149-7.381-14.698
					C215.166,145.207,215.427,152.766,215.427,152.766z"/>
				<path fill="#FFFFFF" d="M226.471,149.014c0,0,0.313,5.941-4.423,10.171l2.684,5.835c0,0,14.285-11.564,6.893-16.404
					C224.74,144.107,226.471,149.014,226.471,149.014z"/>
				<g>
					<path fill="#FCDAC6" d="M197.156,115.952c0,0,1.631,6.944,0.202,12.05s-2.002,15.226,13.593,24.592
						c0,0,22.146,1.752,28.273-15.607c0,0,5.106,0.612,5.516-7.148s-5.309-5.718-5.309-5.718S225.544,81.846,197.156,115.952z"/>
					<g>
						<path fill-rule="evenodd" clip-rule="evenodd" fill="#554132" d="M207.172,124.95c0,1.586-0.626,2.872-1.403,2.872
							c-0.774,0-1.401-1.286-1.401-2.872c0-1.585,0.627-2.873,1.401-2.873C206.546,122.078,207.172,123.365,207.172,124.95z"/>
					</g>
					<g>
						<ellipse fill-rule="evenodd" clip-rule="evenodd" fill="#554132" cx="223.1" cy="125.6" rx="1.496" ry="3.062"/>
					</g>
					<path fill-rule="evenodd" clip-rule="evenodd" fill="#F2CDBB" d="M211.645,127.748c0,0-3.569,5.943-2.875,8.718
						c0.692,2.772,7.529-1.039,7.529-1.039s-5.598,1.188-5.893-0.001C210.109,134.237,210.702,130.72,211.645,127.748z"/>
					<path fill-rule="evenodd" clip-rule="evenodd" fill="#95755C" d="M202.486,119.745c0,0,3.477-4.83,7.147,0.193
						c0,0-0.58-3.671-3.671-3.671S202.486,119.745,202.486,119.745z"/>
					<path fill-rule="evenodd" clip-rule="evenodd" fill="#95755C" d="M227,120c0,0-3.675-5.104-7.556,0.204
						c0,0,0.612-3.88,3.881-3.88C226.592,116.324,227,120,227,120z"/>
					<path fill-rule="evenodd" clip-rule="evenodd" fill="#95755C" d="M215.943,106.966c0,0-19.399,6.331-23.895,15.724
						c0,0-5.105-22.261,13.684-25.937c18.789-3.675,26.55-0.203,26.754,5.718l-21.445,11.846
						C211.041,114.317,212.268,110.03,215.943,106.966z"/>
					<path fill-rule="evenodd" clip-rule="evenodd" fill="#95755C" d="M226.767,104.72c0,0,0.409,7.353,4.493,9.802l0.409-2.859
						c0,0,6.536,7.966,4.492,16.339c0,0,2.255-3.367,7.155-3.163c0,0,3.056-11.747-0.416-19.507
						C239.432,97.571,227.585,96.755,226.767,104.72z"/>
					<path fill-rule="evenodd" clip-rule="evenodd" fill="#95755C" d="M231.669,111.662c0,0,5.513,13.48,3.064,23.487l2.245-0.409
						c0,0-0.612-7.963,1.635-9.394C240.858,123.916,238.205,100.634,231.669,111.662z"/>
					<path fill-rule="evenodd" clip-rule="evenodd" fill="#95755C" d="M229.422,105.536c0,0-7.556,7.964-18.381,8.782
						C211.041,114.317,223.704,100.838,229.422,105.536z"/>
					<path fill-rule="evenodd" clip-rule="evenodd" fill="#95755C" d="M231.873,100.022c0,0-1.02-10.008-18.177-7.966
						c-17.152,2.042-26.141,14.092-23.895,21.036c0,0,2.247-5.718,6.331-5.718C200.219,107.374,231.873,100.022,231.873,100.022z"/>
					<path fill="#2C2C2D" d="M205.99,142.609l16.543-2.747C222.533,139.863,217.224,154.863,205.99,142.609z"/>
				</g>
				<path fill="#7E634E" d="M230.328,100.524c0,0-7.395-11.665-26.78-2.792c0,0,8.543-2.464,14.457-1.644
					c0,0-14.004,0.062-21.872,11.285c0,0,12.342-12.106,24.996-8.984c0,0-8.216,0.164-15.446,5.75c0,0,13.639-5.094,19.388-3.616
					c0,0-4.766,2.958-7.721,8.216c0,0,6.899-7.393,10.021-7.558c0,0-1.808,4.6-4.108,6.408c0,0,4.766-2.792,5.917-5.914
					c0,0-0.987,5.258,0.82,8.38C229.999,110.056,233.285,104.633,230.328,100.524z"/>
				<path fill="#7E634E" d="M230.494,101.839c0,0,9.199-0.985,11.005,6.244c0,0-3.612-4.6-6.898-4.6c0,0,5.915,3.779,4.271,17.086
					c0,0-1.642-17.086-8.05-16.758"/>
				<path fill="#F2CDBB" d="M242.486,127.471c0,0-3.122,0.164-3.45,2.958c0,0,1.807,0.164,1.807,1.478
					c0,1.315-1.315,1.644-1.315,1.644l1.809,1.314C241.336,134.864,244.459,130.757,242.486,127.471z"/>
				<path fill="#67503E" d="M245.99,168.414c0.074-2.869,0.506-6.9,2.056-10.646c0,0-2.792,4.726-3.137,11.618
					c0.136-0.045,0.274-0.074,0.409-0.115C245.528,168.976,245.753,168.688,245.99,168.414z"/>
				<polygon fill="#67503E" points="199.735,159.02 197.796,169.367 198.781,170.375 				"/>
			</g>
			<path fill="#FFFFFF" d="M220.295,87.374c24.121,0,43.748,19.625,43.748,43.747c0,24.122-19.627,43.748-43.748,43.748
				c-24.123,0-43.748-19.626-43.748-43.748C176.547,106.998,196.172,87.374,220.295,87.374 M220.295,83.09
				c-26.527,0-48.03,21.504-48.03,48.03c0,26.526,21.503,48.03,48.03,48.03s48.03-21.504,48.03-48.03
				C268.325,104.594,246.822,83.09,220.295,83.09L220.295,83.09z"/>
		</g>
	</g>
</g>
</svg>
