<svg xmlns="http://www.w3.org/2000/svg" width="390" height="245" viewBox="0 0 390 245"><path fill="#e7e7e7" d="M236.672 29.453l143.576 19.503-22.54 165.932-143.575-19.503z"/><path fill="#3f3f41" d="M212.91 196.196l147.82 4.45-2.295 16.89-145.733-19.805z"/><path fill="#95755c" d="M376.596 83.9l-148.433.065L238.56 7.458l145.733 19.805z"/><path d="M359.717 220.495l-149.04-20.255L237.14 5.494l149.04 20.255-26.465 194.745zm-145.09-23.26l142.083 19.308 25.52-187.79L240.15 9.446l-25.52 187.79z" fill="#e7e7e7"/><g fill="#3f3f41"><path d="M253.404 143.092l1.376-10.13 2.694.367c1.004.135 1.654.273 1.95.41.47.226.832.615 1.083 1.17.25.554.32 1.234.21 2.04-.098.733-.32 1.33-.665 1.786-.342.457-.735.758-1.178.9-.44.145-1.168.15-2.18.012l-1.1-.15-.52 3.82-1.67-.226zm2.815-8.19l-.392 2.882.927.127c.624.086 1.052.1 1.29.042.235-.058.44-.19.613-.4.176-.208.285-.48.33-.81.047-.338.01-.632-.106-.883-.116-.25-.278-.432-.484-.54-.206-.108-.66-.21-1.36-.305l-.82-.112zM267.788 145.045l-1.818-.245-.415-2.393-3.325-.453-.998 2.2-1.783-.242 4.61-9.69 1.777.243 1.95 10.58zm-2.54-4.425l-.637-3.915-1.634 3.606 2.27.31zM270.028 135.035l1.672.227-.745 5.486c-.116.852-.17 1.41-.166 1.673.013.458.143.827.388 1.11.247.28.6.453 1.057.515.387.053.715.01.984-.13.266-.14.467-.357.598-.652.13-.293.265-.945.402-1.953l.762-5.604 1.672.227-.724 5.32c-.184 1.36-.39 2.332-.618 2.917a2.533 2.533 0 0 1-1.18 1.338c-.56.307-1.257.402-2.092.29-.865-.12-1.52-.365-1.963-.743a2.67 2.67 0 0 1-.88-1.456c-.14-.594-.11-1.65.096-3.165l.735-5.4zM277.088 146.31l1.365-10.046 1.67.228-1.13 8.333 4.173.566-.233 1.715-5.845-.795zM292.98 144.676l1.54.85c-.408 1.1-.943 1.87-1.603 2.312-.66.442-1.42.605-2.283.488-1.082-.147-1.902-.683-2.46-1.607-.645-1.07-.854-2.422-.632-4.057.235-1.727.807-3.025 1.72-3.896.792-.756 1.76-1.056 2.904-.9.932.126 1.668.55 2.207 1.27.388.513.623 1.228.71 2.145l-1.724.258c-.033-.563-.187-1.01-.463-1.346a1.604 1.604 0 0 0-1.058-.59c-.617-.085-1.153.114-1.612.596-.46.48-.773 1.336-.942 2.568-.173 1.276-.107 2.21.197 2.798.305.59.758.926 1.36 1.01.444.058.85-.06 1.22-.36.367-.298.672-.81.918-1.54zM303.025 149.834l-1.818-.245-.416-2.394-3.324-.452-.998 2.2-1.782-.242 4.61-9.69 1.777.242 1.952 10.58zm-2.54-4.426l-.636-3.914-1.637 3.605 2.272.308zM303.91 149.956l1.375-10.13 3.53.48c.903.123 1.536.302 1.898.536.36.235.637.594.824 1.076.188.483.24 1.038.154 1.664-.106.793-.383 1.405-.83 1.837-.445.43-1.027.66-1.743.69.324.308.583.63.777.97.192.336.438.93.735 1.777l.74 2.114-2-.272-.916-2.368c-.327-.856-.557-1.395-.687-1.617-.13-.222-.276-.383-.44-.482-.166-.098-.44-.175-.828-.228l-.346-.047-.575 4.228-1.67-.227zm2.466-5.62l1.244.17c.76.104 1.248.135 1.464.097a.926.926 0 0 0 .56-.336c.156-.185.257-.445.303-.782.043-.32.015-.59-.09-.804a.99.99 0 0 0-.468-.473c-.15-.072-.602-.16-1.352-.262l-1.312-.177-.35 2.57zM314.148 151.346l1.144-8.416-2.466-.334.233-1.713 6.597.896-.233 1.713-2.46-.335-1.143 8.416-1.672-.228zM319.37 152.056l1.378-10.128 6.162.84-.233 1.71-4.49-.61-.305 2.246 4.173.567-.232 1.707-4.174-.568-.374 2.75 4.643.63-.234 1.715-6.315-.86zM327.11 153.11l1.376-10.13 3.53.48c.902.12 1.536.3 1.898.534.36.236.636.594.825 1.076.185.483.237 1.038.152 1.665-.107.792-.384 1.405-.83 1.837-.446.43-1.03.66-1.744.69.324.31.583.63.776.97.193.337.438.93.735 1.777l.74 2.112-2-.27-.915-2.37c-.328-.857-.557-1.397-.687-1.618a1.345 1.345 0 0 0-.44-.48c-.165-.1-.44-.177-.828-.23l-.346-.047-.575 4.228-1.67-.226zm2.466-5.62l1.243.17c.76.1 1.248.134 1.464.095a.944.944 0 0 0 .56-.335c.155-.186.257-.446.303-.782.044-.322.014-.59-.088-.804a.993.993 0 0 0-.472-.475c-.15-.073-.6-.16-1.35-.262l-1.313-.18-.35 2.572z"/></g><path d="M339.938 91.646c.02-.378.04-.757.054-1.135a39.116 39.116 0 0 0-.02-.946c-.06-1.03-.127-2.065-.278-3.09-.215-1.454-.607-2.862-.94-4.29a67.62 67.62 0 0 1-.358-1.676c-.825-1.844-1.793-3.664-2.297-5.62-1.533-1.03-2.77-2.48-3.42-4.295-.223-.61-.45-1.212-.752-1.788-.05-.078-.113-.168-.185-.28-.77-1.16-1.59-2.287-2.32-3.47-.36-.587-.714-1.19-1.143-1.73-.212-.266-.854-.904-.964-1.034a47.21 47.21 0 0 0-2.347-1.894c-.576-.437-1.14-.895-1.748-1.287-.163-.108-.286-.188-.384-.255h-.005c-1.85-1.032-3.72-2.046-5.494-3.195-.633-.41-1.245-.85-1.87-1.27-.292-.2-1.498-.856-1.312-.776a10.535 10.535 0 0 0-.673-.297l-.087-.017c-.75-.132-1.474-.34-2.157-.616-.998.187-2.037.228-3.086.097a44.32 44.32 0 0 0-3.004-.286c-.032.035-2.404.074-2.88.12-2.59.246-5.17.623-7.75.955-.766.098-1.537.186-2.298.347l-.14.033c-1.623.516-3.267.956-4.916 1.382-.443.115-2.814.752-2.726.706-.86.267-1.707.56-2.545.9-.378.15-.76.268-1.146.372a10.126 10.126 0 0 1-5.177 4.077 9.913 9.913 0 0 1-3.492 4.98 10.055 10.055 0 0 1-3.622 4.176c-.006.068-.01.134-.018.2-.35 2.57-1.703 4.79-3.605 6.327.017.52-.008 1.05-.08 1.582a9.64 9.64 0 0 1-1.255 3.59 9.6 9.6 0 0 1 .247 3.81 9.66 9.66 0 0 1-1.122 3.376 9.74 9.74 0 0 1 .513 4.663l-.026.135a9.776 9.776 0 0 1 1.125 6.005 7.09 7.09 0 0 1-.11.623c1.352 1.7 2.162 3.83 2.185 6.075a10.082 10.082 0 0 1 3.22 5.8c4.784 2.456 8.088 7.207 12.447 10.306.328.198.857.52 1.072.614.692.312 1.39.612 2.094.902 1.44.595 2.856 1.25 4.303 1.816.72.28 1.437.563 2.17.806.233.078.934.262 1.297.362.984.214 1.97.404 2.973.55.64.094 1.262.25 1.855.458 1.076-.193 2.203-.23 3.43-.222 1.806.008 3.488.426 5.216.79a9.924 9.924 0 0 1 4.178-1.31 9.908 9.908 0 0 1 5.912-1.865 9.964 9.964 0 0 1 4.942-1.935c1.388-2.938 4.193-5.05 7.4-5.59.608-2.705 2.346-4.953 4.632-6.314a9.8 9.8 0 0 1 2.187-4.228 9.783 9.783 0 0 1 2.558-5.08c.01-.3.035-.602.075-.903.07-.508.178-1 .322-1.478-.01-1.31.21-2.646.675-3.94.03-.08.06-.174.088-.274.086-.4.164-.806.226-1.215.156-1.107.29-2.215.354-3.332z" fill="#c6e4e1"/><path clip-rule="evenodd" fill="#e6baa0" fill-rule="evenodd" d="M295.527 104.23l7.648 1.04-1.01 7.443-7.65-1.038z"/><path d="M288.102 72.32s11.5-12.11 23.047-5.748c11.546 6.362 11.263 16.593 3.723 25.504l-26.77-19.755z" clip-rule="evenodd" fill="#aa605a" fill-rule="evenodd"/><path d="M289.6 74.664s-10.41-10.27-1.765-12.338c8.648-2.068 20.552 1.51 20.852 18.673L289.6 74.663z" clip-rule="evenodd" fill="#7b4540" fill-rule="evenodd"/><path d="M283.986 79.587s.528 5.012-.994 8.437c-1.524 3.425 2.744 18.46 11.464 20.033 0 0 12.02 1.898 18.125-9.62 0 0 3.656.93 4.69-4.448 1.032-5.382-3.32-4.52-3.32-4.52s-6.085-30.898-29.964-9.883z" fill="#facaad"/><path d="M289.232 87.49c-.15 1.107-.728 1.944-1.29 1.867-.566-.076-.9-1.037-.748-2.146.15-1.106.73-1.942 1.292-1.866.564.077.897 1.038.746 2.145z" clip-rule="evenodd" fill="#554132" fill-rule="evenodd"/><ellipse transform="rotate(7.735 385.15 69.448) scale(.9)" cx="336.772" cy="111.902" rx="1.22" ry="2.401" clip-rule="evenodd" fill="#554132" fill-rule="evenodd"/><path d="M310.93 81.256l-31.22.528 4.957-5.592-3.813.745s4.298-11.92 17.373-8.743c13.072 3.18 12.704 13.062 12.704 13.062z" clip-rule="evenodd" fill="#3f3f41" fill-rule="evenodd"/><path d="M308.166 78.31s3.822 8.585.575 17.26l3.665-.088 1.544-6.012s1.02-.272 2.344.406c0 0 .822-11.168-8.128-11.566z" clip-rule="evenodd" fill="#3f3f41" fill-rule="evenodd"/><path d="M316.22 91.628s-2.14-1.128-2.87 2.09c0 0 1.688.883-.214 2.298 0 0 1.16 1.46 2.23-.255 1.073-1.714 1.583-3.073.854-4.132zM291.52 89.893s-3.218 2.935-2.96 6.122c.256 3.185 5.357 1.667 5.357 1.667s-3.827.2-4.08-2.156c-.257-2.36 1.683-5.633 1.683-5.633z" clip-rule="evenodd" fill="#e6baa0" fill-rule="evenodd"/><path d="M290.355 101.015s6.648 3.17 12.318-2.53l.586 2.457-.957-1.014s-6.363 6.157-11.948 1.087z" clip-rule="evenodd" fill="#a98b78" fill-rule="evenodd"/><path d="M284.876 83.72s3.105-2.858 5.464.873c0 0-.06-2.886-2.43-3.208-2.37-.322-3.034 2.335-3.034 2.335z" clip-rule="evenodd" fill="#2c2c2d" fill-rule="evenodd"/><path d="M303.702 86.118s-2.342-3.902-5.816-.648c0 0 .885-2.99 3.392-2.65 2.506.342 2.424 3.298 2.424 3.298z" clip-rule="evenodd" fill="#3f3f41" fill-rule="evenodd"/><path d="M310.055 79.145s-4.444-13.797-19.99-10.07l5.88.877-6.372 2.925 10.036-.07-6.604 2.28 11.575 1.164-12.485 2.402 17.036 1.8s2.42 3.405 2.14 6.234l1.47-2.976 2.642 4.308s-.354-7.97-5.327-8.873z" clip-rule="evenodd" fill="#2c2c2d" fill-rule="evenodd"/><path d="M294.73 110.08l-11.278 1.13-4.933 5.7s16.23 19.725 40.417 6.31l-3.896-7.716-12.688-4.185s-4.13 2.922-7.62-1.24z" clip-rule="evenodd" fill="#b19b74" fill-rule="evenodd"/><path d="M315.04 115.504s-3.22 1.775-4.15 10.996c0 0 3.122-.22 8.047-3.28l-3.896-7.716zM280.925 119.207l-2.407-2.297 4.934-5.7z" clip-rule="evenodd" fill="#8b7a5b" fill-rule="evenodd"/><path d="M297.995 113.395a5.65 5.65 0 0 1-.82-.173c-2.504-.73-3.597-2.962-3.642-3.056l1.62-.704-.81.35.81-.354c.008.017.818 1.632 2.54 2.125 1.31.377 2.868.027 4.62-1.036l.965 1.454c-1.89 1.15-3.662 1.617-5.283 1.395z" fill="#8b7a5b"/><path d="M306.31 54.997c19.586 2.662 33.356 20.76 30.694 40.348-2.662 19.586-20.763 33.356-40.35 30.696-19.585-2.66-33.353-20.764-30.692-40.35 2.663-19.587 20.762-33.355 40.35-30.693m.47-3.478c-21.537-2.927-41.368 12.16-44.295 33.697-2.928 21.54 12.16 41.37 33.696 44.3 21.54 2.925 41.374-12.162 44.3-33.7 2.927-21.537-12.16-41.37-33.7-44.298z" fill="#fff"/><g fill="#aaafb2"><path d="M293.076 168.414l1.248-9.174.19-1.397.44-3.23-9.65-.302-.545 4.016-.084.612-1.095 8.05a3.063 3.063 0 0 0-1.244-.136c-1.512.144-2.64 1.314-2.517 2.62.122 1.303 1.446 2.245 2.96 2.1 1.43-.132 2.51-1.19 2.523-2.407l1.38-10.164 5.63.176-.96 7.062a3.067 3.067 0 0 0-1.245-.14c-1.512.145-2.64 1.316-2.517 2.622.125 1.302 1.45 2.245 2.96 2.102 1.432-.133 2.515-1.19 2.526-2.408zM297.98 170.728l3.298 2.17.63-4.624-5.153-3.392-.332 2.442-.296 2.183-.88 6.478a3.098 3.098 0 0 0-1.247-.135c-1.512.142-2.638 1.316-2.516 2.62.122 1.303 1.448 2.243 2.96 2.103 1.43-.135 2.51-1.19 2.523-2.408h.002l1.01-7.437z"/></g><g><path fill="#e7e7e7" d="M9.65 48.606L153.316 29.74l21.802 166.032-143.664 18.865z"/><path fill="#3f3f41" d="M30.49 215.726l143.807-34.508 2.218 16.9-145.822 19.146z"/><path fill="#c6e4e1" d="M158.96 64.4L15.748 103.428 5.698 26.875 151.52 7.73z"/><path d="M178.53 200.637L29.4 220.215 3.817 25.35l149.13-19.577 25.582 194.864zM32.42 216.28l142.172-18.665L149.922 9.71 7.753 28.375l24.67 187.905z" fill="#e7e7e7"/><g fill="#3f3f41"><path d="M58.12 153.527l-1.332-10.134 1.672-.22.592 4.51 2.805-4.956 2.262-.297-2.616 4.36 4.112 5.753-2.172.287-2.92-4.464-1.136 1.88.402 3.06-1.67.22zM73.977 151.446l-1.818.24-1.03-2.2-3.328.436-.386 2.386-1.783.234 1.906-10.56 1.775-.233 4.662 9.696zm-3.613-3.604l-1.642-3.61-.63 3.908 2.272-.298zM75.878 151.196l-1.106-8.42-2.468.324-.225-1.714 6.602-.867.225 1.713-2.46.322 1.105 8.42-1.674.22zM81.105 150.51l-1.33-10.135 6.166-.81.226 1.715-4.493.59.296 2.247 4.174-.548.224 1.706-4.175.548.36 2.752 4.646-.61.224 1.714-6.32.83zM92.05 149.073l-1.333-10.134 2.51-.33 2.42 6.72.59-7.116 2.52-.33 1.33 10.135-1.56.204-1.05-7.985-.608 8.2-1.615.214-2.693-7.77 1.05 7.985-1.563.203zM101.692 147.808l-1.33-10.135 1.672-.22 1.33 10.135-1.672.22zM105.018 147.37l-1.32-10.052 1.672-.22 1.096 8.34 4.176-.548.225 1.713-5.85.768zM112.11 146.44l-1.32-10.053 1.672-.22 1.096 8.34 4.177-.55.225 1.715-5.85.768zM119.163 145.513l-1.33-10.134 6.166-.81.224 1.713-4.494.59.295 2.247 4.176-.548.225 1.708-4.176.548.36 2.75 4.646-.61.225 1.715-6.317.83zM126.905 144.497l-1.33-10.135 3.532-.464c.903-.12 1.56-.113 1.97.02.41.13.77.403 1.078.822.308.416.504.936.585 1.564.105.793-.002 1.456-.318 1.99-.317.534-.818.91-1.502 1.126.395.21.73.453 1.004.73.274.275.667.783 1.176 1.522l1.27 1.844-2 .264-1.506-2.047c-.542-.74-.904-1.2-1.087-1.378-.183-.18-.367-.297-.552-.35-.185-.054-.47-.055-.86-.004l-.343.047.555 4.23-1.672.22zm.905-6.067l1.245-.164c.76-.1 1.24-.198 1.44-.292a.934.934 0 0 0 .45-.47c.102-.218.132-.497.088-.834-.042-.322-.14-.573-.295-.752a1 1 0 0 0-.58-.336c-.164-.03-.62.004-1.37.102l-1.315.172.337 2.574z"/></g><path d="M125.622 81.5c-.082-.37-.162-.742-.246-1.11-.094-.32-.207-.715-.27-.907-.328-.98-.664-1.96-1.077-2.91-.59-1.345-1.338-2.6-2.036-3.893a60.843 60.843 0 0 1-.785-1.522c-1.28-1.562-2.695-3.064-3.692-4.82-1.748-.59-3.322-1.664-4.428-3.247-.373-.53-.753-1.05-1.193-1.528l-.255-.22c-1.044-.92-2.132-1.79-3.147-2.74-.503-.473-1.002-.962-1.56-1.37-.276-.2-1.062-.648-1.198-.744a48.253 48.253 0 0 0-2.762-1.212c-.672-.272-1.335-.564-2.025-.785-.185-.058-.324-.103-.436-.143h-.005c-2.056-.51-4.128-.998-6.142-1.64-.718-.23-1.42-.493-2.137-.735-.334-.114-1.667-.432-1.47-.403a9.91 9.91 0 0 0-.727-.11 1.39 1.39 0 0 0-.086.004c-.76.07-1.514.058-2.246-.028a9.963 9.963 0 0 1-2.952.903c-.995.142-1.99.302-2.977.51-.017.043-2.296.702-2.744.872-2.43.918-4.825 1.96-7.227 2.957-.714.297-1.438.584-2.125.938l-.13.068c-1.43.923-2.9 1.78-4.38 2.624-.396.226-2.52 1.464-2.446 1.396-.76.485-1.5.988-2.218 1.536-.326.244-.664.46-1.01.66a10.14 10.14 0 0 1-3.922 5.293 9.933 9.933 0 0 1-2.064 5.723 10.06 10.06 0 0 1-2.4 4.98c.01.067.027.132.036.198.336 2.57-.385 5.067-1.818 7.05.152.5.265 1.018.335 1.55a9.71 9.71 0 0 1-.266 3.793 9.61 9.61 0 0 1 1.04 7.162 9.714 9.714 0 0 1 1.72 4.365c.007.046.007.09.01.136 1.408 1.47 2.382 3.365 2.662 5.5.027.21.045.42.057.63 1.752 1.285 3.092 3.127 3.705 5.288a10.093 10.093 0 0 1 4.627 4.754c5.263 1.113 9.698 4.83 14.72 6.676.367.106.962.277 1.192.312.753.118 1.506.224 2.26.32 1.545.195 3.084.456 4.63.62.768.082 1.537.17 2.306.208.246.015.97.01 1.348.01a43.62 43.62 0 0 0 3.014-.25c.643-.08 1.28-.09 1.91-.044.987-.47 2.064-.8 3.25-1.114 1.744-.468 3.476-.505 5.24-.607a9.905 9.905 0 0 1 3.686-2.362 9.91 9.91 0 0 1 5.215-3.35 9.98 9.98 0 0 1 4.26-3.166c.57-3.2 2.72-5.975 5.672-7.335-.122-2.772.966-5.396 2.815-7.31a9.772 9.772 0 0 1 1-4.654 9.768 9.768 0 0 1 1.135-5.574 9.42 9.42 0 0 1-.166-.89 9.604 9.604 0 0 1-.076-1.51 11.488 11.488 0 0 1-.383-3.98c.007-.085.012-.184.013-.287-.022-.41-.056-.822-.1-1.233a38.315 38.315 0 0 0-.53-3.305z" fill="#c9c14a"/><path d="M86.686 71.02c-1.094 4.03-5.008 7.386-9.934 8.033-1.942.256-8.545.393-10.263-.155 2.473 7.71 9.345 20.116-1.714 23.506 0 0 5.318 10.736 18.95 8.12 10.06-1.93 12.44-29.886 2.96-39.505z" clip-rule="evenodd" fill="#483729" fill-rule="evenodd"/><path clip-rule="evenodd" fill="#a27e64" fill-rule="evenodd" d="M94.765 111.544l-6.186.813-.942-7.172 5.376-.704z"/><path d="M68.037 80.127s5.044 6.54 4.446 10.703c-.595 4.164-4.045 12.718 9.19 18.476 0 0 14.36-.76 20.634-15.197 0 0 4.077-.048 3.596-6.195-.48-6.15-4.767-3.953-4.767-3.953s-14.29-33.6-33.1-3.835z" fill="#ba9173"/><path d="M77.62 83.49s-3.732-3.907-6.56.29c0 0 1.432-1.762 6.56-.29z" clip-rule="evenodd" fill="#483729" fill-rule="evenodd"/><ellipse transform="scale(.9) rotate(-7.492 -10.854 133.985)" cx="87.322" cy="110.864" rx="1.237" ry="2.533" clip-rule="evenodd" fill="#554132" fill-rule="evenodd"/><ellipse transform="rotate(-7.476 2.208 119.165) scale(.9)" cx="100.694" cy="109.281" rx="1.319" ry="2.7" clip-rule="evenodd" fill="#554132" fill-rule="evenodd"/><path d="M78.32 101.76s.346-2.632 2.88-.38c0 0-.035-2.208 4.535-.878 0 0-3.572 5.577-7.416 1.257z" clip-rule="evenodd" fill="#aa605a" fill-rule="evenodd"/><path d="M89.363 72.57s-15.36 16.174-25.158 10.168c0 0-.752-23.712 24.973-16.47l.185 6.302z" clip-rule="evenodd" fill="#554132" fill-rule="evenodd"/><path d="M87.747 71.71S102.98 97.634 90.7 106.22c0 0 6.086 6.562 16.918.848 10.833-5.71 3.56-53.77-20.417-40.326l.547 4.97z" clip-rule="evenodd" fill="#554132" fill-rule="evenodd"/><path d="M78.27 93.37s-1.203 4.283 3.724 3.813c0 0-3.074-.16-3.725-3.814z" clip-rule="evenodd" fill="#a27e64" fill-rule="evenodd"/><path d="M89.077 71.213s6.1 5.634 9.667 17.285c0 0 2.302-7.81-5.473-17.192 0 0 7.386-.113 11.09 6.05 0 0-2.832-10.138-12.115-9.776 0 0 1.9-1.86 4.97-2.156 0 0-4.148-1.385-8.623 2.098l.485 3.69z" clip-rule="evenodd" fill="#483729" fill-rule="evenodd"/><path d="M89.553 67.63s-8.038-3.36-17.076.506c0 0 5.587-.734 9.817.43 0 0-7.9.285-14.055 7.313 0 0 11.043-1.664 16.586-5.182 0 0-3.622 5.088-10.465 7.702 0 0 9.29.498 15.475-7.93l-.282-2.84z" clip-rule="evenodd" fill="#483729" fill-rule="evenodd"/><path d="M78.726 101.705s7.04-.026 8.963-2.533c0 0-2.062 4.74-5.343 5.065-3.284.325-3.596-.966-3.62-2.532z" clip-rule="evenodd" fill="#aa605a" fill-rule="evenodd"/><path d="M74.616 87.698s-2.135.065-1.74-1.81c0 0 .68 1.09 1.812.73l-.072 1.08zM87.83 86.24s2.174-.5 1.278-2.206c0 0-.397 1.233-1.634 1.18l.356 1.025zM83.65 82.847s2.595-4.736 6.41-1.412c0 0-1.838-1.332-6.41 1.412z" clip-rule="evenodd" fill="#554132" fill-rule="evenodd"/><path d="M89.213 110.662s-11.255 9.844 2.528 11.896c13.784 2.05 8.832-11.992 1.98-12.702-6.85-.708-4.507.806-4.507.806z" clip-rule="evenodd" fill="#a27e64" fill-rule="evenodd"/><path d="M94.26 109.892s9.845 2.537 15.078 10.538c0 0-13.624 16.873-30.56 3.867 0 0 2.903-9.75 9.768-13.01 0 0-3.29 7.618 3.97 6.56 7.262-1.063 1.744-7.955 1.744-7.955z" clip-rule="evenodd" fill="#bd989d" fill-rule="evenodd"/><path d="M88.546 111.287s-3.042 6.12 3.46 5.802c6.5-.32 2.254-7.198 2.254-7.198l1.58.33s5.465 8.4-3.024 9.083c-8.49.688-7.322-6.76-4.27-8.018z" clip-rule="evenodd" fill="#7f6569" fill-rule="evenodd"/><path d="M83.553 54.963c19.598-2.573 37.637 11.276 40.21 30.875 2.572 19.597-11.28 37.636-30.877 40.21-19.598 2.573-37.636-11.28-40.21-30.877-2.572-19.598 11.278-37.635 30.877-40.207m-.456-3.48c-21.553 2.83-36.73 22.593-33.9 44.144 2.83 21.552 22.593 36.728 44.147 33.9 21.55-2.83 36.727-22.594 33.897-44.145-2.828-21.552-22.59-36.728-44.143-33.9z" fill="#fff"/><path fill="#aaafb2" d="M85.205 165.016l9.612-1.26 1.77-9.532 4.168 8.75 9.61-1.26-7.033 6.67 4.17 8.75-8.516-4.63-7.035 6.67 1.773-9.53z"/></g><g><path fill="#f5f5f5" d="M115.23 49.8H274.37v183.922H115.23z"/><path fill="#3f3f41" d="M114.033 234.775l161.537-17.022v18.723H114.033z"/><path fill="#ec6146" d="M275.57 88.345l-161.537 22.028V25.57H275.57z"/><path d="M277.4 239.506H112.2V23.642h165.202v215.864zm-161.345-3.856h157.49V27.497h-157.49V235.65z" fill="#f5f5f5"/><g fill="#3f3f41"><path d="M159.412 159.762h1.854v7.107c0 1.148-.115 2.003-.345 2.565-.23.56-.572.994-1.03 1.295-.457.3-1.02.45-1.688.45-.883 0-1.575-.303-2.076-.91-.5-.608-.753-1.523-.758-2.75l1.753-.245c.02.66.106 1.127.255 1.402.2.378.5.568.898.568.39 0 .677-.137.862-.41.183-.274.276-.88.276-1.82v-7.253zM162.858 165.446c0-1.338.198-2.44.593-3.305.396-.864.914-1.51 1.553-1.932.638-.423 1.41-.637 2.32-.637 1.317 0 2.39.505 3.22 1.512.83 1.005 1.245 2.438 1.245 4.295 0 1.88-.44 3.347-1.318 4.404-.77.934-1.818 1.402-3.14 1.402-1.33 0-2.383-.462-3.155-1.387-.878-1.057-1.317-2.508-1.317-4.35zm1.914-.078c0 1.293.246 2.26.736 2.907.492.646 1.1.97 1.826.97.73 0 1.336-.32 1.818-.962.48-.64.72-1.625.72-2.952 0-1.3-.234-2.265-.7-2.887-.468-.622-1.08-.933-1.838-.933-.756 0-1.372.313-1.848.94-.476.63-.714 1.602-.714 2.918zM173.25 170.99v-11.228h1.854v4.42h3.654v-4.42h1.853v11.228h-1.852v-4.91h-3.654v4.91h-1.853zM182.547 170.99v-11.228h1.808l3.768 7.497v-7.498h1.73v11.228h-1.867l-3.707-7.322v7.322h-1.733zM194.916 167.33l1.815-.215c.205 1.435.874 2.152 2.007 2.152.562 0 1.004-.147 1.326-.44a1.42 1.42 0 0 0 .482-1.09 1.19 1.19 0 0 0-.17-.65 1.244 1.244 0 0 0-.512-.442c-.23-.115-.786-.306-1.668-.577-.792-.24-1.37-.5-1.74-.78-.366-.28-.66-.65-.877-1.107a3.38 3.38 0 0 1-.325-1.472c0-.612.14-1.164.418-1.652.28-.49.662-.86 1.153-1.11.49-.25 1.095-.375 1.815-.375 1.083 0 1.928.294 2.535.882.608.586.928 1.427.964 2.52l-1.86.1c-.082-.603-.258-1.025-.528-1.265-.272-.24-.657-.358-1.158-.358-.5 0-.885.102-1.156.312-.27.21-.406.468-.406.78 0 .305.123.56.37.768.244.21.808.44 1.692.69.934.27 1.61.555 2.025.854.416.298.732.684.953 1.156.22.47.328 1.044.328 1.72 0 .973-.3 1.792-.9 2.456-.6.662-1.537.995-2.814.995-2.257 0-3.513-1.282-3.768-3.85zM203.937 170.99v-11.228h2.78l1.673 7.666 1.66-7.666h2.794v11.228h-1.732v-8.845l-1.835 8.845h-1.787l-1.822-8.845v8.845h-1.73zM214.62 170.99v-11.228h1.854v11.228h-1.854zM220.325 170.99v-9.327h-2.734v-1.9h7.315v1.9h-2.726v9.327h-1.855zM226.115 170.99v-11.228h1.853v4.42h3.654v-4.42h1.853v11.228h-1.853v-4.91h-3.654v4.91h-1.853z"/></g><g fill="#aaafb2"><path d="M200.255 179.114l-9.633 4.108c0 .612.022 1.228.065 1.846l3.635 1.55c.803-1.573 2.74-4.312 5.186-.516l-4.014 1.018 3.49 1.486c0 .87-.046 1.75-.13 2.634 1.642-.61 3.784-.157 6.217 3.368h-6.725c-.41 1.973-1.005 3.876-1.745 5.577 1.127 1.01 2.36 1.597 3.655 1.597 5.32 0 9.633-9.874 9.633-18.56l-9.633-4.108zm.747 6.988c3.24-5.03 5.59 1.416 5.59 1.416l-5.59-1.416zM195.323 198.81c-1.545 3.887-3.795 6.656-5.975 6.656-3.68 0-7.566-7.9-7.908-15.746l7.908-3.374 1.53.655c-.084-.643-.15-1.288-.192-1.93l-1.338-.57-9.633 4.107c0 8.685 4.313 18.56 9.633 18.56 2.893 0 5.485-2.922 7.252-6.98-.443-.4-.87-.86-1.277-1.376z"/><path d="M196.603 194.608a27.81 27.81 0 0 1-1.28 4.203c.406.517.834.978 1.277 1.375.74-1.702 1.335-3.604 1.745-5.577h-1.742zM197.257 189.72c-.04.927-.132 1.856-.266 2.774.512-.51 1.14-.986 1.863-1.255.084-.883.13-1.764.13-2.635l-3.49-1.486-1.576.397s.142-.388.404-.9l-3.634-1.55c.042.643.108 1.288.193 1.93l6.377 2.722z"/><path d="M196.992 192.494a29.18 29.18 0 0 1-.39 2.114h1.744c.23-1.11.402-2.24.508-3.368-.723.268-1.35.745-1.862 1.254zM195.493 187.12l-1.172-.502c-.26.51-.403.9-.403.9l1.576-.398zM194.165 197.527h-9.632c5.587 8.093 9.632 0 9.632 0zM183.115 193.186h5.59s-2.348-5.03-5.59 0zM189.993 193.186h2.372a28.898 28.898 0 0 1-.605-1.894c-.548.328-1.14.922-1.767 1.894z"/><path d="M195.582 193.186s-1.528-3.27-3.822-1.894c.182.647.386 1.278.605 1.894h3.217z"/></g><g><path d="M236.82 102.2c-.036-.413-.07-.828-.11-1.242-.056-.362-.124-.808-.166-1.027-.215-1.112-.44-2.227-.756-3.32-.45-1.55-1.085-3.025-1.66-4.53a66.844 66.844 0 0 1-.637-1.77c-1.167-1.885-2.493-3.723-3.33-5.776-1.818-.894-3.38-2.288-4.357-4.17-.33-.63-.668-1.253-1.08-1.835a18.3 18.3 0 0 1-.245-.278c-1.007-1.148-2.067-2.255-3.036-3.434-.48-.585-.954-1.19-1.503-1.713-.27-.258-1.064-.86-1.2-.983a52.462 52.462 0 0 0-2.836-1.715c-.69-.39-1.372-.805-2.092-1.143-.19-.09-.34-.16-.454-.218-.004 0-.005-.002-.007-.002-2.163-.848-4.35-1.676-6.45-2.663-.75-.353-1.48-.74-2.222-1.106-.35-.173-1.757-.708-1.545-.65-.257-.084-.515-.158-.775-.223-.033 0-.06-.004-.095-.005a11.93 11.93 0 0 1-2.442-.352 10.96 10.96 0 0 1-3.344.563 47.93 47.93 0 0 0-3.313.13c-.028.043-2.604.437-3.115.557-2.78.652-5.537 1.443-8.294 2.187-.82.222-1.647.43-2.45.72-.053.018-.1.037-.15.055-1.687.8-3.412 1.524-5.142 2.23-.467.192-2.954 1.236-2.865 1.174-.897.416-1.774.86-2.635 1.35-.39.222-.79.41-1.193.577a11.127 11.127 0 0 1-5.03 5.203c-.373 2.287-1.48 4.35-3.065 5.937a11.034 11.034 0 0 1-3.325 5.08c.002.074.01.146.01.22 0 2.847-1.145 5.464-2.987 7.418.094.566.145 1.145.145 1.735a10.62 10.62 0 0 1-.832 4.09c.536 1.275.832 2.664.832 4.112 0 1.348-.26 2.643-.724 3.84a10.67 10.67 0 0 1 1.25 4.998c0 .052-.006.1-.01.15a10.733 10.733 0 0 1 2.114 6.37c0 .234-.01.464-.027.695 1.727 1.648 2.92 3.846 3.278 6.288a11.085 11.085 0 0 1 4.362 5.837c5.57 1.965 9.87 6.65 15.072 9.375.387.168 1.01.437 1.256.51.802.236 1.605.46 2.414.67 1.656.434 3.293.938 4.954 1.34.824.2 1.648.4 2.48.554.267.05 1.057.15 1.466.204 1.103.09 2.206.145 3.318.16.712.005 1.408.084 2.085.223 1.142-.37 2.364-.577 3.7-.75 1.966-.258 3.858-.053 5.794.09a10.86 10.86 0 0 1 4.35-2.044 10.894 10.894 0 0 1 6.158-2.906 10.967 10.967 0 0 1 5.092-2.837c1.078-3.402 3.817-6.115 7.225-7.175.263-3.036 1.824-5.74 4.11-7.56.17-1.797.796-3.477 1.754-4.924a10.74 10.74 0 0 1 2.03-5.906c-.03-.328-.05-.66-.05-.994 0-.563.045-1.116.132-1.656a12.588 12.588 0 0 1 .152-4.39c.02-.09.037-.198.055-.308.03-.45.055-.903.063-1.356.01-1.228-.006-2.455-.104-3.68z" fill="#bd989d"/><path d="M222.64 137.055l-2.863-6.41-14.49-5.49-19.28 1.548-9.71 5.067-4.362 7.74c11.25 8.64 23.69 9.396 33.638 7.822 1.784-2.06 4.35-3.43 7.2-3.61a10.543 10.543 0 0 1 4.56-2.74 10.622 10.622 0 0 1 5.306-3.927zm-27.346-1.334c-1.746 0-2.702-1.216-2.877-2.555-.477-1.734.452-3.913 2.787-3.913 1.744 0 2.7 1.218 2.875 2.555.473 1.736-.453 3.914-2.786 3.914z" fill="#554132"/><path d="M200.742 122.733c0 5.87-2.52 12.938-5.627 12.938-3.11 0-5.63-7.068-5.63-12.937 0-5.867 2.52-10.624 5.63-10.624 3.107-.002 5.627 4.756 5.627 10.623z" fill="#f2cdbb"/><path fill="#dedede" d="M195.294 135.722l-2.47-.03.642-3.922zM198.092 135.632l-2.798.09 1.1-3.875z"/><path d="M195.568 136.42c-.097 0-.198 0-.298-.005-6.813-.208-9.842-6.377-9.968-6.638l1.256-.6c.026.055 2.8 5.67 8.757 5.852.08.002.162.004.243.004 5.77 0 8.624-6.333 8.652-6.397l1.27.56c-.13.297-3.255 7.224-9.912 7.224z" fill="#413123"/><path d="M190.42 126.14s-.137 2.253 3.046 5.63l-.97 5.63s-11.928-7.335-6.642-13.23c4.33-4.832 4.566 1.97 4.566 1.97zM200.36 122.764s.282 5.347-3.98 9.154l2.415 5.252s12.856-10.408 6.204-14.764c-6.198-4.058-4.64.358-4.64.358z" fill="#fff"/><path d="M173.976 93.008s1.468 6.25.182 10.845c-1.286 4.596-1.802 13.704 12.234 22.133 0 0 19.93 1.577 25.446-14.046 0 0 4.595.55 4.964-6.433.37-6.984-4.778-5.147-4.778-5.147s-12.498-38.047-38.048-7.352z" fill="#fcdac6"/><path d="M182.99 101.107c0 1.427-.563 2.584-1.262 2.584-.696 0-1.26-1.156-1.26-2.583 0-1.427.564-2.586 1.26-2.586.7.002 1.263 1.16 1.263 2.587z" clip-rule="evenodd" fill="#554132" fill-rule="evenodd"/><ellipse cx="223.1" cy="125.6" rx="1.496" ry="3.062" clip-rule="evenodd" fill="#554132" fill-rule="evenodd" transform="matrix(.9 0 0 .9 -3.464 -11.348)"/><path d="M187.017 103.625s-3.213 5.35-2.588 7.846c.622 2.496 6.775-.934 6.775-.934s-5.038 1.07-5.304 0 .268-4.236 1.117-6.91z" clip-rule="evenodd" fill="#f2cdbb" fill-rule="evenodd"/><path d="M178.773 96.423s3.13-4.347 6.433.173c0 0-.522-3.304-3.304-3.304s-3.13 3.13-3.13 3.13zM200.836 96.652s-3.308-4.594-6.8.184c0 0 .55-3.492 3.493-3.492 2.94 0 3.306 3.308 3.306 3.308z" clip-rule="evenodd" fill="#95755c" fill-rule="evenodd"/><path d="M190.885 84.92s-17.46 5.7-21.506 14.153c0 0-4.595-20.035 12.315-23.343s23.895-.183 24.078 5.146l-19.3 10.66s1.104-3.857 4.412-6.615z" clip-rule="evenodd" fill="#95755c" fill-rule="evenodd"/><path d="M200.626 82.9s.368 6.618 4.044 8.822l.368-2.573s5.883 7.168 4.043 14.704c0 0 2.03-3.03 6.44-2.847 0 0 2.75-10.572-.374-17.556-3.12-6.984-13.783-7.718-14.52-.55z" clip-rule="evenodd" fill="#95755c" fill-rule="evenodd"/><path d="M205.038 89.148s4.962 12.132 2.758 21.138l2.02-.368s-.55-7.167 1.472-8.455c2.02-1.287-.368-22.24-6.25-12.315zM203.016 83.634s-6.8 7.168-16.543 7.904c0 0 11.397-12.132 16.543-7.904zM205.222 78.672s-.918-9.007-16.36-7.17c-15.436 1.838-23.526 12.683-21.505 18.933 0 0 2.022-5.146 5.698-5.146 3.678 0 32.167-6.618 32.167-6.618z" clip-rule="evenodd" fill="#95755c" fill-rule="evenodd"/><path d="M181.927 117l14.89-2.472s-4.78 13.5-14.89 2.472z" fill="#2c2c2d"/><path d="M203.83 79.124s-6.654-10.5-24.1-2.513c0 0 7.688-2.217 13.01-1.48 0 0-12.603.057-19.684 10.158 0 0 11.107-10.896 22.496-8.086 0 0-7.394.148-13.9 5.175 0 0 12.274-4.584 17.448-3.254 0 0-4.29 2.662-6.95 7.394 0 0 6.21-6.654 9.02-6.802 0 0-1.627 4.14-3.697 5.767 0 0 4.29-2.513 5.325-5.322 0 0-.888 4.732.738 7.542 0 0 2.956-4.88.295-8.578z" fill="#7e634e"/><path d="M203.98 80.307s8.28-.886 9.905 5.62c0 0-3.25-4.14-6.208-4.14 0 0 5.323 3.4 3.844 15.377 0 0-1.477-15.377-7.244-15.082" fill="#7e634e"/><path d="M214.773 103.376s-2.81.147-3.105 2.662c0 0 1.627.148 1.627 1.33 0 1.184-1.184 1.48-1.184 1.48l1.63 1.183c-.002 0 2.81-3.697 1.033-6.654z" fill="#f2cdbb"/><path d="M217.927 140.225c.067-2.583.455-6.21 1.85-9.582 0 0-2.512 4.254-2.823 10.456.123-.04.247-.067.368-.104.19-.266.392-.525.605-.77zM174.552 141.082l.887.907.858-10.22z" fill="#67503e"/><path d="M194.8 67.29c21.71 0 39.375 17.66 39.375 39.37 0 21.71-17.665 39.374-39.374 39.374-21.71 0-39.372-17.663-39.372-39.373 0-21.71 17.663-39.37 39.374-39.37m0-3.857c-23.875 0-43.227 19.354-43.227 43.227 0 23.873 19.352 43.227 43.227 43.227 23.874 0 43.227-19.354 43.227-43.227 0-23.873-19.354-43.227-43.228-43.227z" fill="#fff"/></g></g></svg>