<?xml version="1.0" encoding="utf-8"?>
<!-- Generator: Adobe Illustrator 15.0.2, SVG Export Plug-In . SVG Version: 6.00 Build 0)  -->
<!DOCTYPE svg PUBLIC "-//W3C//DTD SVG 1.1//EN" "http://www.w3.org/Graphics/SVG/1.1/DTD/svg11.dtd">
<svg version="1.1" id="Ebene_1" xmlns="http://www.w3.org/2000/svg" xmlns:xlink="http://www.w3.org/1999/xlink" x="0px" y="0px"
	 width="440px" height="290px" viewBox="0 0 440 290" enable-background="new 0 0 440 290" xml:space="preserve">
<path fill="#C6E4E1" d="M334.949,135.821c1.784-0.092,3.537,0.024,5.24,0.308c-15.101-48.695-61.786-82.998-114.986-80.271
	c-15.48,0.794-30.087,4.654-43.271,10.953c2.841,3.516,4.756,7.791,5.347,12.473c11.745-5.69,24.788-9.174,38.619-9.883
	c46.04-2.36,86.519,26.76,100.564,68.446C329.095,136.703,331.947,135.975,334.949,135.821z"/>
<rect x="216.111" y="10.713" transform="matrix(0.9732 -0.23 0.23 0.9732 -5.9898 58.6158)" fill="#E7E7E7" width="64.637" height="88.575"/>
<g>
	<polygon fill="#EC6146" points="251.466,67.84 254.697,71.75 259.751,71.306 257.031,75.586 259.017,80.256 254.102,78.993 
		250.277,82.323 249.96,77.258 245.608,74.648 250.328,72.783 	"/>
</g>
<g>
	<path fill="#94755C" d="M248.481,20.358l-12.396,9.138c0.208,0.873,0.449,1.749,0.718,2.618l5.728,0.991
		c0.615-2.523,2.461-7.097,7.244-2.495l-5.398,2.814l5.497,0.948c0.294,1.245,0.526,2.521,0.704,3.812
		c2.146-1.43,5.363-1.505,10.038,2.716l-9.625,2.275c0.079,2.962-0.129,5.884-0.613,8.572c1.956,1.062,3.92,1.485,5.771,1.048
		c7.612-1.8,10.446-17.387,7.509-29.814L248.481,20.358z M251.913,30.104c2.937-8.291,8.478,0.136,8.478,0.136L251.913,30.104z"/>
	<path fill="#94755C" d="M248.087,50.208c-0.896,6.085-3.182,10.808-6.3,11.544c-5.269,1.246-13.496-8.744-16.643-19.855
		l10.177-7.503l2.411,0.417c-0.338-0.89-0.652-1.791-0.931-2.698l-2.104-0.362l-12.396,9.138
		c2.938,12.426,12.449,25.097,20.061,23.296c4.141-0.978,6.86-6.034,8.015-12.439C249.611,51.327,248.844,50.812,248.087,50.208z"/>
	<path fill="#94755C" d="M248.496,43.764c0.03,2.235-0.111,4.415-0.409,6.445c0.757,0.603,1.523,1.119,2.289,1.538
		c0.484-2.688,0.692-5.61,0.613-8.572L248.496,43.764z"/>
	<path fill="#94755C" d="M247.779,36.547c0.257,1.342,0.44,2.704,0.559,4.062c0.56-0.903,1.294-1.796,2.239-2.426
		c-0.178-1.29-0.41-2.567-0.704-3.812l-5.497-0.948l-2.119,1.103c0,0,0.071-0.602,0.273-1.421l-5.728-0.991
		c0.278,0.907,0.593,1.808,0.931,2.698L247.779,36.547z"/>
	<path fill="#94755C" d="M248.337,40.609c0.092,1.057,0.146,2.11,0.159,3.155l2.493-0.589c-0.045-1.665-0.182-3.339-0.413-4.992
		C249.631,38.813,248.897,39.706,248.337,40.609z"/>
	<path fill="#94755C" d="M244.375,33.423l-1.846-0.319c-0.202,0.819-0.273,1.421-0.273,1.421L244.375,33.423z"/>
	<path fill="#94755C" d="M245.996,48.766l-13.783,3.259C242.943,61.715,245.996,48.766,245.996,48.766z"/>
	<path fill="#94755C" d="M228.715,46.29l7.997-1.891C236.712,44.398,231.653,37.998,228.715,46.29z"/>
	<path fill="#94755C" d="M238.556,43.963l3.396-0.801c-0.523-0.806-1.026-1.641-1.506-2.506
		C239.773,41.312,239.123,42.362,238.556,43.963z"/>
	<path fill="#94755C" d="M246.555,42.072c0,0-3.293-4.162-6.109-1.417c0.479,0.865,0.982,1.7,1.506,2.506L246.555,42.072z"/>
</g>
<polygon fill="#C6E4E1" points="189.279,47.607 175.267,78.348 206.007,92.36 "/>
<path fill="#C6E4E1" d="M245.58,240.204c-11.943,5.924-25.247,9.57-39.389,10.295c-37.365,1.915-71.059-16.911-89.95-46.349
	c-3.385,3.053-7.596,5.199-12.246,6.041c21.27,34.136,59.957,56.055,102.889,53.854c16.57-0.85,32.131-5.223,46.022-12.333
	C249.498,248.658,246.929,244.688,245.58,240.204z"/>
<path fill="#EC6146" d="M352.52,205.56l-29.527-12.437l-39.949,1.732l-20.443,9.73l-9.601,15.659
	c47.415,39.26,108.322,7.18,108.322,7.18L352.52,205.56z M301.542,214.191c-3.602-0.134-5.486-2.718-5.748-5.498
	c-0.851-3.621,1.232-8.049,6.054-7.871c3.603,0.133,5.489,2.719,5.751,5.496C308.448,209.938,306.365,214.367,301.542,214.191z"/>
<ellipse transform="matrix(0.9993 0.0366 -0.0366 0.9993 7.0655 -10.9428)" fill="#F1CDBA" cx="302.159" cy="187.344" rx="11.637" ry="21.965"/>
<polygon fill="#7E634E" points="298.071,205.889 301.542,214.197 296.446,213.946 "/>
<polygon fill="#7E634E" points="304.117,206.272 307.332,214.221 301.542,214.197 "/>
<path fill="#B04B34" d="M302.063,215.659c-0.205-0.007-0.407-0.018-0.615-0.032c-14.063-0.951-19.851-13.923-20.09-14.475
	l2.632-1.144c0.052,0.117,5.358,11.925,17.651,12.756c0.169,0.01,0.337,0.02,0.506,0.025c11.921,0.438,18.296-12.428,18.359-12.56
	l2.582,1.25C322.794,202.092,315.812,216.166,302.063,215.659z"/>
<path fill="#94755C" d="M292.203,194.028c0,0-0.454,4.642,5.867,11.86l-2.43,11.555c0,0-24.087-16.056-12.724-27.832
	C292.233,179.956,292.203,194.028,292.203,194.028z"/>
<path fill="#94755C" d="M312.996,187.804c0,0,0.178,11.069-8.92,18.614l4.592,11.03c0,0,27.352-20.529,13.937-30.031
	C310.112,178.563,312.996,187.804,312.996,187.804z"/>
<path fill="#FBDAC5" d="M260.742,124.329c0,0,2.562,13.025-0.445,22.42c-3.004,9.396-4.758,28.177,23.594,46.654
	c0,0,41.062,4.771,53.641-27.087c0,0,9.451,1.487,10.741-12.916c1.29-14.402-9.483-10.996-9.483-10.996
	S315.855,62.851,260.742,124.329z"/>
<g>
	
		<ellipse transform="matrix(0.9993 0.0367 -0.0367 0.9993 5.3915 -10.0515)" fill-rule="evenodd" clip-rule="evenodd" fill="#554232" cx="276.147" cy="141.651" rx="2.611" ry="5.345"/>
</g>
<g>
	
		<ellipse transform="matrix(0.9993 0.0365 -0.0365 0.9993 5.4597 -11.1517)" fill-rule="evenodd" clip-rule="evenodd" fill="#554232" cx="308.324" cy="144.039" rx="2.784" ry="5.701"/>
</g>
<path fill-rule="evenodd" clip-rule="evenodd" fill="#F1CDBA" d="M286.877,147.251c0,0-7.038,10.809-5.939,16.013
	c1.099,5.207,14.069-1.418,14.069-1.418s-10.488,1.828-10.959-0.402C283.578,159.212,284.925,152.714,286.877,147.251z"/>
<path fill-rule="evenodd" clip-rule="evenodd" fill="#554232" d="M296.291,108.904c0,0-36.509,10.447-45.506,27.608
	c0,0-7.973-41.74,27.215-47.293c35.188-5.553,49.381,1.433,49.357,12.457l-40.683,20.562
	C286.675,122.238,289.248,114.349,296.291,108.904z"/>
<path fill-rule="evenodd" clip-rule="evenodd" fill="#554232" d="M316.57,105.465c0,0,0.26,13.7,7.688,18.536l0.952-5.29
	c0,0,11.609,15.256,7.242,30.686c0,0,4.417-6.106,13.518-5.392c0,0,6.485-21.634,0.56-36.299
	C340.603,93.038,318.633,90.711,316.57,105.465z"/>
<path fill-rule="evenodd" clip-rule="evenodd" fill="#554232" d="M325.209,118.711c0,0,9.336,25.438,4.095,43.879l4.204-0.607
	c0,0-0.596-14.85,3.68-17.356C341.462,142.122,338.115,98.652,325.209,118.711z"/>
<path fill-rule="evenodd" clip-rule="evenodd" fill="#554232" d="M321.451,107.167c0,0-14.593,14.292-34.776,15.072
	C286.675,122.238,311.141,98.041,321.451,107.167z"/>
<path fill-rule="evenodd" clip-rule="evenodd" fill="#554232" d="M326.383,97.081c0,0-1.213-18.681-33.251-16.053
	c-32.039,2.627-49.571,24.419-45.867,37.484c0,0,4.57-10.479,12.164-10.201C267.024,108.591,326.383,97.081,326.383,97.081z"/>
<path fill="#3F3022" d="M323.479,97.908c0,0-12.951-22.194-49.607-7.019c0,0,16.055-4,26.996-2.07c0,0-26.044-0.842-41.438,19.492
	c0,0,23.774-21.669,47.088-15.002c0,0-15.29-0.253-29.113,9.641c0,0,25.706-8.542,36.298-5.399c0,0-9.062,5.175-14.92,14.75
	c0,0,13.336-13.277,19.151-13.369c0,0-3.674,8.432-8.076,11.634c0,0,9.052-4.868,11.403-10.592c0,0-2.191,9.708,0.956,15.635
	C322.216,115.607,328.696,105.75,323.479,97.908z"/>
<path fill="#3F3022" d="M323.693,100.364c0,0,17.178-1.204,20.043,12.36c0,0-6.406-8.798-12.517-9.022c0,0,10.74,7.429,6.776,32.062
	c0,0-1.89-31.882-13.826-31.71"/>
<path fill="#F1CDBA" d="M344.246,148.844c0,0-5.816,0.091-6.619,5.264c0,0,3.35,0.428,3.26,2.872
	c-0.091,2.445-2.557,2.967-2.557,2.967l3.272,2.567C341.603,162.514,347.689,155.089,344.246,148.844z"/>
<path fill="#B04B34" d="M352.52,205.56c0,0-7.414,11.534-6.789,27.771l2.175-0.837C347.906,232.494,346.818,218.018,352.52,205.56z"
	/>
<polygon fill="#B04B34" points="262.6,204.586 258.289,223.698 260.05,225.637 "/>
<path fill="#2C2C2D" d="M302.301,174.003c0,0-8.674-1.892-18.378,3.668C283.923,177.671,288.72,169.07,302.301,174.003z"/>
<g>
	<path fill-rule="evenodd" clip-rule="evenodd" fill="#E4B682" d="M121.003,87.911c4.676,8.533,15.368,13.992,26.87,12.771
		c4.534-0.481,19.559-3.77,23.148-5.945c-1.395,18.806-10.19,50.631,16.695,52.28c0,0-6.182,27.202-38.471,28.716
		C125.421,176.852,104.785,114.856,121.003,87.911z"/>
	<polygon fill-rule="evenodd" clip-rule="evenodd" fill="#AA866A" points="124.811,184.055 139.258,182.521 137.48,165.778 
		124.921,167.112 	"/>
	<path fill="#C39879" d="M168.189,98.361c0,0-7.857,17.557-4.235,26.658c3.623,9.099,16.094,26.581-10.726,46.831
		c0,0-32.924,6.105-54.994-23.154c0,0-9.259,2.119-11.525-12.058c-2.265-14.179,8.64-11.542,8.64-11.542
		S109.38,41.241,168.189,98.361z"/>
	<path fill-rule="evenodd" clip-rule="evenodd" fill="#483729" d="M148.329,111.203c0,0,6.314-10.881,15.004-2.921
		C163.334,108.282,159.131,105.075,148.329,111.203z"/>
	<g>
		
			<ellipse transform="matrix(-0.9944 0.1055 -0.1055 -0.9944 325.2266 224.8392)" fill-rule="evenodd" clip-rule="evenodd" fill="#554232" cx="156.666" cy="121.023" rx="2.591" ry="5.306"/>
	</g>
	<g>
		<path fill-rule="evenodd" clip-rule="evenodd" fill="#554232" d="M125.894,124.649c0.331,3.108,1.83,5.497,3.346,5.334
			c1.518-0.161,2.481-2.81,2.153-5.918c-0.331-3.112-1.83-5.501-3.349-5.339C126.528,118.887,125.564,121.537,125.894,124.649z"/>
	</g>
	<path fill-rule="evenodd" clip-rule="evenodd" fill="#EC6369" d="M156.7,152.938c0,0-2.213-5.765-6.726,0.714
		c0,0-1.119-5.019-10.743,0.484C139.231,154.137,150.36,164.812,156.7,152.938z"/>
	<path fill-rule="evenodd" clip-rule="evenodd" fill="#FBC78E" d="M115.793,92.885c0,0,43.587,28.238,62.492,9.296
		c0,0-11.223-54.085-65.51-23.668L115.793,92.885z"/>
	<path fill-rule="evenodd" clip-rule="evenodd" fill="#FBC78E" d="M118.981,90.056c0,0-20.354,66.989,12.124,79.727
		c0,0-10.192,18.172-37.831,11.147c-27.637-7.023-37.375-119.783,24.232-102.421L118.981,90.056z"/>
	<path fill-rule="evenodd" clip-rule="evenodd" fill="#A17E64" d="M152.244,133.918c0,0,5.055,9.043-6.354,10.665
		C145.89,144.583,152.76,142.549,152.244,133.918z"/>
	<path fill-rule="evenodd" clip-rule="evenodd" fill="#E4B682" d="M115.699,89.655c0,0-10.741,16.081-12.464,44.401
		c0,0-9.462-16.422,3.019-41.904c0,0-16.778,3.774-21.805,19.747c0,0,0.885-24.496,22.096-28.74c0,0-5.316-3.17-12.433-2.167
		c0,0,8.641-5.4,20.672,0.046L115.699,89.655z"/>
	<path fill-rule="evenodd" clip-rule="evenodd" fill="#E4B682" d="M112.666,81.804c0,0,16.365-11.989,38.932-8.162
		c0,0-13.049,1.386-21.988,6.321c0,0,18.038-3.659,35.806,8.895c0,0-25.908,2.255-40.375-2.684c0,0,10.972,9.542,27.888,11.729
		c0,0-20.757,6.189-39.356-9.514L112.666,81.804z"/>
	<path fill-rule="evenodd" clip-rule="evenodd" fill="#EC6369" d="M155.755,153.039c0,0-15.948,3.777-21.667-0.846
		c0,0,7.244,9.607,14.852,8.55C156.546,159.688,156.55,156.599,155.755,153.039z"/>
	<path fill-rule="evenodd" clip-rule="evenodd" fill="#554232" d="M157.422,119.089c0,0,4.873-1.014,2.951-5.045
		c0,0-0.943,2.839-3.706,2.634L157.422,119.089z"/>
	<path fill-rule="evenodd" clip-rule="evenodd" fill="#554232" d="M126.713,122.992c0,0-5.193,0.053-4.095-4.296
		c0,0,1.571,2.573,4.347,1.778L126.713,122.992z"/>
	<path fill-rule="evenodd" clip-rule="evenodd" fill="#554232" d="M134.326,113.035c0,0-8.458-9.311-15.283,0.297
		C119.044,113.332,122.479,109.312,134.326,113.035z"/>
	<path fill-rule="evenodd" clip-rule="evenodd" fill="#AA866A" d="M136.897,179.036c0,0,30.847,16.145,0.765,28.302
		c-30.083,12.162-26.526-22.329-11.408-27.67C141.377,174.327,136.897,179.036,136.897,179.036z"/>
	<path fill-rule="evenodd" clip-rule="evenodd" fill="#C9C14A" d="M125.052,180.047c0,0-20.903,11.105-28.387,32.068
		c0,0,40.042,30.769,71.29-7.907c0,0-11.887-20.486-29.207-24.124c0,0,11.601,15.451-5.413,17.01
		C116.32,198.651,125.052,180.047,125.052,180.047z"/>
	<path fill-rule="evenodd" clip-rule="evenodd" fill="#ADA740" d="M138.749,180.084c0,0,10.218,12.193-4.668,15.02
		c-14.888,2.824-9.029-15.057-9.029-15.057l-3.397,1.606c0,0-7.791,21.99,11.801,18.913
		C153.049,197.489,146.346,181.271,138.749,180.084z"/>
</g>
<g>
	
		<rect x="148.7" y="190.191" transform="matrix(0.9829 0.1839 -0.1839 0.9829 46.2074 -29.2899)" fill="#E7E7E7" width="64.638" height="88.576"/>
	<g>
		<polygon fill="#EC6146" points="158.768,243.739 160.136,248.624 164.94,250.263 160.717,253.076 160.639,258.15 156.66,255.004 
			151.811,256.499 153.573,251.741 150.654,247.591 155.723,247.799 		"/>
		<polygon fill="#EC6146" points="178.591,247.448 179.963,252.333 184.765,253.973 180.543,256.786 180.466,261.858 
			176.485,258.713 171.638,260.208 173.399,255.449 170.478,251.3 175.549,251.507 		"/>
		<polygon fill="#EC6146" points="198.418,251.156 199.788,256.042 204.591,257.681 200.368,260.494 200.292,265.568 
			196.311,262.422 191.463,263.916 193.226,259.159 190.305,255.009 195.374,255.216 		"/>
	</g>
	<g>
		<path fill="#94755C" d="M169.111,225.845l-3.584-0.67l-0.778,4.163l33.299,6.229l0.78-4.163l-3.585-0.672l2.543-13.597
			l5.691,1.063l-15.719-18.33l-21.793,11.312l5.691,1.065L169.111,225.845z M175.817,213.023l6.822,1.278l-2.545,13.597
			l-6.822-1.275L175.817,213.023z M191.081,229.955l-6.823-1.276l2.544-13.599l6.822,1.275L191.081,229.955z"/>
		
			<rect x="178.632" y="216.392" transform="matrix(0.1843 -0.9829 0.9829 0.1843 -84.4452 370.0852)" fill="#94755C" width="4.236" height="39.055"/>
	</g>
</g>
<path fill-rule="evenodd" clip-rule="evenodd" fill="#554232" d="M268.703,129.917l12.164,3.273l0.628-3.57
	C281.495,129.619,270.058,127.042,268.703,129.917z"/>
<path fill-rule="evenodd" clip-rule="evenodd" fill="#554232" d="M315.71,132.258l-13.139,3.082l-0.472-3.599
	C302.1,131.741,314.426,129.343,315.71,132.258z"/>
<polygon fill="#C6E4E1" points="248.676,271.853 262.691,241.11 231.948,227.1 "/>
</svg>
