<?xml version="1.0" encoding="utf-8"?>
<!-- Generator: Adobe Illustrator 15.0.2, SVG Export Plug-In . SVG Version: 6.00 Build 0)  -->
<!DOCTYPE svg PUBLIC "-//W3C//DTD SVG 1.1//EN" "http://www.w3.org/Graphics/SVG/1.1/DTD/svg11.dtd">
<svg version="1.1" id="Ebene_1" xmlns="http://www.w3.org/2000/svg" xmlns:xlink="http://www.w3.org/1999/xlink" x="0px" y="0px"
	 width="440px" height="290px" viewBox="0 0 440 290" enable-background="new 0 0 440 290" xml:space="preserve">
<path fill="#EC6146" d="M229.721,40.999c-7.746-0.924-10.176,4.558-10.176,4.558s0.75-5.949-6.363-9.159
	c-3.081-1.391-10.478-1.068-12.291,7.664c-1.814,8.732,5.819,18.859,11.338,27.785c9.339-4.792,21.103-9.523,24.061-17.937
	C239.246,45.496,233.08,41.399,229.721,40.999z"/>
<path fill="#EC6146" d="M308.673,79.815c-10.104,0-18.294,8.189-18.294,18.292c0,10.104,18.294,41.646,18.294,41.646
	s18.292-31.542,18.292-41.646C326.965,88.005,318.775,79.815,308.673,79.815z M308.673,109.395c-6.233,0-11.287-5.054-11.287-11.288
	c0-6.232,5.054-11.287,11.287-11.287c6.232,0,11.286,5.055,11.286,11.287C319.959,104.341,314.905,109.395,308.673,109.395z"/>
<g>
	<path fill="#EC6146" d="M297.278,185.927h0.004v-19.445v-2.96v-6.844l-20.161,2.102v8.502v1.3v17.059
		c-0.833-0.15-1.727-0.141-2.632,0.07c-3.104,0.724-5.118,3.481-4.494,6.161c0.626,2.678,3.647,4.264,6.757,3.539
		c2.935-0.684,4.892-3.188,4.568-5.724h0.002v-21.543l11.757-1.226v14.962c-0.831-0.151-1.725-0.142-2.63,0.069
		c-3.104,0.723-5.119,3.481-4.496,6.16c0.627,2.679,3.65,4.264,6.757,3.54C295.646,190.967,297.601,188.462,297.278,185.927z"/>
	<path fill="#EC6146" d="M308.138,189.349l7.478,3.587v-9.802l-11.679-5.602v5.175v4.627v13.731c-0.832-0.149-1.728-0.141-2.63,0.07
		c-3.106,0.724-5.119,3.481-4.496,6.159c0.625,2.68,3.648,4.264,6.755,3.541c2.937-0.686,4.891-3.188,4.569-5.724h0.003V189.349z"/>
</g>
<polygon fill="#EC6146" points="132.707,82.571 137.856,98.423 154.524,98.423 141.04,108.221 146.191,124.073 132.707,114.276 
	119.221,124.073 124.372,108.221 110.888,98.423 127.554,98.423 "/>
<path fill="#EC6146" d="M221.136,276.505c-71.771,0-130.16-58.391-130.16-130.161c0-71.771,58.39-130.162,130.16-130.162
	c71.771,0,130.162,58.39,130.162,130.162C351.298,218.114,292.907,276.505,221.136,276.505z M221.136,31.633
	c-63.251,0-114.709,51.459-114.709,114.71c0,63.252,51.458,114.71,114.709,114.71c63.252,0,114.711-51.458,114.711-114.71
	C335.847,83.092,284.388,31.633,221.136,31.633z"/>
<rect x="157.619" y="84.284" fill="#F5F5F5" width="124.994" height="144.455"/>
<polygon fill="#3F3F41" points="156.679,229.565 283.554,216.197 283.554,230.902 156.679,230.902 "/>
<polygon fill="#EC6146" points="283.554,114.559 156.679,131.859 156.679,65.253 283.554,65.253 "/>
<path fill="#FFFFFF" d="M284.991,233.281H155.24V63.74h129.751V233.281z M158.268,230.253h123.696V66.768H158.268V230.253z"/>
<g>
	<path fill="#AAAFB2" d="M224.398,185.85l-7.565,3.228c0,0.479,0.018,0.964,0.051,1.448l2.854,1.218
		c0.631-1.235,2.152-3.386,4.073-0.405l-3.152,0.8l2.74,1.168c0,0.683-0.035,1.375-0.101,2.067c1.289-0.48,2.972-0.124,4.884,2.645
		h-5.284c-0.321,1.551-0.789,3.044-1.37,4.382c0.886,0.792,1.854,1.253,2.87,1.253c4.18,0,7.567-7.754,7.567-14.575L224.398,185.85z
		 M224.985,191.338c2.547-3.95,4.391,1.112,4.391,1.112L224.985,191.338z"/>
	<path fill="#AAAFB2" d="M220.525,201.318c-1.214,3.054-2.98,5.229-4.691,5.229c-2.892,0-5.943-6.206-6.212-12.367l6.212-2.65
		l1.203,0.513c-0.067-0.505-0.12-1.011-0.153-1.517l-1.05-0.447l-7.566,3.228c0,6.821,3.387,14.575,7.566,14.575
		c2.271,0,4.308-2.293,5.694-5.481C221.181,202.088,220.846,201.726,220.525,201.318z"/>
	<path fill="#AAAFB2" d="M221.531,198.018c-0.259,1.166-0.602,2.283-1.006,3.301c0.32,0.407,0.655,0.77,1.003,1.081
		c0.581-1.338,1.049-2.831,1.37-4.382H221.531z"/>
	<path fill="#AAAFB2" d="M222.045,194.18c-0.031,0.729-0.104,1.459-0.209,2.18c0.401-0.4,0.895-0.775,1.463-0.986
		c0.065-0.692,0.101-1.385,0.101-2.067l-2.74-1.168l-1.237,0.312c0,0,0.111-0.305,0.316-0.707l-2.854-1.218
		c0.033,0.506,0.086,1.012,0.153,1.517L222.045,194.18z"/>
	<path fill="#AAAFB2" d="M221.836,196.359c-0.082,0.561-0.185,1.115-0.305,1.658h1.367c0.182-0.87,0.316-1.757,0.4-2.645
		C222.73,195.584,222.237,195.959,221.836,196.359z"/>
	<path fill="#AAAFB2" d="M220.659,192.138l-0.921-0.395c-0.205,0.402-0.316,0.707-0.316,0.707L220.659,192.138z"/>
	<path fill="#AAAFB2" d="M219.617,200.312h-7.566C216.438,206.668,219.617,200.312,219.617,200.312z"/>
	<path fill="#AAAFB2" d="M210.938,196.901h4.39C215.327,196.901,213.483,192.952,210.938,196.901z"/>
	<path fill="#AAAFB2" d="M216.34,196.901h1.862c-0.173-0.483-0.332-0.979-0.475-1.487
		C217.297,195.673,216.832,196.139,216.34,196.901z"/>
	<path fill="#AAAFB2" d="M220.729,196.901c0,0-1.201-2.568-3.002-1.487c0.143,0.508,0.302,1.004,0.475,1.487H220.729z"/>
</g>
<path fill="#C6E4E1" d="M253.117,125.441c-0.027-0.325-0.054-0.651-0.085-0.977c-0.044-0.284-0.097-0.635-0.13-0.807
	c-0.17-0.875-0.347-1.75-0.595-2.609c-0.353-1.217-0.852-2.375-1.303-3.559c-0.175-0.461-0.339-0.924-0.501-1.388
	c-0.917-1.481-1.959-2.925-2.615-4.538c-1.429-0.701-2.653-1.797-3.423-3.274c-0.259-0.496-0.524-0.984-0.848-1.441
	c-0.054-0.061-0.117-0.131-0.193-0.218c-0.791-0.902-1.624-1.771-2.384-2.697c-0.378-0.46-0.75-0.935-1.181-1.346
	c-0.213-0.202-0.835-0.674-0.943-0.772c-0.726-0.474-1.47-0.918-2.227-1.347c-0.543-0.307-1.078-0.633-1.643-0.898
	c-0.151-0.071-0.267-0.125-0.357-0.171c-0.003,0-0.004-0.001-0.005-0.001c-1.7-0.666-3.417-1.316-5.067-2.091
	c-0.589-0.278-1.161-0.582-1.744-0.87c-0.274-0.136-1.381-0.557-1.213-0.51c-0.203-0.066-0.406-0.125-0.61-0.176
	c-0.025-0.002-0.047-0.003-0.075-0.005c-0.657-0.026-1.299-0.121-1.917-0.276c-0.831,0.276-1.714,0.433-2.626,0.442
	c-0.868,0.009-1.737,0.034-2.604,0.103c-0.021,0.033-2.045,0.343-2.445,0.437c-2.184,0.513-4.35,1.134-6.515,1.718
	c-0.644,0.174-1.294,0.339-1.923,0.565c-0.043,0.015-0.081,0.03-0.118,0.043c-1.326,0.628-2.68,1.197-4.04,1.752
	c-0.365,0.15-2.32,0.97-2.25,0.921c-0.704,0.328-1.394,0.676-2.07,1.062c-0.307,0.173-0.619,0.32-0.937,0.453
	c-0.817,1.76-2.223,3.207-3.949,4.086c-0.293,1.795-1.164,3.415-2.408,4.664c-0.479,1.559-1.4,2.938-2.611,3.989
	c0.002,0.058,0.006,0.115,0.006,0.173c0,2.236-0.897,4.292-2.345,5.826c0.075,0.444,0.114,0.899,0.114,1.362
	c0,1.133-0.237,2.217-0.652,3.214c0.419,1,0.652,2.092,0.652,3.229c0,1.057-0.203,2.075-0.568,3.016
	c0.625,1.18,0.982,2.517,0.982,3.925c0,0.04-0.006,0.079-0.007,0.119c1.04,1.413,1.66,3.146,1.66,5.002
	c0,0.183-0.009,0.364-0.021,0.545c1.354,1.295,2.292,3.022,2.573,4.939c1.608,1.087,2.837,2.706,3.426,4.586
	c4.375,1.542,7.752,5.221,11.838,7.362c0.303,0.132,0.793,0.344,0.987,0.4c0.629,0.187,1.26,0.361,1.896,0.528
	c1.301,0.34,2.587,0.735,3.891,1.051c0.646,0.156,1.294,0.313,1.947,0.436c0.211,0.04,0.83,0.117,1.151,0.161
	c0.866,0.069,1.734,0.113,2.606,0.124c0.559,0.004,1.105,0.067,1.637,0.176c0.897-0.29,1.857-0.452,2.907-0.589
	c1.543-0.202,3.03-0.041,4.551,0.071c0.993-0.773,2.156-1.33,3.417-1.606c1.305-1.231,2.988-2.059,4.837-2.281
	c1.095-1.074,2.473-1.861,3.998-2.229c0.847-2.673,2.998-4.804,5.676-5.636c0.206-2.385,1.433-4.507,3.229-5.938
	c0.135-1.412,0.624-2.731,1.378-3.868c0.059-1.716,0.645-3.313,1.595-4.639c-0.023-0.258-0.039-0.518-0.039-0.781
	c0-0.441,0.035-0.877,0.104-1.301c-0.159-1.118-0.128-2.286,0.119-3.447c0.015-0.071,0.03-0.156,0.042-0.243
	c0.026-0.354,0.046-0.709,0.051-1.064C253.208,127.365,253.193,126.402,253.117,125.441z"/>
<g>
	<path fill="#3F3F41" d="M241.979,152.815l-2.246-5.035l-11.383-4.311l-15.142,1.215l-7.627,3.98l-3.425,6.078
		c8.834,6.784,18.607,7.38,26.419,6.145c1.402-1.617,3.417-2.694,5.655-2.837c0.982-1,2.212-1.752,3.582-2.15
		C238.829,154.472,240.29,153.372,241.979,152.815z M220.502,151.768c-1.371,0-2.122-0.955-2.26-2.007
		c-0.374-1.362,0.356-3.072,2.189-3.072c1.369,0,2.122,0.955,2.259,2.006C223.062,150.057,222.335,151.768,220.502,151.768z"/>
	<path fill="#3F3F41" d="M224.782,141.567c0,4.609-1.979,10.162-4.421,10.162c-2.443,0-4.422-5.553-4.422-10.162
		c0-4.608,1.979-8.345,4.422-8.345C222.803,133.222,224.782,136.959,224.782,141.567z"/>
	<polygon fill="#3F3F41" points="219.066,148.665 220.502,151.77 218.563,151.746 	"/>
	<polygon fill="#3F3F41" points="221.369,148.726 222.7,151.698 220.502,151.77 	"/>
	<path fill="#3F3F41" d="M220.718,152.317c-0.076,0-0.154-0.001-0.232-0.004c-5.354-0.164-7.73-5.009-7.83-5.214l0.985-0.471
		c0.021,0.043,2.2,4.452,6.879,4.596c0.062,0.002,0.127,0.003,0.191,0.003c4.532,0,6.773-4.973,6.795-5.024l0.998,0.439
		C228.4,146.878,225.946,152.317,220.718,152.317z"/>
	<path fill="#3F3F41" d="M216.675,144.244c0,0-0.107,1.768,2.392,4.421l-0.761,4.421c0,0-9.369-5.761-5.218-10.39
		C216.49,138.9,216.675,144.244,216.675,144.244z"/>
	<path fill="#3F3F41" d="M224.481,141.591c0,0,0.222,4.2-3.127,7.19l1.897,4.124c0,0,10.098-8.175,4.872-11.596
		C223.258,138.123,224.481,141.591,224.481,141.591z"/>
	<g>
		<path fill="#3F3F41" d="M203.76,118.22c0,0,1.153,4.909,0.143,8.518c-1.009,3.609-1.415,10.763,9.608,17.384
			c0,0,15.655,1.239,19.986-11.032c0,0,3.609,0.432,3.898-5.053c0.289-5.486-3.752-4.042-3.752-4.042S223.827,94.112,203.76,118.22z
			"/>
		<g>
			<ellipse fill-rule="evenodd" clip-rule="evenodd" fill="#3F3F41" cx="209.849" cy="124.582" rx="0.991" ry="2.03"/>
		</g>
		<g>
			<ellipse fill-rule="evenodd" clip-rule="evenodd" fill="#3F3F41" cx="222.099" cy="125.041" rx="1.057" ry="2.165"/>
		</g>
		<path fill-rule="evenodd" clip-rule="evenodd" fill="#3F3F41" d="M214.002,126.559c0,0-2.523,4.201-2.032,6.162
			c0.488,1.96,5.321-0.734,5.321-0.734s-3.957,0.84-4.165-0.001C212.916,131.146,213.335,128.66,214.002,126.559z"/>
		<path fill-rule="evenodd" clip-rule="evenodd" fill="#3F3F41" d="M207.527,120.902c0,0,2.458-3.414,5.053,0.136
			c0,0-0.41-2.595-2.595-2.595C207.8,118.443,207.527,120.902,207.527,120.902z"/>
		<path fill-rule="evenodd" clip-rule="evenodd" fill="#3F3F41" d="M224.856,121.083c0,0-2.599-3.608-5.342,0.145
			c0,0,0.433-2.743,2.743-2.743C224.567,118.484,224.856,121.083,224.856,121.083z"/>
		<path fill-rule="evenodd" clip-rule="evenodd" fill="#3F3F41" d="M217.04,111.869c0,0-13.713,4.475-16.89,11.115
			c0,0-3.608-15.735,9.672-18.334c13.282-2.598,18.767-0.143,18.911,4.042l-15.158,8.374
			C213.575,117.065,214.442,114.035,217.04,111.869z"/>
		<path fill-rule="evenodd" clip-rule="evenodd" fill="#3F3F41" d="M224.69,110.281c0,0,0.289,5.197,3.176,6.928l0.29-2.021
			c0,0,4.621,5.631,3.176,11.55c0,0,1.593-2.38,5.058-2.236c0,0,2.159-8.303-0.294-13.789
			C233.644,105.228,225.27,104.651,224.69,110.281z"/>
		<path fill-rule="evenodd" clip-rule="evenodd" fill="#3F3F41" d="M228.156,115.188c0,0,3.897,9.529,2.166,16.602l1.587-0.289
			c0,0-0.434-5.629,1.156-6.64C234.652,123.851,232.777,107.394,228.156,115.188z"/>
		<path fill-rule="evenodd" clip-rule="evenodd" fill="#3F3F41" d="M226.567,110.858c0,0-5.341,5.63-12.992,6.208
			C213.575,117.065,222.525,107.538,226.567,110.858z"/>
		<path fill-rule="evenodd" clip-rule="evenodd" fill="#3F3F41" d="M228.3,106.961c0,0-0.721-7.075-12.848-5.631
			c-12.125,1.443-18.479,9.961-16.891,14.87c0,0,1.588-4.042,4.476-4.042C205.924,112.157,228.3,106.961,228.3,106.961z"/>
		<path fill="#3F3F41" d="M210.005,137.064l11.692-1.941C221.697,135.123,217.945,145.727,210.005,137.064z"/>
	</g>
	<path fill="#3F3F41" d="M227.208,107.315c0,0-5.227-8.246-18.931-1.974c0,0,6.039-1.742,10.22-1.162c0,0-9.898,0.044-15.46,7.977
		c0,0,8.724-8.557,17.668-6.351c0,0-5.808,0.116-10.918,4.065c0,0,9.641-3.601,13.705-2.556c0,0-3.369,2.09-5.458,5.808
		c0,0,4.877-5.226,7.082-5.342c0,0-1.276,3.251-2.903,4.529c0,0,3.368-1.973,4.183-4.18c0,0-0.696,3.717,0.58,5.924
		C226.976,114.053,229.299,110.22,227.208,107.315z"/>
	<path fill="#3F3F41" d="M227.325,108.245c0,0,6.503-0.696,7.779,4.414c0,0-2.553-3.252-4.876-3.252c0,0,4.182,2.671,3.018,12.078
		c0,0-1.159-12.078-5.69-11.846"/>
	<path fill="#3F3F41" d="M235.803,126.364c0,0-2.207,0.116-2.439,2.09c0,0,1.277,0.116,1.277,1.045c0,0.93-0.93,1.162-0.93,1.162
		l1.278,0.928C234.989,131.589,237.196,128.687,235.803,126.364z"/>
	<path fill="#3F3F41" d="M238.278,155.305c0.054-2.027,0.359-4.877,1.455-7.524c0,0-1.975,3.341-2.218,8.212
		c0.096-0.031,0.194-0.052,0.289-0.081C237.953,155.702,238.111,155.499,238.278,155.305z"/>
	<polygon fill="#3F3F41" points="205.582,148.665 204.212,155.979 204.908,156.69 	"/>
</g>
<path fill="#FFFFFF" d="M220.115,98.02c17.051,0,30.925,13.872,30.925,30.923c0,17.052-13.874,30.925-30.925,30.925
	c-17.052,0-30.924-13.874-30.924-30.925C189.191,111.892,203.063,98.02,220.115,98.02 M220.115,94.992
	c-18.75,0-33.951,15.201-33.951,33.951s15.2,33.952,33.951,33.952c18.752,0,33.952-15.201,33.952-33.952
	S238.867,94.992,220.115,94.992L220.115,94.992z"/>
<g>
	<path fill="#95755C" d="M140.856,61.492c-0.044-0.516-0.086-1.032-0.136-1.547c-0.068-0.45-0.154-1.006-0.205-1.278
		c-0.269-1.385-0.551-2.773-0.941-4.134c-0.56-1.929-1.35-3.765-2.065-5.641c-0.277-0.73-0.537-1.463-0.793-2.199
		c-1.454-2.347-3.105-4.635-4.145-7.191c-2.265-1.111-4.206-2.848-5.425-5.188c-0.409-0.787-0.832-1.56-1.342-2.285
		c-0.086-0.096-0.185-0.207-0.307-0.346c-1.252-1.429-2.571-2.806-3.778-4.273c-0.597-0.729-1.187-1.481-1.87-2.134
		c-0.336-0.32-1.322-1.069-1.494-1.223c-1.15-0.751-2.329-1.456-3.527-2.135c-0.86-0.486-1.708-1.002-2.604-1.422
		c-0.24-0.113-0.422-0.2-0.567-0.271c-0.002,0-0.004-0.003-0.007-0.003c-2.693-1.055-5.414-2.086-8.03-3.314
		c-0.933-0.44-1.84-0.921-2.765-1.378c-0.434-0.214-2.186-0.882-1.922-0.807c-0.319-0.105-0.641-0.198-0.965-0.279
		c-0.041-0.003-0.075-0.005-0.118-0.008c-1.044-0.042-2.06-0.191-3.04-0.438c-1.316,0.438-2.716,0.685-4.161,0.7
		c-1.376,0.016-2.753,0.054-4.126,0.163c-0.034,0.053-3.24,0.543-3.875,0.692c-3.46,0.812-6.892,1.797-10.324,2.722
		c-1.019,0.277-2.049,0.538-3.047,0.896c-0.066,0.024-0.127,0.048-0.187,0.07c-2.102,0.996-4.247,1.897-6.402,2.776
		c-0.58,0.237-3.677,1.537-3.564,1.459c-1.116,0.52-2.208,1.07-3.28,1.683c-0.486,0.275-0.981,0.507-1.485,0.717
		c-1.295,2.79-3.522,5.083-6.259,6.476c-0.463,2.845-1.842,5.412-3.814,7.39c-0.76,2.471-2.219,4.656-4.139,6.322
		c0.002,0.091,0.011,0.182,0.011,0.275c0,3.542-1.422,6.8-3.717,9.232c0.118,0.704,0.181,1.426,0.181,2.16
		c0,1.795-0.377,3.513-1.035,5.092c0.666,1.585,1.035,3.314,1.035,5.117c0,1.676-0.323,3.289-0.901,4.779
		c0.991,1.871,1.556,3.988,1.556,6.219c0,0.064-0.008,0.125-0.011,0.188c1.647,2.24,2.629,4.986,2.629,7.927
		c0,0.291-0.013,0.578-0.033,0.865c2.146,2.052,3.633,4.788,4.079,7.827c2.548,1.723,4.495,4.288,5.427,7.266
		c6.935,2.444,12.284,8.273,18.76,11.667c0.481,0.208,1.257,0.545,1.563,0.634c0.998,0.295,1.999,0.573,3.005,0.836
		c2.06,0.539,4.099,1.167,6.166,1.666c1.024,0.248,2.051,0.498,3.087,0.691c0.332,0.064,1.314,0.186,1.824,0.256
		c1.371,0.108,2.746,0.18,4.129,0.196c0.886,0.009,1.753,0.107,2.595,0.28c1.421-0.461,2.942-0.718,4.605-0.934
		c2.447-0.32,4.802-0.065,7.21,0.112c1.575-1.225,3.418-2.106,5.415-2.545c2.068-1.952,4.735-3.263,7.666-3.615
		c1.736-1.702,3.919-2.949,6.337-3.531c1.341-4.235,4.75-7.612,8.993-8.931c0.327-3.779,2.27-7.143,5.116-9.409
		c0.214-2.237,0.99-4.328,2.185-6.129c0.09-2.72,1.02-5.25,2.528-7.351c-0.039-0.41-0.062-0.821-0.062-1.238
		c0-0.7,0.055-1.39,0.163-2.062c-0.252-1.772-0.202-3.622,0.189-5.462c0.024-0.112,0.047-0.247,0.067-0.385
		c0.041-0.561,0.071-1.124,0.081-1.688C141,64.542,140.977,63.015,140.856,61.492z"/>
	<g>
		<path fill-rule="evenodd" clip-rule="evenodd" fill="#DBAF7E" d="M65.077,44.581c0,0-18.441,52.148,14.656,57.645
			c33.096,5.496,40.18-15.266,41.034-31.143"/>
		<polygon fill-rule="evenodd" clip-rule="evenodd" fill="#D4BAA9" points="92.951,96.357 84.405,96.357 84.405,86.451 
			91.834,86.451 		"/>
		<path fill="#FCDAC6" d="M62.25,48.918c0,0,5.687,9.785,4.133,15.334c-1.554,5.548-3.948,16.55,13.001,26.731
			c0,0,15.824,1.527,26.918-16.963c0,0,5.549,0.666,5.995-7.77c0.442-8.436-5.773-6.216-5.773-6.216S93.107,11.848,62.25,48.918z"/>
		<path fill-rule="evenodd" clip-rule="evenodd" fill="#DBAF7E" d="M74.667,55.198c0,0-4.371-5.972-8.96-0.777
			C65.706,54.421,67.965,52.283,74.667,55.198z"/>
		<g>
			<ellipse fill-rule="evenodd" clip-rule="evenodd" fill="#554132" cx="70.399" cy="61.462" rx="1.525" ry="3.12"/>
		</g>
		<g>
			<ellipse fill-rule="evenodd" clip-rule="evenodd" fill="#554132" cx="87" cy="61.669" rx="1.627" ry="3.331"/>
		</g>
		<path fill-rule="evenodd" clip-rule="evenodd" fill="#DAAEB4" d="M76.789,80.134c0,0,0.7-3.51,2.973,0
			c0,0,0.255-3.006,4.716-0.384C84.478,79.75,80.11,86.687,76.789,80.134z"/>
		<path fill-rule="evenodd" clip-rule="evenodd" fill="#FBC78E" d="M90.524,41.002c0,0,25.735,51.999,7.527,61.468
			c0,0,0.388,5.46,16.122-0.367c15.73-5.826,11.456-81.931-23.506-67.947L90.524,41.002z"/>
		<path fill-rule="evenodd" clip-rule="evenodd" fill="#DAAEB4" d="M77.208,80.134c0,0,7.145,1.218,9.427-1.84
			c0,0-2.718,6.07-6.092,5.925C77.17,84.074,77.026,82.267,77.208,80.134z"/>
		<path fill-rule="evenodd" clip-rule="evenodd" fill="#554132" d="M69.838,60.377c0,0-2.916-0.292-2.04-2.768
			c0,0,0.728,1.602,2.33,1.311L69.838,60.377z"/>
		<path fill-rule="evenodd" clip-rule="evenodd" fill="#554132" d="M88.045,60.751c0,0,3.042-0.291,2.129-2.767
			c0,0-0.761,1.601-2.434,1.311L88.045,60.751z"/>
		<path fill-rule="evenodd" clip-rule="evenodd" fill="#DBAF7E" d="M82.971,55.4c0,0,4.37-5.973,8.96-0.776
			C91.932,54.624,89.673,52.486,82.971,55.4z"/>
		<path fill-rule="evenodd" clip-rule="evenodd" fill="#D4BAA9" d="M85.569,94.171c0,0-17.043,11.363,1.312,16.606
			c18.354,5.246,14.129-14.712,4.954-16.897C82.656,91.696,85.569,94.171,85.569,94.171z"/>
		<path fill-rule="evenodd" clip-rule="evenodd" fill="#3F3F41" d="M92.562,94.026c0,0,12.92,5.2,18.601,16.999
			c0,0-21.514,20.489-42.202-0.196c0,0,5.683-12.724,15.589-15.929c0,0-6.457,7.273,3.595,7.129
			C98.197,101.883,92.562,94.026,92.562,94.026z"/>
		<path fill-rule="evenodd" clip-rule="evenodd" fill="#1D1D1D" d="M84.55,94.9l-4.884,1.073c0,0-1.211,8.781,5.753,13.928
			l2.726-7.871C88.145,102.03,83.075,99.883,84.55,94.9z"/>
		<path fill-rule="evenodd" clip-rule="evenodd" fill="#1D1D1D" d="M88.145,102.03l3.027,7.871c0,0,9.084-4.542,7.873-13.625
			l-6.483-2.249C92.562,94.026,92.99,100.515,88.145,102.03z"/>
		<path fill-rule="evenodd" clip-rule="evenodd" fill="#FBC78E" d="M90.524,41.002c0,0-29.112,0.648-26.547,17.746
			c0,0-8.06-3.786-8.916-14.412c-0.854-10.625,23.815-26.868,36.029-9.891"/>
		<path fill-rule="evenodd" clip-rule="evenodd" fill="#FBC78E" d="M95.608,33.712c0,0-8.305-15.632-32.975-3.298
			c0,0,23.449-0.977,24.793,5.13C88.768,41.65,95.608,33.712,95.608,33.712z"/>
		<path fill-rule="evenodd" clip-rule="evenodd" fill="#FBC78E" d="M91.823,29.438c0,0,25.28-11.724,31.385,34.195L111.729,45.68
			l-16.854-9.282L91.823,29.438z"/>
		<path fill-rule="evenodd" clip-rule="evenodd" fill="#DBAF7E" d="M91.456,31.147c0,0-13.921-6.229-22.959-0.123h11.358
			c0,0-16.366,2.076-17.466,13.068c0,0,10.136-11.846,22.473-9.038c0,0-8.305,0.979-13.557,6.839c0,0,11.724-4.151,19.296-3.419
			c0,0,14.655,19.419,15.755,41.158c0,0,1.222-21.494-6.228-36.149c0,0,7.938,7.693,11.601,24.059c0,0-0.243-18.808-12.456-32.243
			c0,0,7.205-0.122,14.9,8.793C114.173,44.092,110.141,26.384,91.456,31.147z"/>
		<path fill-rule="evenodd" clip-rule="evenodd" fill="#D4BAA9" d="M76.676,67.313l-2.105,6.493c0,0,2.63,2.108,5.265,0.177
			c0,0-2.809,0.35-3.863-0.878L76.676,67.313z"/>
	</g>
	<path fill="#FFFFFF" d="M88.561,18.038c27.02,0,49.004,21.983,49.004,49.004c0,27.021-21.985,49.004-49.004,49.004
		c-27.022,0-49.006-21.984-49.006-49.004C39.555,40.021,61.538,18.038,88.561,18.038 M88.561,13.24
		c-29.715,0-53.803,24.088-53.803,53.802s24.087,53.801,53.803,53.801c29.715,0,53.801-24.087,53.801-53.801
		S118.275,13.24,88.561,13.24L88.561,13.24z"/>
</g>
<g>
	<path fill="#B19B74" d="M414.344,135.877c-0.045-0.516-0.087-1.032-0.136-1.548c-0.069-0.45-0.155-1.006-0.206-1.278
		c-0.269-1.385-0.551-2.772-0.941-4.133c-0.56-1.929-1.35-3.765-2.065-5.641c-0.276-0.73-0.538-1.464-0.794-2.2
		c-1.453-2.347-3.104-4.635-4.145-7.191c-2.264-1.112-4.206-2.848-5.424-5.188c-0.411-0.788-0.832-1.56-1.343-2.286
		c-0.086-0.095-0.187-0.207-0.308-0.345c-1.252-1.43-2.571-2.806-3.778-4.274c-0.597-0.729-1.187-1.481-1.87-2.134
		c-0.336-0.32-1.322-1.069-1.494-1.223c-1.15-0.751-2.328-1.456-3.528-2.135c-0.859-0.486-1.708-1.001-2.604-1.422
		c-0.239-0.113-0.422-0.2-0.566-0.271c-0.004,0-0.005-0.003-0.008-0.003c-2.694-1.055-5.413-2.086-8.029-3.314
		c-0.934-0.439-1.84-0.921-2.765-1.377c-0.435-0.215-2.187-0.882-1.922-0.808c-0.32-0.104-0.642-0.198-0.966-0.279
		c-0.041-0.002-0.075-0.005-0.118-0.007c-1.045-0.042-2.061-0.191-3.04-0.438c-1.315,0.438-2.716,0.685-4.161,0.701
		c-1.375,0.015-2.752,0.053-4.125,0.163c-0.034,0.053-3.24,0.543-3.876,0.691c-3.461,0.812-6.894,1.797-10.323,2.722
		c-1.02,0.277-2.05,0.538-3.048,0.896c-0.066,0.024-0.127,0.048-0.187,0.069c-2.102,0.996-4.248,1.897-6.401,2.776
		c-0.58,0.237-3.676,1.537-3.565,1.459c-1.114,0.52-2.206,1.071-3.279,1.684c-0.486,0.275-0.981,0.507-1.484,0.718
		c-1.296,2.79-3.522,5.082-6.26,6.476c-0.464,2.845-1.843,5.412-3.815,7.39c-0.758,2.47-2.219,4.656-4.138,6.321
		c0.002,0.091,0.011,0.182,0.011,0.275c0,3.543-1.422,6.8-3.718,9.232c0.119,0.705,0.182,1.426,0.182,2.16
		c0,1.795-0.378,3.513-1.035,5.092c0.665,1.585,1.035,3.315,1.035,5.117c0,1.677-0.323,3.29-0.901,4.78
		c0.99,1.871,1.557,3.988,1.557,6.22c0,0.063-0.009,0.124-0.012,0.188c1.647,2.24,2.629,4.986,2.629,7.927
		c0,0.29-0.013,0.577-0.033,0.864c2.146,2.053,3.634,4.789,4.078,7.828c2.549,1.723,4.495,4.287,5.428,7.266
		c6.935,2.443,12.283,8.273,18.76,11.668c0.481,0.207,1.257,0.545,1.563,0.633c0.997,0.296,1.998,0.572,3.006,0.837
		c2.06,0.539,4.098,1.166,6.165,1.666c1.024,0.247,2.05,0.498,3.087,0.69c0.332,0.064,1.314,0.187,1.823,0.256
		c1.373,0.107,2.746,0.18,4.13,0.196c0.885,0.009,1.753,0.106,2.595,0.278c1.422-0.459,2.942-0.717,4.605-0.934
		c2.446-0.32,4.803-0.065,7.211,0.113c1.574-1.226,3.418-2.107,5.415-2.546c2.067-1.951,4.734-3.263,7.666-3.615
		c1.736-1.702,3.919-2.948,6.337-3.53c1.341-4.235,4.749-7.612,8.993-8.932c0.326-3.779,2.269-7.143,5.115-9.409
		c0.212-2.237,0.989-4.328,2.185-6.13c0.09-2.719,1.02-5.248,2.526-7.351c-0.038-0.409-0.062-0.821-0.062-1.237
		c0-0.701,0.056-1.391,0.163-2.062c-0.252-1.772-0.202-3.623,0.188-5.462c0.023-0.113,0.048-0.248,0.067-0.385
		c0.041-0.561,0.072-1.124,0.081-1.688C414.487,138.927,414.465,137.4,414.344,135.877z"/>
	<path fill-rule="evenodd" clip-rule="evenodd" fill="#1D1D1D" d="M335.216,125.594c0,0-8.088,19.364,0.636,34.685l4.042-6.596
		l-0.425-30.218L335.216,125.594z"/>
	<path fill-rule="evenodd" clip-rule="evenodd" fill="#1D1D1D" d="M339.683,158.789c0,0,1.063,13.406,11.704,21.704
		c10.639,8.299,37.024-4.468,37.024-4.468l-1.275-5.533l2.554,4.896l2.978-1.277c0,0-6.382-12.557-2.554-27.664
		c3.833-15.109,2.554-30.002-10.639-37.664"/>
	<path fill-rule="evenodd" clip-rule="evenodd" fill="#1D1D1D" d="M351.899,109.176c0,0,11.257-10.607,26.842-1.297
		c15.587,9.309,16.236,31.172,5.846,37.017C374.197,150.74,351.899,109.176,351.899,109.176z"/>
	<g>
		<polygon fill-rule="evenodd" clip-rule="evenodd" fill="#67503E" points="366.882,172.791 358.113,172.791 358.113,162.627 
			365.735,162.627 		"/>
		<path fill="#7A5F4B" d="M335.382,124.118c0,0,1.821,4.878,0.229,10.571c-1.597,5.694-3.953,22.142,13.438,32.588
			c0,0,20.149,1.565,31.53-17.406c0,0,5.696,0.684,6.15-7.971c0.455-8.656-5.922-6.378-5.922-6.378S367.041,86.083,335.382,124.118z
			"/>
		<path fill-rule="evenodd" clip-rule="evenodd" fill="#1D1D1D" d="M348.122,130.56c0,0-4.486-6.129-9.194-0.796
			C338.928,129.764,341.246,127.573,348.122,130.56z"/>
		<g>
			<ellipse fill-rule="evenodd" clip-rule="evenodd" fill="#483729" cx="343.743" cy="136.988" rx="1.564" ry="3.202"/>
		</g>
		<g>
			<ellipse fill-rule="evenodd" clip-rule="evenodd" fill="#483729" cx="360.776" cy="137.202" rx="1.669" ry="3.416"/>
		</g>
		<path fill-rule="evenodd" clip-rule="evenodd" fill="#7B4540" d="M345.757,156.146c0,0,0.96-3.602,4.082,0
			c0,0,0.352-3.084,6.481-0.394C356.32,155.753,350.318,162.869,345.757,156.146z"/>
		<path fill-rule="evenodd" clip-rule="evenodd" fill="#7B4540" d="M346.33,156.146c0,0,9.814,1.25,12.953-1.889
			c0,0-3.737,6.229-8.37,6.078C346.282,160.188,346.082,158.334,346.33,156.146z"/>
		<path fill-rule="evenodd" clip-rule="evenodd" fill="#483729" d="M343.167,135.874c0,0-2.989-0.298-2.092-2.839
			c0,0,0.747,1.643,2.392,1.344L343.167,135.874z"/>
		<path fill-rule="evenodd" clip-rule="evenodd" fill="#483729" d="M361.849,136.259c0,0,3.12-0.299,2.184-2.84
			c0,0-0.78,1.645-2.495,1.346L361.849,136.259z"/>
		<path fill-rule="evenodd" clip-rule="evenodd" fill="#1D1D1D" d="M356.644,130.768c0,0,4.482-6.128,9.192-0.796
			C365.836,129.972,363.517,127.78,356.644,130.768z"/>
		<path fill-rule="evenodd" clip-rule="evenodd" fill="#67503E" d="M359.308,170.549c0,0-17.485,11.658,1.346,17.038
			c18.833,5.381,14.497-15.095,5.082-17.338C356.32,168.007,359.308,170.549,359.308,170.549z"/>
	</g>
	<path fill-rule="evenodd" clip-rule="evenodd" fill="#FBC78E" d="M358.179,170.875c0,0-3.248,9.742,4.544,14.504
		c0,0,5.846-2.599,3.897-14.938c0,0,15.282,4.331,20.046,10.609c0,0-0.997,14.935-23.943,14.286s-21.646-12.988-21.646-12.988
		S345.839,176.937,358.179,170.875z"/>
	<path fill-rule="evenodd" clip-rule="evenodd" fill="#1D1D1D" d="M372.248,120.435c0,0,9.309,16.667,4.98,22.081
		c0,0,6.276-4.33,5.843-11.691C382.638,123.465,377.444,115.67,372.248,120.435z"/>
	<path fill-rule="evenodd" clip-rule="evenodd" fill="#67503E" d="M384.804,138.262c0,0-4.114,0.217-4.33,4.546
		c0,0,3.031,0.433,0.65,3.031l1.081,1.731C382.205,147.57,386.534,146.271,384.804,138.262z"/>
	<path fill-rule="evenodd" clip-rule="evenodd" fill="#67503E" d="M349.302,141.216l-2.599,8.01c0,0,3.247,2.597,6.494,0.215
		c0,0-3.463,0.433-4.763-1.083L349.302,141.216z"/>
	<path fill-rule="evenodd" clip-rule="evenodd" fill="#1D1D1D" d="M353.515,115.168c0,0,24.896,5.959,16.384,43.196
		c0,0,11.066-5.532,9.362-22.555C377.562,118.785,369.898,100.911,353.515,115.168z"/>
	<path fill-rule="evenodd" clip-rule="evenodd" fill="#1D1D1D" d="M370.111,106.018c0,0-33.833-13.833-34.471,15.957l10.852-8.723
		l11.066-2.979L370.111,106.018z"/>
	<path fill-rule="evenodd" clip-rule="evenodd" fill="#1D1D1D" d="M353.515,115.168c0,0-10.641,11.915-21.492,12.767
		c0,0-8.724-9.788,0-18.087s26.172-14.044,33.834-4.467C373.518,114.955,353.515,115.168,353.515,115.168z"/>
	<path fill-rule="evenodd" clip-rule="evenodd" fill="#1D1D1D" d="M354.152,111.764c0,0-6.596,10.426-8.936,12.766
		c0,0,17.021,6.172,25.534-4.043C379.261,110.273,354.152,111.764,354.152,111.764z"/>
	<path fill="#FFFFFF" d="M362.046,92.424c27.021,0,49.006,21.982,49.006,49.003c0,27.02-21.985,49.004-49.006,49.004
		s-49.004-21.984-49.004-49.004C313.042,114.406,335.025,92.424,362.046,92.424 M362.046,87.625c-29.714,0-53.8,24.088-53.8,53.802
		s24.086,53.801,53.8,53.801c29.716,0,53.803-24.087,53.803-53.801S391.762,87.625,362.046,87.625L362.046,87.625z"/>
</g>
<g>
	<path fill="#EC6146" d="M126.316,152.613c1.997-0.323,3.957-0.122,5.749,0.497c1.504-1.15,3.304-1.959,5.299-2.28
		c1.391-0.225,2.763-0.184,4.075,0.063c-0.019-0.194-0.033-0.389-0.064-0.585c-0.848-5.247-5.804-8.825-11.05-7.979
		c-5.246,0.847-8.825,5.802-7.978,11.05c0.032,0.196,0.081,0.385,0.123,0.576C123.636,153.309,124.925,152.837,126.316,152.613z"/>
	<path fill="#EC6146" d="M129.94,169.903c-1.217-1.536-2.074-3.39-2.407-5.457c-0.088-0.542-0.125-1.08-0.136-1.615
		c-0.011-0.4,0.001-0.796,0.031-1.19c0.031-0.396,0.082-0.788,0.151-1.176c0.372-2.066,1.282-3.976,2.604-5.551
		c-1.126-0.237-2.31-0.286-3.51-0.092c-1.263,0.204-2.427,0.65-3.459,1.277c-0.322,0.196-0.633,0.409-0.929,0.641
		c-0.301,0.234-0.583,0.492-0.852,0.761c-2.13,2.117-3.251,5.188-2.737,8.371c0.345,2.139,1.379,3.99,2.832,5.389l1.369-0.222
		L129.94,169.903z"/>
	<path fill="#EC6146" d="M143.538,153.934c-0.341-0.17-0.689-0.327-1.049-0.455c-0.354-0.126-0.716-0.229-1.086-0.314
		c-1.174-0.27-2.419-0.328-3.683-0.124c-1.2,0.193-2.31,0.61-3.304,1.191c-0.359,0.209-0.709,0.434-1.035,0.686
		c-0.318,0.245-0.612,0.517-0.896,0.798c-1.482,1.472-2.479,3.403-2.773,5.519c-0.052,0.37-0.075,0.746-0.082,1.124
		c-0.007,0.38,0.013,0.761,0.05,1.146c0.019,0.195,0.031,0.389,0.063,0.586c0.346,2.137,1.38,3.99,2.833,5.388l4.154-0.671
		l1.349-0.218l1.287-0.207l7.154-1.155l1.26-0.203c0.936-1.783,1.336-3.868,0.991-6.005
		C148.256,157.835,146.223,155.273,143.538,153.934z"/>
	<polygon fill="#EC6146" points="138.115,170.851 136.554,171.104 135.25,171.312 134.768,171.391 133.462,171.603 131.901,171.854 
		124.202,173.097 123.252,173.25 123.68,174.095 124.435,175.59 142.208,210.753 146.599,171.879 146.785,170.225 146.876,169.438 
		145.816,169.608 	"/>
</g>
<g>
	<path fill="#EC6146" d="M207.976,237.116v-1.849h-7.864v1.849h-2.972v12.888h12.469c0.522-4.285,4.167-7.605,8.594-7.605
		c4.426,0,8.07,3.32,8.595,7.605h12.469v-12.888H207.976z M237.085,244.481h-7.806v-5.28h7.806V244.481z"/>
	<path fill="#EC6146" d="M218.203,259.73c-4.371,0-7.977-3.241-8.569-7.45H197.14v12.731h42.126V252.28h-12.494
		C226.181,256.489,222.574,259.73,218.203,259.73z"/>
	<path fill="#EC6146" d="M218.203,257.453c3.112,0,5.7-2.227,6.27-5.173c0.076-0.394,0.119-0.799,0.119-1.217
		c0-0.362-0.038-0.714-0.095-1.06c-0.506-3.022-3.128-5.33-6.294-5.33c-3.167,0-5.787,2.308-6.293,5.33
		c-0.058,0.346-0.095,0.697-0.095,1.06c0,0.418,0.042,0.823,0.119,1.217C212.503,255.227,215.092,257.453,218.203,257.453z"/>
</g>
<g>
	<path fill="#BD989D" d="M144.275,213.614c-0.042-0.517-0.084-1.032-0.135-1.549c-0.069-0.449-0.154-1.004-0.205-1.278
		c-0.269-1.384-0.55-2.772-0.943-4.132c-0.558-1.931-1.349-3.766-2.064-5.643c-0.275-0.729-0.536-1.464-0.793-2.199
		c-1.454-2.347-3.104-4.635-4.145-7.19c-2.265-1.111-4.206-2.848-5.423-5.188c-0.411-0.787-0.832-1.56-1.344-2.284
		c-0.085-0.096-0.186-0.208-0.305-0.346c-1.254-1.43-2.572-2.806-3.778-4.274c-0.598-0.729-1.188-1.479-1.87-2.132
		c-0.337-0.321-1.323-1.07-1.496-1.225c-1.15-0.75-2.327-1.455-3.528-2.134c-0.859-0.487-1.708-1.002-2.603-1.423
		c-0.241-0.113-0.422-0.2-0.567-0.271c-0.002,0-0.005-0.003-0.008-0.003c-2.693-1.055-5.414-2.086-8.029-3.314
		c-0.933-0.439-1.841-0.921-2.766-1.377c-0.434-0.217-2.186-0.882-1.921-0.808c-0.32-0.105-0.642-0.199-0.966-0.279
		c-0.04-0.002-0.075-0.006-0.117-0.008c-1.044-0.042-2.062-0.191-3.039-0.439c-1.318,0.439-2.717,0.686-4.164,0.702
		c-1.373,0.015-2.753,0.054-4.124,0.162c-0.034,0.054-3.241,0.544-3.876,0.692c-3.46,0.811-6.892,1.797-10.324,2.722
		c-1.018,0.276-2.048,0.536-3.047,0.896c-0.066,0.024-0.127,0.047-0.187,0.068c-2.101,0.997-4.247,1.897-6.403,2.776
		c-0.579,0.239-3.674,1.538-3.562,1.46c-1.116,0.52-2.208,1.07-3.281,1.684c-0.486,0.275-0.979,0.507-1.485,0.718
		c-1.294,2.788-3.523,5.082-6.261,6.476c-0.461,2.845-1.84,5.412-3.814,7.39c-0.757,2.472-2.218,4.656-4.136,6.323
		c0.002,0.091,0.01,0.181,0.01,0.274c0,3.543-1.424,6.8-3.716,9.231c0.116,0.704,0.18,1.427,0.18,2.159
		c0,1.796-0.377,3.514-1.036,5.094c0.666,1.584,1.036,3.314,1.036,5.116c0,1.677-0.324,3.289-0.901,4.78
		c0.99,1.869,1.554,3.987,1.554,6.219c0,0.063-0.007,0.125-0.01,0.189c1.647,2.239,2.631,4.984,2.631,7.926
		c0,0.291-0.014,0.577-0.035,0.864c2.146,2.054,3.634,4.789,4.078,7.828c2.549,1.723,4.496,4.288,5.428,7.266
		c6.934,2.444,12.285,8.273,18.76,11.668c0.48,0.208,1.257,0.544,1.565,0.633c0.996,0.296,1.998,0.572,3.004,0.837
		c2.059,0.54,4.097,1.167,6.165,1.666c1.025,0.247,2.051,0.498,3.087,0.691c0.332,0.063,1.314,0.186,1.825,0.255
		c1.371,0.109,2.745,0.182,4.129,0.196c0.885,0.008,1.753,0.105,2.595,0.279c1.421-0.461,2.941-0.718,4.605-0.936
		c2.447-0.318,4.803-0.062,7.21,0.114c1.576-1.225,3.42-2.107,5.415-2.545c2.069-1.951,4.737-3.263,7.667-3.616
		c1.735-1.702,3.919-2.948,6.336-3.531c1.343-4.234,4.75-7.611,8.994-8.931c0.327-3.779,2.269-7.142,5.114-9.408
		c0.216-2.237,0.993-4.328,2.185-6.131c0.093-2.719,1.02-5.249,2.53-7.352c-0.04-0.409-0.065-0.819-0.065-1.237
		c0-0.7,0.057-1.39,0.165-2.062c-0.252-1.771-0.202-3.621,0.188-5.462c0.025-0.111,0.049-0.246,0.067-0.385
		c0.042-0.561,0.071-1.124,0.083-1.687C144.419,216.664,144.397,215.137,144.275,213.614z"/>
	<g>
		<rect x="86.434" y="238.854" fill-rule="evenodd" clip-rule="evenodd" fill="#E6BAA0" width="10.55" height="10.27"/>
		<path fill-rule="evenodd" clip-rule="evenodd" fill="#AA605A" d="M70.501,196.979c0,0,13.351-18.522,30.164-12.032
			c16.812,6.492,18.31,20.407,9.74,33.864L70.501,196.979z"/>
		<path fill-rule="evenodd" clip-rule="evenodd" fill="#7B4540" d="M72.961,199.876c0,0-15.991-11.994-4.66-16.387
			c11.334-4.391,28.117-1.739,31.682,21.454L72.961,199.876z"/>
		<path fill="#FACAAD" d="M66.265,207.578c0,0,1.638,6.692,0.207,11.611c-1.436,4.92,7.114,24.499,19.216,25.027
			c0,0,16.635,0.356,22.78-16.368c0,0,5.123,0.588,5.532-6.888c0.411-7.479-5.328-5.511-5.328-5.511S94.742,174.717,66.265,207.578z
			"/>
		<g>
			<ellipse fill-rule="evenodd" clip-rule="evenodd" fill="#554132" cx="73.42" cy="217.317" rx="1.407" ry="2.769"/>
		</g>
		<g>
			<ellipse fill-rule="evenodd" clip-rule="evenodd" fill="#554132" cx="89.259" cy="217.943" rx="1.501" ry="2.95"/>
		</g>
		<path fill-rule="evenodd" clip-rule="evenodd" fill="#3F3F41" d="M103.072,204.881l-42.196,6.46l5.686-8.486l-5.027,1.71
			c0,0,3.627-16.938,21.921-15.04C101.751,191.423,103.072,204.881,103.072,204.881z"/>
		<path fill-rule="evenodd" clip-rule="evenodd" fill="#3F3F41" d="M98.783,201.399c0,0,6.759,10.922,3.956,23.271l4.947-0.791
			l0.985-8.429c0,0,1.329-0.557,3.252,0.117C111.924,215.567,110.98,200.288,98.783,201.399z"/>
		<path fill-rule="evenodd" clip-rule="evenodd" fill="#E6BAA0" d="M112.145,217.955c0,0-3.105-1.136-3.499,3.361
			c0,0,2.447,0.882,0.13,3.151c0,0,1.838,1.765,2.975-0.758C112.889,221.19,113.327,219.257,112.145,217.955z"/>
		<path fill-rule="evenodd" clip-rule="evenodd" fill="#E6BAA0" d="M78.368,220.152c0,0-3.82,4.569-2.882,8.838
			c0.933,4.269,7.562,1.274,7.562,1.274s-5.147,0.972-5.925-2.174C76.342,224.945,78.368,220.152,78.368,220.152z"/>
		<path fill-rule="evenodd" clip-rule="evenodd" fill="#A98B78" d="M78.836,235.432c0,0,9.591,3.072,16.22-5.691l1.246,3.218
			l-1.482-1.196C94.82,231.762,87.336,241.272,78.836,235.432z"/>
		<path fill-rule="evenodd" clip-rule="evenodd" fill="#2C2C2D" d="M68.233,213.013c0,0,3.68-4.441,7.563,0.18
			c0,0-0.613-3.9-3.884-3.9C68.642,209.292,68.233,213.013,68.233,213.013z"/>
		<path fill-rule="evenodd" clip-rule="evenodd" fill="#3F3F41" d="M94.173,212.797c0,0-3.888-4.856-7.996,0.193
			c0,0,0.648-4.213,4.107-4.213C93.741,208.777,94.173,212.797,94.173,212.797z"/>
		<path fill-rule="evenodd" clip-rule="evenodd" fill="#2C2C2D" d="M101.496,202.18c0,0-8.558-17.87-28.93-9.96l8.125,0.107
			l-8.093,5.136l13.584-1.945l-8.525,4.304l15.893-0.555l-16.473,5.553l23.41-0.696c0,0,3.901,4.165,4.044,8.052l1.446-4.305
			l4.367,5.349C110.343,213.219,108.398,202.49,101.496,202.18z"/>
		<path fill-rule="evenodd" clip-rule="evenodd" fill="#B19B74" d="M86.434,246.903l-15.069,3.609l-5.635,8.629
			c0,0,25.617,23.731,55.909,1.11l-6.697-9.739l-17.958-3.331C96.984,247.182,91.926,251.9,86.434,246.903z"/>
		<path fill-rule="evenodd" clip-rule="evenodd" fill="#8B7A5B" d="M114.942,250.513c0,0-4.035,2.999-3.597,15.66
			c0,0,4.188-0.87,10.294-5.921L114.942,250.513z"/>
		<polygon fill-rule="evenodd" clip-rule="evenodd" fill="#8B7A5B" points="71.365,250.513 69.412,261.811 65.73,259.142 		"/>
		<path fill="#8B7A5B" d="M91.464,250.797c-0.383,0-0.763-0.027-1.14-0.085c-3.529-0.524-5.419-3.348-5.497-3.469l2.064-1.251
			l-1.034,0.625l1.031-0.63c0.014,0.021,1.411,2.061,3.834,2.411c1.846,0.267,3.889-0.493,6.065-2.255l1.575,1.792
			C96.016,249.839,93.701,250.797,91.464,250.797z"/>
	</g>
	<path fill="#FFFFFF" d="M91.979,170.161c27.02,0,49.005,21.981,49.005,49.003c0,27.021-21.985,49.004-49.005,49.004
		c-27.023,0-49.005-21.983-49.005-49.004C42.974,192.143,64.957,170.161,91.979,170.161 M91.979,165.362
		c-29.714,0-53.801,24.087-53.801,53.802c0,29.714,24.087,53.801,53.801,53.801c29.715,0,53.803-24.087,53.803-53.801
		C145.783,189.449,121.695,165.362,91.979,165.362L91.979,165.362z"/>
</g>
<g>
	<path fill="#3F3F41" d="M208.098,180.93v-5.133l-3.659-7.06h2.361l2.35,4.821l2.316-4.821h2.32l-3.676,7.076v5.116H208.098z"/>
	<path fill="#3F3F41" d="M214.376,174.908c0-1.452,0.215-2.649,0.645-3.588c0.43-0.94,0.991-1.641,1.685-2.101s1.533-0.69,2.52-0.69
		c1.431,0,2.596,0.547,3.497,1.639c0.9,1.093,1.352,2.647,1.352,4.666c0,2.04-0.477,3.634-1.431,4.781
		c-0.837,1.015-1.974,1.522-3.409,1.522c-1.447,0-2.589-0.502-3.427-1.506C214.854,178.484,214.376,176.91,214.376,174.908z
		 M216.455,174.825c0,1.402,0.267,2.455,0.8,3.155c0.533,0.703,1.193,1.053,1.983,1.053c0.793,0,1.451-0.349,1.974-1.043
		c0.521-0.697,0.782-1.765,0.782-3.207c0-1.413-0.254-2.458-0.762-3.135c-0.509-0.677-1.173-1.015-1.994-1.015
		c-0.823,0-1.492,0.341-2.009,1.022C216.713,172.339,216.455,173.395,216.455,174.825z"/>
	<path fill="#3F3F41" d="M225.637,168.737h2.013v6.604c0,1.025,0.025,1.693,0.075,2.004c0.089,0.538,0.301,0.954,0.638,1.248
		c0.336,0.294,0.778,0.44,1.329,0.44c0.467,0,0.848-0.104,1.142-0.312c0.295-0.209,0.496-0.497,0.604-0.864
		c0.107-0.37,0.162-1.161,0.162-2.375v-6.745h2.013v6.404c0,1.635-0.088,2.817-0.262,3.547c-0.176,0.729-0.569,1.319-1.181,1.771
		c-0.613,0.453-1.421,0.679-2.425,0.679c-1.042,0-1.856-0.187-2.441-0.562c-0.585-0.373-1.009-0.899-1.271-1.58
		c-0.264-0.678-0.396-1.93-0.396-3.754V168.737z"/>
</g>
</svg>
