<svg xmlns="http://www.w3.org/2000/svg" width="390" height="245" viewBox="0 0 390 245"><g transform="matrix(.9 0 0 .9 -7.753 -10.803)"><path fill="#c6997a" d="M95.01 234.997L74.475 40.484l224.8-23.735 20.538 194.512z"/><path fill="#c6997a" d="M321.242 212.59L279.59 17.35l22.884-2.417 20.848 197.433zM121.427 34.054l47.77 194.59L65.55 239.59 44.7 42.154z"/><path fill="#fff" d="M293.146 219.61L191.973 79.692 50.488 94.633l-.847-8.015 146.13-15.43 103.906 143.7z"/><path fill="#fff" d="M91.31 39.674l16.61 157.315-8.015.845L83.295 40.52zM135.72 34.18l20.467 193.865-8.014.846-20.468-193.864z"/><path fill="#fff" d="M312.088 91.842l.847 8.015-172.24 18.187-41.35 26.86-42.273 4.465-.847-8.016 40.353-4.262 41.35-26.86z"/><g fill="#3f3f41"><path d="M208.82 60.257l-3.257.345.4 3.785 30.275-3.197-.4-3.785-3.26.344-1.307-12.365 5.176-.547L218.2 33.095 202.343 48.44l5.173-.546 1.304 12.363zm2.48-12.762l6.203-.655 1.306 12.364-6.202.655-1.307-12.365zm17.495 10.654l-6.202.653-1.304-12.363 6.2-.655 1.305 12.364zM204.177 69.688l-.4-3.784 34.896-3.702.4 3.784z"/></g><path fill="#ec6146" d="M119.56 71.587L103.423 86.13l8.847 19.843L93.45 95.12l-16.136 14.543 4.507-21.25L63.004 77.56l21.6-2.28 4.51-21.252 8.845 19.84z"/><path d="M305.94 12.308l21.32 201.91-263.83 27.857L42.11 40.167l263.83-27.86zm16.11 197.696L301.726 17.516 47.317 44.38l20.327 192.488 254.407-26.864z" fill="#f5f5f5"/><path d="M286.945 84.83L280.65 74.6l.27-.027-.318-3.15-1.616.163-6.422-13.618-.018.003-2.645-18.196 1.134-.115-.414-4.08-1.31.133-.274-1.904-.51.05-.74-7.31-2.133.218.742 7.31-.512.05.112 1.92-1.31.134.416 4.08 1.132-.115 1.066 18.356-.018.002-3.555 14.63-1.615.162.32 3.153.273-.028-4.112 11.287-3 .304.432 4.274 11.45-1.163-.433-4.274-3.353.34c.745-5.64 3.913-9.957 8.118-10.385 4.204-.427 8.175 3.167 10.036 8.543l-3.35.34.434 4.274 11.452-1.162-.437-4.274-2.995.305zm-19.572-12.17l2.734-12.637 5.213 11.83-7.947.806zM66.895 161.303l7.158 66.688 20.086-2.156-7.16-66.687-20.085 2.156zM80.81 215.21l-3.216.344-.575-5.356 3.215-.345.574 5.356zm-.827-7.69l-3.215.346-.574-5.357 3.214-.346.575 5.355zm-.792-7.385l-3.214.346-.576-5.354 3.214-.345.577 5.355zm-1.29-12.02l-3.215.346-.576-5.356 3.216-.344.575 5.355zm-.826-7.688l-3.214.345-.575-5.355 3.215-.346.574 5.357zm-.793-7.385l-3.215.346-.574-5.356 3.215-.346.576 5.356zm11.76 41.39l-3.214.346-.576-5.356 3.216-.345.573 5.355zm-.826-7.69l-3.214.346-.574-5.357 3.212-.343.576 5.355zm-.792-7.384l-3.215.346-.574-5.354 3.214-.346.575 5.354zm-1.29-12.018l-3.214.345-.576-5.356 3.215-.346.574 5.356zm-.826-7.69l-3.215.345-.574-5.356 3.214-.345.576 5.355zm-.793-7.384l-3.214.346-.576-5.356 3.214-.345.575 5.356z" fill="#3f3f41"/><circle cx="104.541" cy="203.946" r="9.312" fill="#fff"/></g><path d="M266.397 207.708s-16.495 19.206-44.392 7.34c-27.89-11.865-40.793-30.705-62.286-37.068-21.492-6.367-7.638-35.862 11.61-27.958 19.25 7.9 29.99 14.62 29.99 14.62s-81.443-45.187-89.504-62.727c-3.905-8.5 3.486-22.812 16.357-18.45 12.872 4.362 74.36 45.425 74.36 45.425s-9.17-22.05 17.652-23.29c0 0-5.843-21.038 18.15-19.68 23.994 1.36 73.107 46.135 73.8 65.426.693 19.292-45.738 56.362-45.738 56.362z" fill="#fcdac6"/><path d="M256.1 204.22l50.877 29.068s43.017-20.897 45.462-42.337l-48.708-36.485-47.657 47.794" fill="#fcdac6"/><path d="M125.918 108.07l11.87-15.377s-11.906-11.612-19.482-2.47c-7.576 9.143 7.612 17.848 7.612 17.848zM152.428 170.214s1.512-7.412 5.69-10.933c4.177-3.518 12.933 8.304 12.933 8.304l-4.718 8.504s-11.896-1.977-13.904-5.874z" fill="#ebcdba"/><path d="M281.798 221.27s35.48-32.86 36.39-56.547l41.667 28.128s-2.133 34.408-36.295 51.876l-41.762-23.456z" fill="#c9c14a"/><path d="M278.612 220.818s33.685-20.435 39.383-59.26l15.966 10.81s-2.647 41.348-39.217 59.146l-16.13-10.696z" fill="#b3ac43"/></svg>