<svg xmlns="http://www.w3.org/2000/svg" width="390" height="245" viewBox="0 0 390 245"><path d="M298.83 115.15c1.563-.082 3.1.02 4.593.27-13.24-42.69-54.165-72.76-100.803-70.37-13.57.696-26.376 4.08-37.933 9.6 2.49 3.084 4.17 6.83 4.687 10.936 10.296-4.988 21.73-8.042 33.856-8.664 40.36-2.07 75.846 23.46 88.16 60.003 2.307-1.003 4.807-1.64 7.44-1.776z" fill="#c6e4e1"/><path fill="#e7e7e7" d="M186.482 13.033L241.627 0l17.86 75.57L204.34 88.6z"/><path fill="#ec6146" d="M224.646 59.887l.998-4.333 2.832 3.427 4.43-.388-2.384 3.752 1.74 4.094-4.308-1.107-3.353 2.92-.277-4.44-3.815-2.288z"/><g fill="#94755c"><path d="M223.027 13.928l-10.867 8.01c.182.767.394 1.535.63 2.296l5.02.87c.54-2.213 2.158-6.222 6.35-2.188l-4.73 2.467 4.818.83c.258 1.092.46 2.21.617 3.343 1.88-1.254 4.702-1.32 8.8 2.38l-8.438 1.995c.07 2.598-.113 5.16-.537 7.516 1.715.93 3.436 1.3 5.06.918 6.672-1.578 9.156-15.242 6.582-26.136l-13.305-2.3zm3.01 8.544c2.573-7.268 7.43.12 7.43.12l-7.43-.12z"/><path d="M222.68 40.096c-.784 5.335-2.788 9.475-5.52 10.12-4.62 1.093-11.833-7.665-14.59-17.405l8.92-6.577 2.114.366a38.83 38.83 0 0 1-.816-2.366l-1.845-.318-10.867 8.01c2.576 10.894 10.914 22.002 17.587 20.423 3.63-.858 6.013-5.29 7.026-10.905a14.037 14.037 0 0 1-2.01-1.35z"/><path d="M223.04 34.447a35.85 35.85 0 0 1-.36 5.65c.665.53 1.337.98 2.008 1.35.424-2.358.607-4.92.537-7.516l-2.185.517zM222.41 28.12c.227 1.177.387 2.37.49 3.562.492-.792 1.136-1.575 1.964-2.127a35.94 35.94 0 0 0-.617-3.342l-4.82-.83-1.856.966s.063-.53.24-1.247l-5.022-.87c.244.797.52 1.586.817 2.367l8.806 1.52z"/><path d="M222.9 31.682c.08.926.13 1.85.14 2.765l2.185-.516c-.04-1.46-.16-2.926-.362-4.375-.828.552-1.47 1.335-1.962 2.127zM219.427 25.382l-1.618-.28c-.178.718-.24 1.246-.24 1.246l1.857-.966zM220.848 38.832l-12.082 2.857c9.406 8.494 12.082-2.858 12.082-2.858zM205.7 36.662l7.01-1.658s-4.435-5.61-7.01 1.658zM214.326 34.622l2.977-.702c-.458-.707-.9-1.44-1.32-2.197-.59.575-1.16 1.495-1.657 2.9z"/><path d="M221.338 32.964s-2.886-3.65-5.355-1.242c.42.758.86 1.49 1.32 2.197l4.035-.956z"/></g><path fill="#c6e4e1" d="M171.127 37.816l-12.283 26.95 26.948 12.283zM220.484 206.656a87.604 87.604 0 0 1-34.53 9.025c-32.757 1.68-62.294-14.824-78.855-40.63a21.847 21.847 0 0 1-10.737 5.295c18.647 29.926 52.562 49.14 90.198 47.21a99.507 99.507 0 0 0 40.346-10.81 22.122 22.122 0 0 1-6.422-10.09z"/><path d="M314.233 176.286l-25.885-10.903-35.022 1.518-17.92 8.53-8.418 13.728c41.567 34.418 94.96 6.295 94.96 6.295l-7.715-19.167zm-44.69 7.566c-3.158-.118-4.81-2.383-5.04-4.82-.745-3.174 1.08-7.056 5.308-6.9 3.16.117 4.813 2.384 5.043 4.818.744 3.174-1.082 7.056-5.31 6.902z" fill="#ec6146"/><ellipse transform="rotate(2.098)" cx="275.767" cy="150.311" rx="10.201" ry="19.255" fill="#f1cdba"/><path fill="#7e634e" d="M266.5 176.574l3.043 7.283-4.468-.22zM271.8 176.91l2.82 6.968-5.077-.02z"/><path d="M270 185.14c-.18-.007-.357-.017-.54-.03-12.328-.833-17.402-12.205-17.612-12.69l2.308-1c.045.1 4.697 10.453 15.474 11.18.148.01.295.02.443.023 10.45.384 16.04-10.895 16.094-11.01l2.264 1.095c-.257.537-6.377 12.875-18.43 12.43z" fill="#b04b34"/><path d="M261.356 166.176s-.398 4.07 5.143 10.397l-2.13 10.13s-21.117-14.076-11.156-24.4c8.168-8.463 8.142 3.873 8.142 3.873zM279.584 160.72s.156 9.703-7.82 16.318l4.026 9.67s23.978-17.998 12.218-26.327c-10.952-7.76-8.424.34-8.424.34z" fill="#94755c"/><path d="M233.775 105.075s2.246 11.418-.39 19.654c-2.633 8.236-4.17 24.7 20.684 40.898 0 0 35.996 4.183 47.023-23.746 0 0 8.286 1.304 9.416-11.322 1.13-12.626-8.314-9.64-8.314-9.64s-20.106-69.74-68.42-15.845z" fill="#fbdac5"/><ellipse transform="matrix(.87604 .03217 -.03217 .87604 9.923 -12.73)" cx="276.147" cy="141.651" rx="2.611" ry="5.345" clip-rule="evenodd" fill="#554232" fill-rule="evenodd"/><ellipse transform="rotate(2.093 380.05 266.538) scale(.87662)" cx="308.324" cy="144.039" rx="2.784" ry="5.701" clip-rule="evenodd" fill="#554232" fill-rule="evenodd"/><path d="M256.687 125.17s-6.17 9.475-5.207 14.037c.964 4.565 12.334-1.243 12.334-1.243s-9.194 1.602-9.607-.353c-.412-1.955.768-7.652 2.48-12.44z" clip-rule="evenodd" fill="#f1cdba" fill-rule="evenodd"/><path d="M264.94 91.552s-32.006 9.16-39.893 24.203c0 0-6.99-36.592 23.858-41.46 30.847-4.868 43.29 1.257 43.268 10.92l-35.664 18.026s2.255-6.914 8.43-11.688z" clip-rule="evenodd" fill="#554232" fill-rule="evenodd"/><path d="M282.717 88.537s.228 12.01 6.74 16.25l.834-4.637s10.178 13.374 6.35 26.9c0 0 3.872-5.352 11.85-4.727 0 0 5.686-18.965.49-31.82-5.195-12.86-24.454-14.9-26.263-1.966z" clip-rule="evenodd" fill="#554232" fill-rule="evenodd"/><path d="M290.29 100.15s8.185 22.3 3.59 38.466l3.686-.532s-.523-13.018 3.226-15.215c3.747-2.197.812-40.305-10.502-22.72zM286.996 90.03s-12.793 12.53-30.486 13.212c0 0 21.448-21.213 30.486-13.212zM291.32 81.188s-1.064-16.377-29.15-14.073c-28.087 2.303-43.456 21.407-40.21 32.86 0 0 4.007-9.186 10.664-8.943 6.66.246 58.696-9.844 58.696-9.844z" clip-rule="evenodd" fill="#554232" fill-rule="evenodd"/><path d="M288.774 81.913s-11.354-19.457-43.488-6.154c0 0 14.074-3.507 23.666-1.815 0 0-22.832-.738-36.327 17.087 0 0 20.842-18.996 41.28-13.15 0 0-13.404-.223-25.522 8.45 0 0 22.535-7.488 31.82-4.732 0 0-7.944 4.536-13.08 12.93 0 0 11.692-11.64 16.79-11.72 0 0-3.22 7.392-7.08 10.2 0 0 7.935-4.268 9.996-9.286 0 0-1.92 8.51.837 13.706 0-.002 5.68-8.643 1.107-15.517z" fill="#3f3022"/><path d="M288.96 84.066s15.06-1.056 17.572 10.835c0 0-5.616-7.712-10.973-7.908 0 0 9.414 6.513 5.94 28.107 0 0-1.658-27.95-12.12-27.8" fill="#3f3022"/><path d="M306.98 126.566s-5.1.08-5.803 4.614c0 0 2.936.375 2.857 2.518-.08 2.143-2.24 2.6-2.24 2.6l2.867 2.25c.002 0 5.337-6.508 2.32-11.982z" fill="#f1cdba"/><path d="M314.233 176.286s-6.5 10.11-5.952 24.345l1.908-.733s-.954-12.69 4.045-23.61zM235.404 175.432l-3.78 16.754 1.545 1.7z" fill="#b04b34"/><path d="M270.208 148.62s-7.604-1.657-16.11 3.217c0 0 4.204-7.54 16.11-3.216z" fill="#2c2c2d"/><path d="M111.273 73.15c4.1 7.48 13.473 12.265 23.556 11.194 3.974-.42 17.145-3.305 20.292-5.21-1.223 16.485-8.933 44.384 14.635 45.83 0 0-5.42 23.847-33.725 25.174-20.886.98-38.976-53.368-24.76-76.99z" clip-rule="evenodd" fill="#e4b682" fill-rule="evenodd"/><path clip-rule="evenodd" fill="#aa866a" fill-rule="evenodd" d="M127.277 156.088l-1.56-14.677-11.01 1.17-.095 14.853z"/><path d="M152.64 82.31s-6.89 15.39-3.714 23.37c3.176 7.976 14.11 23.302-9.403 41.054 0 0-28.862 5.352-48.21-20.298 0 0-8.117 1.857-10.103-10.57-1.986-12.43 7.574-10.12 7.574-10.12s12.3-73.51 63.855-23.436z" fill="#c39879"/><path d="M135.23 93.568s5.534-9.54 13.152-2.56c0 0-3.684-2.812-13.153 2.56z" clip-rule="evenodd" fill="#483729" fill-rule="evenodd"/><ellipse transform="rotate(173.945 140.043 104.272) scale(.87663)" cx="156.666" cy="121.023" rx="2.591" ry="5.306" clip-rule="evenodd" fill="#554232" fill-rule="evenodd"/><path d="M115.56 105.355c.29 2.725 1.605 4.82 2.934 4.676 1.33-.14 2.175-2.462 1.888-5.187-.29-2.728-1.604-4.822-2.936-4.68-1.33.14-2.174 2.464-1.885 5.192z" clip-rule="evenodd" fill="#554232" fill-rule="evenodd"/><path d="M142.567 130.155s-1.94-5.054-5.896.626c0 0-.98-4.4-9.417.425 0 0 9.756 9.36 15.314-1.05z" clip-rule="evenodd" fill="#ec6369" fill-rule="evenodd"/><path d="M106.706 77.51s38.21 24.754 54.784 8.15c0 0-9.84-47.415-57.43-20.75l2.646 12.6z" clip-rule="evenodd" fill="#fbc78e" fill-rule="evenodd"/><path d="M109.5 75.03s-17.842 58.725 10.63 69.892c0 0-8.935 15.93-33.165 9.772-24.228-6.157-32.765-105.008 21.243-89.787L109.5 75.03z" clip-rule="evenodd" fill="#fbc78e" fill-rule="evenodd"/><path d="M138.66 113.48s4.432 7.928-5.57 9.35c0 0 6.023-1.783 5.57-9.35z" clip-rule="evenodd" fill="#a17e64" fill-rule="evenodd"/><path d="M106.624 74.678s-9.416 14.097-10.927 38.924c0 0-8.295-14.397 2.647-36.735 0 0-14.71 3.308-19.116 17.31 0 0 .776-21.474 19.37-25.194 0 0-4.66-2.78-10.9-1.9 0 0 7.577-4.734 18.124.04l.802 7.555z" clip-rule="evenodd" fill="#e4b682" fill-rule="evenodd"/><path d="M103.965 67.795s14.346-10.51 34.13-7.155c0 0-11.44 1.215-19.276 5.54 0 0 15.812-3.207 31.388 7.8 0 0-22.712 1.976-35.395-2.354 0 0 9.62 8.365 24.448 10.282 0 0-18.195 5.426-34.5-8.34l-.795-5.773z" clip-rule="evenodd" fill="#e4b682" fill-rule="evenodd"/><path d="M141.74 130.243s-13.982 3.31-18.996-.742c0 0 6.35 8.423 13.02 7.497 6.668-.925 6.672-3.633 5.975-6.754z" clip-rule="evenodd" fill="#ec6369" fill-rule="evenodd"/><path d="M143.2 100.48s4.272-.888 2.587-4.422c0 0-.827 2.49-3.25 2.31l.663 2.113zM116.28 103.902s-4.553.047-3.59-3.766c0 0 1.376 2.256 3.81 1.56l-.22 2.206zM122.953 95.174s-7.415-8.163-13.398.26c0 0 3.012-3.524 13.398-.26z" clip-rule="evenodd" fill="#554232" fill-rule="evenodd"/><path d="M125.207 153.033s27.042 14.154.67 24.81c-26.372 10.663-23.253-19.573-10-24.256 13.257-4.682 9.33-.554 9.33-.554z" clip-rule="evenodd" fill="#aa866a" fill-rule="evenodd"/><path d="M114.823 153.92s-18.325 9.735-24.885 28.112c0 0 35.102 26.974 62.496-6.932 0 0-10.42-17.96-25.604-21.148 0 0 10.17 13.545-4.746 14.912-14.916 1.365-7.26-14.944-7.26-14.944z" clip-rule="evenodd" fill="#c9c14a" fill-rule="evenodd"/><path d="M126.83 153.952s8.958 10.69-4.092 13.167c-13.05 2.475-7.915-13.2-7.915-13.2l-2.978 1.408s-6.83 19.277 10.345 16.58c17.177-2.698 11.3-16.915 4.64-17.956z" clip-rule="evenodd" fill="#ada740" fill-rule="evenodd"/><g><path fill="#e7e7e7" d="M143.17 158.257l55.697 10.42L184.587 245l-55.696-10.42z"/><g fill="#ec6146"><path d="M141.71 213.314l2.67-3.56 1.2 4.284 4.21 1.436-3.7 2.466-.07 4.45-3.488-2.76-4.25 1.31 1.544-4.17-2.56-3.638zM159.09 216.565l2.668-3.558 1.203 4.282 4.21 1.437-3.7 2.466-.068 4.446-3.49-2.758-4.25 1.31 1.544-4.17-2.56-3.638zM176.47 219.816l2.67-3.56 1.2 4.285 4.21 1.437-3.7 2.466-.068 4.45-3.49-2.76-4.25 1.31 1.546-4.17-2.56-3.638z"/></g><g fill="#94755c"><path d="M153.447 194.068l-3.142-.587-.682 3.65 29.192 5.46.684-3.648-3.144-.59 2.23-11.92 4.988.933-13.78-16.07-19.105 9.917 4.988.934-2.23 11.922zm5.88-11.24l5.98 1.12-2.232 11.92-5.98-1.118 2.23-11.922zm13.38 14.843l-5.98-1.117 2.23-11.922 5.98 1.12-2.23 11.92zM146.484 201.558l.685-3.65 33.65 6.31-.684 3.65z"/></g></g><path d="M240.754 109.973l10.664 2.87.55-3.13s-10.026-2.26-11.214.26zM281.963 112.025l-11.518 2.702-.414-3.155c.002 0 10.807-2.102 11.933.453z" clip-rule="evenodd" fill="#554232" fill-rule="evenodd"/><path fill="#c6e4e1" d="M223.198 234.4l12.286-26.95-26.95-12.28z"/></svg>