<?xml version="1.0" encoding="utf-8"?>
<!-- Generator: Adobe Illustrator 15.0.2, SVG Export Plug-In . SVG Version: 6.00 Build 0)  -->
<!DOCTYPE svg PUBLIC "-//W3C//DTD SVG 1.1//EN" "http://www.w3.org/Graphics/SVG/1.1/DTD/svg11.dtd">
<svg version="1.1" id="Ebene_1" xmlns="http://www.w3.org/2000/svg" xmlns:xlink="http://www.w3.org/1999/xlink" x="0px" y="0px"
	 width="440px" height="290px" viewBox="0 0 440 290" enable-background="new 0 0 440 290" xml:space="preserve">
<path fill="#F3F1F1" d="M139.441,80.708c0,28.495-23.1,58.43-51.596,58.43S36.25,109.203,36.25,80.708"/>
<circle fill="#7E634E" cx="87.845" cy="79.341" r="51.596"/>
<circle fill="#95755C" cx="88.478" cy="79.341" r="46.531"/>
<circle fill="#FFFFFF" cx="88.529" cy="79.341" r="34.378"/>
<path fill="#3F3F41" d="M87.871,80.608c-0.675,0-1.222-0.47-1.222-1.05v-28.35c0-0.58,0.547-1.05,1.222-1.05
	c0.677,0,1.224,0.47,1.224,1.05v28.35C89.095,80.138,88.548,80.608,87.871,80.608z"/>
<path fill="#3F3F41" d="M104.84,81.219H87.659c-0.558,0-1.01-0.546-1.01-1.222s0.452-1.223,1.01-1.223h17.181
	c0.559,0,1.011,0.547,1.011,1.223S105.399,81.219,104.84,81.219z"/>
<rect x="151.834" y="27.139" transform="matrix(0.9918 0.1282 -0.1282 0.9918 14.1435 -32.879)" fill="#C6E4E1" width="221.432" height="132.639"/>
<g id="m3vDs5_2_">
	<g>
		<path fill-rule="evenodd" clip-rule="evenodd" fill="#C6997A" d="M279.766,42.389c0.006,1.319-1.933,1.413-2.461,0.551
			C277.231,41.538,279.006,41.973,279.766,42.389z"/>
		<path fill-rule="evenodd" clip-rule="evenodd" fill="#C6997A" d="M269.67,41.519c-0.564,1.119-1.014,1.167-1.188,2.453
			c-0.902-0.072-0.792-0.929-1.599-1.076c-0.521,0.404-0.716,1.233-1.287,1.572c-2.21-0.092-2.454-1.699-2.364-3.564
			C265.04,40.811,267.841,40.764,269.67,41.519z"/>
		<path fill-rule="evenodd" clip-rule="evenodd" fill="#C6997A" d="M249.065,47.979c-0.227,2.043-5.066,1.385-5.638-0.077
			C243.87,46.025,248.003,47.818,249.065,47.979z"/>
		<path fill-rule="evenodd" clip-rule="evenodd" fill="#C6997A" d="M206.906,78.373c0.039,0.798-0.29,1.12-0.62,1.441
			c-0.79-0.097-1.458-0.286-1.386-1.049C205.009,77.907,206.092,78.315,206.906,78.373z"/>
		<path fill-rule="evenodd" clip-rule="evenodd" fill="#C6997A" d="M207.996,80.035c-0.567-0.012-0.91-0.197-0.771-0.751
			C207.853,79.142,208.165,79.158,207.996,80.035z"/>
		<path fill-rule="evenodd" clip-rule="evenodd" fill="#C6997A" d="M208.608,80.331c0.571,0.009,0.663,0.387,0.53,0.938
			c-0.566-0.012-0.909-0.196-0.771-0.751C208.544,80.58,208.579,80.46,208.608,80.331z"/>
		<path fill-rule="evenodd" clip-rule="evenodd" fill="#C6997A" d="M329.282,99.618c0.816,0.013,0.914,0.578,1.173,1.021
			c-0.226,1.186-1.289,2.401-2.387,1.646C328.524,101.31,329.324,100.555,329.282,99.618z"/>
		<path fill-rule="evenodd" clip-rule="evenodd" fill="#C6997A" d="M349.963,112.718c0.776,0.108,0.858,0.75,0.662,1.606
			c0.611,0.105,1.414,0.065,1.682,0.434c-0.702,1.468-2.59,3.322-4.363,1.826c0.03-1.043,0.57-1.424,1.289-1.57
			C349.027,113.99,349.299,113.215,349.963,112.718z"/>
		<path fill-rule="evenodd" clip-rule="evenodd" fill="#C6997A" d="M353.153,116.605c0.876,0.353,1.665,0.77,1.489,1.931
			C353.769,118.866,352.692,117.924,353.153,116.605z"/>
		<path fill-rule="evenodd" clip-rule="evenodd" fill="#C6997A" d="M356.221,118.089c-0.337,0.843,0.043,1.327-0.676,1.867
			C354.233,119.843,354.748,117.401,356.221,118.089z"/>
		<path fill-rule="evenodd" clip-rule="evenodd" fill="#C6997A" d="M337.711,141.981c-1.026,0.916-1.444,2.618-3.351,2.391
			c-0.574-0.568-0.285-2.801,0.414-3.205c0.479-0.438,1.323,0.586,1.95,0.035c0.02-0.558-0.406,0.246-0.854-0.11
			c-0.013-0.682,0.31-0.93,0.965-0.744c-4.291-1.371-4.868-5.608-8.841-7.225c-3.419,0.139-5.336,2.227-8.774,2.342
			c0.952-2.604,0.123-9.645,3.834-9.498c0.905-2.817,4.394-2.285,6.534-3.5c0.707-1.413,1.289-2.985,2.82-3.328
			c0.96,0.093,0.688,1.137,0.847,1.847c0.955-1.997,4.353-3.87,6.473-1.336c0.013,1.098-0.494,1.522-0.73,2.295
			c0.479,0.651,1.948,1.367,2.425,1.4c0.706-1.331,0.36-4.023,1.49-4.804c2.726,1.887,2.071,6.742,3.271,9.98
			c0.818,2.208,2.048,4.074,0.026,6.521c-1.452,1.758-4.842,3.087-6.143,5.505c-0.821,0.035-2.317,0.179-2.99-0.387
			C337.372,140.703,337.76,141.174,337.711,141.981z"/>
		<path fill-rule="evenodd" clip-rule="evenodd" fill="#C6997A" d="M280.414,111.333c0.353-0.016,0.342,0.25,0.613,0.297
			c-0.988,4.224-1.703,10.916-5.875,11.838c-0.043-2.784-0.552-5.812,0.25-8.656C277.428,114.113,279.454,113.415,280.414,111.333z"
			/>
		<path fill-rule="evenodd" clip-rule="evenodd" fill="#C6997A" d="M200.635,76.477c1.546-0.361,3.363,0.394,4.189,1.193
			c-0.427,1.17-5.417,1.378-4.458-0.793c-1.627-0.158-2.272-1.07-3.012-1.91c-1.412-0.129-2.677-0.372-3.576-0.897
			c0.205-1.986,2.538-0.746,3.981-0.572C198.133,74.943,200.73,74.671,200.635,76.477z"/>
		<path fill-rule="evenodd" clip-rule="evenodd" fill="#C6997A" d="M331.301,109.22c-0.004,0.451,0.932,0.18,1.013,0.565
			c-0.381,0.421-0.411,1.298-1.049,1.386c0.549,0.586,1.521,2.425,0.068,2.833c-0.702-0.035-0.995-0.387-0.958-0.993
			c-0.451,0.246-0.54,0.962-1.206,0.931c-1.492-0.807,0.04-4.894,0.773-5.982c1.13,0.361,1.765-0.254,2.703-0.737
			C335.685,107.945,332.716,110.693,331.301,109.22z"/>
		<path fill-rule="evenodd" clip-rule="evenodd" fill="#C6997A" d="M339.02,110.001c0.084,0.959,0.973,1.302,0.765,2.488
			c0.61-1.204,2.55-0.685,4.012-0.786c0.378,1.599,2.231,1.661,3.114,2.792c1.033,1.322,0.993,3.403,2.225,4.631
			c-0.556,0.109-0.914,0.478-1.578,0.448c-0.909-0.644-1.072-1.866-1.592-2.812c-0.922,0.051-1.088,1.083-1.901,1.274
			c-1.327-1.307-2.552,0.397-3.763-1.138c-0.019-0.771,0.824-0.427,0.807-1.199c-0.177-0.972-0.931-2.027-2.186-1.585
			C338.053,113.009,334.813,109.483,339.02,110.001z"/>
		<path fill-rule="evenodd" clip-rule="evenodd" fill="#C6997A" d="M358.608,141.64c-0.028,0.213-0.056,0.427-0.083,0.641
			c-1.634,2.129-5.063,1.932-7.361,3.177c-1.739,0.942-3.171,3.662-5.273,2.142c2.4-2.627,6.263-3.354,8.975-5.574
			c0.295-1.533,0.118-3.672,1.751-3.467C358.086,138.965,356.993,141.346,358.608,141.64z"/>
		<path fill-rule="evenodd" clip-rule="evenodd" fill="#C6997A" d="M284.893,43.051c-1.039,1.155-3.866,1.131-4.756-0.18
			C281.022,41.318,283.495,42.412,284.893,43.051z"/>
		<path fill-rule="evenodd" clip-rule="evenodd" fill="#C6997A" d="M301.076,45.577c-0.069,0.503,0.287,0.677,0.048,1.31
			c-0.197,0.161-0.602,0.052-0.696,0.345c-0.959-0.864-3.262-0.69-3.652-1.993C297.841,43.092,299.065,45.692,301.076,45.577z"/>
		<path fill-rule="evenodd" clip-rule="evenodd" fill="#C6997A" d="M211.146,35.476c0.904,0.007,0.861,0.747,1.869,0.676
			c0.371-0.244-0.814-1.028,0.007-1.737c1.165-0.326,2.638,0.27,2.88,1.242c-0.127,0.749-1.037,0.484-1.605,0.662
			c-0.378-0.045,0.209,1.051-0.379,1.254C212.547,37.935,210.354,37.408,211.146,35.476z"/>
		<path fill-rule="evenodd" clip-rule="evenodd" fill="#C6997A" d="M211.47,34.649c-0.172,0.605-0.575,0.916-1.207,0.93
			c0.074,0.506,0.259,1.345-0.221,1.709c-1.333-0.037-5.291,0.085-5.871-1.628c-0.097-0.957,0.569-0.926,0.834-1.413
			c1.843-0.009,1.889,1.364,3.252,1.723c0.587-0.475-0.649-0.63-0.234-1.55C208.789,33.871,210.75,33.812,211.47,34.649z"/>
		<path fill-rule="evenodd" clip-rule="evenodd" fill="#C6997A" d="M322.067,93.256c0.816,1.842,2.803,3.688,1.55,6.5
			c-1.849-0.152-2.025,1.864-3.908,1.667c0.662-2.179-1.34-2.301-1.695-3.694c-1.687,3.527,3.6,6.043,1.294,10.159
			c0.584,0.576,2.044,0.475,2.454,1.186c0.117-2.842,2.624-2.583,4.343-3.349c0.378-1.008,0.864-1.871,1.427-2.639
			c1.372,0.036,2.497,1.275,2.371,1.828c-1.558,1.476-1.607,3.684-2.352,6.43c-1.603,1.125-3.855-0.916-5.444-1.573
			c-0.197,0.744-1.102,0.566-2.007,0.393c0.189,1.002-0.11,1.739-0.73,2.294c-2.843-0.693-1.865-4.332-4.065-5.521
			c0.92-2.952-2.492-2.567-1.688-5.432c1.908-0.295,1.166,2.887,3.061,3.22c0.24-0.908-0.856-2.983-0.089-4.356
			c-0.706-1.699-2.188-2.799-1.446-5.617c-1.056-0.288-1.536,0.17-2.591-0.117c-1.012-0.825-0.345-2.941-0.517-4.412
			c-1.152,0.085-1.941,0-2.75-0.573c-1.495,1.471-2.58,3.474-4.852,3.935c-0.378,1.708,0.577,3.149-0.739,4.031
			c1.825,0.53,2.048,4.337-0.897,3.577c-0.27-0.484-0.829-1.38-0.179-1.978c-4.286,0.267-1.069-6.853-4.162-8.14
			c0.092-0.713,0.185-1.425,0.277-2.138c-0.83-0.598-1.029-0.719-2.296-0.731c-0.763-0.757-0.791-2.083-1.35-2.998
			c-1.389,0.095-4.894,0.724-5.928-1.201c0.329,1.568,1.438,1.854,1.082,3.398c-0.484,2.097-6.518,4.972-8.734,5.388
			c0.798,0.691,1.94-0.305,3.233,0.2c0.079,0.324,0.265,0.565,0.558,0.724c-0.324,2.537-2.917,3.115-4.509,4.631
			c-1.539,1.467-4.377,4.901-5.426,6.684c-1.188,2.021,0.093,4.597-0.429,6.679c-0.711,2.847-3.855,2.948-4.888,5.886
			c-0.607,1.731,0.145,4.262-2.075,4.293c-1.264,4.68-4.634,6.63-10.657,5.139c-1.255-0.92-0.889-2.64-1.101-4.921
			c-0.291-3.125-2.454-6.026-2.452-7.92c0.002-2.729,2.612-4.363,2.433-7.071c-0.078-1.2-1.477-2.906-1.686-5.431
			c-0.308-3.714-0.441-6.344-4.514-7.1c-2.612-0.485-5.771,1.653-8.072,0.26c-3.576-2.167-3.423-9.346-3.339-12.813
			c0.116-4.74,3.635-4.043,5.639-6.657c0.882-1.15,0.833-3.015,1.834-4.108c0.844-0.919,1.78-0.57,3.055-1.777
			c-0.981,0.134-1.673,0.545-2.62,0.096c0.248-2.34,0.887-4.173,1.629-5.872c1.567,0.074,2.433,0.689,3.791,0.925
			c0.489-0.031,0.222-1.042,0.406-1.468c-0.41-0.646-1.644-0.657-1.518-1.717c-0.016-1.187,1.785-0.015,1.691-1.303
			c-0.157-0.451-1.727,0.201-2.109-0.489c0.326-1.448,2.852-1.994,1.777-3.68c-0.517,0.326-0.252,1.669-0.703,2.081
			c-1.087,0.336-1.76,1.209-3.37,0.868c-0.415-1.258,0.664-1.437,0.118-2.592c1.437-0.048,1.672-1.656,3.425-1.294
			c0.006-0.906,0.307-1.433,0.676-1.868c0.301,0.058,0.602,0.114,0.67-0.131c1.219,0.598,1.314,2.064,1.268,3.64
			c0.207,0.931,1.665,0.896,1.46,2.144c-0.212,1.14-1.572,0.789-2.516,0.979c1.465,1.577,3.458-1.994,5.486-2.115
			c-0.208-1.111,0.074-2.384,0.813-2.936c-0.906-0.006-1.432-0.306-1.867-0.675c-0.376-1.059,0.251-2.109,0.786-2.722
			c2.454,0.271,3.46-1.334,4.873-2.412c0.646-0.186-0.849-0.742-0.075-1.096c3.962-1.929,10.313-0.369,14.342,1.637
			c0.333,0.384,0.134,1.18,0.448,1.579c0.876-0.311-0.282-0.715,0.406-1.468c1.93,0.166,2.406-0.217,4.301,0.338
			c-0.24-0.712-1.466-0.666-1.302-1.689c1.427-2.153,4.459-3.517,7.707-2.479c-0.805,2.116-4.405,0.608-5.328,2.57
			c-0.382,0.808,0.512,0.63,0.743,0.965c0.016,0.602-0.822,0.098-0.938,0.531c0.282,0.359,0.895,0.465,1.441,0.621
			c0.48,0.03-0.209-0.574,0.137-1.068c1.847,0.052,2.537,0.994,4.433,1.006c0.502-0.096,0.238-1.187,0.435-1.681
			c1.05-0.62,2.399-0.449,2.964,0.601c0.405-0.948,2-0.393,2.592,0.118c0.577-0.109-0.29-0.991,0.379-1.254
			c1.866,0.093,2.825-0.993,5.052-0.434c0.399,0.019,0.225-0.706,0.537-0.799c2.894,0.082,7.663,0.197,8.596,2.414
			c0.097,0.71-0.612,0.372-0.753,0.772c2.572,1.203,5.632,0.41,8.092,1.262c1.289,0.447,1.689,1.989,3.709,1.565
			c-0.267-0.352-0.077-0.699,0.51-0.586c-0.123-0.546-1.164-0.385-0.931-1.206c0.271-1.507,3.582-1.048,2.936,0.814
			c0.968,0.151,1.771,0.43,2.027,1.131c3.534-0.454,6.173,2.139,9.605,2.979c2.535,0.62,5.716,0.197,8.788,0.918
			c3.653,0.858,8.095,2.364,9.332,5.116c-1.553-0.021-1.888-0.982-3.335-1.083c-0.511,0.53,0.605,1.449,0.578,2.248
			c-1.507,1.081-2.776,1.533-4.95,1.314c1.691,1.959,0.733,4.609,0.075,7.83c-1.528-0.269-1.029-1.845-1.593-2.813
			c-0.722-1.242-2.722-1.755-2.576-3.591c0.201-0.736,1.048-0.636,1.447-1.116c0.224-1.006-0.048-1.63-0.365-2.219
			c-0.491,0.026-0.119,1.175-0.777,0.985c-1.031,0.089-1.17-0.508-1.628-0.861c0.069,0.653,0.517,1.012,0.179,1.979
			c-2.734,0.982-5.888-0.781-8.256,0.019c0.002,0.896,0.497,1.411,0.819,2.061c1.979-0.707,2.418,1.503,3.817,0.711
			c2.139,1.648,3.932,4.395,2.962,7.333c-1.625-0.22-1.245-1.988-1.776-3.053c-0.964,1.245-0.578,4.239-1.573,5.445
			c-0.76,0.261-2.071-0.193-2.832,0.068c0.181,1.656,1.439,2.48,1.88,3.936c-0.745,0.846-0.907,1.979-1.984,1.917
			c-1.895-0.111-1.429-4.204-3.535-4.584c-0.433,0.459,1.334,1.413-0.407,1.468c0.842,2.429,2.957,3.876,2.054,7.651
			c-1.812,1.973-3.11,4.616-7.018,3.872c-0.092,0.879-0.185,1.757-0.518,2.322C323.255,93.88,322.356,93.802,322.067,93.256z
			 M265.827,52.752c0.381,2.33-0.966,4.113-2.371,4.907c1.08,0.155,1.816-0.138,3.018,0.173c0.07-1.324,0.34-2.388,1.027-2.909
			c-0.118-0.741-0.525-1.26-0.605-2.033c0.105-0.713,1.841-1.63,0.917-2.054C267.646,52.118,266.316,51.891,265.827,52.752z
			 M261.457,56.315c-0.077-0.764,0.424-0.78,0.406-1.468c-0.121-0.08-0.754-0.638-0.854-0.111
			C261.668,55.214,260.153,56.253,261.457,56.315z M270.918,68.833c2.457-1.637,4.935,1.288,7.318,0.511
			c-0.34-1.639-2.388-2.309-4.107-1.834c-0.851-0.37-0.685-1.523-1.97-1.558C272.396,67.486,270.269,68.405,270.918,68.833z
			 M269.911,73.265c-0.677-0.189-1.172-2.335-1.545-1.503c-0.445,0.608,1.335,1.146,1.489,1.931
			c-0.854,0.71-3.347,0.073-3.336-1.083c0.071-0.353,1.756,0.154,1.123-0.289c-2.32-0.327-3.264-1.714-3.914-3.33
			c-0.089,1.386-1.179,2.789-2.412,1.86c0.042-1.025,0.941-0.94,1.104-1.812c-1.218-1.178-1.986-2.701-3.19-3.889
			c-1.452,0.947-3.386,1.265-5.033,1.957c-0.612,1.618-1.581,2.772-3.218,3.06c-0.894,0.285-1-1.002-1.469-0.407
			c1.721,2.638,8.27-2.393,9.986,1.725c-0.086,0.9-0.543,1.144-0.249,1.922c2.197,0.552,3.616,1.7,5.307,2.641
			c1.312-3.442,3.189,0.271,5.128,0.663c1.55,0.312,2.623-1.021,4.115,0.098c0.027-1.211,0.702-1.584,0.786-2.723
			C273.073,73.129,271.899,73.187,269.911,73.265z M267.603,69.274c-0.003,0.772,0.651,1.035,0.874,1.633
			c0.104-0.612,0.064-1.414,0.435-1.682C268.278,68.987,268.236,69.513,267.603,69.274z M284.225,81.849
			c1.24,0.004,1.426,0.823,1.515,1.715c1.104,0.101,1.627-0.55,2.302-1.004c-2.477,0.525-2.412-1.952-3.996-2.689
			C283.816,80.752,284.265,81.112,284.225,81.849z M277.068,86.789c-1.134-2.205-1.54-4.968-3.259-6.721
			C274.093,82.042,275.691,85.661,277.068,86.789z"/>
		<path fill-rule="evenodd" clip-rule="evenodd" fill="#C6997A" d="M241.102,35.654c2.135,0.276,4.271,0.553,6.41,0.829
			c2.292,1.349,5.259,1.011,6.801,2.833c-0.964,0.552-2.327,0.258-3.156,0.896c-0.637,0.488-0.579,1.508-1.132,2.026
			c-0.48,0.451-1.346,0.264-1.82,0.633c-0.974,0.76-0.797,2.192-2.039,2.344c-4.464-0.217-6.483,2.734-11.338,2.01
			c-0.968,1.697-3.757,4.493-5.674,1.873c-0.111-1.261-0.004-2.691-0.145-3.928c0.226-0.957,1.413-0.663,1.717-1.517
			c-1.026-1.691,0.69-2.221,0.311-4.086c-1.283-0.658-5.666,0.708-5.629-1.814c0.688-1.51,3.291,0.549,3.797-0.812
			c-2.979-0.705-5.698,1.09-7.892,2.237c1.274,0.897,3.613,1.931,3.004,3.646c1.194,0.106,2.221,0.341,2.454,1.187
			c-0.613,0.995-2.408,1.36-3.772,0.599c0.59,1.443-0.794,1.775-1.77,1.943c0.414,0.212,0.789,0.756,0.288,1.124
			c-2.602,0.917-2.261-2.312-4.32-1.862c-0.116,0.831,1.521,2.216,1.563,3.026c0.945,0.124,1.571-1.145,2.432-0.338
			c1.085,0.593,0.088,1.508,0.338,2.433c0.267,0.987,1.154,1.369,1.219,2.33c0.055,0.793-0.69,1.36-0.703,2.082
			c-0.02,1.123,1.546,1.726,0.71,2.915c-0.504,0.58-2.038,0.338-2.109-0.489c-0.731,0.307-2.131,0.409-2.322-0.517
			c0.287-1.125,1.135-1.521,1.985-1.916c-1.047-0.028-2.542-0.637-3.046,0.041c1.275,1.064-0.976,0.987-1.048,1.385
			c4.458,1.139-1.186,2.517-2.978,2.874c-0.865-0.093,0.111-1.308-0.263-1.337c-4.53,3.27-9.523,5.942-14.013,9.268
			c-0.493,1.944,0.975,5.637-1.788,5.417c-0.332-1.026,0.256-2.761,0.312-4.087c-1.485-0.073-1.919-0.957-3.093-1.269
			c-1.875,1.894-6.859-0.249-7.947,2.666c-0.301,2.027-0.488,3.968-0.05,5.425c3.183,1.218,3.166-1.715,5.617-1.446
			c0.787,1.879-1.466,2.753-1.166,3.976c0.71,0.211,2.834-0.357,3.122,1.055c-0.304,1.632-1.261,3.054-0.337,4.301
			c1.037,0.72,1.972,0.373,3.604,0.683c0.892-1.338,2.446-1.818,3.992-2.309c1.291,2.004,3.521,0.343,5.098,0.876
			c1.763,0.598,1.278,2.736,2.764,3.833c3.638,0.21,4.673,2.425,4.494,5.578c1.465,0.585,2.539,2.625,4.528,3.625
			c2.423,1.218,4.485,1.022,4.954,3.681c0.14,0.793,0.053,1.646-0.145,2.806c-0.488,1.402-2.66,2.174-3.33,3.914
			c-1.127,2.926,0.023,5.556-2.593,6.616c-0.766,0.312-1.419,0.153-2.861,0.282c-1.465,2.614-1.953,7.745-5.266,7.14
			c0.931,0.371,1.389,1.109,0.978,2.516c-0.949,0.656-1.626,0.206-3.047,0.042c-0.301,1.356-1.749,1.224-2.812,1.591
			c0.857,1.42,0.125,2.92-0.739,4.032c2.351,0.274,0.832,2.652,1.213,4.067c0.459,1.703,2.265,1.601,2.846,3.191
			c-0.181,0.516-0.621,0.694-0.993,0.958c-0.57-0.073-1.14-0.147-1.71-0.221c-1.288-2.135-4.511-3.118-5.375-5.473
			c-2.361-6.435,1.053-16.435-0.057-24.772c-0.862-1.436-2.087-1.296-2.982-2.124c-1.096-1.011-1.227-2.961-2.013-4.604
			c-0.943-1.974-2.822-3.678-1.977-6.555c0.419-1.429,2.466-1.909,3.032-3.301c0.439-1.073-0.106-3.459,0.98-4.217
			c-0.456,0.322-1.172,0.308-1.792,0.419c-2.436-1.712-3.895-4.179-7.381-5.081c-0.431-0.564-0.431-1.464-0.819-2.061
			c-2.198-0.999-5.121-1.438-6.079-3.393c0.654-3.28-0.756-4.643-1.521-6.713c-0.538-1.45-0.546-2.821-1.426-4.094
			c-0.257,2.729,2.917,6.155,0.716,7.913c-0.817-1.278-1.67-3.435-1.931-5.246c-0.232-1.63,0.253-4.286-0.053-6.307
			c-0.144-0.952-0.996-3.064-0.854-3.774c0.417-2.084,2.474-0.53,3.882-4.523c0.46-1.306-1.062-2.465,0.627-3.177
			c-0.828-0.168-1.841,0.396-2.11-0.49c0.219-1.313,1.342-2.035,2.302-1.005c-1.786-1.491-0.479-3.171,0.422-4.942
			c-3.658-0.825-7.736-0.063-10.373,1.266c-2.576-2.101-4.804,1.838-7.327,1.226c0.027-0.214,0.055-0.427,0.083-0.641
			c1.333-0.6,2.625-1.251,3.936-1.881c0.136-0.682-0.261-0.952,0.007-1.737c0.417-1.707,4.323-0.21,4.336-1.611
			c-0.737,0.846-1.984-0.139-1.813-1.103c0.387-2.17,2.552-0.458,3.743-0.385c-0.111-0.007,2.098-0.335,2.219-0.365
			c1.917-0.474,3.323-2.175,5.273-2.143c0.737,0.013,1.558,0.668,2.297,0.731c0.503,0.043,1.09-0.438,1.578-0.448
			c2.618-0.054,3.581,1.144,4.747,1.917c0.933-0.038,1.29-0.823,2.461-0.551c1.472,1.495,4.151,0.115,6.355,1.255
			c-0.164-3.809,4.435-1.52,6.044-1.392c0.348,0.028,0.883-0.346,1.125-0.289c0.279,0.068,0.464,0.712,0.772,0.751
			c0.96,0.125,2.52-0.958,2.99,0.387c-0.924,0.435-1.539,2.422-1.696,3.039c1.281,0.58,0.624-1.355,1.476-1.33
			c0.374,0.289,0.974,0.404,1.439,0.621c0.871-1.504,3.622-3.048,5.248-1.93c-0.669,0.712-1.818,0.802-2.571,1.406
			c-0.03,0.793,0.734,0.972,0.393,2.006c0.921,0.114,1.671,0.004,2.033-0.606c-0.682,0.012-0.93-0.31-0.744-0.965
			c1.476-1.56,0.157-4.001,2.261-4.052c1.201-0.029,1.968,2.067,3.522,1.323c-2.595-0.595-3.211-3.391-0.013-3.259
			c3.452,0.976,10.11-0.853,13.488,1.526c0.012,0.384-1.093,0.531-0.54,0.799C235.026,35.426,238.405,35.986,241.102,35.654z
			 M213.626,43.182c0.54,0.29,1.169,0.508,1.143,1.234c-0.531,1.323-3.437,0.532-4.058-0.524c-3.057,0.028-4.577,2.048-6.536,3.5
			c0.774,1.584,2.791,2.208,4.128,3.357c-0.611,0.537-1.033,1.321-1.372,2.213c2.406,0.042,2.109-3.418,4.743-3.08
			c0.188-0.723,0.071-1.208,0.007-1.737c1.407-1.503,2.858-2.947,4.639-3.963c1.422,0.515,1.75-0.391,2.489-0.764
			c-0.534-0.037-1.043-0.094-1.013-0.565c-0.003-0.501,0.647-0.158,0.723-0.558C217.149,41.151,215.378,43.218,213.626,43.182z"/>
		<path fill-rule="evenodd" clip-rule="evenodd" fill="#C6997A" d="M342.39,77.2c0.099,0.876-1.206-0.066-1.18,0.717
			c0.683,1.268,1.075,3.575,0.165,5.451c-2.105,0.512-3.709,1.677-5.542,2.542c-1.792-2.283,1.579-3.117,3.061-3.514
			c0.02-1.555,0.602-2.38,1.456-2.854c-0.046-1.183-0.704-1.893-0.925-2.942C339.777,74.933,342.431,75.876,342.39,77.2z"/>
		<path fill-rule="evenodd" clip-rule="evenodd" fill="#C6997A" d="M199.429,77.407c0.285,2.051-2.02,1.83-2.248,0.579
			C197.048,76.712,198.793,76.893,199.429,77.407z"/>
		<path fill-rule="evenodd" clip-rule="evenodd" fill="#C6997A" d="M336.979,112.344c-1.064-0.058-2.098,1-3.074,0.254
			c1.364-1.365,0.215-3.079,1.062-4.858c0.356,0.046,0.712,0.092,1.067,0.138c0.682,0.902-0.22,1.384-0.332,2.563
			C335.492,111.565,337.114,111.278,336.979,112.344z"/>
		<path fill-rule="evenodd" clip-rule="evenodd" fill="#C6997A" d="M210.473,133.141c-0.294,1.275-2.105,1.436-2.405,0.123
			C207.983,131.738,210.294,132.274,210.473,133.141z"/>
	</g>
</g>
<g>
	<g>
		<path fill="none" stroke="#FFFFFF" stroke-width="2" stroke-miterlimit="10" d="M208.489,48.357c0,0,0.149-0.081,0.44-0.228"/>
		<path fill="none" stroke="#FFFFFF" stroke-width="2" stroke-miterlimit="10" stroke-dasharray="0.962,1.924,0.962,1.924" d="
			M210.664,47.302c1.094-0.498,2.586-1.137,4.441-1.844"/>
		
			<path fill="none" stroke="#FFFFFF" stroke-width="2" stroke-miterlimit="10" stroke-dasharray="0.962,1.924,0.962,1.924,0.962,1.924" d="
			M216.006,45.121c15.803-5.822,54.687-15.176,99.007,10.888"/>
		<path fill="none" stroke="#FFFFFF" stroke-width="2" stroke-miterlimit="10" d="M315.846,56.503
			c0.144,0.085,0.286,0.171,0.43,0.257"/>
	</g>
</g>
<path fill="#2C2C2D" d="M319.17,38.896c-2.996-0.387-5.739,1.728-6.125,4.724c-0.388,2.996,3.828,13.05,3.828,13.05
	s6.633-8.652,7.02-11.648C324.28,42.026,322.165,39.284,319.17,38.896z M318.036,47.668c-1.849-0.239-3.154-1.931-2.914-3.779
	c0.238-1.849,1.931-3.154,3.779-2.915c1.849,0.239,3.153,1.932,2.914,3.78C321.577,46.603,319.885,47.907,318.036,47.668z"/>
<rect x="40.401" y="264.461" fill="#95755C" width="359.225" height="14.588"/>
<g>
	<ellipse fill-rule="evenodd" clip-rule="evenodd" fill="#7E634E" cx="88.235" cy="268.976" rx="12.992" ry="4.786"/>
	<g>
		<path fill-rule="evenodd" clip-rule="evenodd" fill="#B3AC43" d="M90.061,168.722c0,0,12.09,27.007-3.397,68.391
			C86.664,237.112,72.37,194.112,90.061,168.722z"/>
		<path fill-rule="evenodd" clip-rule="evenodd" fill="#C9C14A" d="M86.162,241.534c0,0-21.158-18.668-20.536-62.85
			C65.626,178.685,94.251,211.666,86.162,241.534z"/>
		<path fill-rule="evenodd" clip-rule="evenodd" fill="#C9C14A" d="M87.55,239.046c0,0-5.602-29.248,21.779-58.495
			C109.329,180.551,110.574,223.488,87.55,239.046z"/>
		<path fill-rule="evenodd" clip-rule="evenodd" fill="#B3AC43" d="M83.959,236.557c0,0-20.536-1.867-29.248-24.891
			C54.711,211.666,75.247,215.398,83.959,236.557z"/>
		<path fill-rule="evenodd" clip-rule="evenodd" fill="#B3AC43" d="M91.621,239.754c0,0,3.061-23.85,25.124-30.663
			C116.745,209.091,110.023,234.387,91.621,239.754z"/>
		<path fill-rule="evenodd" clip-rule="evenodd" fill="#EC6146" d="M106.983,233.445v17.424c0,10.31-8.358,18.669-18.668,18.669l0,0
			c-10.311,0-18.668-8.359-18.668-18.669v-17.424H106.983z"/>
	</g>
</g>
<rect x="268.169" y="215.026" fill="#5B7473" width="0" height="0.515"/>
<g>
	<ellipse fill-rule="evenodd" clip-rule="evenodd" fill="#7E634E" cx="365.402" cy="271.711" rx="12.992" ry="4.786"/>
	<g>
		<path fill="#E5E5E5" d="M355.988,244.202c0,0-14.258-14.017-3.624-31.9c10.634-17.883,16.917-18.125,11.842-31.176
			c0,0,9.425,7.01,9.183,20.543c-0.241,13.533-13.292,29-3.624,42.533H355.988z"/>
		<path fill-rule="evenodd" clip-rule="evenodd" fill="#EC6146" d="M383.452,242.724v8.307c0,10.31-8.358,18.668-18.668,18.668l0,0
			c-10.31,0-18.669-8.358-18.669-18.668v-8.307H383.452z"/>
		<rect x="356.858" y="263.991" fill-rule="evenodd" clip-rule="evenodd" fill="#EC6146" width="16.308" height="7.413"/>
		<path fill="#EC6146" d="M382.469,250.513c2.228-0.719,4.521,0.193,5.115,2.033c0.593,1.84-0.735,3.922-2.962,4.639
			c-2.227,0.719-4.521-0.193-5.115-2.032C378.915,253.312,380.243,251.23,382.469,250.513 M381.171,246.49
			c-4.716,1.521-7.476,6.049-6.164,10.114c1.312,4.064,6.198,6.126,10.913,4.604c4.718-1.522,7.476-6.051,6.164-10.116
			C390.772,247.028,385.887,244.968,381.171,246.49L381.171,246.49z"/>
	</g>
</g>
<rect x="209.999" y="238.466" fill="#AAAFB2" width="43.733" height="25.084"/>
<rect x="125.719" y="100.464" fill="#F5F5F5" width="212.294" height="146.544"/>
<rect x="131.631" y="105.623" fill="#3F3F41" width="200.471" height="127.109"/>
<rect x="171.306" y="262.264" fill="#F5F5F5" width="121.12" height="5.225"/>
<circle fill="#AAAFB2" cx="231.866" cy="240.689" r="2.595"/>
<rect x="171.306" y="267.734" fill="#7E634E" width="121.12" height="2.489"/>
<g>
	<path fill="#FFFFFF" d="M180.607,160.1v4.494h-1.431V160.1l-2.797-6.753h1.558l1.961,5.291l2.009-5.291h1.525L180.607,160.1z"/>
	<path fill="#FFFFFF" d="M191.631,158.955c0,0.879-0.086,1.682-0.262,2.407c-0.176,0.725-0.428,1.348-0.764,1.866
		c-0.333,0.519-0.734,0.921-1.207,1.207c-0.472,0.287-1.009,0.43-1.612,0.43s-1.143-0.143-1.622-0.43
		c-0.474-0.286-0.882-0.688-1.215-1.207c-0.333-0.519-0.588-1.142-0.762-1.866c-0.176-0.726-0.261-1.528-0.261-2.407
		s0.084-1.682,0.252-2.407c0.169-0.726,0.419-1.345,0.749-1.858c0.329-0.515,0.733-0.911,1.215-1.191
		c0.481-0.281,1.029-0.422,1.644-0.422c0.604,0,1.141,0.141,1.612,0.422c0.472,0.28,0.874,0.677,1.207,1.191
		c0.336,0.514,0.588,1.133,0.764,1.858C191.544,157.273,191.631,158.076,191.631,158.955z M190.123,158.955
		c0-0.637-0.05-1.234-0.151-1.796c-0.101-0.561-0.25-1.049-0.445-1.462c-0.198-0.413-0.439-0.738-0.73-0.978
		c-0.292-0.237-0.628-0.356-1.01-0.356c-0.393,0-0.737,0.119-1.034,0.356c-0.296,0.239-0.542,0.564-0.739,0.978
		c-0.195,0.413-0.34,0.901-0.437,1.462c-0.094,0.562-0.143,1.159-0.143,1.796c0,0.635,0.048,1.233,0.143,1.795
		c0.097,0.562,0.242,1.048,0.437,1.462c0.197,0.413,0.443,0.738,0.739,0.978c0.296,0.238,0.641,0.357,1.034,0.357
		c0.382,0,0.718-0.119,1.01-0.357c0.291-0.239,0.532-0.564,0.73-0.978c0.196-0.414,0.345-0.9,0.445-1.462
		C190.073,160.188,190.123,159.59,190.123,158.955z"/>
	<path fill="#FFFFFF" d="M199.973,162.339c-0.119,0.498-0.307,0.934-0.573,1.311c-0.266,0.376-0.612,0.672-1.04,0.89
		c-0.429,0.217-0.958,0.326-1.581,0.326c-0.628,0-1.148-0.109-1.566-0.326c-0.417-0.218-0.759-0.514-1.024-0.89
		c-0.264-0.377-0.453-0.812-0.564-1.311c-0.11-0.498-0.167-1.032-0.167-1.605v-7.387h1.431v7.244c0,0.381,0.028,0.75,0.088,1.104
		c0.057,0.355,0.158,0.669,0.3,0.945s0.34,0.495,0.588,0.659c0.25,0.164,0.563,0.247,0.946,0.247c0.381,0,0.692-0.083,0.937-0.247
		s0.436-0.383,0.582-0.659c0.141-0.276,0.241-0.59,0.3-0.945c0.058-0.354,0.088-0.724,0.088-1.104v-7.244h1.431v7.387
		C200.148,161.307,200.088,161.841,199.973,162.339z"/>
	<path fill="#FFFFFF" d="M207.072,164.594l-1.906-5.02h-1.302v5.02h-1.399v-11.247h2.916c0.415,0,0.806,0.056,1.171,0.166
		c0.367,0.112,0.687,0.29,0.963,0.533s0.494,0.561,0.652,0.953c0.162,0.392,0.24,0.864,0.24,1.413c0,0.455-0.06,0.853-0.177,1.192
		c-0.118,0.339-0.27,0.627-0.458,0.865c-0.187,0.239-0.394,0.428-0.62,0.564c-0.221,0.138-0.441,0.229-0.652,0.27l2.114,5.29
		H207.072z M206.978,156.469c0-0.383-0.053-0.696-0.16-0.942c-0.106-0.244-0.244-0.44-0.413-0.589
		c-0.169-0.15-0.364-0.253-0.587-0.312c-0.222-0.06-0.445-0.088-0.668-0.088h-1.286v3.925h1.32c0.54,0,0.974-0.174,1.301-0.518
		C206.813,157.598,206.978,157.106,206.978,156.469z"/>
	<path fill="#FFFFFF" d="M220.101,158.986c0,1.822-0.371,3.212-1.109,4.171c-0.744,0.959-1.783,1.437-3.116,1.437h-2.573v-11.247
		h2.589c1.335,0,2.369,0.482,3.106,1.446C219.732,155.756,220.101,157.154,220.101,158.986z M218.673,158.986
		c0-0.74-0.072-1.388-0.214-1.939c-0.144-0.55-0.338-1.005-0.586-1.365c-0.249-0.359-0.544-0.631-0.887-0.811
		c-0.342-0.18-0.709-0.269-1.1-0.269h-1.154v8.737h1.154c0.391,0,0.757-0.09,1.1-0.271c0.343-0.18,0.638-0.449,0.887-0.81
		c0.248-0.36,0.442-0.813,0.586-1.359C218.601,160.355,218.673,159.717,218.673,158.986z"/>
	<path fill="#FFFFFF" d="M222.088,164.594v-11.247h4.734v1.271h-3.353v3.543h3.128v1.191h-3.128v3.957h3.511v1.285H222.088z"/>
	<path fill="#FFFFFF" d="M233.94,161.607c0,0.509-0.081,0.968-0.24,1.375c-0.16,0.407-0.373,0.75-0.643,1.025
		c-0.27,0.274-0.592,0.486-0.963,0.635c-0.371,0.147-0.768,0.223-1.189,0.223c-0.572,0-1.117-0.12-1.63-0.358
		c-0.514-0.238-0.924-0.553-1.231-0.944l0.843-1.033c0.243,0.318,0.549,0.567,0.913,0.747c0.366,0.18,0.732,0.271,1.105,0.271
		c0.474,0,0.867-0.16,1.174-0.478c0.308-0.318,0.461-0.778,0.461-1.382c0-0.286-0.049-0.537-0.143-0.755
		c-0.095-0.217-0.229-0.413-0.397-0.587c-0.168-0.175-0.361-0.335-0.579-0.478c-0.217-0.144-0.454-0.278-0.708-0.405
		c-0.308-0.147-0.595-0.314-0.865-0.499c-0.27-0.187-0.511-0.4-0.724-0.646c-0.211-0.242-0.378-0.532-0.5-0.865
		c-0.121-0.333-0.183-0.729-0.183-1.184c0-0.54,0.083-1.011,0.254-1.413c0.17-0.403,0.396-0.736,0.676-1.002
		c0.282-0.265,0.603-0.46,0.962-0.588c0.359-0.126,0.724-0.19,1.095-0.19c0.542,0,1.026,0.09,1.454,0.271
		c0.429,0.18,0.786,0.45,1.073,0.811l-0.86,1.016c-0.401-0.529-0.94-0.793-1.618-0.793c-0.202,0-0.4,0.034-0.598,0.103
		c-0.195,0.069-0.373,0.181-0.53,0.334c-0.159,0.152-0.288,0.347-0.382,0.579c-0.095,0.233-0.143,0.514-0.143,0.842
		c0,0.286,0.046,0.532,0.133,0.739c0.093,0.206,0.213,0.393,0.367,0.556c0.153,0.165,0.331,0.312,0.532,0.445
		c0.2,0.133,0.418,0.258,0.652,0.373c0.296,0.149,0.586,0.315,0.873,0.501c0.286,0.185,0.544,0.404,0.779,0.659
		c0.232,0.254,0.419,0.553,0.564,0.897C233.868,160.753,233.94,161.152,233.94,161.607z"/>
	<path fill="#FFFFFF" d="M238.085,154.57v10.023h-1.429V154.57h-2.146v-1.224h5.72v1.224H238.085z"/>
	<path fill="#FFFFFF" d="M241.453,164.594v-11.247h1.431v11.247H241.453z"/>
	<path fill="#FFFFFF" d="M250.316,164.594l-3.589-8.721h-0.048v8.721h-1.319v-11.247h1.718l3.542,8.738h0.048v-8.738h1.319v11.247
		H250.316z"/>
	<path fill="#FFFFFF" d="M259.341,164.594l-0.634-2.637h-3.258l-0.649,2.637h-1.448l2.831-11.247h1.889l2.764,11.247H259.341z
		 M257.134,154.682h-0.062l-1.432,6.148h2.877L257.134,154.682z"/>
	<path fill="#FFFFFF" d="M264.253,154.57v10.023h-1.432V154.57h-2.144v-1.224h5.718v1.224H264.253z"/>
	<path fill="#FFFFFF" d="M267.62,164.594v-11.247h1.431v11.247H267.62z"/>
	<path fill="#FFFFFF" d="M278.74,158.955c0,0.879-0.086,1.682-0.262,2.407c-0.175,0.725-0.43,1.348-0.764,1.866
		c-0.333,0.519-0.734,0.921-1.206,1.207c-0.473,0.287-1.009,0.43-1.613,0.43c-0.604,0-1.143-0.143-1.621-0.43
		c-0.477-0.286-0.882-0.688-1.215-1.207c-0.334-0.519-0.589-1.142-0.763-1.866c-0.175-0.726-0.261-1.528-0.261-2.407
		s0.084-1.682,0.252-2.407c0.169-0.726,0.42-1.345,0.749-1.858c0.328-0.515,0.732-0.911,1.215-1.191
		c0.481-0.281,1.029-0.422,1.644-0.422c0.604,0,1.141,0.141,1.613,0.422c0.472,0.28,0.873,0.677,1.206,1.191
		c0.334,0.514,0.589,1.133,0.764,1.858C278.654,157.273,278.74,158.076,278.74,158.955z M277.23,158.955
		c0-0.637-0.048-1.234-0.149-1.796c-0.101-0.561-0.249-1.049-0.445-1.462c-0.197-0.413-0.44-0.738-0.73-0.978
		c-0.292-0.237-0.627-0.356-1.01-0.356c-0.393,0-0.736,0.119-1.033,0.356c-0.297,0.239-0.542,0.564-0.739,0.978
		c-0.194,0.413-0.34,0.901-0.437,1.462c-0.095,0.562-0.143,1.159-0.143,1.796c0,0.635,0.048,1.233,0.143,1.795
		c0.097,0.562,0.242,1.048,0.437,1.462c0.197,0.413,0.442,0.738,0.739,0.978c0.297,0.238,0.641,0.357,1.033,0.357
		c0.383,0,0.718-0.119,1.01-0.357c0.29-0.239,0.533-0.564,0.73-0.978c0.196-0.414,0.345-0.9,0.445-1.462
		C277.183,160.188,277.23,159.59,277.23,158.955z"/>
	<path fill="#FFFFFF" d="M285.682,164.594l-3.589-8.721h-0.048v8.721h-1.318v-11.247h1.717l3.541,8.738h0.049v-8.738h1.319v11.247
		H285.682z"/>
</g>
<rect x="161.229" y="170.508" fill="#FFFFFF" width="141.274" height="19.755"/>
<rect x="156.604" y="14.905" transform="matrix(0.7415 -0.6709 0.6709 0.7415 31.1405 114.2876)" fill="#E5E5E5" width="14.587" height="3.647"/>
<rect x="369.645" y="43.472" transform="matrix(0.5398 0.8418 -0.8418 0.5398 211.6046 -296.4628)" fill="#E5E5E5" width="14.587" height="3.648"/>
<rect x="354.754" y="167.468" transform="matrix(-0.8292 0.5589 -0.5589 -0.8292 756.8881 107.321)" fill="#E5E5E5" width="14.588" height="3.648"/>
<g>
	<path fill="#E53312" d="M189.119,58.601c-0.639,0.657-7.907,6.197-9.278,6.197c-1.342,0-1.787-3.561-2.839-3.75
		c-2.138-0.383-3.736-1.172-5.011-2.447c-1.8-1.903-2.365-4.679-2.365-10.03c0-5.349,0.565-8.126,2.365-10.029
		c1.902-1.903,4.525-2.726,8.589-2.726c4.062,0,6.687,0.823,8.539,2.726c1.851,1.903,2.365,4.681,2.365,10.029
		C191.484,53.921,190.97,56.697,189.119,58.601 M180.581,38.644c-7.663,0-7.973,3.445-7.973,9.824c0,6.377,0.31,9.978,7.973,9.978
		c7.664,0,7.921-3.651,7.921-9.978C188.502,41.832,188.038,38.644,180.581,38.644"/>
</g>
<g>
	<path fill="#FFFFFF" d="M195.358,52.833c-0.884,0.453-1.877,1.865-1.425,2.75c0.453,0.886,2.178,0.909,3.063,0.457l15.238-7.786
		l6.123,1.683l-0.936-1.832l-3.513-2.729l-0.425,0.302c-0.012-0.022-0.019-0.046-0.031-0.069c-0.012-0.023-0.025-0.043-0.037-0.065
		l0.493-0.168l-0.149-4.446l-0.938-1.831l-2.223,5.949L195.358,52.833z"/>
	<path fill="#FFFFFF" d="M205.601,52.684l-3.848,1.964l7.679,15.033c0,0,5.357,0.988-3.644-16.631
		C205.724,52.926,205.661,52.807,205.601,52.684z"/>
	<path fill="#FFFFFF" d="M191.592,34.761l7.681,15.031l3.843-1.965c-0.062-0.122-0.121-0.242-0.185-0.367
		C193.93,29.841,191.592,34.761,191.592,34.761z"/>
</g>
</svg>
