<?xml version="1.0" encoding="UTF-8" standalone="no"?>
<!-- Generator: Adobe Illustrator 15.0.2, SVG Export Plug-In . SVG Version: 6.00 Build 0)  -->

<svg
   xmlns:dc="http://purl.org/dc/elements/1.1/"
   xmlns:cc="http://creativecommons.org/ns#"
   xmlns:rdf="http://www.w3.org/1999/02/22-rdf-syntax-ns#"
   xmlns:svg="http://www.w3.org/2000/svg"
   xmlns="http://www.w3.org/2000/svg"
   xmlns:sodipodi="http://sodipodi.sourceforge.net/DTD/sodipodi-0.dtd"
   xmlns:inkscape="http://www.inkscape.org/namespaces/inkscape"
   version="1.1"
   id="Ebene_1"
   x="0px"
   y="0px"
   width="287.38248"
   height="287.38248"
   viewBox="0 0 287.38248 287.38248"
   enable-background="new 0 0 440 290"
   xml:space="preserve"
   inkscape:version="0.91 r"
   sodipodi:docname="you.svg"><metadata
     id="metadata295"><rdf:RDF><cc:Work
         rdf:about=""><dc:format>image/svg+xml</dc:format><dc:type
           rdf:resource="http://purl.org/dc/dcmitype/StillImage" /><dc:title></dc:title></cc:Work></rdf:RDF></metadata><defs
     id="defs293" /><sodipodi:namedview
     pagecolor="#ffffff"
     bordercolor="#666666"
     borderopacity="1"
     objecttolerance="10"
     gridtolerance="10"
     guidetolerance="10"
     inkscape:pageopacity="0"
     inkscape:pageshadow="2"
     inkscape:window-width="1920"
     inkscape:window-height="1014"
     id="namedview291"
     showgrid="false"
     inkscape:zoom="0.71363636"
     inkscape:cx="143.69123"
     inkscape:cy="143.69123"
     inkscape:window-x="0"
     inkscape:window-y="27"
     inkscape:window-maximized="1"
     inkscape:current-layer="Ebene_1"
     fit-margin-top="0"
     fit-margin-left="0"
     fit-margin-right="0"
     fit-margin-bottom="0" /><path
     d="m 283.36183,128.86777 c -0.11427,-1.37547 -0.22855,-2.75519 -0.35974,-4.1349 -0.18622,-1.20196 -0.41053,-2.68749 -0.55019,-3.41543 -0.71949,-3.70322 -1.4686,-7.40644 -2.5182,-11.04194 -1.49398,-5.15065 -3.60587,-10.0516 -5.51461,-15.062572 -0.74065,-1.951067 -1.43474,-3.910599 -2.12037,-5.874363 -3.88096,-6.267962 -8.29097,-12.379331 -11.06732,-19.205951 -6.04789,-2.966807 -11.22817,-7.605353 -14.487,-13.856386 -1.09615,-2.099196 -2.2177,-4.164534 -3.58895,-6.098672 -0.22854,-0.258168 -0.49517,-0.554425 -0.81682,-0.922631 -3.34771,-3.817489 -6.87317,-7.495315 -10.08968,-11.414378 -1.59979,-1.946835 -3.17419,-3.957154 -4.99829,-5.696609 -0.90147,-0.854914 -3.53393,-2.852536 -3.99101,-3.267297 -3.07261,-2.006086 -6.22141,-3.885205 -9.42523,-5.70084 -2.2981,-1.299301 -4.56236,-2.679015 -6.95358,-3.800561 -0.63907,-0.30049 -1.13001,-0.529031 -1.51092,-0.723715 -0.0127,0 -0.0169,-0.0043 -0.0212,-0.0043 -7.19483,-2.818678 -14.46161,-5.569641 -21.44482,-8.8496347 -2.49279,-1.1765648 -4.91364,-2.4631688 -7.38104,-3.6820568 -1.15964,-0.575586 -5.84474,-2.3573632 -5.13372,-2.1584475 -0.85915,-0.2793285 -1.71829,-0.5290312 -2.58167,-0.744876 -0.10581,-0.00846 -0.19892,-0.012697 -0.31742,-0.021161 -2.78059,-0.1100385 -5.49769,-0.5121023 -8.11322,-1.168101 -3.51701,1.168101 -7.25408,1.8325642 -11.11389,1.8706545 -3.67359,0.03809 -7.35142,0.1438965 -11.02078,0.4359217 -0.0889,0.1396643 -8.65496,1.4516618 -10.34786,1.8494933 -9.24323,2.1711442 -18.41028,4.7993705 -27.5731,7.2710045 -2.725568,0.736412 -5.476528,1.434733 -8.138618,2.391222 -0.18198,0.06349 -0.34281,0.126967 -0.49941,0.181986 -5.61196,2.657853 -11.34243,5.066004 -17.09829,7.414902 -1.54476,0.634838 -9.81882,4.105283 -9.52256,3.897903 -2.9795,1.388178 -5.89976,2.861001 -8.76076,4.494649 -1.29929,0.732179 -2.61975,1.35432 -3.96561,1.917209 -3.45775,7.44876 -9.4083,13.572826 -16.71316,17.292974 -1.24004,7.596889 -4.92634,14.453134 -10.19126,19.739214 -2.02724,6.598078 -5.925142,12.43435 -11.050397,16.882445 0.0084,0.245471 0.02539,0.486709 0.02539,0.732179 0,9.463311 -3.796328,18.164825 -9.924626,24.657095 0.317418,1.87912 0.482476,3.80479 0.482476,5.76432 0,4.79514 -1.003043,9.3829 -2.759427,13.60245 1.773313,4.23225 2.759427,8.85387 2.759427,13.66594 0,4.47349 -0.859147,8.78192 -2.403918,12.76446 2.645156,4.99406 4.15607,10.65258 4.15607,16.61159 0,0.16929 -0.02539,0.33434 -0.02962,0.50363 4.40154,5.98017 7.025535,13.31466 7.025535,21.16971 0,0.77451 -0.03808,1.54054 -0.08888,2.30659 5.730466,5.48075 9.700317,12.78986 10.88958,20.90307 6.80546,4.60046 12.00689,11.45247 14.49969,19.4091 18.51609,6.52613 32.8084,22.09658 50.10137,31.15783 1.28237,0.55865 3.35617,1.45589 4.17723,1.6929 2.66209,0.79143 5.33263,1.52784 8.024338,2.23462 5.50617,1.43897 10.94884,3.11071 16.46769,4.4481 2.73404,0.66024 5.47654,1.32469 8.24019,1.84527 0.89301,0.16929 3.51277,0.49516 4.87132,0.68138 3.66513,0.29203 7.33873,0.47825 11.02925,0.5248 2.36582,0.0169 4.67663,0.28357 6.92819,0.74488 3.79633,-1.22735 7.85929,-1.91298 12.30315,-2.49279 6.53036,-0.85492 12.82372,-0.17353 19.26097,0.30048 4.20263,-3.27152 9.12473,-5.62889 14.4616,-6.79699 5.52308,-5.2099 12.64596,-8.7142 20.47139,-9.65376 4.63432,-4.54544 10.46636,-7.87622 16.92053,-9.43369 3.58472,-11.3128 12.68829,-20.33173 24.02226,-23.85296 0.87184,-10.09391 6.06481,-19.07475 13.66594,-25.1311 0.57134,-5.97594 2.64092,-11.55827 5.83204,-16.37034 0.24969,-7.26254 2.72979,-14.02144 6.75043,-19.63341 -0.0973,-1.09192 -0.16505,-2.1923 -0.16505,-3.30539 0,-1.86642 0.14812,-3.71168 0.44015,-5.50615 -0.67293,-4.73166 -0.54173,-9.67492 0.50363,-14.58857 0.0635,-0.30049 0.12697,-0.66023 0.17776,-1.02843 0.11004,-1.49822 0.19468,-3.00067 0.21585,-4.50312 0.0339,-4.07566 -0.0296,-8.15131 -0.35128,-12.21851 z"
     id="path47"
     inkscape:connector-curvature="0"
     style="fill:#c6e4e1" /><g
     id="g49"
     transform="matrix(4.23225,0,0,4.23225,-787.89259,-402.02989)"><path
       d="m 241.979,152.815 -2.246,-5.035 -11.383,-4.311 -15.142,1.215 -7.627,3.98 -3.425,6.078 c 8.834,6.784 18.607,7.38 26.419,6.145 1.402,-1.617 3.417,-2.694 5.655,-2.837 0.982,-1 2.212,-1.752 3.582,-2.15 1.017,-1.428 2.478,-2.528 4.167,-3.085 z m -21.477,-1.047 c -1.371,0 -2.122,-0.955 -2.26,-2.007 -0.374,-1.362 0.356,-3.072 2.189,-3.072 1.369,0 2.122,0.955 2.259,2.006 0.372,1.362 -0.355,3.073 -2.188,3.073 z"
       id="path51"
       inkscape:connector-curvature="0"
       style="fill:#3f3f41" /><path
       d="m 224.782,141.567 c 0,4.609 -1.979,10.162 -4.421,10.162 -2.443,0 -4.422,-5.553 -4.422,-10.162 0,-4.608 1.979,-8.345 4.422,-8.345 2.442,0 4.421,3.737 4.421,8.345 z"
       id="path53"
       inkscape:connector-curvature="0"
       style="fill:#3f3f41" /><polygon
       points="218.563,151.746 219.066,148.665 220.502,151.77 "
       id="polygon55"
       style="fill:#3f3f41" /><polygon
       points="220.502,151.77 221.369,148.726 222.7,151.698 "
       id="polygon57"
       style="fill:#3f3f41" /><path
       d="m 220.718,152.317 c -0.076,0 -0.154,-0.001 -0.232,-0.004 -5.354,-0.164 -7.73,-5.009 -7.83,-5.214 l 0.985,-0.471 c 0.021,0.043 2.2,4.452 6.879,4.596 0.062,0.002 0.127,0.003 0.191,0.003 4.532,0 6.773,-4.973 6.795,-5.024 l 0.998,0.439 c -0.104,0.236 -2.558,5.675 -7.786,5.675 z"
       id="path59"
       inkscape:connector-curvature="0"
       style="fill:#3f3f41" /><path
       d="m 216.675,144.244 c 0,0 -0.107,1.768 2.392,4.421 l -0.761,4.421 c 0,0 -9.369,-5.761 -5.218,-10.39 3.402,-3.796 3.587,1.548 3.587,1.548 z"
       id="path61"
       inkscape:connector-curvature="0"
       style="fill:#3f3f41" /><path
       d="m 224.481,141.591 c 0,0 0.222,4.2 -3.127,7.19 l 1.897,4.124 c 0,0 10.098,-8.175 4.872,-11.596 -4.865,-3.186 -3.642,0.282 -3.642,0.282 z"
       id="path63"
       inkscape:connector-curvature="0"
       style="fill:#3f3f41" /><g
       id="g65"><path
         d="m 203.76,118.22 c 0,0 1.153,4.909 0.143,8.518 -1.009,3.609 -1.415,10.763 9.608,17.384 0,0 15.655,1.239 19.986,-11.032 0,0 3.609,0.432 3.898,-5.053 0.289,-5.486 -3.752,-4.042 -3.752,-4.042 0,0 -9.816,-29.883 -29.883,-5.775 z"
         id="path67"
         inkscape:connector-curvature="0"
         style="fill:#3f3f41" /><g
         id="g69"><ellipse
           cx="209.849"
           cy="124.582"
           rx="0.991"
           ry="2.03"
           id="ellipse71"
           style="clip-rule:evenodd;fill:#3f3f41;fill-rule:evenodd" /></g><g
         id="g73"><ellipse
           cx="222.099"
           cy="125.041"
           rx="1.057"
           ry="2.165"
           id="ellipse75"
           style="clip-rule:evenodd;fill:#3f3f41;fill-rule:evenodd" /></g><path
         d="m 214.002,126.559 c 0,0 -2.523,4.201 -2.032,6.162 0.488,1.96 5.321,-0.734 5.321,-0.734 0,0 -3.957,0.84 -4.165,-0.001 -0.21,-0.84 0.209,-3.326 0.876,-5.427 z"
         id="path77"
         inkscape:connector-curvature="0"
         style="clip-rule:evenodd;fill:#3f3f41;fill-rule:evenodd" /><path
         d="m 207.527,120.902 c 0,0 2.458,-3.414 5.053,0.136 0,0 -0.41,-2.595 -2.595,-2.595 -2.185,0 -2.458,2.459 -2.458,2.459 z"
         id="path79"
         inkscape:connector-curvature="0"
         style="clip-rule:evenodd;fill:#3f3f41;fill-rule:evenodd" /><path
         d="m 224.856,121.083 c 0,0 -2.599,-3.608 -5.342,0.145 0,0 0.433,-2.743 2.743,-2.743 2.31,-0.001 2.599,2.598 2.599,2.598 z"
         id="path81"
         inkscape:connector-curvature="0"
         style="clip-rule:evenodd;fill:#3f3f41;fill-rule:evenodd" /><path
         d="m 217.04,111.869 c 0,0 -13.713,4.475 -16.89,11.115 0,0 -3.608,-15.735 9.672,-18.334 13.282,-2.598 18.767,-0.143 18.911,4.042 l -15.158,8.374 c 0,-0.001 0.867,-3.031 3.465,-5.197 z"
         id="path83"
         inkscape:connector-curvature="0"
         style="clip-rule:evenodd;fill:#3f3f41;fill-rule:evenodd" /><path
         d="m 224.69,110.281 c 0,0 0.289,5.197 3.176,6.928 l 0.29,-2.021 c 0,0 4.621,5.631 3.176,11.55 0,0 1.593,-2.38 5.058,-2.236 0,0 2.159,-8.303 -0.294,-13.789 -2.452,-5.485 -10.826,-6.062 -11.406,-0.432 z"
         id="path85"
         inkscape:connector-curvature="0"
         style="clip-rule:evenodd;fill:#3f3f41;fill-rule:evenodd" /><path
         d="m 228.156,115.188 c 0,0 3.897,9.529 2.166,16.602 l 1.587,-0.289 c 0,0 -0.434,-5.629 1.156,-6.64 1.587,-1.01 -0.288,-17.467 -4.909,-9.673 z"
         id="path87"
         inkscape:connector-curvature="0"
         style="clip-rule:evenodd;fill:#3f3f41;fill-rule:evenodd" /><path
         d="m 226.567,110.858 c 0,0 -5.341,5.63 -12.992,6.208 0,-0.001 8.95,-9.528 12.992,-6.208 z"
         id="path89"
         inkscape:connector-curvature="0"
         style="clip-rule:evenodd;fill:#3f3f41;fill-rule:evenodd" /><path
         d="m 228.3,106.961 c 0,0 -0.721,-7.075 -12.848,-5.631 -12.125,1.443 -18.479,9.961 -16.891,14.87 0,0 1.588,-4.042 4.476,-4.042 2.887,-0.001 25.263,-5.197 25.263,-5.197 z"
         id="path91"
         inkscape:connector-curvature="0"
         style="clip-rule:evenodd;fill:#3f3f41;fill-rule:evenodd" /><path
         d="m 210.005,137.064 11.692,-1.941 c 0,0 -3.752,10.604 -11.692,1.941 z"
         id="path93"
         inkscape:connector-curvature="0"
         style="fill:#3f3f41" /></g><path
       d="m 227.208,107.315 c 0,0 -5.227,-8.246 -18.931,-1.974 0,0 6.039,-1.742 10.22,-1.162 0,0 -9.898,0.044 -15.46,7.977 0,0 8.724,-8.557 17.668,-6.351 0,0 -5.808,0.116 -10.918,4.065 0,0 9.641,-3.601 13.705,-2.556 0,0 -3.369,2.09 -5.458,5.808 0,0 4.877,-5.226 7.082,-5.342 0,0 -1.276,3.251 -2.903,4.529 0,0 3.368,-1.973 4.183,-4.18 0,0 -0.696,3.717 0.58,5.924 0,0 2.323,-3.833 0.232,-6.738 z"
       id="path95"
       inkscape:connector-curvature="0"
       style="fill:#3f3f41" /><path
       d="m 227.325,108.245 c 0,0 6.503,-0.696 7.779,4.414 0,0 -2.553,-3.252 -4.876,-3.252 0,0 4.182,2.671 3.018,12.078 0,0 -1.159,-12.078 -5.69,-11.846"
       id="path97"
       inkscape:connector-curvature="0"
       style="fill:#3f3f41" /><path
       d="m 235.803,126.364 c 0,0 -2.207,0.116 -2.439,2.09 0,0 1.277,0.116 1.277,1.045 0,0.93 -0.93,1.162 -0.93,1.162 l 1.278,0.928 c 0,0 2.207,-2.902 0.814,-5.225 z"
       id="path99"
       inkscape:connector-curvature="0"
       style="fill:#3f3f41" /><path
       d="m 238.278,155.305 c 0.054,-2.027 0.359,-4.877 1.455,-7.524 0,0 -1.975,3.341 -2.218,8.212 0.096,-0.031 0.194,-0.052 0.289,-0.081 0.149,-0.21 0.307,-0.413 0.474,-0.607 z"
       id="path101"
       inkscape:connector-curvature="0"
       style="fill:#3f3f41" /><polygon
       points="204.908,156.69 205.582,148.665 204.212,155.979 "
       id="polygon103"
       style="fill:#3f3f41" /></g><path
     d="m 143.68911,12.815253 c 72.1641,0 130.88234,58.709772 130.88234,130.873857 0,72.16833 -58.71824,130.88234 -130.88234,130.88234 -72.168328,0 -130.87809,-58.71824 -130.87809,-130.88234 0,-72.164085 58.709762,-130.873857 130.87809,-130.873857 M 143.68911,0 C 64.334422,0 0,64.334432 0,143.68911 c 0,79.35469 64.330202,143.69335 143.68911,143.69335 79.36315,0 143.69335,-64.33442 143.69335,-143.69335 C 287.38246,64.3302 223.05226,0 143.68911,0 l 0,0 z"
     id="path105"
     inkscape:connector-curvature="0"
     style="fill:#ffffff" /></svg>