<?xml version="1.0" encoding="utf-8"?>
<!-- Generator: Adobe Illustrator 15.0.2, SVG Export Plug-In . SVG Version: 6.00 Build 0)  -->
<!DOCTYPE svg PUBLIC "-//W3C//DTD SVG 1.1//EN" "http://www.w3.org/Graphics/SVG/1.1/DTD/svg11.dtd">
<svg version="1.1" id="Ebene_1" xmlns="http://www.w3.org/2000/svg" xmlns:xlink="http://www.w3.org/1999/xlink" x="0px" y="0px"
	 width="125px" height="125px" viewBox="0 0 125 125" enable-background="new 0 0 125 125" xml:space="preserve">
<g>
	<path fill="#FFFFFF" d="M61.301,23.904c0.868-0.252,1.766-0.384,2.668-0.384c0.273,0,0.553,0.011,0.826,0.038
		c0.538,0.044,1.064,0.137,1.584,0.274c0.788-0.896,1.749-1.597,2.783-2.152c-0.991-1.248-2.393-2.181-4.077-2.546
		c-0.591-0.131-1.181-0.158-1.762-0.139c-0.169,0.002-0.335,0.023-0.499,0.041c-0.443,0.045-0.872,0.127-1.288,0.252
		c-0.091,0.027-0.192,0.023-0.282,0.054c-0.051,0.017-0.09,0.05-0.139,0.067c-0.521,0.188-1.022,0.42-1.488,0.723
		c-0.041,0.022-0.074,0.062-0.113,0.09c-0.414,0.279-0.792,0.607-1.138,0.966c-0.088,0.09-0.176,0.181-0.261,0.276
		c0.008,0.002,0.014,0.002,0.018,0.005C59.328,22.072,60.403,22.895,61.301,23.904z"/>
	<path fill="#FFFFFF" d="M58.204,41.053c9.495-0.182,18.996,0.206,28.42,1.199c0.952,0.098,1.901,0.205,2.849,0.316
		c0.7,0.082,1.4,0.184,2.098,0.275c-0.428-0.541-0.92-1.031-1.467-1.453c0.402-0.787,0.674-1.67,0.756-2.611
		c0.339-3.897-2.547-7.331-6.438-7.676c-0.188-0.017-0.385-0.021-0.575-0.021c-0.271,0-0.527,0.057-0.791,0.087
		c-0.104,0.015-0.216,0.019-0.316,0.036c-0.076,0.014-0.16,0.012-0.234,0.028c-0.525,0.106-1.042,0.257-1.52,0.468
		c0.033-0.192,0.092-0.379,0.106-0.582c0.349-3.979-2.601-7.488-6.582-7.834c-0.258-0.021-0.514-0.015-0.767-0.008
		c-0.607,0.011-1.2,0.098-1.766,0.252c-0.086,0.023-0.172,0.051-0.252,0.078c-0.457,0.144-0.875,0.355-1.285,0.578
		c-0.099,0.056-0.215,0.083-0.312,0.14c-0.067,0.042-0.129,0.091-0.194,0.135c-0.494,0.322-0.955,0.701-1.353,1.136
		c-0.039,0.041-0.074,0.09-0.11,0.135c-0.406,0.465-0.771,0.977-1.051,1.541c-0.859-0.494-1.816-0.832-2.865-0.92
		c-0.195-0.018-0.393-0.027-0.586-0.027c-0.056,0-0.111,0.021-0.167,0.025c-0.573,0.014-1.136,0.092-1.668,0.24
		c-0.076,0.023-0.154,0.054-0.23,0.079c-0.556,0.179-1.089,0.405-1.58,0.706c-0.78-1.483-2.051-2.652-3.578-3.396
		c-0.006-0.004-0.014-0.008-0.02-0.012c-0.837-0.406-1.729-0.717-2.709-0.801c-0.234-0.022-0.467-0.033-0.695-0.033
		c-0.179,0-0.349,0.037-0.522,0.048c-0.217,0.015-0.431,0.03-0.646,0.063c-0.293,0.044-0.578,0.109-0.862,0.186
		c-0.203,0.055-0.406,0.108-0.604,0.176c-0.273,0.1-0.535,0.223-0.794,0.348c-0.189,0.091-0.377,0.175-0.559,0.279
		c-0.248,0.145-0.476,0.318-0.704,0.486c-0.166,0.126-0.34,0.242-0.497,0.379c-0.219,0.189-0.412,0.406-0.607,0.619
		c-0.138,0.146-0.288,0.29-0.415,0.451c-0.186,0.235-0.342,0.498-0.498,0.755c-0.103,0.168-0.222,0.321-0.308,0.497
		c-0.156,0.297-0.271,0.621-0.387,0.943c-0.059,0.156-0.135,0.301-0.181,0.46c-0.143,0.493-0.244,1.005-0.289,1.536
		c-0.018,0.159,0.004,0.301,0,0.454c-0.236-0.044-0.465-0.114-0.714-0.136c-0.205-0.018-0.42-0.029-0.629-0.029
		c-0.147,0-0.29,0.033-0.437,0.041c-0.213,0.015-0.431,0.031-0.644,0.061c-0.24,0.039-0.48,0.096-0.716,0.157
		c-0.201,0.054-0.408,0.106-0.604,0.177c-0.233,0.083-0.448,0.184-0.667,0.291c-0.186,0.087-0.374,0.172-0.55,0.277
		c-0.211,0.123-0.406,0.27-0.606,0.414c-0.16,0.119-0.326,0.23-0.479,0.365c-0.189,0.164-0.354,0.35-0.524,0.537
		c-0.135,0.141-0.273,0.276-0.395,0.429c-0.162,0.208-0.296,0.436-0.435,0.66c-0.1,0.159-0.207,0.306-0.297,0.474
		c-0.135,0.26-0.232,0.545-0.337,0.824c-0.053,0.15-0.129,0.292-0.172,0.449c-0.131,0.443-0.223,0.908-0.262,1.388
		c-0.104,1.149,0.102,2.25,0.503,3.257c-1.629,0.297-3.064,1.178-4.087,2.424c6.955-0.893,13.965-1.5,20.995-1.75
		C55.665,41.076,56.935,41.076,58.204,41.053z"/>
	<path fill="#FFFFFF" d="M54.33,62.48c-0.031-1.021-0.064-2.047-0.098-3.064c-0.057-1.814-0.117-3.613-0.174-5.412
		c-0.044-1.44-0.091-2.885-0.136-4.314c-0.004-0.008-0.004-0.02-0.004-0.031c-0.002-0.111-0.008-0.22-0.01-0.334
		c-0.033-1.049-0.068-2.082-0.102-3.125c-0.023-0.747-0.049-1.501-0.076-2.242c-1.971,0.078-3.942,0.182-5.909,0.311
		c0.219,3.14,0.446,6.326,0.667,9.52c0,0.006,0,0.011,0.004,0.017c0.061,0.918,0.123,1.813,0.189,2.731
		c0.381,5.49,0.761,11.021,1.14,16.568c0.675,9.805,1.352,19.588,2.026,29.069h3.736c-0.291-8.97-0.582-18.272-0.874-27.616
		C54.582,70.523,54.457,66.493,54.33,62.48z"/>
	<path fill="#FFFFFF" d="M39.003,102.174h1.686c-1.126-9.338-2.25-18.808-3.379-28.288c-0.702-5.935-1.409-11.853-2.111-17.753
		c-0.133-1.124-0.271-2.236-0.403-3.355c-0.285-2.388-0.57-4.783-0.86-7.153c-0.646,0.083-1.298,0.153-1.945,0.244
		c-0.46,0.062-0.923,0.105-1.387,0.173l1.172,7.804L39.003,102.174z"/>
	<path fill="#FFFFFF" d="M90.206,54.424c0,0.008,0,0.014-0.002,0.021c-0.14,1.164-0.277,2.323-0.42,3.492
		c-0.653,5.488-1.308,10.999-1.966,16.514c-1.104,9.293-2.205,18.568-3.312,27.723h1.688l7.002-46.762l1.402-9.371
		c-0.521-0.075-1.052-0.127-1.574-0.199c-0.588-0.078-1.174-0.145-1.764-0.218C90.912,48.539,90.561,51.482,90.206,54.424z"/>
	<path fill="#FFFFFF" d="M71.154,53.756c0,0.003,0,0.005,0,0.008c0,0.005,0,0.01-0.004,0.015c-0.025,0.958-0.06,1.912-0.086,2.875
		c-0.008,0.126-0.01,0.25-0.017,0.376c-0.166,5.275-0.334,10.619-0.503,15.953c-0.305,9.869-0.615,19.722-0.929,29.191h3.733
		c0.676-9.482,1.353-19.266,2.021-29.068c0.399-5.773,0.794-11.521,1.194-17.228c0.019-0.269,0.037-0.535,0.058-0.807
		c0.045-0.685,0.094-1.352,0.142-2.034c0.077-1.139,0.159-2.264,0.239-3.397c0.125-1.79,0.251-3.599,0.376-5.372
		c-1.966-0.129-3.938-0.232-5.904-0.311C71.367,47.182,71.258,50.452,71.154,53.756z"/>
	<path fill="#FFFFFF" d="M45.869,56.518c-0.068-0.992-0.14-1.963-0.208-2.951c-0.213-3.045-0.426-6.103-0.637-9.094
		c-2.777,0.215-5.544,0.485-8.303,0.805c0.342,2.868,0.691,5.77,1.036,8.664c0.113,0.957,0.23,1.907,0.344,2.869
		c0.665,5.564,1.328,11.15,1.993,16.75c1.138,9.547,2.27,19.103,3.404,28.504c0.285-0.015,0.562-0.015,0.849-0.015
		c0.827,0,1.654,0.039,2.485,0.085c0.367,0.016,0.735,0.025,1.103,0.039h1.101c-0.672-9.42-1.339-19.146-2.006-28.878
		C46.646,67.677,46.256,62.078,45.869,56.518z"/>
	<path fill="#FFFFFF" d="M56.812,52.369c0.061,1.895,0.123,3.797,0.182,5.708c0.035,1.018,0.066,2.043,0.102,3.067
		c0.137,4.422,0.276,8.872,0.415,13.322c0.295,9.351,0.59,18.685,0.882,27.657c1.401-0.035,2.806-0.051,4.21-0.051
		c1.409,0,2.808,0.016,4.213,0.051c0.31-9.477,0.621-19.354,0.934-29.229c0.154-5.041,0.316-10.079,0.475-15.071
		c0.008-0.199,0.012-0.391,0.02-0.591c0.021-0.763,0.047-1.503,0.072-2.267c0-0.01,0-0.018,0-0.029
		c0.008-0.199,0.014-0.387,0.018-0.584c0.109-3.52,0.225-7.043,0.336-10.477c-3.326-0.09-6.652-0.096-9.977-0.038
		c-0.72,0.011-1.432,0.02-2.15,0.038c0.043,1.322,0.088,2.672,0.133,4.01c0,0.009,0,0.021,0,0.028
		c0.014,0.54,0.031,1.073,0.053,1.616c0,0,0,0.005,0,0.008C56.755,50.48,56.784,51.424,56.812,52.369z"/>
	<path fill="#FFFFFF" d="M77.268,102.174c0.369-0.014,0.734-0.023,1.106-0.039c1.106-0.062,2.218-0.111,3.328-0.07
		c1.112-9.221,2.224-18.584,3.336-27.947c0.604-5.081,1.21-10.167,1.812-15.232c0.117-0.987,0.236-1.959,0.354-2.942
		c0-0.004,0-0.004,0-0.004c0.271-2.26,0.541-4.511,0.812-6.757c0.155-1.298,0.311-2.612,0.465-3.903
		c-0.625-0.075-1.252-0.168-1.879-0.234c-2.141-0.23-4.281-0.404-6.429-0.57c-0.194,2.774-0.391,5.617-0.587,8.443
		c-0.031,0.375-0.057,0.752-0.082,1.133c-0.041,0.559-0.078,1.111-0.113,1.677c-0.041,0.556-0.08,1.099-0.117,1.656
		c-0.366,5.275-0.732,10.587-1.101,15.914c-0.667,9.731-1.34,19.464-2.009,28.878h1.104V102.174z"/>
	<path fill="#F5B19E" d="M38.102,56.811c0.665,5.564,1.328,11.15,1.993,16.75c1.138,9.547,2.27,19.103,3.404,28.504
		c0.285-0.015,0.562-0.015,0.849-0.015c0.827,0,1.654,0.039,2.485,0.085c0.367,0.016,0.735,0.025,1.103,0.039h1.101
		c-0.672-9.42-1.339-19.146-2.006-28.878c-0.385-5.619-0.774-11.218-1.161-16.778c-0.068-0.992-0.14-1.963-0.208-2.951
		c-0.213-3.045-0.426-6.103-0.637-9.094c-2.777,0.215-5.544,0.485-8.303,0.805c0.342,2.868,0.691,5.77,1.036,8.664
		C37.871,54.898,37.988,55.849,38.102,56.811z"/>
	<path fill="#F5B19E" d="M56.673,47.915c0.014,0.54,0.031,1.073,0.053,1.616c0,0,0,0.005,0,0.008
		c0.029,0.941,0.059,1.885,0.086,2.83c0.061,1.895,0.123,3.797,0.182,5.708c0.035,1.018,0.066,2.043,0.102,3.067
		c0.137,4.422,0.276,8.872,0.415,13.322c0.295,9.351,0.59,18.685,0.882,27.657c1.401-0.035,2.806-0.051,4.21-0.051
		c1.409,0,2.808,0.016,4.213,0.051c0.31-9.477,0.621-19.354,0.934-29.229c0.154-5.041,0.316-10.079,0.475-15.071
		c0.008-0.199,0.012-0.391,0.02-0.591c0.021-0.763,0.047-1.503,0.072-2.267c0-0.01,0-0.018,0-0.029
		c0.008-0.199,0.014-0.387,0.018-0.584c0.109-3.52,0.225-7.043,0.336-10.477c-3.326-0.09-6.652-0.096-9.977-0.038
		c-0.72,0.011-1.432,0.02-2.15,0.038c0.043,1.322,0.088,2.672,0.133,4.01C56.673,47.896,56.673,47.907,56.673,47.915z"/>
	<path fill="#F5B19E" d="M78.374,102.135c1.106-0.062,2.218-0.111,3.328-0.07c1.112-9.221,2.224-18.584,3.336-27.947
		c0.604-5.081,1.21-10.167,1.812-15.232c0.117-0.987,0.236-1.959,0.354-2.942c0-0.004,0-0.004,0-0.004
		c0.271-2.26,0.541-4.511,0.812-6.757c0.155-1.298,0.311-2.612,0.465-3.903c-0.625-0.075-1.252-0.168-1.879-0.234
		c-2.141-0.23-4.281-0.404-6.429-0.57c-0.194,2.774-0.391,5.617-0.587,8.443c-0.031,0.375-0.057,0.752-0.082,1.133
		c-0.041,0.559-0.078,1.111-0.113,1.677c-0.041,0.556-0.08,1.099-0.117,1.656c-0.366,5.275-0.732,10.587-1.101,15.914
		c-0.667,9.731-1.34,19.464-2.009,28.878h1.104C77.637,102.16,78.002,102.15,78.374,102.135z"/>
	<path fill="#E84C25" d="M95.07,43.3c-0.444-0.955-0.98-1.866-1.692-2.67c0.136-0.53,0.229-1.066,0.271-1.61
		c0.477-5.431-3.559-10.232-8.988-10.707c-0.273-0.023-0.541-0.033-0.816-0.033c-0.054,0-0.107,0-0.162,0
		c-0.354-1.544-1.063-2.996-2.113-4.244c-1.723-2.053-4.146-3.312-6.814-3.542c-0.298-0.028-0.587-0.038-0.877-0.038
		c-0.68,0-1.345,0.082-1.996,0.213c-1.404-2.129-3.588-3.707-6.195-4.275c-1.77-0.385-3.617-0.285-5.324,0.289
		c-2.096,0.709-3.874,2.092-5.088,3.877c-0.34-0.062-0.669-0.155-1.015-0.187c-0.312-0.026-0.63-0.044-0.937-0.044
		c-4.828,0-8.905,3.133-10.245,7.568c-4.726,0.476-8.463,4.21-8.887,9.049c-0.048,0.57-0.048,1.145,0.006,1.709
		c-1.927,1.018-3.407,2.69-4.281,4.674c-0.367,0.055-0.741,0.089-1.112,0.145l-1.385,0.208l9.171,61.296h4.439l0.018,0.147
		l1.263-0.147h5.462h2.413h5.498v0.035l1.227-0.035H68.3l1.228,0.035v-0.035h5.512h2.368h5.479l1.271,0.155l0.018-0.155h4.434
		l9.177-61.296L96.4,43.474C95.957,43.405,95.514,43.363,95.07,43.3z M93.193,55.412l-7,46.762h-1.688
		c1.106-9.152,2.21-18.43,3.312-27.723c0.66-5.516,1.312-11.025,1.967-16.514c0.143-1.169,0.281-2.328,0.42-3.492
		c0.002-0.008,0.002-0.014,0.002-0.021c0.354-2.941,0.706-5.885,1.054-8.8c0.589,0.073,1.177,0.14,1.763,0.218
		c0.523,0.072,1.055,0.124,1.576,0.199L93.193,55.412z M39.003,102.174l-7.229-48.329l-1.172-7.804
		c0.464-0.067,0.927-0.111,1.387-0.173c0.647-0.091,1.3-0.161,1.945-0.244c0.29,2.37,0.575,4.766,0.86,7.153
		c0.133,1.119,0.271,2.231,0.403,3.355c0.702,5.9,1.409,11.818,2.111,17.753c1.129,9.48,2.253,18.95,3.379,28.288L39.003,102.174
		L39.003,102.174z M78.374,102.135c-0.372,0.016-0.737,0.025-1.106,0.039h-1.104c0.669-9.414,1.342-19.146,2.009-28.878
		c0.367-5.327,0.733-10.639,1.101-15.914c0.037-0.558,0.076-1.101,0.117-1.656c0.035-0.565,0.072-1.118,0.113-1.677
		c0.025-0.381,0.051-0.758,0.082-1.133c0.196-2.826,0.393-5.669,0.587-8.443c2.147,0.166,4.288,0.34,6.429,0.57
		c0.627,0.066,1.254,0.159,1.879,0.234c-0.154,1.291-0.31,2.605-0.465,3.903c-0.271,2.246-0.541,4.497-0.812,6.757c0,0,0,0,0,0.004
		c-0.116,0.983-0.235,1.955-0.354,2.942c-0.603,5.065-1.207,10.151-1.812,15.232c-1.112,9.363-2.224,18.728-3.336,27.947
		C80.592,102.021,79.48,102.073,78.374,102.135z M66.814,102.124c-1.405-0.035-2.806-0.051-4.213-0.051
		c-1.404,0-2.809,0.016-4.21,0.051c-0.292-8.974-0.587-18.308-0.882-27.657c-0.139-4.449-0.278-8.898-0.415-13.322
		c-0.035-1.024-0.066-2.05-0.102-3.067c-0.059-1.911-0.121-3.813-0.182-5.708c-0.027-0.945-0.057-1.889-0.086-2.83
		c0-0.003,0-0.008,0-0.008c-0.021-0.543-0.039-1.076-0.053-1.616c0-0.008,0-0.02,0-0.028c-0.045-1.338-0.09-2.688-0.133-4.01
		c0.719-0.019,1.431-0.027,2.15-0.038c3.324-0.058,6.65-0.052,9.977,0.038c-0.11,3.434-0.228,6.957-0.336,10.477
		c-0.004,0.197-0.011,0.385-0.019,0.584c0,0.012,0,0.02,0,0.029c-0.024,0.764-0.051,1.504-0.071,2.267
		c-0.009,0.2-0.013,0.392-0.021,0.591c-0.156,4.993-0.318,10.031-0.474,15.072C67.436,82.771,67.124,92.648,66.814,102.124z
		 M47.936,102.174c-0.367-0.014-0.735-0.023-1.103-0.039c-0.831-0.046-1.658-0.085-2.485-0.085c-0.286,0-0.563,0-0.849,0.015
		c-1.135-9.401-2.267-18.957-3.404-28.504c-0.665-5.6-1.328-11.186-1.993-16.75c-0.113-0.962-0.23-1.912-0.344-2.869
		c-0.345-2.895-0.694-5.796-1.036-8.664c2.759-0.319,5.525-0.59,8.303-0.805c0.211,2.991,0.424,6.049,0.637,9.094
		c0.068,0.988,0.14,1.959,0.208,2.951c0.387,5.561,0.776,11.159,1.161,16.778c0.667,9.731,1.334,19.458,2.006,28.878H47.936z
		 M51.849,102.174c-0.675-9.482-1.352-19.266-2.026-29.068c-0.379-5.547-0.759-11.08-1.14-16.569
		c-0.066-0.918-0.129-1.813-0.189-2.731c-0.004-0.006-0.004-0.011-0.004-0.017c-0.221-3.193-0.448-6.38-0.667-9.52
		c1.967-0.129,3.938-0.232,5.909-0.311c0.027,0.741,0.053,1.495,0.076,2.242c0.033,1.043,0.068,2.076,0.102,3.125
		c0.002,0.114,0.008,0.223,0.01,0.334c0,0.012,0,0.023,0.004,0.031c0.045,1.43,0.092,2.874,0.136,4.314
		c0.057,1.799,0.117,3.598,0.174,5.412c0.033,1.018,0.066,2.043,0.098,3.064c0.127,4.013,0.252,8.042,0.381,12.076
		c0.292,9.346,0.583,18.647,0.874,27.617h-3.738V102.174z M70.546,72.982c0.169-5.336,0.337-10.678,0.503-15.954
		c0.006-0.126,0.008-0.25,0.016-0.376c0.027-0.963,0.062-1.917,0.086-2.875c0.004-0.005,0.004-0.01,0.004-0.015
		c0-0.003,0-0.005,0-0.008c0.104-3.304,0.214-6.574,0.322-9.799c1.969,0.078,3.938,0.182,5.904,0.311
		c-0.125,1.773-0.251,3.582-0.376,5.372c-0.08,1.134-0.162,2.259-0.239,3.397c-0.048,0.683-0.097,1.35-0.142,2.034
		c-0.021,0.271-0.039,0.538-0.058,0.807c-0.4,5.706-0.795,11.453-1.194,17.227c-0.669,9.805-1.345,19.588-2.021,29.069h-3.733
		C69.932,92.703,70.241,82.852,70.546,72.982z M58.376,21.188c0.346-0.358,0.724-0.687,1.138-0.966
		c0.039-0.027,0.072-0.064,0.113-0.09c0.466-0.303,0.968-0.535,1.488-0.723c0.049-0.018,0.088-0.051,0.139-0.067
		c0.09-0.03,0.191-0.026,0.282-0.054c0.42-0.125,0.845-0.207,1.288-0.252c0.164-0.018,0.326-0.039,0.499-0.041
		c0.581-0.02,1.171,0.008,1.762,0.139c1.687,0.365,3.086,1.298,4.077,2.546c-1.034,0.556-1.995,1.257-2.783,2.152
		c-0.52-0.138-1.046-0.23-1.584-0.274c-0.273-0.027-0.553-0.038-0.826-0.038c-0.902,0-1.8,0.132-2.668,0.384
		c-0.897-1.01-1.973-1.832-3.168-2.435c-0.004-0.003-0.01-0.003-0.018-0.005C58.2,21.369,58.288,21.278,58.376,21.188z
		 M37.486,40.449c-0.401-1.007-0.606-2.107-0.503-3.257c0.039-0.479,0.131-0.944,0.262-1.388c0.043-0.157,0.119-0.299,0.172-0.449
		c0.104-0.279,0.202-0.564,0.337-0.824c0.09-0.168,0.197-0.314,0.297-0.474c0.139-0.225,0.272-0.452,0.435-0.66
		c0.121-0.152,0.26-0.288,0.395-0.429c0.17-0.188,0.335-0.373,0.524-0.537c0.156-0.135,0.318-0.246,0.479-0.365
		c0.2-0.145,0.396-0.291,0.606-0.414c0.178-0.105,0.364-0.19,0.55-0.277c0.221-0.107,0.434-0.208,0.667-0.291
		c0.195-0.07,0.398-0.123,0.604-0.177c0.235-0.062,0.476-0.118,0.716-0.157c0.213-0.029,0.427-0.046,0.644-0.061
		c0.146-0.008,0.289-0.041,0.437-0.041c0.209,0,0.424,0.012,0.629,0.029c0.249,0.021,0.478,0.092,0.714,0.136
		c0.004-0.153-0.018-0.295,0-0.454c0.045-0.531,0.146-1.043,0.289-1.536c0.046-0.159,0.122-0.304,0.181-0.46
		c0.115-0.322,0.23-0.646,0.387-0.943c0.086-0.176,0.205-0.329,0.308-0.497c0.156-0.257,0.312-0.52,0.498-0.755
		c0.127-0.161,0.277-0.301,0.415-0.451c0.195-0.213,0.389-0.43,0.607-0.619c0.157-0.137,0.331-0.253,0.497-0.379
		c0.229-0.168,0.456-0.339,0.704-0.486c0.182-0.104,0.369-0.188,0.559-0.279c0.263-0.129,0.521-0.248,0.794-0.348
		c0.198-0.067,0.401-0.121,0.604-0.176c0.286-0.076,0.567-0.142,0.862-0.186c0.215-0.033,0.429-0.049,0.646-0.063
		c0.174-0.011,0.344-0.048,0.522-0.048c0.229,0,0.461,0.011,0.695,0.033c0.98,0.084,1.872,0.395,2.709,0.801
		c0.006,0.004,0.014,0.008,0.02,0.012c1.527,0.744,2.798,1.913,3.578,3.396c0.491-0.301,1.024-0.527,1.58-0.706
		c0.076-0.025,0.154-0.056,0.23-0.079c0.536-0.148,1.094-0.227,1.668-0.24c0.055-0.004,0.11-0.025,0.166-0.025
		c0.193,0,0.391,0.01,0.586,0.027c1.049,0.088,2.006,0.426,2.865,0.92c0.281-0.564,0.645-1.076,1.051-1.541
		c0.036-0.045,0.071-0.094,0.11-0.135c0.397-0.435,0.858-0.811,1.353-1.136c0.067-0.044,0.127-0.093,0.194-0.135
		c0.097-0.057,0.213-0.084,0.312-0.14c0.41-0.223,0.828-0.435,1.285-0.578c0.08-0.027,0.166-0.055,0.252-0.078
		c0.564-0.156,1.153-0.241,1.766-0.252c0.253-0.007,0.509-0.014,0.768,0.008c3.98,0.346,6.93,3.855,6.581,7.834
		c-0.016,0.203-0.073,0.39-0.106,0.582c0.478-0.211,0.992-0.361,1.52-0.468c0.074-0.017,0.158-0.015,0.234-0.028
		c0.102-0.018,0.213-0.021,0.316-0.036c0.264-0.03,0.521-0.087,0.791-0.087c0.19,0,0.387,0.005,0.575,0.021
		c3.892,0.345,6.777,3.778,6.438,7.676c-0.082,0.941-0.354,1.824-0.756,2.611c0.547,0.422,1.039,0.912,1.467,1.453
		c-0.696-0.092-1.396-0.193-2.098-0.275c-0.945-0.111-1.896-0.219-2.849-0.316c-9.424-0.993-18.925-1.381-28.42-1.199
		c-1.27,0.023-2.539,0.023-3.81,0.07c-7.03,0.25-14.04,0.857-20.995,1.75C34.422,41.627,35.857,40.746,37.486,40.449z"/>
</g>
</svg>
