<?xml version="1.0" encoding="utf-8"?>
<!-- Generator: Adobe Illustrator 15.0.2, SVG Export Plug-In . SVG Version: 6.00 Build 0)  -->
<!DOCTYPE svg PUBLIC "-//W3C//DTD SVG 1.1//EN" "http://www.w3.org/Graphics/SVG/1.1/DTD/svg11.dtd">
<svg version="1.1" id="Ebene_1" xmlns="http://www.w3.org/2000/svg" xmlns:xlink="http://www.w3.org/1999/xlink" x="0px" y="0px"
	 width="125px" height="125px" viewBox="0 0 125 125" enable-background="new 0 0 125 125" xml:space="preserve">
<g>
	<path fill="#FFFFFF" d="M102.402,53.547v-17.16L78.773,25.485L55.137,36.387v6.753l5.995,2.767v-1.441
		c0-4.642,3.779-8.414,8.415-8.414c4.639,0,8.414,3.772,8.414,8.414v2.806h-2.802H64.086l7.279,3.357v3.879
		c2.244-1.13,4.771-1.782,7.451-1.782c9.16,0,16.611,7.449,16.611,16.614v2.803h-2.802H71.264c-0.205,3.537-0.826,6.92-1.811,10.072
		c2.861,1.631,6.011,2.54,9.32,2.54C91.805,84.754,102.402,70.756,102.402,53.547z M93.704,47.271H82.486h-2.805v-2.806
		c0-4.642,3.775-8.414,8.414-8.414c4.637,0,8.412,3.772,8.412,8.414v2.806H93.704z"/>
	<path fill="#FFFFFF" d="M78.816,55.526c-2.75,0-5.301,0.826-7.451,2.213v11.6h21.262C92.627,61.707,86.443,55.526,78.816,55.526z"
		/>
	<path fill="#FFFFFF" d="M69.547,38.855c-3.1,0-5.609,2.516-5.609,5.609H75.16C75.159,41.371,72.646,38.855,69.547,38.855z"/>
	<path fill="#FFFFFF" d="M88.098,38.855c-3.095,0-5.611,2.516-5.611,5.609h11.219C93.704,41.371,91.189,38.855,88.098,38.855z"/>
	<path fill="#FFFFFF" d="M44.926,100.786c9.274,0,17.299-7.113,21.168-17.404c0.166-0.45,0.34-0.896,0.495-1.356
		c0.156-0.473,0.289-0.959,0.427-1.445c0.764-2.66,1.266-5.488,1.446-8.438c0.054-0.847,0.099-1.697,0.099-2.562v-0.24v-9.175
		v-3.871v-3.87l-13.423-6.193l-1.401-0.646l-1.403-0.646l-7.406-3.42l-23.63,10.906v17.156
		C21.296,86.786,31.895,100.786,44.926,100.786z M45.83,66.111c0-4.064,2.9-7.468,6.741-8.245c0.448-0.092,0.92-0.125,1.392-0.143
		c0.096-0.004,0.187-0.024,0.28-0.024c0.392,0,0.765,0.062,1.139,0.11c3.963,0.546,7.038,3.831,7.235,7.893
		c0.006,0.14,0.043,0.271,0.043,0.409v2.804h-0.434h-2.371h-1.627h-1.537h-1.475h-6.584H45.83V66.111z M27.277,66.111
		c0-4.64,3.778-8.412,8.422-8.412c4.639,0,8.41,3.772,8.41,8.412v2.804h-2.805H30.082h-2.805V66.111z M28.357,75.409h2.805h27.387
		h0.234h1.447h1.355v1.812v0.989c0,0.358-0.029,0.712-0.055,1.067c-0.552,8.662-7.76,15.543-16.562,15.543
		c-9.158,0-16.611-7.448-16.611-16.61V75.409z"/>
	<path fill="#FFFFFF" d="M44.969,92.02c7.628,0,13.814-6.182,13.814-13.809H31.162C31.162,85.838,37.342,92.02,44.969,92.02z"/>
	<path fill="#FFFFFF" d="M35.699,60.499c-3.104,0-5.617,2.508-5.617,5.612h11.223C41.305,63.007,38.793,60.499,35.699,60.499z"/>
	<path fill="#FFFFFF" d="M55.665,66.111h1.489h2.701c0-2.561-1.721-4.69-4.058-5.368c-0.476-0.135-0.964-0.227-1.478-0.234
		c-0.025,0-0.047-0.01-0.077-0.01c-0.454,0-0.892,0.068-1.314,0.176c-2.46,0.593-4.296,2.79-4.296,5.438h5.592h1.441V66.111z"/>
	<path fill="#F5B19E" d="M102.402,53.547v-17.16L78.773,25.485L55.137,36.387v6.753l5.995,2.767v-1.441
		c0-4.642,3.779-8.414,8.415-8.414c4.639,0,8.414,3.772,8.414,8.414v2.806h-2.802H64.086l7.279,3.357v3.879
		c2.244-1.13,4.771-1.782,7.451-1.782c9.16,0,16.611,7.449,16.611,16.614v2.803h-2.802H71.264c-0.205,3.537-0.826,6.92-1.811,10.072
		c2.861,1.631,6.011,2.54,9.32,2.54C91.805,84.754,102.402,70.756,102.402,53.547z M93.704,47.271H82.486h-2.805v-2.806
		c0-4.642,3.775-8.414,8.414-8.414c4.637,0,8.412,3.772,8.412,8.414v2.806H93.704z"/>
	<path fill="#F5B19E" d="M44.969,92.02c7.628,0,13.814-6.182,13.814-13.809H31.162C31.162,85.838,37.342,92.02,44.969,92.02z"/>
	<path fill="#F5B19E" d="M35.699,60.499c-3.104,0-5.617,2.508-5.617,5.612h11.223C41.305,63.007,38.793,60.499,35.699,60.499z"/>
	<path fill="#F5B19E" d="M55.798,60.743c-0.476-0.135-0.964-0.227-1.478-0.234c-0.025,0-0.047-0.01-0.077-0.01
		c-0.454,0-0.892,0.068-1.314,0.176c-2.46,0.593-4.296,2.79-4.296,5.438h5.592h1.44h1.489h2.701
		C59.855,63.552,58.135,61.421,55.798,60.743z"/>
	<path fill="#E84C25" d="M52.332,34.591v7.259l-7.406-3.42L18.491,50.628v18.951c0,18.756,11.859,34.01,26.435,34.01
		c10.293,0,19.213-7.622,23.575-18.702c3.162,1.721,6.631,2.672,10.272,2.672c14.572,0,26.435-15.254,26.435-34.012V34.591
		L78.773,22.398L52.332,34.591z M102.402,53.547c0,17.209-10.6,31.207-23.629,31.207c-3.311,0-6.459-0.908-9.32-2.54
		c0.982-3.153,1.605-6.536,1.811-10.071h21.363h2.803v-2.804c0-9.165-7.453-16.614-16.611-16.614c-2.682,0-5.207,0.652-7.452,1.782
		v-3.879l-7.279-3.357H75.16h2.802v-2.806c0-4.642-3.774-8.414-8.414-8.414c-4.636,0-8.415,3.772-8.415,8.414v1.441l-5.995-2.767
		v-6.753l23.637-10.901l23.629,10.901v17.161H102.402z M66.094,83.382c-3.869,10.291-11.894,17.404-21.168,17.404
		c-13.031,0-23.63-14-23.63-31.207V52.423l23.63-10.906l7.406,3.42l1.403,0.646l1.401,0.646l13.422,6.193v3.87v3.871v9.175v0.24
		c0,0.865-0.045,1.717-0.098,2.562c-0.182,2.948-0.684,5.776-1.447,8.438c-0.137,0.486-0.27,0.974-0.426,1.445
		C66.434,82.486,66.26,82.932,66.094,83.382z M71.365,57.739c2.15-1.387,4.701-2.213,7.451-2.213
		c7.627,0,13.811,6.181,13.811,13.812H71.365V57.739z M63.938,44.465c0-3.094,2.511-5.609,5.609-5.609
		c3.1,0,5.612,2.516,5.612,5.609H63.938z"/>
	<path fill="#E84C25" d="M93.704,47.271h2.805v-2.806c0-4.642-3.776-8.414-8.411-8.414c-4.64,0-8.416,3.772-8.416,8.414v2.806h2.805
		H93.704z M88.098,38.855c3.092,0,5.606,2.516,5.606,5.609H82.486C82.486,41.371,85.003,38.855,88.098,38.855z"/>
	<path fill="#E84C25" d="M58.783,75.409h-0.234H31.162h-2.805v2.802c0,9.162,7.453,16.611,16.611,16.611
		c8.803,0,16.011-6.883,16.562-15.545c0.025-0.354,0.055-0.709,0.055-1.066v-0.988V75.41H60.23L58.783,75.409L58.783,75.409z
		 M44.969,92.02c-7.627,0-13.807-6.182-13.807-13.809h27.621C58.783,85.838,52.597,92.02,44.969,92.02z"/>
	<path fill="#E84C25" d="M41.305,68.915h2.805v-2.804c0-4.64-3.771-8.412-8.41-8.412c-4.644,0-8.422,3.772-8.422,8.412v2.804h2.805
		H41.305z M35.699,60.499c3.094,0,5.605,2.508,5.605,5.612H30.082C30.082,63.007,32.596,60.499,35.699,60.499z"/>
	<path fill="#E84C25" d="M55.382,57.81c-0.374-0.049-0.747-0.11-1.139-0.11c-0.094,0-0.185,0.021-0.28,0.024
		c-0.472,0.018-0.943,0.051-1.392,0.143c-3.841,0.777-6.741,4.181-6.741,8.246v2.803h2.803h6.584h1.475h1.537h1.627h2.371h0.434
		v-2.803c0-0.141-0.037-0.271-0.043-0.41C62.42,61.641,59.345,58.355,55.382,57.81z M57.154,66.111h-1.489h-1.44h-5.592
		c0-2.646,1.836-4.844,4.296-5.438c0.423-0.107,0.86-0.176,1.314-0.176c0.03,0,0.052,0.01,0.077,0.01
		c0.514,0.008,1.002,0.1,1.478,0.234c2.337,0.678,4.058,2.809,4.058,5.369H57.154L57.154,66.111z"/>
</g>
</svg>
