<?xml version="1.0" encoding="utf-8"?>
<!-- Generator: Adobe Illustrator 15.0.2, SVG Export Plug-In . SVG Version: 6.00 Build 0)  -->
<!DOCTYPE svg PUBLIC "-//W3C//DTD SVG 1.1//EN" "http://www.w3.org/Graphics/SVG/1.1/DTD/svg11.dtd">
<svg version="1.1" id="Ebene_1" xmlns="http://www.w3.org/2000/svg" xmlns:xlink="http://www.w3.org/1999/xlink" x="0px" y="0px"
	 width="125px" height="125px" viewBox="0 0 125 125" enable-background="new 0 0 125 125" xml:space="preserve">
<g>
	<path fill="#FFFFFF" d="M44.386,89.148c1.604-3.354,3.27-7.912,3.059-12.137c-0.043-0.854-0.141-1.908-0.253-3.109
		c-0.699-7.486-1.859-20.018,5.329-27.907c4.069-4.461,10.268-6.726,18.418-6.726c6.438,0,11.709,1.484,15.738,4.412l5.156-6.562
		c-2.256-2.7-10.945-11.495-29.196-10.768c-8.551,0.321-15.295,3.262-20.039,8.736c-4.965,5.736-7.405,14.125-6.523,22.434
		c1.279,12.104,1.225,27.167-5.41,34.142C34.544,91.968,40.923,91.945,44.386,89.148z"/>
	<path fill="#FFFFFF" d="M87.577,67.8l5.247,0.861c0.191-1.931,0.354-5.66-0.368-9.715L87.577,67.8z"/>
	<path fill="#FFFFFF" d="M93.453,78.544c-2.281-0.562-7.314-2.538-9.323-9.055c-0.266-0.501-4.329-7.777-13.383-6.557
		c-0.649,0.087-1.315,0.208-2.015,0.39c-2.203,0.568-3.728,1.854-4.696,3.447c1.382-1.387,2.968-1.787,4.601-1.57
		c4.957,0.652,10.409,7.271,12.377,11.6c2.379,5.23,10.211,8.938,13.344,10.249L93.453,78.544z"/>
	<path fill="#FFFFFF" d="M74.58,84.546c-8.244,0-13.045-4.888-14.291-10.377c-0.02-0.069-0.053-0.136-0.062-0.208
		c-1.126-5.347,1.199-11.652,7.812-13.355c1.971-0.505,3.771-0.662,5.416-0.584c6.049,0.273,9.914,3.841,11.797,6.185l6.186-11.212
		c-0.758-2.201-1.815-4.37-3.414-6.268c-0.642-0.763-1.366-1.437-2.127-2.07c-3.646-3.028-8.65-4.582-14.957-4.582
		c-7.332,0-12.833,1.954-16.351,5.812c-6.354,6.971-5.262,18.729-4.608,25.757c0.115,1.246,0.219,2.336,0.262,3.226
		c0.174,3.46-0.712,7.016-1.873,10.104c-1.067,2.851-2.366,5.303-3.289,6.879c1.33,0.153,3.242,0.312,5.493,0.312
		c7.659,0,17.955-1.73,24.918-9.657C75.186,84.518,74.873,84.546,74.58,84.546z"/>
	<path fill="#F5B19E" d="M62.638,26.352c-8.551,0.321-15.295,3.262-20.039,8.736c-4.965,5.736-7.405,14.125-6.523,22.434
		c1.279,12.104,1.225,27.166-5.41,34.142c3.879,0.305,10.258,0.283,13.721-2.514c1.604-3.355,3.27-7.912,3.059-12.137
		c-0.043-0.855-0.141-1.908-0.253-3.111c-0.699-7.485-1.859-20.017,5.329-27.906c4.069-4.461,10.268-6.726,18.417-6.726
		c6.439,0,11.709,1.484,15.74,4.412l5.155-6.562C89.578,34.419,80.889,25.624,62.638,26.352z"/>
	<path fill="#E84C25" d="M94.883,75.973c-0.219-0.029-4.848-0.591-7.287-5.332l7.576,1.246l0.241-1.363
		c0.104-0.582,2.448-14.43-5.233-23.586c-0.426-0.512-0.892-0.976-1.365-1.436l6.514-8.297l-0.549-0.84
		c-0.36-0.558-9.228-13.665-32.244-12.815c-9.229,0.348-16.854,3.704-22.054,9.704c-5.469,6.317-8.157,15.498-7.193,24.565
		c1.106,10.463,1.697,28.739-6.819,33.625l-3.332,1.92l3.784,0.675c0.254,0.049,3.197,0.56,6.875,0.56
		c2.597,0,5.569-0.257,8.221-1.113c-0.246,0.394-0.41,0.641-0.416,0.652l-1.207,1.754l2.087,0.416
		c0.135,0.025,3.383,0.664,8.094,0.664c8.359,0,19.665-1.949,27.31-10.935c2.174,3.108,7.735,9.297,18.57,11.403l1.861,0.359
		l-2.312-21.707L94.883,75.973z M30.665,91.663c6.635-6.976,6.689-22.037,5.41-34.142c-0.882-8.309,1.559-16.697,6.523-22.434
		c4.744-5.475,11.488-8.415,20.039-8.736c18.25-0.728,26.94,8.067,29.196,10.768l-5.156,6.562c-4.03-2.928-9.3-4.412-15.739-4.412
		c-8.149,0-14.349,2.265-18.417,6.726c-7.188,7.891-6.028,20.421-5.329,27.907c0.112,1.201,0.21,2.255,0.253,3.109
		c0.211,4.225-1.455,8.781-3.059,12.137C40.923,91.945,34.544,91.968,30.665,91.663z M94.357,87.048
		c-3.133-1.312-10.965-5.019-13.346-10.249c-1.967-4.328-7.419-10.945-12.375-11.6c-1.634-0.217-3.22,0.185-4.602,1.57
		c0.97-1.594,2.492-2.879,4.697-3.447c0.697-0.182,1.363-0.303,2.014-0.39c9.054-1.221,13.117,6.056,13.383,6.557
		c2.01,6.517,7.042,8.493,9.323,9.055L94.357,87.048z M92.824,68.661L87.577,67.8l4.879-8.854
		C93.178,63.001,93.016,66.73,92.824,68.661z M48.369,86.975c1.161-3.09,2.047-6.646,1.873-10.104
		c-0.043-0.89-0.146-1.979-0.262-3.226c-0.653-7.028-1.746-18.787,4.608-25.757c3.517-3.858,9.02-5.812,16.35-5.812
		c6.308,0,11.312,1.554,14.957,4.582c0.762,0.634,1.486,1.308,2.129,2.07c1.598,1.897,2.654,4.066,3.414,6.268l-6.187,11.212
		c-1.883-2.344-5.748-5.911-11.797-6.185c-1.646-0.078-3.445,0.079-5.416,0.584c-6.613,1.703-8.938,8.009-7.812,13.355
		c0.01,0.072,0.043,0.139,0.062,0.208c1.246,5.489,6.047,10.377,14.291,10.377c0.293,0,0.604-0.028,0.911-0.037
		c-6.963,7.927-17.259,9.657-24.918,9.657c-2.251,0-4.163-0.159-5.493-0.312C46.003,92.277,47.302,89.824,48.369,86.975z
		 M78.381,84.223h0.002c0.635,1.049,2.167,3.293,4.93,5.613C80.55,87.516,79.018,85.271,78.381,84.223z"/>
</g>
</svg>
