<?xml version="1.0" encoding="utf-8"?>
<!-- Generator: Adobe Illustrator 15.0.2, SVG Export Plug-In . SVG Version: 6.00 Build 0)  -->
<!DOCTYPE svg PUBLIC "-//W3C//DTD SVG 1.1//EN" "http://www.w3.org/Graphics/SVG/1.1/DTD/svg11.dtd">
<svg version="1.1" id="Ebene_1" xmlns="http://www.w3.org/2000/svg" xmlns:xlink="http://www.w3.org/1999/xlink" x="0px" y="0px"
	 width="125px" height="125px" viewBox="0 0 125 125" enable-background="new 0 0 125 125" xml:space="preserve">
<g>
	<polygon fill="#FFFFFF" points="85.202,85.568 82.561,86.491 80.688,85.84 80.688,99.801 85.202,99.801 	"/>
	<polygon fill="#FFFFFF" points="39.574,84.908 39.574,98.872 44.091,98.872 44.091,84.639 41.445,85.561 	"/>
	<path fill="#FFFFFF" d="M42.619,82.186c-0.677-0.668-1.268-1.438-1.733-2.293c-0.236-0.425-0.443-0.873-0.615-1.341
		c-0.253-0.688-0.419-1.418-0.501-2.213c-2.233-1.146-3.911-3.032-4.771-5.388c-1.495-4.062-0.113-8.616,3.217-11.232
		c-0.426-0.62-0.771-1.287-1.034-1.994c-1.74-4.753,0.708-10.043,5.454-11.786c1.534-0.565,3.194-0.692,4.808-0.391
		c0.181-2.547,1.271-4.916,3.002-6.713l-8.999-12.43L25.685,48.181l8.006,1.734l-9.645,11.007l10.272,3.094L23.933,76.493
		l14.241,4.959l3.271,1.142L42.619,82.186z"/>
	<path fill="#FFFFFF" d="M58.427,91.998v9.741h4.517v-9.677c-0.665,0.095-1.338,0.177-2.012,0.177
		C60.079,92.239,59.246,92.141,58.427,91.998z"/>
	<path fill="#FFFFFF" d="M49.277,82.27l0.804,0.039l0.107,0.207l0.264,0.51c1.169,2.264,3.002,4.013,5.17,5.115
		c0.456,0.23,0.919,0.434,1.402,0.602c0.458,0.162,0.921,0.292,1.402,0.396c0.813,0.182,1.648,0.299,2.505,0.299
		c0.676,0,1.349-0.062,2.012-0.18c0.474-0.082,0.937-0.23,1.4-0.372c0.209-0.063,0.427-0.096,0.632-0.171
		c0.267-0.099,0.515-0.236,0.77-0.352c1.9-0.857,3.551-2.166,4.771-3.877l0.551-0.771l0.926,0.227
		c1.105,0.273,2.263,0.283,3.377,0.047c0.345-0.076,0.688-0.172,1.021-0.297c0.354-0.127,0.678-0.305,1.006-0.481
		c0.512-0.28,0.996-0.601,1.433-0.985c0.165-0.15,0.306-0.324,0.46-0.484c0.266-0.286,0.52-0.588,0.74-0.914
		c0.222-0.335,0.437-0.672,0.609-1.047c0.85-1.828,0.932-3.873,0.237-5.764l-0.737-1.617l1.276-0.568
		c4.344-1.946,6.467-6.952,4.836-11.399c-1.112-3.025-3.813-5.251-7.062-5.799l-0.686-0.115l-0.71-1.361l0.358-0.894
		c1.234-1.808,1.523-4.1,0.774-6.133c-1.028-2.792-3.901-4.528-6.805-4.37c-0.634,0.031-1.265,0.124-1.883,0.352
		c-0.056,0.02-0.104,0.061-0.16,0.082c-0.854,0.338-1.644,0.857-2.339,1.576l-1.494,1.546l-0.057-0.137l-0.756-1.856
		c-1.228-3.001-4.107-4.943-7.336-4.943c-0.927,0-1.84,0.163-2.722,0.486c-0.382,0.142-0.743,0.314-1.091,0.507
		c-0.409,0.229-0.796,0.49-1.16,0.784c-0.367,0.301-0.698,0.645-1.001,1.005c-1.32,1.555-2.043,3.603-1.881,5.74l0.051,0.74
		l-1.203,0.951l-1.079,0.018c-0.751-0.278-1.518-0.415-2.288-0.415c-0.726,0-1.442,0.125-2.119,0.376
		c-3.301,1.213-4.998,4.883-3.792,8.191c0.315,0.842,0.806,1.612,1.477,2.278l1.322,1.33l-1.652,0.893
		c-3.109,1.674-4.543,5.43-3.328,8.728c0.689,1.885,2.113,3.352,4.008,4.129l0.839,0.343l0.031,0.91
		c0.027,0.838,0.157,1.568,0.396,2.218c0.324,0.888,0.858,1.636,1.471,2.306c0.348,0.381,0.7,0.754,1.118,1.055
		c0.082,0.056,0.184,0.085,0.268,0.142c0.567,0.367,1.18,0.653,1.833,0.847C48.137,82.098,48.69,82.236,49.277,82.27z"/>
	<path fill="#F5B19E" d="M25.685,48.181l8.006,1.734l-9.645,11.007l10.272,3.094L23.933,76.493l14.241,4.959l3.271,1.142
		l1.174-0.408c-0.677-0.668-1.268-1.438-1.733-2.293c-0.236-0.425-0.443-0.873-0.615-1.341c-0.253-0.688-0.419-1.418-0.501-2.213
		c-2.233-1.146-3.911-3.032-4.771-5.388c-1.495-4.062-0.113-8.616,3.217-11.232c-0.426-0.62-0.771-1.287-1.034-1.994
		c-1.74-4.753,0.708-10.043,5.454-11.786c1.534-0.565,3.194-0.692,4.808-0.391c0.181-2.547,1.271-4.916,3.002-6.713l-8.999-12.43
		L25.685,48.181z"/>
	<path fill="#F5B19E" d="M58.427,101.739h4.517v-9.677c-0.665,0.095-1.338,0.177-2.012,0.177c-0.853,0-1.686-0.101-2.505-0.241
		V101.739z"/>
	<path fill="#E84C25" d="M95.562,52.576l7.541-1.631L82.561,22.558L70.566,39.126c-0.434,0.094-0.869,0.197-1.289,0.351
		c-0.745,0.272-1.451,0.64-2.114,1.104c-1.938-3.094-5.326-5.012-9.065-5.012c-1.259,0-2.497,0.229-3.686,0.659
		c-0.628,0.228-1.209,0.534-1.768,0.871L41.445,21.627L20.897,50.015l7.546,1.633l-9.374,10.703l10.382,3.125L19.19,77.809
		l17.579,6.125v17.739h10.126V84.693c0.469,0.135,0.952,0.238,1.442,0.302c1.693,2.894,4.273,5.051,7.284,6.229v13.317h10.122
		V91.396c0.063-0.02,0.131-0.026,0.192-0.049c2.485-0.914,4.645-2.461,6.303-4.504c0.517,0.078,1.029,0.115,1.551,0.115
		c1.215,0,2.417-0.21,3.566-0.635c0.187-0.068,0.347-0.172,0.525-0.256v16.535h10.125V84.593l16.811-5.856L94.551,66.413
		l10.381-3.125L95.562,52.576z M76.389,83.691c-0.334,0.123-0.676,0.22-1.021,0.295c-1.114,0.238-2.271,0.229-3.377-0.047
		l-0.925-0.226l-0.553,0.772c-1.22,1.709-2.869,3.019-4.771,3.875c-0.255,0.115-0.503,0.254-0.769,0.353
		c-0.207,0.075-0.424,0.106-0.633,0.171c-0.464,0.143-0.927,0.29-1.4,0.372c-0.663,0.118-1.336,0.179-2.012,0.179
		c-0.856,0-1.691-0.117-2.505-0.297c-0.481-0.105-0.944-0.236-1.402-0.397c-0.483-0.168-0.946-0.37-1.402-0.603
		c-2.168-1.103-4.001-2.852-5.17-5.115l-0.264-0.508l-0.107-0.209l-0.804-0.039c-0.587-0.031-1.141-0.172-1.684-0.334
		c-0.653-0.191-1.266-0.479-1.833-0.846c-0.084-0.057-0.186-0.086-0.268-0.143c-0.418-0.299-0.771-0.672-1.118-1.055
		c-0.612-0.67-1.146-1.418-1.471-2.305c-0.238-0.648-0.368-1.38-0.396-2.218l-0.031-0.91l-0.839-0.343
		c-1.895-0.777-3.318-2.244-4.008-4.129c-1.215-3.297,0.219-7.054,3.328-8.729l1.652-0.893l-1.322-1.33
		c-0.671-0.666-1.161-1.437-1.477-2.278c-1.206-3.309,0.491-6.979,3.792-8.191c0.677-0.251,1.394-0.376,2.119-0.376
		c0.771,0,1.537,0.137,2.288,0.415l1.079-0.018l1.203-0.951l-0.051-0.74c-0.162-2.138,0.561-4.186,1.881-5.74
		c0.303-0.36,0.634-0.704,1.001-1.005c0.364-0.294,0.751-0.556,1.16-0.784c0.348-0.192,0.709-0.365,1.091-0.507
		c0.882-0.323,1.795-0.486,2.722-0.486c3.229,0,6.109,1.942,7.338,4.943l0.754,1.856l0.058,0.137l1.493-1.546
		c0.697-0.719,1.484-1.238,2.34-1.576c0.057-0.021,0.105-0.062,0.16-0.082c0.617-0.228,1.248-0.32,1.883-0.352
		c2.902-0.158,5.775,1.578,6.805,4.37c0.749,2.033,0.46,4.325-0.773,6.133l-0.359,0.894l0.71,1.361l0.685,0.115
		c3.248,0.548,5.95,2.773,7.062,5.799c1.631,4.447-0.492,9.453-4.836,11.399l-1.276,0.569l0.737,1.616
		c0.693,1.89,0.611,3.935-0.238,5.765c-0.173,0.373-0.388,0.711-0.607,1.045c-0.223,0.328-0.477,0.629-0.741,0.914
		c-0.154,0.162-0.295,0.334-0.46,0.485c-0.436,0.386-0.922,0.705-1.434,0.985C77.066,83.387,76.743,83.562,76.389,83.691z
		 M62.943,101.739h-4.517v-9.741c0.819,0.143,1.652,0.241,2.505,0.241c0.674,0,1.347-0.082,2.012-0.177V101.739L62.943,101.739z
		 M34.318,64.016l-10.272-3.094l9.645-11.007l-8.006-1.734l15.761-21.775l8.999,12.43c-1.73,1.797-2.821,4.166-3.002,6.713
		c-1.613-0.302-3.273-0.175-4.808,0.391c-4.746,1.743-7.194,7.033-5.454,11.786c0.264,0.707,0.608,1.374,1.034,1.994
		c-3.33,2.616-4.712,7.17-3.217,11.232c0.86,2.354,2.538,4.243,4.771,5.388c0.082,0.795,0.248,1.523,0.501,2.213
		c0.172,0.467,0.379,0.916,0.615,1.342c0.466,0.854,1.057,1.623,1.733,2.291l-1.174,0.41l-3.271-1.143l-14.241-4.959L34.318,64.016z
		 M39.574,84.908l1.871,0.65l2.646-0.922v14.234h-4.517V84.908z M85.202,99.801h-4.515V85.84l1.873,0.651l2.642-0.923V99.801z"/>
</g>
</svg>
