<?xml version="1.0" encoding="utf-8"?>
<!-- Generator: Adobe Illustrator 15.0.2, SVG Export Plug-In . SVG Version: 6.00 Build 0)  -->
<!DOCTYPE svg PUBLIC "-//W3C//DTD SVG 1.1//EN" "http://www.w3.org/Graphics/SVG/1.1/DTD/svg11.dtd">
<svg version="1.1" id="Ebene_1" xmlns="http://www.w3.org/2000/svg" xmlns:xlink="http://www.w3.org/1999/xlink" x="0px" y="0px"
	 width="125px" height="125px" viewBox="0 0 125 125" enable-background="new 0 0 125 125" xml:space="preserve">
<g>
	<path fill="#FFFFFF" d="M53.594,48.477c-0.518,3.406-2.733,5.898-4.945,5.563c-2.216-0.337-3.59-3.375-3.074-6.78
		c0.518-3.403,2.729-5.896,4.945-5.558C52.731,42.039,54.111,45.071,53.594,48.477z"/>
	<g>
		<path fill="#F5B19E" d="M51.54,51.355c0.263,1.925-2.049,3.002-3.81,2.242c-1.582-0.683-1.79-2.592-1.536-4.207l-13.008-4.788
			l3.601,6.672c3.676,1.344,7.363,2.632,10.868,4.392c5.746,1.767,11.542,3.525,16.76,6.199l7.623-2.969L51.54,51.355z"/>
		<path fill="#F5B19E" d="M39.475,94.777l9.164-24.913c-0.162,0.007-0.334-0.015-0.522-0.082c-0.091-0.036-0.157-0.095-0.228-0.146
			c-0.309,0.33-0.745,0.519-1.298,0.316c-0.345-0.128-0.527-0.361-0.649-0.619c-0.132-0.009-0.269-0.011-0.417-0.065
			c-0.045-0.017-0.065-0.045-0.105-0.066c-0.178,0.037-0.371,0.037-0.589-0.043c-0.72-0.264-0.902-0.92-0.756-1.499l-9.336,25.376
			l-9.747-3.586l-1.831,4.975l24.231,8.914l1.831-4.975L39.475,94.777z"/>
		<path fill="#E84C25" d="M48.162,105.006l-26.67-9.811l2.729-7.412l9.747,3.586l9.312-25.312L30.417,42.201l45.289,16.662
			L50.45,68.697l-9.311,25.309l9.751,3.588L48.162,105.006z M24.823,93.652l21.797,8.019l0.934-2.538l-9.748-3.585l10.615-28.849
			l19.956-7.767L35.955,47.006l10.169,18.848L35.509,94.7l-9.747-3.585L24.823,93.652z"/>
	</g>
	<g>
		<line fill="none" x1="37.116" y1="51.036" x2="65.807" y2="61.591"/>
	</g>
	<g>
		<line fill="none" x1="44.353" y1="69.318" x2="47.863" y2="70.614"/>
		
			<rect x="44.238" y="68.666" transform="matrix(-0.9385 -0.3452 0.3452 -0.9385 65.234 151.5467)" fill="#E84C25" width="3.745" height="2.597"/>
	</g>
	<line fill="none" x1="50.52" y1="41.702" x2="51.327" y2="34.992"/>
	<polygon fill="#E84C25" points="36.477,50.052 66.542,61.113 50.023,67.781 48.639,69.864 44.044,68.51 45.23,65.284 	"/>
</g>
<g>
	
		<ellipse transform="matrix(-0.4123 -0.9111 0.9111 -0.4123 58.9659 132.2111)" fill="#FFFFFF" cx="72.128" cy="47.086" rx="6.242" ry="4.055"/>
	<g>
		<path fill="#F5B19E" d="M75.67,48.944c1.271,1.468-0.082,3.633-1.975,3.95c-1.697,0.29-2.909-1.196-3.578-2.693L56.602,53.27
			l6.647,3.636c3.815-0.874,7.612-1.802,11.507-2.231c5.787-1.648,11.604-3.327,17.438-3.925l4.781-6.637L75.67,48.944z"/>
		<path fill="#F5B19E" d="M89.18,91.938L83.312,66.05c-0.133,0.095-0.291,0.169-0.482,0.214c-0.102,0.022-0.184,0.006-0.273,0.006
			c-0.076,0.438-0.345,0.838-0.914,0.971c-0.363,0.08-0.644-0.016-0.881-0.168c-0.117,0.068-0.232,0.14-0.386,0.172
			c-0.046,0.013-0.081,0-0.127,0.006c-0.126,0.124-0.288,0.23-0.517,0.282c-0.746,0.169-1.26-0.282-1.453-0.847l5.979,26.367
			l-10.127,2.299l1.171,5.17l25.18-5.711l-1.17-5.17L89.18,91.938z"/>
		<path fill="#E84C25" d="M102.035,95.79l-27.71,6.285l-1.744-7.704l10.128-2.297L76.745,65.77L52.97,52.76l47.057-10.673
			L84.195,64.082l5.969,26.303l10.127-2.298L102.035,95.79z M76.282,98.969l22.649-5.136l-0.599-2.64l-10.128,2.296l-6.801-29.976
			l12.512-17.378l-33.685,7.64l18.785,10.281l6.795,29.977l-10.127,2.298L76.282,98.969z"/>
	</g>
	<g>
		<line fill="none" x1="63.396" y1="56.525" x2="93.211" y2="49.765"/>
	</g>
	<g>
		<line fill="none" x1="79.417" y1="67.927" x2="83.068" y2="67.1"/>
		
			<rect x="79.378" y="66.215" transform="matrix(-0.9752 0.2215 -0.2215 -0.9752 175.4346 115.3569)" fill="#E84C25" width="3.743" height="2.599"/>
	</g>
	<g>
		<line fill="none" x1="69.559" y1="41.4" x2="66.587" y2="35.332"/>
		<g>
			<path fill="#E84C25" d="M51.933,40.827l0.683-5.68l-2.577-0.309l-0.674,5.612c-2.434,0.456-4.541,3.081-5.077,6.615
				c-0.563,3.74,0.861,7.125,3.388,8.055c0.254,0.094,0.512,0.163,0.781,0.203c1.496,0.226,3.053-0.431,4.27-1.8
				c1.101-1.234,1.862-2.96,2.151-4.854C55.409,45.167,54.138,41.976,51.933,40.827z M52.305,48.281
				c-0.208,1.383-0.761,2.666-1.521,3.518c-0.36,0.414-1.1,1.084-1.943,0.956c-1.298-0.192-2.423-2.401-1.983-5.299
				c0.437-2.878,2.175-4.666,3.469-4.468c0.091,0.01,0.183,0.039,0.268,0.069C51.738,43.477,52.722,45.591,52.305,48.281z"/>
			<path fill="#E84C25" d="M77.008,44.874c-1.461-3.228-4.266-5.214-6.738-4.977l-2.518-5.136l-2.326,1.144l2.482,5.076
				c-1.791,1.707-2.129,5.054-0.651,8.31c1.562,3.444,4.595,5.51,7.222,4.914c0.265-0.058,0.521-0.144,0.767-0.253
				c1.38-0.626,2.328-2.023,2.603-3.836C78.1,48.482,77.8,46.621,77.008,44.874z M75.277,49.724c-0.08,0.543-0.334,1.51-1.104,1.859
				c-1.196,0.545-3.347-0.69-4.548-3.362c-1.201-2.655-0.716-5.1,0.473-5.637c0.084-0.039,0.172-0.068,0.262-0.091
				c1.188-0.266,3.166,0.974,4.281,3.453C75.219,47.219,75.451,48.599,75.277,49.724z"/>
		</g>
	</g>
	<polygon fill="#E84C25" points="62.327,56.048 93.566,48.966 83.343,63.547 83.312,66.05 78.718,67.417 77.962,64.062 	"/>
</g>
<g>
	<g>
		<line fill="none" x1="66.516" y1="19.844" x2="65.023" y2="30.58"/>
		
			<rect x="64.473" y="19.793" transform="matrix(-0.9905 -0.1373 0.1373 -0.9905 127.4589 59.212)" fill="#E84C25" width="2.597" height="10.837"/>
	</g>
	<g>
		<line fill="none" x1="84.666" y1="25.574" x2="76.02" y2="32.111"/>
		
			<rect x="79.038" y="23.424" transform="matrix(-0.6033 -0.7975 0.7975 -0.6033 105.805 110.3124)" fill="#E84C25" width="2.598" height="10.838"/>
	</g>
	<g>
		<line fill="none" x1="47.488" y1="20.407" x2="54.025" y2="29.05"/>
		<polygon fill="#E84C25" points="52.991,29.834 46.453,21.19 48.528,19.623 55.059,28.268 		"/>
	</g>
</g>
</svg>
