<?xml version="1.0" encoding="utf-8"?>
<!-- Generator: Adobe Illustrator 15.0.2, SVG Export Plug-In . SVG Version: 6.00 Build 0)  -->
<!DOCTYPE svg PUBLIC "-//W3C//DTD SVG 1.1//EN" "http://www.w3.org/Graphics/SVG/1.1/DTD/svg11.dtd">
<svg version="1.1" id="Ebene_1" xmlns="http://www.w3.org/2000/svg" xmlns:xlink="http://www.w3.org/1999/xlink" x="0px" y="0px"
	 width="125px" height="125px" viewBox="0 0 125 125" enable-background="new 0 0 125 125" xml:space="preserve">
<g>
	<rect x="36.971" y="42.229" fill="#FFFFFF" width="4.557" height="31.207"/>
	<rect x="60.312" y="42.229" fill="#FFFFFF" width="4.551" height="31.207"/>
	<rect x="83.648" y="42.229" fill="#FFFFFF" width="4.551" height="31.207"/>
	<rect x="28.436" y="76.284" fill="#FFFFFF" width="68.302" height="8.743"/>
	<polygon fill="#FFFFFF" points="62.132,19.078 29.263,39.386 94.99,39.381 	"/>
	<rect x="28.436" y="76.284" fill="#F5B19E" width="68.302" height="8.743"/>
	<polygon fill="#F5B19E" points="62.132,19.078 29.263,39.386 94.99,39.381 	"/>
	<path fill="#E84C25" d="M34.169,73.482h-8.536v11.545h-3.33V97.15h80.564V85.027h-3.324V73.482h-8.544V42.184h13.864l-42.731-26.4
		L19.39,42.189h14.779V73.482z M62.132,19.078L94.99,39.381l-65.728,0.005L62.132,19.078z M96.738,85.027H28.436v-8.743h68.302
		V85.027L96.738,85.027z M44.331,42.188h13.178v31.294H44.331V42.188z M80.846,73.482H67.665V42.188h13.181V73.482z M60.312,42.229
		h4.551v31.207h-4.551V42.229z M88.199,73.436h-4.551V42.229h4.551V73.436z M36.971,42.229h4.557v31.207h-4.557V42.229z"/>
</g>
</svg>
