<?xml version="1.0" encoding="utf-8"?>
<!-- Generator: Adobe Illustrator 15.0.2, SVG Export Plug-In . SVG Version: 6.00 Build 0)  -->
<!DOCTYPE svg PUBLIC "-//W3C//DTD SVG 1.1//EN" "http://www.w3.org/Graphics/SVG/1.1/DTD/svg11.dtd">
<svg version="1.1" id="Ebene_1" xmlns="http://www.w3.org/2000/svg" xmlns:xlink="http://www.w3.org/1999/xlink" x="0px" y="0px"
	 width="125px" height="125px" viewBox="0 0 125 125" enable-background="new 0 0 125 125" xml:space="preserve">
<g>
	<path fill="#FFFFFF" d="M85.258,51.356c0-2.647-1.775-4.869-4.189-5.6v11.68h4.189V51.356z"/>
	<path fill="#FFFFFF" d="M65.25,31.258c0-5.717-4.65-10.37-10.364-10.37c-5.716,0-10.373,4.653-10.373,10.37v3.897H65.25V31.258z"/>
	<path fill="#FFFFFF" d="M73.49,57.437h4.773V45.591c-2.718,0.522-4.773,2.906-4.773,5.766V57.437z"/>
	<path fill="#FFFFFF" d="M70.688,51.356c0-4.409,3.314-8.019,7.576-8.57v-4.827H54.397v56.816h8.438V57.436h7.853V51.356
		L70.688,51.356z"/>
	<polygon fill="#FFFFFF" points="79.665,60.238 78.264,60.238 65.637,60.238 65.637,77.703 78.264,77.703 79.665,77.703 
		81.066,77.703 93.109,77.703 93.109,60.238 81.066,60.238 	"/>
	<polygon fill="#FFFFFF" points="79.665,80.509 78.264,80.509 65.637,80.509 65.637,94.775 65.637,96.18 65.637,97.58 
		65.637,98.492 93.109,98.492 93.109,80.509 81.066,80.509 	"/>
	<path fill="#F5B19E" d="M73.49,51.356v6.08h4.773V45.591C75.547,46.113,73.49,48.497,73.49,51.356z"/>
	<path fill="#F5B19E" d="M54.397,94.775h8.438V57.436h7.853v-6.08c0-4.409,3.314-8.019,7.576-8.57v-4.827H54.397V94.775z"/>
	<path fill="#E84C25" d="M88.059,51.356c0-4.21-3.014-7.722-6.99-8.515v-7.687H68.055v-3.897c0-7.264-5.91-13.176-13.168-13.176
		c-7.266,0-13.174,5.912-13.174,13.176v3.897H28.699V97.58h34.136v3.716h33.074V57.437h-7.853v-6.081H88.059z M93.109,98.492H65.637
		V97.58v-1.4v-1.402V80.509h12.627h1.401h1.401h12.043V98.492z M54.397,37.959h23.867v4.827c-4.263,0.552-7.576,4.161-7.576,8.57
		v6.08h-7.854v37.339h-8.438L54.397,37.959L54.397,37.959z M73.49,57.437v-6.08c0-2.859,2.057-5.243,4.773-5.766v11.846H73.49z
		 M81.066,77.703h-1.401h-1.401H65.637V60.238h12.627h1.401h1.401h12.043v17.465H81.066z M44.513,31.258
		c0-5.717,4.657-10.37,10.373-10.37c5.714,0,10.364,4.653,10.364,10.37v3.897H44.513V31.258z M81.066,57.437v-11.68
		c2.416,0.73,4.19,2.952,4.19,5.6v6.08H81.066z"/>
</g>
</svg>
