<?xml version="1.0" encoding="utf-8"?>
<!-- Generator: Adobe Illustrator 15.0.2, SVG Export Plug-In . SVG Version: 6.00 Build 0)  -->
<!DOCTYPE svg PUBLIC "-//W3C//DTD SVG 1.1//EN" "http://www.w3.org/Graphics/SVG/1.1/DTD/svg11.dtd">
<svg version="1.1" id="Ebene_1" xmlns="http://www.w3.org/2000/svg" xmlns:xlink="http://www.w3.org/1999/xlink" x="0px" y="0px"
	 width="125px" height="125px" viewBox="0 0 125 125" enable-background="new 0 0 125 125" xml:space="preserve">
<g>
	<path fill="#FFFFFF" d="M74.982,78.337c-0.096-0.171-0.186-0.344-0.278-0.519c-0.222-0.408-0.452-0.813-0.657-1.23
		c-0.273-0.551-0.515-1.117-0.759-1.682c-0.181-0.42-0.374-0.838-0.536-1.262c-0.225-0.586-0.416-1.181-0.607-1.779
		c-0.14-0.42-0.289-0.84-0.41-1.268c-0.183-0.63-0.314-1.271-0.461-1.91c-0.094-0.408-0.203-0.811-0.278-1.222
		c-0.129-0.714-0.22-1.437-0.306-2.157c-0.047-0.351-0.11-0.692-0.145-1.045c-0.057-0.613-0.064-1.236-0.09-1.853H57.527v31.114
		c6.672-0.281,12.928-2.582,18.178-6.58C74.654,84.165,74.402,81.206,74.982,78.337z"/>
	<path fill="#FFFFFF" d="M74.693,44.213c0.298-0.542,0.595-1.087,0.922-1.617c0.244-0.396,0.508-0.781,0.769-1.169
		c0.339-0.511,0.685-1.015,1.054-1.51c0.285-0.381,0.592-0.751,0.891-1.122c0.234-0.293,0.447-0.595,0.691-0.88
		c-5.812-5.78-13.356-9.096-21.492-9.435v31.128h12.928c0.024-0.62,0.035-1.239,0.09-1.859c0.033-0.333,0.099-0.668,0.138-1.007
		c0.092-0.733,0.182-1.474,0.312-2.197c0.071-0.396,0.18-0.78,0.269-1.166c0.146-0.663,0.285-1.32,0.471-1.972
		c0.117-0.41,0.265-0.809,0.396-1.215c0.199-0.616,0.395-1.23,0.625-1.833c0.158-0.411,0.348-0.812,0.518-1.218
		c0.254-0.579,0.498-1.157,0.779-1.726C74.252,45.01,74.475,44.617,74.693,44.213z"/>
	<path fill="#FFFFFF" d="M35.84,39.121c0.361,0.456,0.702,0.932,1.04,1.405c0.32,0.44,0.636,0.885,0.929,1.339
		c0.32,0.497,0.614,1.003,0.909,1.518c0.265,0.456,0.54,0.912,0.78,1.382c0.277,0.537,0.522,1.083,0.772,1.631
		c0.213,0.469,0.435,0.932,0.626,1.408c0.232,0.579,0.43,1.172,0.632,1.765c0.16,0.463,0.332,0.923,0.473,1.395
		c0.189,0.637,0.331,1.282,0.481,1.926c0.105,0.449,0.232,0.888,0.316,1.342c0.143,0.734,0.232,1.477,0.328,2.22
		c0.052,0.381,0.128,0.754,0.161,1.133c0.062,0.669,0.074,1.348,0.1,2.025H54.72V28.48c-7.712,0.323-14.951,3.332-20.629,8.562
		c0.238,0.262,0.447,0.546,0.678,0.809C35.136,38.272,35.497,38.688,35.84,39.121z"/>
	<path fill="#FFFFFF" d="M54.721,62.412H43.388c-0.025,0.677-0.037,1.352-0.1,2.02c-0.037,0.396-0.113,0.778-0.165,1.17
		c-0.094,0.729-0.184,1.461-0.322,2.178c-0.09,0.468-0.221,0.926-0.328,1.388c-0.15,0.627-0.288,1.263-0.468,1.877
		c-0.145,0.488-0.326,0.962-0.488,1.44c-0.198,0.574-0.392,1.154-0.616,1.721c-0.195,0.482-0.423,0.957-0.638,1.429
		c-0.248,0.542-0.487,1.085-0.763,1.613c-0.24,0.467-0.514,0.92-0.78,1.384c-0.295,0.512-0.593,1.021-0.915,1.526
		c-0.285,0.438-0.595,0.866-0.903,1.297c-0.348,0.493-0.706,0.985-1.081,1.462c-0.323,0.404-0.661,0.797-1.004,1.189
		c-0.248,0.285-0.467,0.588-0.725,0.862c5.678,5.236,12.917,8.236,20.629,8.56V62.412z"/>
	<path fill="#FFFFFF" d="M35.448,78.634c0.323-0.497,0.622-1.008,0.911-1.518c0.222-0.384,0.44-0.761,0.646-1.15
		c0.277-0.534,0.528-1.085,0.774-1.637c0.174-0.386,0.359-0.765,0.515-1.159c0.232-0.577,0.43-1.163,0.625-1.754
		c0.132-0.389,0.278-0.768,0.394-1.158c0.182-0.621,0.324-1.254,0.471-1.888c0.089-0.373,0.194-0.746,0.263-1.124
		c0.137-0.693,0.225-1.398,0.316-2.105c0.037-0.33,0.104-0.65,0.137-0.983c0.055-0.575,0.061-1.163,0.08-1.744H23.64
		c0.322,7.673,3.26,14.877,8.447,20.54c0.213-0.238,0.433-0.469,0.644-0.71c0.309-0.358,0.618-0.722,0.911-1.091
		c0.359-0.457,0.698-0.924,1.036-1.397C34.94,79.384,35.204,79.014,35.448,78.634z"/>
	<path fill="#FFFFFF" d="M40.499,57.861c-0.033-0.342-0.1-0.671-0.145-1.015c-0.086-0.692-0.172-1.391-0.309-2.072
		c-0.068-0.395-0.18-0.775-0.271-1.166c-0.145-0.617-0.285-1.237-0.459-1.843c-0.121-0.407-0.27-0.803-0.405-1.198
		c-0.193-0.579-0.387-1.152-0.613-1.715c-0.163-0.403-0.349-0.793-0.528-1.193c-0.246-0.541-0.489-1.081-0.763-1.609
		c-0.207-0.393-0.428-0.777-0.651-1.16c-0.289-0.512-0.586-1.018-0.903-1.511c-0.246-0.38-0.512-0.754-0.774-1.126
		c-0.338-0.474-0.679-0.938-1.04-1.401c-0.289-0.364-0.595-0.719-0.899-1.075c-0.213-0.242-0.438-0.478-0.651-0.719
		c-5.188,5.67-8.125,12.875-8.447,20.551H40.58C40.56,59.023,40.554,58.438,40.499,57.861z"/>
	<path fill="#FFFFFF" d="M80.961,40.018c-0.166,0.197-0.34,0.39-0.502,0.589c-0.3,0.368-0.591,0.742-0.87,1.122
		c-0.321,0.429-0.624,0.869-0.924,1.315c-0.244,0.37-0.492,0.743-0.722,1.124c-0.289,0.474-0.558,0.955-0.818,1.44
		c-0.206,0.38-0.411,0.752-0.602,1.136c-0.248,0.513-0.478,1.03-0.695,1.553c-0.162,0.38-0.332,0.756-0.48,1.138
		c-0.207,0.548-0.39,1.104-0.57,1.66c-0.119,0.381-0.25,0.746-0.358,1.131c-0.166,0.588-0.295,1.187-0.431,1.782
		c-0.077,0.362-0.174,0.722-0.243,1.088c-0.12,0.658-0.2,1.325-0.282,1.991c-0.037,0.315-0.096,0.625-0.129,0.943
		c-0.045,0.523-0.051,1.05-0.07,1.578h15.354C88.309,52.408,85.646,45.544,80.961,40.018z"/>
	<path fill="#FFFFFF" d="M76.236,74.636c1.812-3.76,4.963-6.59,8.9-7.979l-0.057-0.095l1.834-0.424l1.021-0.23l0.041,0.076
		c0.098-0.019,0.198-0.033,0.299-0.047c0.182-1.166,0.289-2.342,0.34-3.524H73.264c0.02,0.524,0.024,1.05,0.069,1.571
		c0.033,0.326,0.094,0.646,0.133,0.972c0.082,0.657,0.16,1.313,0.278,1.959c0.07,0.379,0.172,0.753,0.254,1.132
		c0.133,0.578,0.256,1.16,0.418,1.735c0.113,0.396,0.251,0.778,0.376,1.171c0.174,0.54,0.349,1.084,0.551,1.617
		c0.153,0.395,0.327,0.781,0.495,1.176C75.965,74.043,76.1,74.339,76.236,74.636z"/>
	<path fill="#FFFFFF" d="M90.633,68.546c-0.435-0.002-0.871,0-1.312,0.042c0.221,0.518,0.404,1.048,0.566,1.581
		c0.043,0.146,0.071,0.299,0.112,0.45c0.022,0.086,0.045,0.178,0.069,0.267c0.078,0.322,0.154,0.642,0.217,0.966
		c0.035,0.192,0.059,0.387,0.088,0.582c0.053,0.375,0.102,0.752,0.127,1.127c0.018,0.209,0.023,0.414,0.031,0.619
		c0.01,0.372,0.01,0.736-0.004,1.104c-0.01,0.211-0.021,0.419-0.039,0.627c-0.027,0.371-0.076,0.742-0.133,1.111
		c-0.035,0.199-0.058,0.4-0.102,0.6c-0.076,0.395-0.174,0.789-0.283,1.182c-0.047,0.163-0.084,0.33-0.135,0.5
		c-0.176,0.555-0.372,1.104-0.609,1.643c-0.398,0.91-0.897,1.748-1.443,2.553c-0.08,0.113-0.154,0.234-0.238,0.35
		c-0.537,0.75-1.146,1.434-1.801,2.063c-0.127,0.118-0.25,0.231-0.379,0.35c-0.682,0.611-1.408,1.171-2.188,1.658
		c-0.112,0.067-0.229,0.124-0.343,0.192c-0.812,0.476-1.662,0.893-2.562,1.224c-0.026,0.01-0.053,0.024-0.08,0.039
		c1.324,1.744,3.033,3.104,5.021,3.979c1.928,0.848,4.02,1.191,6.119,1.035c-0.219-0.518-0.409-1.041-0.568-1.57
		c-0.037-0.135-0.064-0.271-0.103-0.4c-0.121-0.432-0.228-0.863-0.312-1.301c-0.035-0.198-0.062-0.402-0.094-0.6
		c-0.053-0.377-0.102-0.754-0.131-1.127c-0.016-0.228-0.025-0.447-0.033-0.673c-0.012-0.354-0.014-0.71-0.002-1.067
		c0.008-0.232,0.02-0.467,0.037-0.695c0.027-0.354,0.068-0.699,0.119-1.053c0.031-0.229,0.062-0.455,0.107-0.685
		c0.066-0.368,0.162-0.733,0.256-1.098c0.058-0.198,0.099-0.397,0.158-0.597c0.172-0.554,0.369-1.102,0.604-1.637
		c0.396-0.904,0.901-1.746,1.457-2.548c0.084-0.126,0.162-0.254,0.254-0.377c0.55-0.752,1.167-1.442,1.836-2.078
		c0.129-0.124,0.256-0.239,0.388-0.354c0.699-0.622,1.438-1.188,2.232-1.678c0.111-0.068,0.229-0.123,0.345-0.188
		c0.794-0.469,1.634-0.869,2.509-1.193c0.06-0.021,0.104-0.055,0.162-0.074c-1.311-1.662-2.979-2.959-4.906-3.805
		C94.068,68.898,92.371,68.559,90.633,68.546z"/>
	<path fill="#FFFFFF" d="M78.042,84.989c0.142,0.491,0.304,0.981,0.506,1.464c0.062,0.145,0.086,0.3,0.151,0.441
		c0.004,0.008,0.008,0.017,0.01,0.021c0.055-0.016,0.104-0.051,0.16-0.068c0.666-0.223,1.298-0.517,1.91-0.832
		c0.084-0.045,0.188-0.074,0.277-0.119c0.041-0.022,0.094-0.037,0.133-0.061c0.062-0.033,0.115-0.072,0.175-0.107
		c0.018-0.014,0.028-0.021,0.047-0.031c0.687-0.403,1.335-0.867,1.935-1.385c0.086-0.076,0.17-0.155,0.252-0.235
		c0.596-0.55,1.151-1.146,1.637-1.804c0.043-0.066,0.084-0.141,0.136-0.205c0.491-0.701,0.938-1.449,1.29-2.254
		c0.349-0.801,0.599-1.627,0.781-2.463c0.002-0.009,0.009-0.021,0.011-0.029c0.014-0.076,0.03-0.149,0.051-0.227
		c0.151-0.795,0.22-1.598,0.222-2.398c0-0.131,0.008-0.256,0-0.385c-0.007-0.232-0.066-0.461-0.084-0.69
		c-0.045-0.554-0.082-1.104-0.201-1.649c-0.027-0.134-0.058-0.267-0.092-0.396c-0.06-0.231-0.17-0.458-0.24-0.69
		c-0.17-0.538-0.317-1.079-0.557-1.604c-0.02-0.041-0.025-0.084-0.043-0.122c-0.006,0-0.012,0.004-0.018,0.004
		c-3.572,1.13-6.432,3.669-7.932,7.093c-0.244,0.555-0.381,1.13-0.539,1.703c-0.004,0.002-0.004,0.008-0.008,0.012
		c-0.182,0.646-0.311,1.295-0.389,1.956c-0.09,0.771-0.123,1.537-0.074,2.312c0,0.008,0,0.018,0,0.021
		C77.613,83.182,77.779,84.089,78.042,84.989z"/>
	<path fill="#FFFFFF" d="M102.094,75.857c-0.002-0.008-0.002-0.014-0.006-0.02c-0.049,0.016-0.092,0.043-0.139,0.061
		c-0.784,0.25-1.539,0.572-2.258,0.959c-0.125,0.062-0.248,0.134-0.367,0.203c-0.699,0.402-1.358,0.865-1.967,1.385
		c-0.103,0.09-0.197,0.185-0.295,0.271c-0.606,0.551-1.166,1.146-1.654,1.803c-0.059,0.076-0.105,0.162-0.164,0.24
		c-0.501,0.702-0.949,1.452-1.303,2.254c-0.364,0.827-0.618,1.682-0.805,2.543c-0.014,0.073-0.037,0.149-0.051,0.219
		c-0.156,0.826-0.223,1.656-0.219,2.49c0,0.109-0.002,0.224,0,0.332c0.029,0.814,0.135,1.621,0.32,2.418
		c0.028,0.125,0.057,0.246,0.092,0.373c0.203,0.791,0.479,1.567,0.834,2.322c0.025,0.048,0.029,0.1,0.056,0.146
		c0.006,0,0.013-0.002,0.021-0.004c3.658-1.096,6.584-3.662,8.121-7.168C103.855,83.184,103.762,79.294,102.094,75.857z"/>
	<path fill="#F5B19E" d="M57.527,93.525c6.672-0.28,12.928-2.58,18.178-6.58c-1.051-2.78-1.303-5.739-0.723-8.608
		c-0.096-0.171-0.186-0.344-0.278-0.519c-0.222-0.408-0.452-0.813-0.657-1.23c-0.273-0.551-0.515-1.117-0.759-1.682
		c-0.181-0.42-0.374-0.838-0.536-1.262c-0.225-0.586-0.416-1.181-0.607-1.779c-0.14-0.42-0.289-0.84-0.41-1.268
		c-0.183-0.63-0.314-1.271-0.461-1.91c-0.094-0.408-0.203-0.811-0.278-1.222c-0.129-0.714-0.22-1.437-0.306-2.157
		c-0.047-0.351-0.11-0.692-0.145-1.045c-0.057-0.613-0.064-1.236-0.09-1.853H57.527V93.525z"/>
	<path fill="#F5B19E" d="M70.545,57.749c0.033-0.333,0.098-0.668,0.137-1.007c0.092-0.733,0.182-1.474,0.312-2.197
		c0.072-0.396,0.18-0.78,0.268-1.166c0.147-0.663,0.286-1.32,0.473-1.972c0.117-0.41,0.264-0.809,0.396-1.215
		c0.199-0.616,0.396-1.23,0.625-1.833c0.158-0.411,0.347-0.812,0.517-1.218c0.254-0.579,0.5-1.157,0.78-1.726
		c0.201-0.406,0.425-0.799,0.644-1.203c0.298-0.542,0.595-1.087,0.922-1.617c0.244-0.396,0.508-0.781,0.769-1.169
		c0.339-0.511,0.685-1.015,1.054-1.51c0.285-0.381,0.592-0.751,0.891-1.122c0.234-0.293,0.447-0.595,0.691-0.88
		c-5.812-5.78-13.356-9.096-21.492-9.435v31.128h12.928C70.48,58.988,70.49,58.369,70.545,57.749z"/>
	<path fill="#F5B19E" d="M34.77,37.851c0.366,0.422,0.728,0.838,1.07,1.271c0.361,0.456,0.702,0.932,1.04,1.405
		c0.32,0.44,0.636,0.885,0.929,1.339c0.32,0.497,0.614,1.003,0.909,1.518c0.265,0.456,0.54,0.912,0.78,1.382
		c0.277,0.537,0.522,1.083,0.772,1.631c0.213,0.469,0.435,0.932,0.626,1.408c0.232,0.579,0.43,1.172,0.632,1.765
		c0.16,0.463,0.332,0.923,0.473,1.395c0.189,0.637,0.331,1.282,0.481,1.926c0.105,0.449,0.232,0.888,0.316,1.342
		c0.143,0.734,0.232,1.477,0.328,2.22c0.052,0.381,0.128,0.754,0.161,1.133c0.062,0.669,0.074,1.348,0.1,2.025H54.72V28.48
		c-7.712,0.323-14.951,3.332-20.629,8.562C34.33,37.304,34.539,37.588,34.77,37.851z"/>
	<path fill="#F5B19E" d="M54.721,62.412H43.388c-0.025,0.677-0.037,1.352-0.1,2.02c-0.037,0.396-0.113,0.778-0.165,1.17
		c-0.094,0.729-0.184,1.461-0.322,2.178c-0.09,0.468-0.221,0.926-0.328,1.388c-0.15,0.627-0.288,1.263-0.468,1.877
		c-0.145,0.488-0.326,0.962-0.488,1.44c-0.198,0.574-0.392,1.154-0.616,1.721c-0.195,0.482-0.423,0.957-0.638,1.429
		c-0.248,0.542-0.487,1.085-0.763,1.613c-0.24,0.467-0.514,0.92-0.78,1.384c-0.295,0.512-0.593,1.021-0.915,1.526
		c-0.285,0.438-0.595,0.866-0.903,1.297c-0.348,0.493-0.706,0.985-1.081,1.462c-0.323,0.404-0.661,0.797-1.004,1.189
		c-0.248,0.285-0.467,0.588-0.725,0.862c5.678,5.236,12.917,8.236,20.629,8.56V62.412z"/>
	<path fill="#F5B19E" d="M35.448,78.634c0.323-0.497,0.622-1.008,0.911-1.518c0.222-0.384,0.44-0.761,0.646-1.15
		c0.277-0.534,0.528-1.085,0.774-1.637c0.174-0.386,0.359-0.765,0.515-1.159c0.232-0.577,0.43-1.163,0.625-1.754
		c0.132-0.389,0.278-0.768,0.394-1.158c0.182-0.621,0.324-1.254,0.471-1.888c0.089-0.373,0.194-0.746,0.263-1.124
		c0.137-0.693,0.225-1.398,0.316-2.105c0.037-0.33,0.104-0.65,0.137-0.983c0.055-0.575,0.062-1.163,0.084-1.744H40.58H23.64
		c0.322,7.673,3.26,14.877,8.447,20.54c0.008,0.007,0.014,0.018,0.023,0.027c0.217-0.236,0.407-0.494,0.62-0.737
		c0.309-0.358,0.618-0.722,0.911-1.091c0.359-0.457,0.698-0.924,1.036-1.397C34.94,79.384,35.204,79.014,35.448,78.634z"/>
	<path fill="#F5B19E" d="M40.583,59.608c-0.021-0.585-0.029-1.17-0.084-1.747c-0.033-0.342-0.1-0.671-0.145-1.015
		c-0.086-0.692-0.172-1.391-0.309-2.072c-0.068-0.395-0.18-0.775-0.271-1.166c-0.145-0.617-0.285-1.237-0.459-1.843
		c-0.121-0.407-0.27-0.803-0.405-1.198c-0.193-0.579-0.387-1.152-0.613-1.715c-0.163-0.403-0.349-0.793-0.528-1.193
		c-0.246-0.541-0.489-1.081-0.763-1.609c-0.207-0.393-0.428-0.777-0.651-1.16c-0.289-0.512-0.586-1.018-0.903-1.511
		c-0.246-0.38-0.512-0.754-0.774-1.126c-0.338-0.474-0.679-0.938-1.04-1.401c-0.289-0.364-0.595-0.719-0.899-1.075
		c-0.215-0.246-0.409-0.511-0.628-0.75c-0.01,0.012-0.016,0.023-0.023,0.031c-5.188,5.67-8.125,12.875-8.447,20.551H40.58
		L40.583,59.608L40.583,59.608z"/>
	<path fill="#F5B19E" d="M80.961,40.018c-0.01-0.008-0.016-0.02-0.023-0.029c-0.17,0.201-0.313,0.415-0.479,0.618
		c-0.3,0.368-0.591,0.742-0.87,1.122c-0.321,0.429-0.624,0.869-0.924,1.315c-0.244,0.37-0.492,0.743-0.722,1.124
		c-0.289,0.474-0.558,0.955-0.818,1.44c-0.206,0.38-0.411,0.752-0.602,1.136c-0.248,0.513-0.478,1.03-0.695,1.553
		c-0.162,0.38-0.332,0.756-0.48,1.138c-0.207,0.548-0.39,1.104-0.57,1.66c-0.119,0.381-0.25,0.746-0.358,1.131
		c-0.166,0.588-0.295,1.187-0.431,1.782c-0.077,0.362-0.174,0.722-0.243,1.088c-0.12,0.658-0.2,1.325-0.282,1.991
		c-0.037,0.315-0.096,0.625-0.129,0.943c-0.045,0.523-0.053,1.05-0.074,1.578h0.004h15.354
		C88.309,52.408,85.646,45.544,80.961,40.018z"/>
	<path fill="#F5B19E" d="M87.938,65.907l0.041,0.075c0.098-0.018,0.198-0.032,0.299-0.047c0.182-1.164,0.289-2.34,0.34-3.523H73.264
		h-0.005c0.021,0.524,0.029,1.05,0.074,1.572c0.033,0.324,0.094,0.646,0.133,0.971c0.082,0.658,0.16,1.312,0.278,1.959
		c0.07,0.379,0.172,0.753,0.254,1.132c0.133,0.578,0.256,1.16,0.418,1.735c0.113,0.396,0.251,0.779,0.376,1.171
		c0.174,0.54,0.349,1.084,0.551,1.616c0.153,0.396,0.327,0.781,0.495,1.177c0.129,0.308,0.244,0.62,0.385,0.92
		c0.004-0.013,0.012-0.021,0.014-0.029c1.812-3.76,4.964-6.59,8.902-7.979l-0.058-0.095l1.834-0.424L87.938,65.907z"/>
	<path fill="#E84C25" d="M103.417,72.645c-1.672-2.476-3.929-4.434-6.64-5.619c-1.793-0.781-3.711-1.17-5.66-1.243
		c0.216-1.575,0.363-3.163,0.363-4.772c0-8.509-3.09-16.639-8.67-23.084l0.043-0.043l-0.895-0.959l-1.021-1.099l-0.054,0.057
		c-6.325-6.257-14.513-9.816-23.357-10.159v-0.072h-1.402h-1.404v0.068c-8.447,0.329-16.356,3.604-22.563,9.347l-0.047-0.047
		l-0.991,0.99l-0.991,0.993l0.049,0.047c-6.056,6.551-9.405,14.989-9.405,23.961c0,8.969,3.35,17.404,9.405,23.947l-0.049,0.051
		L31.119,86l0.991,0.989l0.047-0.048c6.207,5.746,14.116,9.023,22.563,9.352v0.068h1.404h1.402v-0.068
		c7.09-0.275,13.772-2.604,19.404-6.749l0.348,0.619l0.084-0.021c1.681,2.553,3.965,4.561,6.726,5.774
		c1.979,0.87,4.081,1.312,6.25,1.312c0.797,0,1.597-0.084,2.396-0.205l0.024,0.051l0.992-0.215l1.896-0.408l-0.062-0.104
		c4.136-1.436,7.536-4.521,9.296-8.533c1.762-4.008,1.736-8.604-0.01-12.615l0.121-0.027l-0.983-1.669l-0.515-0.873L103.417,72.645z
		 M102.312,86.688c-1.537,3.506-4.465,6.071-8.121,7.166c-0.01,0.002-0.017,0.004-0.021,0.004c-0.025-0.047-0.029-0.098-0.055-0.146
		c-0.355-0.755-0.633-1.532-0.836-2.323c-0.034-0.127-0.062-0.246-0.092-0.371c-0.186-0.797-0.291-1.604-0.319-2.418
		c-0.002-0.109,0-0.224,0-0.332c-0.005-0.834,0.062-1.664,0.219-2.49c0.015-0.073,0.037-0.146,0.052-0.221
		c0.186-0.861,0.438-1.715,0.803-2.543c0.354-0.801,0.803-1.551,1.304-2.253c0.06-0.079,0.104-0.165,0.164-0.241
		c0.487-0.655,1.048-1.25,1.653-1.802c0.099-0.088,0.193-0.181,0.295-0.271c0.608-0.521,1.269-0.982,1.968-1.385
		c0.124-0.07,0.243-0.142,0.368-0.205c0.718-0.387,1.473-0.707,2.257-0.957c0.047-0.019,0.09-0.045,0.139-0.062
		c0.004,0.006,0.004,0.013,0.007,0.021C103.762,79.294,103.855,83.184,102.312,86.688z M91.333,94.386
		c-2.101,0.157-4.192-0.188-6.119-1.034c-1.987-0.875-3.696-2.234-5.021-3.979c0.027-0.015,0.053-0.029,0.08-0.039
		c0.898-0.331,1.748-0.748,2.562-1.224c0.114-0.068,0.229-0.125,0.343-0.192c0.78-0.487,1.508-1.047,2.188-1.658
		c0.125-0.116,0.254-0.229,0.379-0.35c0.655-0.632,1.264-1.316,1.801-2.063c0.084-0.113,0.158-0.234,0.238-0.35
		c0.546-0.805,1.045-1.643,1.442-2.553c0.238-0.539,0.436-1.088,0.61-1.643c0.052-0.17,0.088-0.337,0.136-0.5
		c0.108-0.393,0.207-0.787,0.282-1.182c0.044-0.198,0.065-0.398,0.101-0.6c0.058-0.369,0.105-0.74,0.133-1.111
		c0.019-0.208,0.029-0.416,0.039-0.627c0.015-0.366,0.015-0.73,0.005-1.104c-0.009-0.204-0.015-0.409-0.031-0.618
		c-0.024-0.375-0.074-0.752-0.127-1.127c-0.028-0.195-0.054-0.39-0.088-0.582c-0.062-0.324-0.138-0.644-0.216-0.966
		c-0.025-0.089-0.047-0.181-0.07-0.267c-0.041-0.151-0.07-0.305-0.113-0.45c-0.162-0.533-0.346-1.063-0.564-1.581
		c0.439-0.042,0.878-0.044,1.312-0.042c1.738,0.013,3.437,0.354,5.019,1.045c1.926,0.847,3.596,2.144,4.906,3.806
		c-0.06,0.02-0.104,0.053-0.162,0.073c-0.877,0.324-1.715,0.726-2.51,1.193c-0.115,0.063-0.232,0.118-0.345,0.187
		c-0.794,0.491-1.533,1.057-2.231,1.678c-0.133,0.117-0.26,0.231-0.389,0.355c-0.669,0.637-1.286,1.326-1.836,2.078
		c-0.092,0.123-0.17,0.251-0.254,0.377c-0.557,0.801-1.062,1.643-1.457,2.548c-0.234,0.535-0.434,1.083-0.604,1.638
		c-0.062,0.196-0.103,0.396-0.158,0.596c-0.094,0.363-0.189,0.729-0.256,1.098c-0.045,0.229-0.076,0.456-0.108,0.684
		c-0.051,0.354-0.092,0.699-0.119,1.054c-0.019,0.229-0.028,0.463-0.037,0.696c-0.012,0.356-0.01,0.711,0.003,1.066
		c0.008,0.227,0.018,0.445,0.032,0.672c0.029,0.375,0.078,0.75,0.131,1.129c0.032,0.195,0.058,0.399,0.093,0.599
		c0.086,0.438,0.191,0.868,0.312,1.301c0.037,0.129,0.064,0.267,0.102,0.399C90.924,93.346,91.115,93.869,91.333,94.386z
		 M34.816,84.104c0.343-0.393,0.681-0.785,1.004-1.188c0.375-0.478,0.733-0.97,1.081-1.462c0.309-0.43,0.618-0.857,0.903-1.297
		c0.322-0.504,0.62-1.016,0.915-1.526c0.267-0.464,0.54-0.917,0.78-1.384c0.275-0.528,0.515-1.071,0.763-1.613
		c0.215-0.472,0.442-0.945,0.638-1.429c0.225-0.565,0.418-1.146,0.616-1.722c0.162-0.479,0.344-0.951,0.488-1.439
		c0.18-0.613,0.317-1.25,0.468-1.877c0.107-0.462,0.238-0.92,0.328-1.387c0.139-0.719,0.229-1.448,0.322-2.178
		c0.052-0.393,0.128-0.775,0.165-1.17c0.062-0.67,0.074-1.344,0.1-2.021H54.72v31.114c-7.712-0.322-14.951-3.322-20.629-8.56
		C34.35,84.693,34.568,84.391,34.816,84.104z M34.092,37.042c5.678-5.229,12.917-8.238,20.629-8.562v31.128H43.388
		c-0.025-0.678-0.037-1.356-0.1-2.025c-0.033-0.379-0.109-0.752-0.161-1.133c-0.096-0.743-0.186-1.485-0.328-2.22
		c-0.084-0.454-0.211-0.893-0.316-1.342c-0.15-0.644-0.292-1.289-0.481-1.926c-0.141-0.472-0.312-0.932-0.473-1.395
		c-0.202-0.593-0.399-1.186-0.632-1.765c-0.191-0.477-0.413-0.939-0.626-1.408c-0.25-0.548-0.495-1.094-0.772-1.631
		c-0.24-0.47-0.516-0.926-0.78-1.382c-0.295-0.515-0.589-1.021-0.909-1.518c-0.293-0.454-0.608-0.898-0.929-1.339
		c-0.338-0.474-0.679-0.949-1.04-1.405c-0.343-0.433-0.704-0.849-1.07-1.271C34.539,37.588,34.33,37.304,34.092,37.042z
		 M81.189,85.837c-0.039,0.022-0.092,0.037-0.133,0.062c-0.089,0.043-0.193,0.072-0.277,0.119c-0.612,0.314-1.244,0.608-1.91,0.832
		c-0.057,0.018-0.105,0.053-0.16,0.067c-0.002-0.006-0.006-0.015-0.01-0.021c-0.065-0.144-0.09-0.299-0.151-0.442
		c-0.202-0.481-0.364-0.974-0.506-1.464c-0.263-0.9-0.429-1.809-0.493-2.731c0-0.004,0-0.014,0-0.021
		c-0.049-0.773-0.016-1.539,0.074-2.312c0.078-0.661,0.207-1.31,0.388-1.956c0.005-0.004,0.005-0.01,0.009-0.012
		c0.157-0.573,0.295-1.148,0.539-1.703c1.5-3.424,4.358-5.963,7.932-7.093c0.006,0,0.012-0.004,0.018-0.004
		c0.018,0.038,0.023,0.081,0.043,0.122c0.238,0.525,0.387,1.066,0.557,1.604c0.069,0.232,0.182,0.46,0.24,0.69
		c0.034,0.132,0.063,0.263,0.092,0.396c0.119,0.545,0.156,1.096,0.201,1.649c0.018,0.229,0.077,0.458,0.084,0.69
		c0.008,0.129,0,0.254,0,0.385c-0.002,0.802-0.068,1.604-0.222,2.398c-0.021,0.076-0.037,0.149-0.051,0.227
		c-0.002,0.01-0.009,0.021-0.011,0.029c-0.184,0.836-0.434,1.662-0.781,2.463c-0.352,0.805-0.799,1.553-1.29,2.254
		c-0.052,0.064-0.093,0.139-0.136,0.205c-0.484,0.656-1.041,1.254-1.637,1.804c-0.082,0.08-0.166,0.155-0.252,0.235
		c-0.6,0.518-1.248,0.98-1.935,1.385c-0.019,0.012-0.029,0.019-0.048,0.031C81.307,85.766,81.251,85.805,81.189,85.837z
		 M88.275,65.938c-0.1,0.014-0.2,0.028-0.299,0.047l-0.041-0.076l-1.021,0.23l-1.834,0.424l0.058,0.095
		c-3.938,1.39-7.091,4.22-8.902,7.979c-0.137-0.297-0.271-0.593-0.397-0.891c-0.168-0.396-0.342-0.781-0.495-1.177
		c-0.203-0.532-0.377-1.076-0.551-1.616c-0.125-0.392-0.264-0.775-0.376-1.171c-0.162-0.575-0.285-1.157-0.418-1.735
		c-0.082-0.379-0.185-0.753-0.254-1.132c-0.118-0.646-0.196-1.301-0.278-1.959c-0.039-0.325-0.1-0.646-0.133-0.971
		c-0.045-0.522-0.051-1.048-0.07-1.572h15.354C88.564,63.596,88.458,64.771,88.275,65.938z M73.264,59.608
		c0.02-0.528,0.024-1.055,0.069-1.578c0.033-0.318,0.092-0.628,0.129-0.943c0.082-0.666,0.162-1.333,0.282-1.991
		c0.07-0.366,0.166-0.726,0.244-1.088c0.135-0.596,0.264-1.194,0.43-1.782c0.109-0.385,0.239-0.75,0.357-1.131
		c0.183-0.557,0.363-1.112,0.57-1.66c0.149-0.382,0.319-0.758,0.481-1.138c0.219-0.522,0.448-1.04,0.696-1.553
		c0.188-0.384,0.395-0.756,0.601-1.136c0.263-0.485,0.528-0.967,0.819-1.44c0.229-0.381,0.477-0.754,0.721-1.124
		c0.3-0.446,0.604-0.887,0.924-1.315c0.279-0.38,0.57-0.754,0.87-1.122c0.162-0.199,0.336-0.392,0.502-0.589
		c4.687,5.526,7.347,12.391,7.655,19.591L73.264,59.608L73.264,59.608z M78.327,38.795c-0.3,0.371-0.604,0.741-0.89,1.122
		c-0.369,0.495-0.717,0.999-1.055,1.51c-0.261,0.388-0.523,0.773-0.769,1.169c-0.327,0.53-0.624,1.075-0.921,1.617
		c-0.221,0.404-0.442,0.797-0.645,1.203c-0.281,0.568-0.525,1.146-0.779,1.726c-0.17,0.405-0.358,0.807-0.518,1.218
		c-0.23,0.603-0.426,1.217-0.625,1.833c-0.132,0.406-0.277,0.805-0.396,1.215c-0.186,0.651-0.323,1.309-0.472,1.972
		c-0.088,0.386-0.194,0.77-0.268,1.166c-0.132,0.724-0.222,1.464-0.312,2.197c-0.039,0.339-0.104,0.674-0.138,1.007
		c-0.056,0.62-0.063,1.239-0.09,1.859H57.527V28.48c8.135,0.339,15.679,3.654,21.493,9.435C78.775,38.2,78.562,38.502,78.327,38.795
		z M32.087,39.058c0.215,0.241,0.438,0.477,0.651,0.719c0.305,0.356,0.61,0.711,0.899,1.075c0.361,0.463,0.702,0.928,1.04,1.401
		c0.263,0.372,0.528,0.746,0.774,1.126c0.317,0.493,0.614,0.999,0.903,1.511c0.224,0.383,0.444,0.768,0.651,1.16
		c0.273,0.528,0.517,1.068,0.763,1.609c0.18,0.4,0.365,0.79,0.528,1.193c0.227,0.562,0.42,1.136,0.613,1.715
		c0.136,0.396,0.284,0.791,0.405,1.198c0.174,0.605,0.314,1.226,0.459,1.843c0.091,0.391,0.202,0.771,0.271,1.166
		c0.137,0.682,0.223,1.38,0.309,2.072c0.045,0.344,0.111,0.673,0.145,1.015c0.055,0.577,0.061,1.162,0.08,1.747H23.64
		C23.962,51.933,26.899,44.728,32.087,39.058z M40.579,62.412c-0.02,0.581-0.025,1.169-0.08,1.744
		c-0.033,0.333-0.1,0.654-0.137,0.982c-0.092,0.709-0.18,1.413-0.316,2.106c-0.068,0.378-0.174,0.751-0.263,1.124
		c-0.146,0.634-0.289,1.266-0.471,1.888c-0.115,0.392-0.262,0.771-0.394,1.158c-0.195,0.591-0.393,1.177-0.625,1.754
		c-0.155,0.396-0.341,0.772-0.515,1.159c-0.246,0.552-0.497,1.102-0.774,1.637c-0.205,0.391-0.424,0.768-0.646,1.15
		c-0.289,0.51-0.588,1.021-0.911,1.518c-0.244,0.381-0.508,0.75-0.771,1.12c-0.338,0.474-0.677,0.94-1.036,1.397
		c-0.293,0.369-0.603,0.731-0.911,1.091c-0.211,0.241-0.431,0.472-0.644,0.71c-5.188-5.663-8.125-12.867-8.447-20.54L40.579,62.412
		L40.579,62.412z M57.527,62.412h12.928c0.025,0.615,0.033,1.238,0.09,1.854c0.033,0.352,0.098,0.693,0.145,1.045
		c0.086,0.721,0.177,1.442,0.306,2.156c0.075,0.411,0.187,0.812,0.278,1.223c0.146,0.639,0.278,1.279,0.461,1.908
		c0.121,0.43,0.271,0.848,0.41,1.269c0.191,0.6,0.383,1.192,0.607,1.78c0.162,0.422,0.355,0.842,0.536,1.261
		c0.244,0.563,0.485,1.131,0.759,1.682c0.205,0.417,0.436,0.822,0.657,1.231c0.094,0.174,0.185,0.347,0.278,0.518
		c-0.58,2.869-0.328,5.828,0.723,8.609c-5.25,3.998-11.506,6.299-18.178,6.58V62.412z"/>
</g>
</svg>
