<?xml version="1.0" encoding="utf-8"?>
<!-- Generator: Adobe Illustrator 15.0.2, SVG Export Plug-In . SVG Version: 6.00 Build 0)  -->
<!DOCTYPE svg PUBLIC "-//W3C//DTD SVG 1.1//EN" "http://www.w3.org/Graphics/SVG/1.1/DTD/svg11.dtd">
<svg version="1.1" id="Ebene_1" xmlns="http://www.w3.org/2000/svg" xmlns:xlink="http://www.w3.org/1999/xlink" x="0px" y="0px"
	 width="125px" height="125px" viewBox="0 0 125 125" enable-background="new 0 0 125 125" xml:space="preserve">
<g>
	<polygon fill="#FFFFFF" points="75.229,36.147 58.106,54.829 64.559,67.064 77.9,78.629 96.141,58.611 98.139,53.938 	"/>
	<path fill="#F5B19E" d="M100.023,50.404c-0.049-0.653-0.094-1.304-0.185-1.915c-0.053-0.355-0.131-0.681-0.196-1.015
		c-0.102-0.538-0.205-1.072-0.342-1.573c-0.09-0.337-0.201-0.652-0.305-0.975c-0.145-0.462-0.303-0.918-0.479-1.35
		c-0.127-0.311-0.264-0.604-0.401-0.898c-0.191-0.406-0.386-0.797-0.601-1.172c-0.156-0.282-0.316-0.549-0.486-0.811
		c-0.227-0.356-0.461-0.697-0.702-1.024c-0.183-0.241-0.364-0.484-0.556-0.712c-0.256-0.311-0.524-0.605-0.801-0.892
		c-0.197-0.209-0.396-0.419-0.601-0.614c-0.287-0.272-0.587-0.521-0.886-0.771c-0.209-0.17-0.416-0.349-0.629-0.512
		c-0.317-0.238-0.643-0.453-0.972-0.665c-0.209-0.138-0.416-0.286-0.63-0.413c-0.363-0.215-0.732-0.401-1.107-0.592
		c-0.179-0.096-0.359-0.199-0.543-0.285c-0.543-0.251-1.092-0.478-1.64-0.674c-0.229-0.082-0.456-0.14-0.683-0.213
		c-0.327-0.102-0.653-0.212-0.977-0.292c-0.271-0.074-0.535-0.121-0.803-0.175c-0.273-0.061-0.553-0.125-0.82-0.17
		c-0.273-0.043-0.541-0.074-0.809-0.104c-0.256-0.032-0.504-0.065-0.752-0.085c-0.262-0.018-0.516-0.025-0.768-0.035
		c-0.211-0.006-0.42-0.008-0.623-0.006c-0.619,0.01-1.215,0.045-1.758,0.126C64.16,35.022,62.377,47.183,62.377,47.183
		s-1.794-12.161-17.605-14.596c-0.541-0.081-1.138-0.116-1.756-0.126c-0.203-0.002-0.41,0-0.622,0.006
		c-0.256,0.01-0.506,0.018-0.771,0.035c-0.242,0.02-0.494,0.053-0.744,0.083c-0.271,0.032-0.538,0.063-0.815,0.106
		c-0.263,0.045-0.532,0.105-0.796,0.164c-0.278,0.056-0.55,0.106-0.829,0.181c-0.296,0.076-0.591,0.175-0.89,0.267
		c-0.259,0.082-0.515,0.148-0.772,0.24c-0.53,0.188-1.057,0.407-1.578,0.648c0.49,6.961,4.741,38.95,41.095,56.329
		c11.95-11.059,22.879-22.916,23.751-36.039c0.074-1.095,0.082-2.138,0.049-3.139C100.084,51.019,100.043,50.722,100.023,50.404z
		 M80.486,58.631l-2.508,15.18l-2.512-15.18l-15.172-2.508l15.172-2.51l2.512-15.173l2.508,15.173l15.178,2.51L80.486,58.631z"/>
	<path fill="#E84C25" d="M81.914,29.646c-0.825,0-1.619,0.055-2.362,0.17c-9.517,1.465-14.55,6.116-17.17,10.177
		c-2.629-4.061-7.656-8.712-17.177-10.177c-0.747-0.115-1.537-0.17-2.366-0.17c-5.667,0-11.361,2.469-15.236,6.613
		c-2.947,3.149-6.324,8.897-5.696,18.408c1.134,16.909,17.505,31.589,31.949,44.541c2.255,2.019,4.482,4.021,6.621,5.987l1.905,1.76
		l1.896-1.76c2.14-1.969,4.365-3.969,6.619-5.987c14.451-12.952,30.821-27.632,31.949-44.541c0.635-9.511-2.742-15.259-5.688-18.408
		C93.283,32.115,87.581,29.646,81.914,29.646z M98.117,42.679c0.139,0.294,0.275,0.588,0.402,0.898
		c0.176,0.432,0.332,0.888,0.478,1.35c0.104,0.326,0.215,0.638,0.305,0.975c0.138,0.501,0.24,1.035,0.341,1.573
		c0.066,0.334,0.146,0.659,0.197,1.015c0.09,0.611,0.135,1.262,0.184,1.915c0.021,0.317,0.064,0.614,0.074,0.939
		c0.033,1.001,0.025,2.044-0.049,3.139c-0.872,13.123-11.801,24.98-23.751,36.039c-36.354-17.379-40.605-49.369-41.095-56.33V34.19
		c0.521-0.239,1.048-0.458,1.578-0.646c0.258-0.092,0.514-0.158,0.772-0.24c0.299-0.092,0.594-0.19,0.89-0.267
		c0.279-0.074,0.551-0.125,0.829-0.181c0.264-0.059,0.533-0.119,0.796-0.164c0.277-0.043,0.545-0.074,0.815-0.106
		c0.25-0.03,0.498-0.063,0.744-0.083c0.265-0.018,0.515-0.025,0.771-0.035c0.146-0.004,0.298-0.02,0.44-0.02
		c0.066,0,0.119,0.012,0.182,0.014c0.62,0.01,1.219,0.041,1.756,0.126c15.812,2.435,17.605,14.596,17.605,14.596
		s1.783-12.161,17.596-14.596c0.539-0.085,1.137-0.116,1.758-0.126c0.063-0.002,0.113-0.014,0.18-0.014
		c0.143,0,0.299,0.016,0.443,0.02c0.252,0.01,0.506,0.018,0.768,0.035c0.248,0.02,0.496,0.053,0.752,0.085
		c0.27,0.03,0.532,0.062,0.809,0.104c0.271,0.045,0.545,0.109,0.82,0.17c0.27,0.054,0.53,0.101,0.803,0.175
		c0.322,0.08,0.648,0.19,0.977,0.292c0.227,0.073,0.453,0.131,0.683,0.213c0.548,0.196,1.097,0.423,1.64,0.674
		c0.184,0.086,0.365,0.189,0.543,0.285c0.375,0.19,0.744,0.377,1.107,0.592c0.215,0.127,0.422,0.275,0.631,0.413
		c0.328,0.212,0.652,0.427,0.971,0.665c0.217,0.163,0.42,0.34,0.629,0.512c0.299,0.25,0.599,0.499,0.886,0.771
		c0.207,0.195,0.403,0.405,0.601,0.614c0.275,0.286,0.545,0.581,0.801,0.892c0.19,0.229,0.373,0.471,0.556,0.712
		c0.241,0.327,0.478,0.668,0.703,1.024c0.169,0.262,0.329,0.528,0.485,0.811C97.73,41.882,97.926,42.272,98.117,42.679z"/>
</g>
</svg>
