<?xml version="1.0" encoding="UTF-8" standalone="no"?>
<!-- Generator: Adobe Illustrator 17.1.0, SVG Export Plug-In . SVG Version: 6.00 Build 0)  -->

<svg
   xmlns:dc="http://purl.org/dc/elements/1.1/"
   xmlns:cc="http://creativecommons.org/ns#"
   xmlns:rdf="http://www.w3.org/1999/02/22-rdf-syntax-ns#"
   xmlns:svg="http://www.w3.org/2000/svg"
   xmlns="http://www.w3.org/2000/svg"
   xmlns:sodipodi="http://sodipodi.sourceforge.net/DTD/sodipodi-0.dtd"
   xmlns:inkscape="http://www.inkscape.org/namespaces/inkscape"
   version="1.1"
   id="Layer_1"
   x="0px"
   y="0px"
   viewBox="0 0 150 198.87069"
   enable-background="new 0 0 841.891 595.275"
   xml:space="preserve"
   inkscape:version="0.91 r"
   sodipodi:docname="welcomango-picto.svg"
   width="150"
   height="198.8707"><metadata
     id="metadata27"><rdf:RDF><cc:Work
         rdf:about=""><dc:format>image/svg+xml</dc:format><dc:type
           rdf:resource="http://purl.org/dc/dcmitype/StillImage" /><dc:title></dc:title></cc:Work></rdf:RDF></metadata><defs
     id="defs25" /><sodipodi:namedview
     pagecolor="#ffffff"
     bordercolor="#666666"
     borderopacity="1"
     objecttolerance="10"
     gridtolerance="10"
     guidetolerance="10"
     inkscape:pageopacity="0"
     inkscape:pageshadow="2"
     inkscape:window-width="1920"
     inkscape:window-height="1014"
     id="namedview23"
     showgrid="false"
     fit-margin-top="0"
     fit-margin-left="0"
     fit-margin-right="0"
     fit-margin-bottom="0"
     inkscape:zoom="2.584895"
     inkscape:cx="-53.54686"
     inkscape:cy="116.79288"
     inkscape:window-x="0"
     inkscape:window-y="27"
     inkscape:window-maximized="1"
     inkscape:current-layer="Layer_1" /><path
     d="m 133.76623,156.35234 c -4.38311,4.51017 -54.249008,42.51836 -63.664593,42.51836 -9.203839,0 -12.260022,-24.43535 -19.487577,-25.73405 C 35.947205,170.51101 24.978826,165.09034 16.233766,156.34529 3.881988,143.28063 0,124.23066 0,87.521174 0,50.818746 3.881988,31.761716 16.233766,18.697064 29.291361,5.639469 47.289667,0 75.176454,0 103.05618,0 121.06155,5.646527 133.76623,18.697064 146.47092,31.761716 150,50.818746 150,87.521174 c 0,36.716546 -3.52908,55.766516 -16.23377,68.831166 z M 75.183512,19.416996 c -52.583286,0 -54.700734,23.644833 -54.700734,67.412479 0,43.760585 2.117448,68.464145 54.700734,68.464145 52.590348,0 54.354888,-25.05647 54.354888,-68.464145 -0.007,-45.539244 -3.18323,-67.412479 -54.354888,-67.412479 z"
     id="path21"
     inkscape:connector-curvature="0"
     style="fill:#ef4123" /></svg>