<?xml version="1.0" encoding="UTF-8" standalone="no"?>
<!-- Generator: Adobe Illustrator 17.1.0, SVG Export Plug-In . SVG Version: 6.00 Build 0)  -->

<svg
   xmlns:dc="http://purl.org/dc/elements/1.1/"
   xmlns:cc="http://creativecommons.org/ns#"
   xmlns:rdf="http://www.w3.org/1999/02/22-rdf-syntax-ns#"
   xmlns:svg="http://www.w3.org/2000/svg"
   xmlns="http://www.w3.org/2000/svg"
   xmlns:sodipodi="http://sodipodi.sourceforge.net/DTD/sodipodi-0.dtd"
   xmlns:inkscape="http://www.inkscape.org/namespaces/inkscape"
   version="1.1"
   id="Layer_1"
   x="0px"
   y="0px"
   viewBox="0 0 60.340718 79.999997"
   enable-background="new 0 0 841.891 595.275"
   xml:space="preserve"
   inkscape:version="0.91 r"
   sodipodi:docname="welcomango-picto-md.svg"
   width="60.340717"
   height="80"><metadata
     id="metadata27"><rdf:RDF><cc:Work
         rdf:about=""><dc:format>image/svg+xml</dc:format><dc:type
           rdf:resource="http://purl.org/dc/dcmitype/StillImage" /><dc:title></dc:title></cc:Work></rdf:RDF></metadata><defs
     id="defs25" /><sodipodi:namedview
     pagecolor="#ffffff"
     bordercolor="#666666"
     borderopacity="1"
     objecttolerance="10"
     gridtolerance="10"
     guidetolerance="10"
     inkscape:pageopacity="0"
     inkscape:pageshadow="2"
     inkscape:window-width="1920"
     inkscape:window-height="1014"
     id="namedview23"
     showgrid="false"
     fit-margin-top="0"
     fit-margin-left="0"
     fit-margin-right="0"
     fit-margin-bottom="0"
     inkscape:zoom="2.584895"
     inkscape:cx="-168.59212"
     inkscape:cy="57.357537"
     inkscape:window-x="0"
     inkscape:window-y="27"
     inkscape:window-maximized="1"
     inkscape:current-layer="Layer_1" /><path
     d="m 53.810332,62.896076 c -1.7632,1.814312 -21.822826,17.10392 -25.610447,17.10392 -3.702441,0 -4.931857,-9.82964 -7.839296,-10.352072 C 14.460533,68.5917 10.048268,66.411124 6.5303804,62.893236 1.5616128,57.6377 0,49.974444 0,35.207263 0,20.442926 1.5616128,12.776826 6.5303804,7.5212902 11.783077,2.2685942 19.023281,-3.8146973e-6 30.241339,-3.8146973e-6 c 11.215217,0 18.458263,2.2714370146973 23.568993,7.5212940146973 5.110736,5.2555358 6.530384,12.9216358 6.530384,27.6859728 0,14.770021 -1.419648,22.433277 -6.530384,27.688813 z M 30.244178,7.8108982 c -21.1527536,0 -22.0045416,9.5116408 -22.0045416,27.1181148 0,17.603631 0.851788,27.541167 22.0045416,27.541167 21.155594,0 21.865418,-10.079504 21.865418,-27.541167 C 52.10678,16.609876 50.829076,7.8108982 30.244178,7.8108982 Z"
     id="path21"
     inkscape:connector-curvature="0"
     style="fill:#ef4123" /></svg>