<?xml version="1.0" encoding="UTF-8" standalone="no"?>
<!-- Generator: Adobe Illustrator 17.1.0, SVG Export Plug-In . SVG Version: 6.00 Build 0)  -->

<svg
   xmlns:dc="http://purl.org/dc/elements/1.1/"
   xmlns:cc="http://creativecommons.org/ns#"
   xmlns:rdf="http://www.w3.org/1999/02/22-rdf-syntax-ns#"
   xmlns:svg="http://www.w3.org/2000/svg"
   xmlns="http://www.w3.org/2000/svg"
   xmlns:sodipodi="http://sodipodi.sourceforge.net/DTD/sodipodi-0.dtd"
   xmlns:inkscape="http://www.inkscape.org/namespaces/inkscape"
   version="1.1"
   id="Layer_1"
   x="0px"
   y="0px"
   viewBox="0 0 20 26.516092"
   enable-background="new 0 0 841.891 595.275"
   xml:space="preserve"
   inkscape:version="0.91 r"
   sodipodi:docname="welcomango-picto-full-white.svg"
   width="20"
   height="26.516092"><metadata
     id="metadata27"><rdf:RDF><cc:Work
         rdf:about=""><dc:format>image/svg+xml</dc:format><dc:type
           rdf:resource="http://purl.org/dc/dcmitype/StillImage" /><dc:title></dc:title></cc:Work></rdf:RDF></metadata><defs
     id="defs25" /><sodipodi:namedview
     pagecolor="#ffffff"
     bordercolor="#666666"
     borderopacity="1"
     objecttolerance="10"
     gridtolerance="10"
     guidetolerance="10"
     inkscape:pageopacity="0"
     inkscape:pageshadow="2"
     inkscape:window-width="1920"
     inkscape:window-height="1014"
     id="namedview23"
     showgrid="false"
     fit-margin-top="0"
     fit-margin-left="0"
     fit-margin-right="0"
     fit-margin-bottom="0"
     inkscape:zoom="32.000001"
     inkscape:cx="4.2689122"
     inkscape:cy="12.514913"
     inkscape:window-x="0"
     inkscape:window-y="27"
     inkscape:window-maximized="1"
     inkscape:current-layer="Layer_1" /><path
     id="rect4158"
     style="fill:#ffffff;fill-opacity:1"
     d="m 8.0874741,2.4007151 4.9701209,0 0,1.4704498 -4.9701209,0 z m 7.2346129,3.1173534 1.999812,0 0,11.4695075 -1.999812,0 z m -13.5869563,1.5292678 2.5879915,0 0,8.9403347 -2.5879915,0 z m 1.2057688,-4.4113492 13.8810455,0 0,18.1453509 -13.8810455,0 z M 17.835498,20.846979 c -0.584416,0.601355 -7.233202,5.669113 -8.488613,5.669113 -1.2271786,0 -1.6346697,-3.258046 -2.5983437,-3.431206 C 4.7929607,22.734801 3.3305101,22.012046 2.1645022,20.846038 0.5175983,19.104084 0,16.564088 0,11.66949 0,6.7758329 0.5175983,4.2348955 2.1645022,2.4929418 3.9055148,0.7519292 6.3052889,0 10.023527,0 13.740824,0 16.14154,0.7528703 17.835498,2.4929418 19.529456,4.2348955 20,6.7758329 20,11.66949 c 0,4.895539 -0.470544,7.435535 -2.164502,9.177489 z M 10.024468,2.5889328 c -7.0111046,0 -7.2934309,3.1526445 -7.2934309,8.9883302 0,5.834745 0.2823263,9.128553 7.2934309,9.128553 7.012046,0 7.247318,-3.340862 7.247318,-9.128553 -9.41e-4,-6.0718988 -0.42443,-8.9883302 -7.247318,-8.9883302 z"
     inkscape:connector-curvature="0" /></svg>