<?xml version="1.0" encoding="utf-8"?>
<!-- Generator: Adobe Illustrator 15.0.2, SVG Export Plug-In . SVG Version: 6.00 Build 0)  -->
<!DOCTYPE svg PUBLIC "-//W3C//DTD SVG 1.1//EN" "http://www.w3.org/Graphics/SVG/1.1/DTD/svg11.dtd">
<svg version="1.1" id="Ebene_1" xmlns="http://www.w3.org/2000/svg" xmlns:xlink="http://www.w3.org/1999/xlink" x="0px" y="0px"
	 width="125px" height="125px" viewBox="0 0 125 125" enable-background="new 0 0 125 125" xml:space="preserve">
<path fill="#E84C25" d="M62.544,0.333c-34.309,0-62.22,27.915-62.22,62.224c0,34.31,27.911,62.223,62.22,62.223
	c34.308,0,62.226-27.913,62.226-62.223C124.771,28.248,96.853,0.333,62.544,0.333z M62.544,121.976
	c-32.764,0-59.416-26.653-59.416-59.418c0-32.766,26.651-59.42,59.416-59.42c32.767,0,59.42,26.655,59.42,59.42
	C121.965,95.322,95.312,121.976,62.544,121.976z"/>
<g>
	<path fill="#FFFFFF" d="M40.738,51.537c-6.788,0-12.298,4.716-12.594,10.604h17.874c-0.205-0.893-0.308-1.812-0.308-2.758
		c0-2.219,0.595-4.308,1.627-6.173C45.409,52.169,43.163,51.537,40.738,51.537z"/>
	<path fill="#FFFFFF" d="M71.438,49.038c0.931,0.752,1.766,1.594,2.476,2.519l11.791-27.505l-3.393-0.563L71.438,49.038z"/>
	<path fill="#FFFFFF" d="M87.358,53.837c0.978,0.592,1.889,1.265,2.718,2.021l16.68-13.683l-2.749-2.069L87.358,53.837z"/>
	<path fill="#FFFFFF" d="M67.724,54.18c0.642-0.423,1.311-0.799,2.011-1.142c0.408-0.194,0.817-0.387,1.245-0.556
		c-0.225-0.251-0.444-0.509-0.696-0.736c-0.354-0.327-0.749-0.606-1.144-0.895c-0.386-0.276-0.765-0.554-1.186-0.785
		c-1.965-1.112-4.29-1.77-6.796-1.77c-4.003,0-7.536,1.668-9.855,4.219c-0.316,0.354-0.622,0.705-0.889,1.087
		c-0.269,0.383-0.521,0.777-0.736,1.189c-0.73,1.405-1.167,2.949-1.167,4.592c0,0.958,0.185,1.871,0.448,2.758h4.37h1.402h1.429
		h5.096c0.887-2.361,2.33-4.484,4.199-6.213C66.155,55.286,66.92,54.704,67.724,54.18z"/>
	<path fill="#FFFFFF" d="M65.858,62.142h3.518h1.527h1.525h0.455h0.476h1.479h0.244h1.22h0.988h5.123h2.214h2.207h4.502
		c-0.411-0.867-0.932-1.678-1.525-2.441c-0.284-0.367-0.616-0.696-0.94-1.036c-0.325-0.342-0.646-0.681-1.008-0.991
		c-0.86-0.736-1.83-1.355-2.864-1.89c-0.454-0.233-0.894-0.493-1.377-0.682c-0.518-0.207-1.075-0.331-1.623-0.478
		c-1.333-0.366-2.722-0.621-4.188-0.621c-0.675,0-1.321,0.101-1.973,0.179c-0.111,0.018-0.234,0.018-0.345,0.031
		c-0.443,0.065-0.868,0.147-1.298,0.245c-0.035,0.008-0.068,0.022-0.107,0.034c-0.476,0.11-0.938,0.239-1.391,0.393
		c-0.08,0.025-0.16,0.037-0.236,0.066c-1.76,0.63-3.344,1.559-4.697,2.722c-1.381,1.178-2.503,2.592-3.301,4.176
		c-0.055,0.103-0.127,0.191-0.178,0.293h0.053H65.858z"/>
	<path fill="#FFFFFF" d="M61.678,103.764c16.504,0,30.692-10,36.887-24.247H24.816c0.356,0.816,0.685,1.645,1.1,2.445
		C32.853,95.41,46.557,103.764,61.678,103.764z"/>
	<path fill="#F5B19E" d="M73.913,51.557l11.791-27.505l-3.393-0.563l-10.874,25.55C72.368,49.79,73.203,50.632,73.913,51.557z"/>
	<path fill="#F5B19E" d="M87.358,53.837c0.978,0.592,1.889,1.265,2.718,2.021l16.68-13.683l-2.749-2.069L87.358,53.837z"/>
	<path fill="#F5B19E" d="M61.678,103.764c16.504,0,30.692-10,36.887-24.247H24.816c0.356,0.816,0.685,1.645,1.1,2.445
		C32.853,95.41,46.557,103.764,61.678,103.764z"/>
	<path fill="#E84C25" d="M84.611,52.471c-2.095-0.82-4.393-1.273-6.802-1.273c-0.238,0-0.471,0.023-0.708,0.033l12.582-29.357
		l-9.089-1.511L69.062,47.465c-2.319-1.24-5.015-1.972-7.903-1.972c-4.957,0-9.367,2.118-12.197,5.392
		c-2.385-1.354-5.198-2.15-8.223-2.15c-8.34,0-15.142,5.972-15.425,13.407h-6.658v1.402c0,6.844,1.648,13.663,4.768,19.705
		c7.426,14.385,22.083,23.318,38.255,23.318c23.725,0,43.025-19.3,43.025-43.023v-1.402H94.366
		c-0.572-1.523-1.378-2.942-2.382-4.225l19.311-15.841l-7.368-5.534L84.611,52.471z M106.756,42.175l-16.68,13.683
		c-0.829-0.756-1.74-1.429-2.718-2.021l16.648-13.731L106.756,42.175z M61.678,103.764c-15.121,0-28.825-8.354-35.761-21.802
		c-0.415-0.801-0.744-1.629-1.1-2.445h73.748C92.37,93.764,78.182,103.764,61.678,103.764z M40.738,51.537
		c2.425,0,4.671,0.632,6.599,1.674c-1.032,1.865-1.627,3.954-1.627,6.173c0,0.946,0.103,1.865,0.308,2.758H28.144
		C28.44,56.253,33.951,51.537,40.738,51.537z M51.303,52.516c2.319-2.551,5.853-4.219,9.855-4.219c2.506,0,4.831,0.657,6.796,1.77
		c0.421,0.231,0.8,0.509,1.186,0.785c0.395,0.288,0.79,0.567,1.144,0.895c0.252,0.228,0.472,0.485,0.696,0.736
		c-0.428,0.169-0.837,0.361-1.245,0.556c-0.7,0.343-1.369,0.719-2.011,1.142c-0.804,0.524-1.568,1.106-2.269,1.749
		c-1.869,1.729-3.312,3.852-4.199,6.213H56.16h-1.429h-1.402h-4.37c-0.263-0.887-0.448-1.8-0.448-2.758
		c0-1.643,0.437-3.187,1.167-4.592c0.216-0.412,0.468-0.807,0.736-1.189C50.681,53.221,50.986,52.869,51.303,52.516z M85.704,24.052
		L73.913,51.557c-0.71-0.925-1.545-1.767-2.476-2.519l10.874-25.55L85.704,24.052z M86.834,62.142h-2.207h-2.214H77.29h-0.988h-1.22
		h-0.244h-1.479h-0.476h-0.455h-1.525h-1.527h-3.518h-1.521h-0.053c0.051-0.102,0.123-0.19,0.178-0.293
		c0.798-1.584,1.92-2.998,3.301-4.176c1.354-1.163,2.938-2.092,4.697-2.722c0.076-0.029,0.156-0.041,0.236-0.066
		c0.452-0.153,0.915-0.282,1.391-0.393c0.039-0.012,0.072-0.026,0.107-0.034c0.43-0.098,0.854-0.18,1.298-0.245
		c0.11-0.014,0.233-0.014,0.345-0.031c0.651-0.078,1.298-0.179,1.973-0.179c1.467,0,2.855,0.255,4.188,0.621
		c0.548,0.146,1.105,0.271,1.623,0.478c0.483,0.188,0.923,0.448,1.377,0.682c1.034,0.534,2.004,1.153,2.864,1.89
		c0.362,0.311,0.683,0.649,1.008,0.991c0.324,0.34,0.656,0.669,0.94,1.036c0.594,0.764,1.114,1.574,1.525,2.441H86.834z"/>
</g>
</svg>
