<?xml version="1.0" encoding="utf-8"?>
<!-- Generator: Adobe Illustrator 15.0.2, SVG Export Plug-In . SVG Version: 6.00 Build 0)  -->
<!DOCTYPE svg PUBLIC "-//W3C//DTD SVG 1.1//EN" "http://www.w3.org/Graphics/SVG/1.1/DTD/svg11.dtd">
<svg version="1.1" id="Ebene_1" xmlns="http://www.w3.org/2000/svg" xmlns:xlink="http://www.w3.org/1999/xlink" x="0px" y="0px"
	 width="125px" height="125px" viewBox="0 0 125 125" enable-background="new 0 0 125 125" xml:space="preserve">
<path fill="#E84C25" d="M62.544,0.333c-34.309,0-62.22,27.915-62.22,62.224c0,34.31,27.911,62.223,62.22,62.223
	c34.308,0,62.226-27.913,62.226-62.223C124.771,28.248,96.853,0.333,62.544,0.333z M62.544,121.976
	c-32.764,0-59.416-26.653-59.416-59.418c0-32.766,26.651-59.42,59.416-59.42c32.767,0,59.42,26.655,59.42,59.42
	C121.965,95.322,95.312,121.976,62.544,121.976z"/>
<g>
	<path fill="#FFFFFF" d="M44.386,89.149c1.604-3.355,3.27-7.912,3.059-12.137c-0.043-0.855-0.141-1.908-0.253-3.11
		c-0.699-7.486-1.859-20.017,5.329-27.907c4.069-4.461,10.268-6.726,18.418-6.726c6.439,0,11.709,1.484,15.739,4.412l5.156-6.562
		c-2.256-2.7-10.946-11.495-29.196-10.768c-8.551,0.321-15.295,3.262-20.039,8.736c-4.965,5.736-7.405,14.125-6.523,22.434
		c1.279,12.104,1.225,27.166-5.41,34.142C34.544,91.968,40.923,91.946,44.386,89.149z"/>
	<path fill="#FFFFFF" d="M87.577,67.8l5.247,0.861c0.191-1.93,0.354-5.66-0.368-9.715L87.577,67.8z"/>
	<path fill="#FFFFFF" d="M93.453,78.544c-2.281-0.561-7.314-2.538-9.323-9.055c-0.266-0.501-4.329-7.777-13.383-6.557
		c-0.649,0.088-1.316,0.208-2.014,0.39c-2.204,0.569-3.728,1.854-4.697,3.448c1.382-1.387,2.968-1.788,4.601-1.571
		c4.957,0.653,10.409,7.271,12.376,11.6c2.38,5.231,10.212,8.937,13.345,10.249L93.453,78.544z"/>
	<path fill="#FFFFFF" d="M74.58,84.546c-8.244,0-13.045-4.888-14.291-10.377c-0.02-0.069-0.053-0.136-0.062-0.208
		c-1.126-5.347,1.199-11.652,7.812-13.355c1.971-0.505,3.771-0.662,5.416-0.584c6.049,0.273,9.914,3.841,11.797,6.185l6.186-11.212
		c-0.759-2.201-1.816-4.37-3.414-6.268c-0.642-0.763-1.367-1.437-2.128-2.07c-3.646-3.028-8.65-4.582-14.957-4.582
		c-7.331,0-12.833,1.954-16.35,5.812c-6.354,6.971-5.262,18.729-4.608,25.757c0.115,1.247,0.219,2.337,0.262,3.226
		c0.174,3.46-0.712,7.016-1.873,10.104c-1.067,2.851-2.366,5.304-3.289,6.88c1.33,0.153,3.242,0.312,5.493,0.312
		c7.659,0,17.956-1.731,24.918-9.657C75.186,84.517,74.873,84.546,74.58,84.546z"/>
	<path fill="#F5B19E" d="M62.638,26.352c-8.551,0.321-15.295,3.262-20.039,8.736c-4.965,5.736-7.405,14.125-6.523,22.434
		c1.279,12.104,1.225,27.166-5.41,34.142c3.879,0.305,10.258,0.283,13.721-2.514c1.604-3.355,3.27-7.912,3.059-12.137
		c-0.043-0.855-0.141-1.908-0.253-3.11c-0.699-7.486-1.859-20.017,5.329-27.907c4.069-4.461,10.268-6.726,18.418-6.726
		c6.439,0,11.709,1.484,15.739,4.412l5.156-6.562C89.578,34.419,80.888,25.624,62.638,26.352z"/>
	<path fill="#E84C25" d="M94.883,75.973c-0.219-0.03-4.848-0.591-7.288-5.332l7.577,1.246l0.241-1.364
		c0.105-0.581,2.448-14.429-5.233-23.586c-0.426-0.512-0.892-0.976-1.366-1.436l6.514-8.297l-0.548-0.84
		c-0.361-0.558-9.228-13.665-32.245-12.815c-9.229,0.348-16.854,3.704-22.054,9.704c-5.469,6.317-8.157,15.498-7.193,24.565
		c1.106,10.463,1.697,28.739-6.819,33.625l-3.332,1.92l3.784,0.675c0.254,0.049,3.197,0.56,6.875,0.56
		c2.597,0,5.569-0.257,8.221-1.114c-0.246,0.394-0.41,0.641-0.416,0.652l-1.207,1.755l2.087,0.416
		c0.135,0.025,3.383,0.663,8.094,0.663c8.359,0,19.665-1.948,27.31-10.934c2.174,3.109,7.735,9.297,18.57,11.404l1.861,0.359
		l-2.311-21.707L94.883,75.973z M30.665,91.663c6.635-6.976,6.689-22.037,5.41-34.142c-0.882-8.309,1.559-16.697,6.523-22.434
		c4.744-5.475,11.488-8.415,20.039-8.736c18.25-0.728,26.94,8.067,29.196,10.768l-5.156,6.562c-4.03-2.928-9.3-4.412-15.739-4.412
		c-8.15,0-14.349,2.265-18.418,6.726c-7.188,7.891-6.028,20.421-5.329,27.907c0.112,1.202,0.21,2.255,0.253,3.11
		c0.211,4.225-1.455,8.781-3.059,12.137C40.923,91.946,34.544,91.968,30.665,91.663z M94.357,87.048
		c-3.133-1.312-10.965-5.018-13.345-10.249c-1.967-4.329-7.419-10.946-12.376-11.6c-1.633-0.217-3.219,0.185-4.601,1.571
		c0.97-1.594,2.493-2.879,4.697-3.448c0.697-0.182,1.364-0.302,2.014-0.39c9.054-1.221,13.117,6.056,13.383,6.557
		c2.009,6.517,7.042,8.494,9.323,9.055L94.357,87.048z M92.824,68.661L87.577,67.8l4.879-8.854
		C93.178,63.001,93.016,66.731,92.824,68.661z M48.369,86.974c1.161-3.089,2.047-6.645,1.873-10.104
		c-0.043-0.889-0.146-1.979-0.262-3.226c-0.653-7.028-1.746-18.786,4.608-25.757c3.517-3.858,9.019-5.812,16.35-5.812
		c6.307,0,11.311,1.554,14.957,4.582c0.761,0.634,1.486,1.308,2.128,2.07c1.598,1.897,2.655,4.066,3.414,6.268l-6.186,11.212
		c-1.883-2.344-5.748-5.911-11.797-6.185c-1.645-0.078-3.445,0.079-5.416,0.584c-6.613,1.703-8.938,8.009-7.812,13.355
		c0.01,0.072,0.043,0.139,0.062,0.208c1.246,5.489,6.047,10.377,14.291,10.377c0.293,0,0.605-0.029,0.911-0.037
		c-6.962,7.926-17.259,9.657-24.918,9.657c-2.251,0-4.163-0.159-5.493-0.312C46.003,92.277,47.302,89.824,48.369,86.974z
		 M78.381,84.222h0.002c0.634,1.049,2.167,3.293,4.93,5.614C80.55,87.515,79.017,85.271,78.381,84.222z"/>
</g>
</svg>
