<?xml version="1.0" encoding="utf-8"?>
<!-- Generator: Adobe Illustrator 15.0.2, SVG Export Plug-In . SVG Version: 6.00 Build 0)  -->
<!DOCTYPE svg PUBLIC "-//W3C//DTD SVG 1.1//EN" "http://www.w3.org/Graphics/SVG/1.1/DTD/svg11.dtd">
<svg version="1.1" id="Ebene_1" xmlns="http://www.w3.org/2000/svg" xmlns:xlink="http://www.w3.org/1999/xlink" x="0px" y="0px"
	 width="125px" height="125px" viewBox="0 0 125 125" enable-background="new 0 0 125 125" xml:space="preserve">
<path fill="#E84C25" d="M62.544,0.333c-34.309,0-62.22,27.915-62.22,62.224c0,34.31,27.911,62.223,62.22,62.223
	c34.308,0,62.226-27.913,62.226-62.223C124.771,28.248,96.853,0.333,62.544,0.333z M62.544,121.976
	c-32.764,0-59.416-26.653-59.416-59.418c0-32.766,26.651-59.42,59.416-59.42c32.767,0,59.42,26.655,59.42,59.42
	C121.965,95.322,95.312,121.976,62.544,121.976z"/>
<g>
	<path fill="#FFFFFF" d="M49.231,99.457c5.938,0,10.772-4.832,10.772-10.77c0-5.94-4.834-10.768-10.772-10.768
		c-5.94,0-10.767,4.827-10.767,10.768C38.465,94.625,43.291,99.457,49.231,99.457z"/>
	<path fill="#FFFFFF" d="M95.817,82.5c0-5.938-4.834-10.766-10.771-10.766c-5.94,0-10.771,4.827-10.771,10.766
		s4.83,10.773,10.771,10.773C90.983,93.273,95.817,88.438,95.817,82.5z"/>
	<polygon fill="#FFFFFF" points="95.817,44.68 95.817,34.77 62.808,39.938 62.808,55.877 95.817,50.713 	"/>
	<path fill="#F5B19E" d="M49.231,99.457c5.938,0,10.772-4.832,10.772-10.77c0-5.94-4.834-10.768-10.772-10.768
		c-5.94,0-10.767,4.827-10.767,10.768C38.465,94.625,43.291,99.457,49.231,99.457z"/>
	<path fill="#F5B19E" d="M85.047,71.734c-5.94,0-10.771,4.827-10.771,10.766s4.83,10.773,10.771,10.773
		c5.937,0,10.771-4.835,10.771-10.773S90.983,71.734,85.047,71.734z"/>
	<polygon fill="#F5B19E" points="62.808,55.877 95.817,50.713 95.817,44.68 95.817,34.77 62.808,39.938 	"/>
	<path fill="#E84C25" d="M60.004,56.474v2.683V80.52c-2.479-3.26-6.365-5.403-10.772-5.403c-7.479,0-13.57,6.087-13.57,13.571
		c0,7.486,6.091,13.575,13.57,13.575c7.489,0,13.576-6.089,13.576-13.575V58.716l33.01-5.167v20.784
		c-2.481-3.26-6.366-5.403-10.771-5.403c-7.483,0-13.57,6.086-13.57,13.57c0,7.487,6.087,13.576,13.57,13.576
		c7.485,0,13.573-6.089,13.573-13.576V53.11V44.68V31.495l-38.616,6.044V56.474z M49.231,99.457c-5.94,0-10.767-4.832-10.767-10.77
		c0-5.94,4.826-10.768,10.767-10.768c5.938,0,10.772,4.827,10.772,10.768C60.004,94.625,55.17,99.457,49.231,99.457z M95.817,44.68
		v6.033l-33.01,5.164V39.938l33.01-5.168V44.68z M85.047,93.273c-5.94,0-10.771-4.835-10.771-10.773s4.83-10.766,10.771-10.766
		c5.937,0,10.771,4.827,10.771,10.766S90.983,93.273,85.047,93.273z"/>
	<path fill="#E84C25" d="M38.385,67.792h0.004V45.336l14.349,6.357V34.501l-17.153-7.594v14.278v2.907v16.552
		c-1.979-2.209-4.827-3.625-8.021-3.625c-5.968,0-10.823,4.858-10.823,10.829c0,5.968,4.855,10.825,10.823,10.825
		s10.825-4.857,10.825-10.825C38.389,67.829,38.385,67.808,38.385,67.792z"/>
</g>
</svg>
