<?xml version="1.0" encoding="utf-8"?>
<!-- Generator: Adobe Illustrator 15.0.2, SVG Export Plug-In . SVG Version: 6.00 Build 0)  -->
<!DOCTYPE svg PUBLIC "-//W3C//DTD SVG 1.1//EN" "http://www.w3.org/Graphics/SVG/1.1/DTD/svg11.dtd">
<svg version="1.1" id="Ebene_1" xmlns="http://www.w3.org/2000/svg" xmlns:xlink="http://www.w3.org/1999/xlink" x="0px" y="0px"
	 width="125px" height="125px" viewBox="0 0 125 125" enable-background="new 0 0 125 125" xml:space="preserve">
<path fill="#E84C25" d="M62.544,0.333c-34.309,0-62.22,27.915-62.22,62.224c0,34.31,27.911,62.223,62.22,62.223
	c34.308,0,62.226-27.913,62.226-62.223C124.771,28.248,96.853,0.333,62.544,0.333z M62.544,121.976
	c-32.764,0-59.416-26.653-59.416-59.418c0-32.766,26.651-59.42,59.416-59.42c32.767,0,59.42,26.655,59.42,59.42
	C121.965,95.322,95.312,121.976,62.544,121.976z"/>
<g>
	<path fill="#FFFFFF" d="M62.096,38.718c-11.441,0-21.475,9.761-26.997,16.654c6.373-4.715,16.266-9.795,26.997-9.795
		c11.106,0,20.81,5.625,26.969,10.286C83.445,48.856,73.38,38.718,62.096,38.718z"/>
	<path fill="#FFFFFF" d="M91.558,61.586c-3.604-3.244-11.04-9.1-20.168-11.784c3.609,2.722,5.991,6.966,6.201,11.784
		c0.008,0.228,0.033,0.449,0.033,0.681c0,0.723-0.064,1.429-0.163,2.123c-0.135,0.984-0.352,1.938-0.662,2.854
		c-0.302,0.894-0.669,1.757-1.123,2.571c-0.566,1.023-1.249,1.966-2.023,2.831c-0.624,0.7-1.305,1.343-2.04,1.922
		c-0.726,0.564-1.493,1.073-2.311,1.505c-0.823,0.436-1.684,0.8-2.584,1.085c-1.056,0.335-2.16,0.557-3.303,0.658
		c-0.465,0.043-0.938,0.07-1.413,0.07c-0.47,0-0.931-0.027-1.389-0.07c-0.919-0.079-1.807-0.248-2.673-0.481
		c-0.913-0.245-1.791-0.569-2.63-0.968c-1.033-0.492-2.005-1.089-2.896-1.787c-0.741-0.575-1.426-1.223-2.049-1.918
		c-0.63-0.702-1.195-1.463-1.689-2.271c-0.483-0.797-0.899-1.639-1.24-2.518c-0.428-1.107-0.729-2.271-0.894-3.482
		c-0.096-0.694-0.162-1.4-0.162-2.123c0-0.231,0.027-0.453,0.033-0.681c0.211-4.881,2.657-9.176,6.348-11.896
		c-9.764,2.664-17.547,8.72-20.716,11.896c-0.62,0.622-1.068,1.13-1.311,1.481c-0.025,0.039-0.072,0.092-0.094,0.124
		c0.004,0.405,0.068,0.799,0.104,1.198c0.291,3.322,1.539,6.456,3.574,9.247c0.565,0.774,1.174,1.534,1.853,2.249
		c1.719,1.818,3.783,3.445,6.132,4.835c0.829,0.493,1.697,0.944,2.591,1.374c2.224,1.062,4.641,1.915,7.198,2.545
		c0.907,0.22,1.838,0.41,2.784,0.571c1.854,0.32,3.769,0.514,5.737,0.579c0.497,0.02,0.981,0.055,1.482,0.055
		c0.445,0,0.876-0.033,1.319-0.047c2.331-0.069,4.596-0.322,6.772-0.748c0.946-0.181,1.871-0.4,2.778-0.643
		c2.198-0.592,4.286-1.345,6.222-2.26c0.9-0.428,1.772-0.879,2.6-1.366c2.784-1.637,5.154-3.624,7.043-5.844
		c0.638-0.756,1.227-1.53,1.744-2.335c1.623-2.523,2.618-5.294,2.879-8.213c0.027-0.312,0.08-0.611,0.092-0.928
		c-0.029-0.029-0.082-0.075-0.115-0.108C93.036,62.958,92.396,62.346,91.558,61.586z"/>
	<path fill="#FFFFFF" d="M63.415,54.833c-0.438,0.76-0.699,1.627-0.721,2.563c0,0.041-0.012,0.076-0.012,0.119
		c0,0.824,0.199,1.598,0.527,2.302c0.064,0.126,0.135,0.251,0.205,0.377c0.101,0.177,0.202,0.348,0.323,0.509
		c0.145,0.197,0.291,0.386,0.457,0.558c0.112,0.119,0.239,0.221,0.358,0.325c0.154,0.133,0.301,0.269,0.467,0.384
		c0.405,0.285,0.849,0.491,1.32,0.654c0.56,0.193,1.149,0.32,1.779,0.32c1.367,0,2.599-0.524,3.557-1.358
		c0.61-0.532,1.113-1.185,1.436-1.938c0.279-0.654,0.437-1.378,0.437-2.132c0-0.37-0.039-0.727-0.107-1.075
		c-0.497-2.484-2.689-4.365-5.321-4.365c-0.475,0-0.925,0.08-1.361,0.191c-1.079,0.284-2.018,0.879-2.731,1.699
		C63.797,54.234,63.592,54.521,63.415,54.833z"/>
	<path fill="#F5B19E" d="M62.096,38.718c-11.441,0-21.475,9.761-26.997,16.654c6.373-4.715,16.266-9.795,26.997-9.795
		c11.106,0,20.81,5.625,26.969,10.286C83.445,48.856,73.38,38.718,62.096,38.718z"/>
	<path fill="#E84C25" d="M96.358,61.263l-0.203-0.333c-0.232-0.392-2.544-4.141-6.338-8.622l9.159-4.03l-1.13-2.567l-9.977,4.384
		c-1.656-1.805-3.537-3.64-5.585-5.39l8.835-8.833l-1.982-1.98l-9.046,9.044c-2.196-1.674-4.559-3.172-7.065-4.354l4.725-12.127
		l-2.614-1.021L70.438,37.51c-2.255-0.822-4.6-1.347-7.022-1.492V23.233h-2.802v12.794c-2.81,0.179-5.528,0.822-8.109,1.849
		l-5.201-11.841l-2.569,1.13l5.217,11.863c-2.154,1.079-4.202,2.363-6.124,3.791l-8.933-8.929l-1.98,1.98l8.697,8.696
		c-2.468,2.067-4.676,4.275-6.562,6.423l-9.571-3.726l-1.018,2.611l8.685,3.38c-3.287,4.111-5.215,7.533-5.292,8.33h-5.594v2.804
		h5.675c0.285,3.73,1.606,7.245,3.789,10.39l-6.66,2.925l1.13,2.57l7.312-3.215c1.878,2.137,4.157,4.057,6.779,5.684l-7.369,7.369
		l1.98,1.982l7.924-7.92c2.524,1.297,5.305,2.327,8.254,3.083l-4.777,12.274l2.612,1.015l4.936-12.681
		c2.184,0.406,4.446,0.655,6.771,0.727v14.158h2.802V88.603c2.736-0.081,5.388-0.394,7.924-0.929l5.397,12.272l2.567-1.126
		l-5.202-11.835c2.542-0.717,4.953-1.627,7.169-2.756l7.867,7.865l1.982-1.982l-7.308-7.309c3.084-1.906,5.69-4.218,7.737-6.812
		l7.005,2.727l1.017-2.612l-6.365-2.475c1.741-2.844,2.803-5.958,3.049-9.241h5.515v-2.804h-5.411V61.263z M62.096,38.718
		c11.284,0,21.35,10.139,26.969,17.146c-6.159-4.661-15.862-10.286-26.969-10.286c-10.731,0-20.624,5.08-26.997,9.795
		C40.621,48.479,50.654,38.718,62.096,38.718z M73.549,57.516c0,0.754-0.157,1.478-0.437,2.132
		c-0.322,0.754-0.825,1.406-1.436,1.938c-0.958,0.834-2.189,1.358-3.557,1.358c-0.63,0-1.22-0.127-1.779-0.32
		c-0.472-0.163-0.915-0.369-1.32-0.654c-0.166-0.115-0.312-0.251-0.467-0.384c-0.119-0.104-0.246-0.206-0.358-0.325
		c-0.166-0.172-0.312-0.36-0.457-0.558c-0.121-0.161-0.223-0.332-0.323-0.509c-0.07-0.126-0.141-0.251-0.205-0.377
		c-0.328-0.704-0.527-1.478-0.527-2.302c0-0.043,0.012-0.078,0.012-0.119c0.021-0.937,0.283-1.804,0.721-2.563
		c0.177-0.312,0.382-0.599,0.612-0.867c0.714-0.82,1.652-1.415,2.731-1.699c0.437-0.111,0.887-0.191,1.361-0.191
		c2.632,0,4.824,1.881,5.321,4.365C73.51,56.789,73.549,57.146,73.549,57.516z M30.641,63.191c0.021-0.032,0.068-0.085,0.094-0.124
		c0.242-0.352,0.69-0.859,1.311-1.481c3.169-3.176,10.952-9.231,20.716-11.896c-3.69,2.72-6.137,7.015-6.348,11.896
		c-0.006,0.228-0.033,0.449-0.033,0.681c0,0.723,0.066,1.429,0.162,2.123c0.164,1.211,0.466,2.375,0.894,3.482
		c0.341,0.879,0.757,1.721,1.24,2.518c0.494,0.809,1.06,1.569,1.689,2.271c0.623,0.695,1.308,1.343,2.049,1.918
		c0.892,0.698,1.863,1.295,2.896,1.787c0.839,0.398,1.717,0.723,2.63,0.968c0.866,0.233,1.754,0.402,2.673,0.481
		c0.458,0.043,0.919,0.07,1.389,0.07c0.475,0,0.948-0.027,1.413-0.07c1.143-0.102,2.247-0.323,3.303-0.658
		c0.9-0.285,1.761-0.649,2.584-1.085c0.817-0.432,1.585-0.94,2.311-1.505c0.735-0.579,1.416-1.222,2.04-1.922
		c0.774-0.865,1.457-1.808,2.023-2.831c0.454-0.814,0.821-1.678,1.123-2.571c0.311-0.916,0.527-1.869,0.662-2.854
		c0.099-0.694,0.163-1.4,0.163-2.123c0-0.231-0.025-0.453-0.033-0.681c-0.21-4.818-2.592-9.062-6.201-11.784
		c9.128,2.685,16.564,8.54,20.168,11.784c0.839,0.76,1.479,1.372,1.872,1.768c0.033,0.033,0.086,0.079,0.115,0.108
		c-0.012,0.316-0.064,0.616-0.092,0.928c-0.261,2.919-1.256,5.689-2.879,8.213c-0.518,0.805-1.106,1.579-1.744,2.335
		c-1.889,2.22-4.259,4.207-7.043,5.844c-0.827,0.487-1.699,0.938-2.6,1.366c-1.936,0.915-4.023,1.668-6.222,2.26
		c-0.907,0.242-1.832,0.462-2.778,0.643c-2.177,0.426-4.441,0.679-6.772,0.748c-0.443,0.014-0.874,0.047-1.319,0.047
		c-0.501,0-0.985-0.035-1.482-0.055c-1.969-0.065-3.884-0.259-5.737-0.579c-0.946-0.161-1.877-0.352-2.784-0.571
		c-2.558-0.63-4.975-1.483-7.198-2.545c-0.894-0.43-1.762-0.881-2.591-1.374c-2.349-1.39-4.413-3.017-6.132-4.835
		c-0.679-0.715-1.287-1.475-1.853-2.249c-2.035-2.791-3.283-5.925-3.574-9.247C30.709,63.99,30.645,63.597,30.641,63.191z"/>
</g>
</svg>
