<?xml version="1.0" encoding="utf-8"?>
<!-- Generator: Adobe Illustrator 15.0.2, SVG Export Plug-In . SVG Version: 6.00 Build 0)  -->
<!DOCTYPE svg PUBLIC "-//W3C//DTD SVG 1.1//EN" "http://www.w3.org/Graphics/SVG/1.1/DTD/svg11.dtd">
<svg version="1.1" id="Ebene_1" xmlns="http://www.w3.org/2000/svg" xmlns:xlink="http://www.w3.org/1999/xlink" x="0px" y="0px"
	 width="125px" height="125px" viewBox="0 0 125 125" enable-background="new 0 0 125 125" xml:space="preserve">
<path fill="#FFFFFF" d="M28.664,35.341h1.687v-0.004h-1.687c-4.644,0-8.411,3.766-8.411,8.409v0.006
	C20.253,39.109,24.021,35.341,28.664,35.341z"/>
<path fill="#FFFFFF" d="M95.941,35.341H96c-0.021,0-0.037-0.004-0.059-0.004H45.572v0.004h34.171H95.941z"/>
<path fill="#FFFFFF" d="M104.352,43.746c0-0.117-0.029-0.228-0.035-0.344c0.006,0.12,0.035,0.23,0.035,0.35V43.746z"/>
<path fill="#FFFFFF" d="M102.962,39.125c-1.461-2.214-3.94-3.682-6.778-3.764v0.002C99.016,35.446,101.499,36.918,102.962,39.125z"
	/>
<rect x="82.545" y="38.145" fill="#FFFFFF" width="10.835" height="8.437"/>
<path fill="#FFFFFF" d="M45.436,65.303H23.058v19.692h78.492V65.303H79.174c-0.714,8.699-7.988,15.542-16.87,15.542
	C53.423,80.845,46.146,74.002,45.436,65.303z"/>
<path fill="#FFFFFF" d="M28.664,92.46h67.277c2.767,0,5.059-2.023,5.511-4.661H23.155C23.605,90.437,25.894,92.46,28.664,92.46z"/>
<path fill="#FFFFFF" d="M79.743,38.145H28.664c-3.093,0-5.606,2.513-5.606,5.606v18.745h22.378
	c0.711-8.699,7.988-15.537,16.868-15.537c8.882,0,16.156,6.838,16.87,15.537h22.376V43.751c0-3.011-2.394-5.453-5.366-5.585v11.219
	h-16.44V38.145z"/>
<path fill="#FFFFFF" d="M74.78,63.902c0-0.049,0.008-0.086,0.008-0.127c0-6.724-5.448-12.172-12.173-12.172
	c-3.941,0-7.413,1.904-9.637,4.807c0.532-0.044,1.073-0.078,1.638-0.078c6.417,0,10.74,3.219,13.011,7.57
	c1.574,3.015,2.175,6.566,1.762,9.983C72.607,71.724,74.734,68.063,74.78,63.902z"/>
<rect x="82.545" y="38.145" fill="#F5B19E" width="10.835" height="8.437"/>
<path fill="#F5B19E" d="M101.55,65.303H79.174c-0.714,8.699-7.988,15.542-16.87,15.542c-8.88,0-16.157-6.843-16.868-15.542H23.058
	v19.692h78.492V65.303z"/>
<path fill="#E84C25" d="M104.186,42.077c-0.076-0.379-0.207-0.734-0.334-1.093c-0.051-0.151-0.082-0.312-0.142-0.456
	c-0.193-0.457-0.43-0.891-0.695-1.301c-0.018-0.033-0.033-0.071-0.053-0.101c-1.463-2.207-3.946-3.679-6.778-3.762v-0.002v-0.02H96
	h-0.059H79.743H45.572v-0.004v-2.453H30.351v2.453v0.004h-1.687c-4.644,0-8.411,3.768-8.411,8.41v41.244v1.402v0.456v0.945h0.099
	c0.472,4.193,3.993,7.463,8.312,7.463h67.277c4.327,0,7.844-3.27,8.314-7.463h0.096v-0.945v-0.456v-1.402V43.751
	c0-0.12-0.029-0.23-0.035-0.35C104.301,42.951,104.271,42.506,104.186,42.077z M82.545,38.145H93.38v8.437H82.545V38.145z
	 M95.941,92.46H28.664c-2.77,0-5.059-2.023-5.509-4.661h78.297C101,90.437,98.708,92.46,95.941,92.46z M101.55,84.995H23.058V65.303
	h22.378c0.711,8.699,7.988,15.542,16.868,15.542c8.882,0,16.156-6.843,16.87-15.542h22.376V84.995z M67.627,63.902
	c-2.271-4.351-6.594-7.57-13.011-7.57c-0.565,0-1.106,0.034-1.638,0.078c2.225-2.903,5.696-4.807,9.637-4.807
	c6.725,0,12.173,5.449,12.173,12.172c0,0.041-0.008,0.078-0.008,0.127c-0.046,4.161-2.173,7.821-5.392,9.983
	C69.802,70.469,69.201,66.917,67.627,63.902z M101.55,62.497H79.174c-0.714-8.699-7.988-15.537-16.87-15.537
	c-8.88,0-16.157,6.838-16.868,15.537H23.058V43.751c0-3.094,2.513-5.606,5.606-5.606h51.079v11.24h16.44V38.166
	c2.973,0.132,5.366,2.574,5.366,5.585V62.497z"/>
<path fill="#E84C25" d="M62.544,0.333c-34.309,0-62.22,27.915-62.22,62.224c0,34.31,27.911,62.223,62.22,62.223
	c34.308,0,62.226-27.913,62.226-62.223C124.771,28.248,96.853,0.333,62.544,0.333z M62.544,121.976
	c-32.764,0-59.416-26.653-59.416-59.418c0-32.766,26.651-59.42,59.416-59.42c32.767,0,59.42,26.655,59.42,59.42
	C121.965,95.322,95.312,121.976,62.544,121.976z"/>
</svg>
