<?xml version="1.0" encoding="UTF-8" standalone="no"?>
<!-- Generator: Adobe Illustrator 15.0.2, SVG Export Plug-In . SVG Version: 6.00 Build 0)  -->

<svg
   xmlns:dc="http://purl.org/dc/elements/1.1/"
   xmlns:cc="http://creativecommons.org/ns#"
   xmlns:rdf="http://www.w3.org/1999/02/22-rdf-syntax-ns#"
   xmlns:svg="http://www.w3.org/2000/svg"
   xmlns="http://www.w3.org/2000/svg"
   xmlns:sodipodi="http://sodipodi.sourceforge.net/DTD/sodipodi-0.dtd"
   xmlns:inkscape="http://www.inkscape.org/namespaces/inkscape"
   version="1.1"
   id="Ebene_1"
   x="0px"
   y="0px"
   width="125px"
   height="125px"
   viewBox="0 0 125 125"
   enable-background="new 0 0 125 125"
   xml:space="preserve"
   inkscape:version="0.91 r"
   sodipodi:docname="shopping.svg"><metadata
     id="metadata29"><rdf:RDF><cc:Work
         rdf:about=""><dc:format>image/svg+xml</dc:format><dc:type
           rdf:resource="http://purl.org/dc/dcmitype/StillImage" /></cc:Work></rdf:RDF></metadata><defs
     id="defs27" /><sodipodi:namedview
     pagecolor="#ffffff"
     bordercolor="#666666"
     borderopacity="1"
     objecttolerance="10"
     gridtolerance="10"
     guidetolerance="10"
     inkscape:pageopacity="0"
     inkscape:pageshadow="2"
     inkscape:window-width="1920"
     inkscape:window-height="1014"
     id="namedview25"
     showgrid="false"
     inkscape:zoom="2.6700352"
     inkscape:cx="-18.571373"
     inkscape:cy="69.792546"
     inkscape:window-x="0"
     inkscape:window-y="27"
     inkscape:window-maximized="1"
     inkscape:current-layer="layer2" /><g
     inkscape:groupmode="layer"
     id="layer2"
     inkscape:label="Layer 1"
     style="display:inline"><rect
       style="fill:#4d4d4d;fill-opacity:0"
       id="rect4214"
       width="170.40974"
       height="152.80698"
       x="-10.86128"
       y="-12.825898" /><ellipse
       style="fill:#ffffff;fill-opacity:1;stroke:none;stroke-opacity:1"
       id="path4222"
       ry="61.984203"
       rx="62.171463"
       cy="62.266747"
       cx="62.171463" /><g
       transform="translate(0.196,2.8115)"
       id="g5"><path
         style="fill:#ffffff"
         inkscape:connector-curvature="0"
         d="m 85.258,51.356 c 0,-2.647 -1.775,-4.869 -4.19,-5.6 l 0,11.68 4.19,0 0,-6.08 z"
         id="path7" /><path
         style="fill:#ffffff"
         inkscape:connector-curvature="0"
         d="m 65.25,31.258 c 0,-5.717 -4.65,-10.37 -10.364,-10.37 -5.716,0 -10.373,4.653 -10.373,10.37 l 0,3.897 20.737,0 0,-3.897 z"
         id="path9" /><path
         style="fill:#ffffff"
         inkscape:connector-curvature="0"
         d="m 73.49,57.437 4.773,0 0,-11.846 c -2.717,0.522 -4.773,2.906 -4.773,5.766 l 0,6.08 z"
         id="path11" /><path
         style="fill:#ffffff"
         inkscape:connector-curvature="0"
         d="m 70.688,51.356 c 0,-4.409 3.314,-8.019 7.576,-8.57 l 0,-4.827 -23.867,0 0,56.817 8.438,0 0,-37.34 7.853,0 0,-6.08 z"
         id="path13" /><polygon
         style="fill:#ffffff"
         points="93.109,77.703 93.109,60.238 81.067,60.238 79.665,60.238 78.264,60.238 65.637,60.238 65.637,77.703 78.264,77.703 79.665,77.703 81.067,77.703 "
         id="polygon15" /><polygon
         style="fill:#ffffff"
         points="93.109,98.492 93.109,80.509 81.067,80.509 79.665,80.509 78.264,80.509 65.637,80.509 65.637,94.776 65.637,96.179 65.637,97.58 65.637,98.492 "
         id="polygon17" /><path
         style="fill:#f5b19e"
         inkscape:connector-curvature="0"
         d="m 73.49,51.356 0,6.08 4.773,0 0,-11.845 c -2.716,0.522 -4.773,2.906 -4.773,5.765 z"
         id="path19" /><path
         style="fill:#f5b19e"
         inkscape:connector-curvature="0"
         d="m 54.397,94.776 8.438,0 0,-37.34 7.853,0 0,-6.08 c 0,-4.409 3.314,-8.019 7.576,-8.57 l 0,-4.827 -23.867,0 0,56.817 z"
         id="path21" /><path
         style="fill:#e84c25"
         inkscape:connector-curvature="0"
         d="m 88.058,51.356 c 0,-4.21 -3.013,-7.722 -6.99,-8.515 l 0,-7.687 -13.014,0 0,-3.897 c 0,-7.264 -5.909,-13.176 -13.168,-13.176 -7.266,0 -13.174,5.912 -13.174,13.176 l 0,3.897 -13.013,0 0,62.426 34.136,0 0,3.716 33.074,0 0,-43.859 -7.852,0 0,-6.081 z m 5.051,47.136 -27.472,0 0,-0.912 0,-1.401 0,-1.402 0,-14.268 12.627,0 1.401,0 1.402,0 12.042,0 0,17.983 z m -38.712,-60.533 23.866,0 0,4.827 c -4.262,0.552 -7.576,4.161 -7.576,8.57 l 0,6.08 -7.853,0 0,37.34 -8.438,0 0,-56.817 z m 19.093,19.478 0,-6.08 c 0,-2.859 2.057,-5.243 4.773,-5.766 l 0,11.846 -4.773,0 z m 7.577,20.266 -1.402,0 -1.401,0 -12.627,0 0,-17.465 12.627,0 1.401,0 1.402,0 12.042,0 0,17.465 -12.042,0 z M 44.513,31.258 c 0,-5.717 4.657,-10.37 10.373,-10.37 5.714,0 10.364,4.653 10.364,10.37 l 0,3.897 -20.737,0 0,-3.897 z m 36.554,26.179 0,-11.68 c 2.415,0.73 4.19,2.952 4.19,5.6 l 0,6.08 -4.19,0 z"
         id="path23" /></g></g><path
     inkscape:connector-curvature="0"
     style="fill:#e84c25"
     d="m 62.542992,0.23050779 c -34.309,0 -62.22000026,27.91500021 -62.22000026,62.22400021 0,34.309996 27.91100026,62.222992 62.22000026,62.222992 34.307995,0 62.225998,-27.912996 62.225998,-62.222992 0.001,-34.309 -27.917003,-62.22400021 -62.225998,-62.22400021 z m 0,121.64299221 c -32.764,0 -59.4160003,-26.652996 -59.4160003,-59.417992 0,-32.766 26.6510003,-59.4200002 59.4160003,-59.4200002 32.767,0 59.419998,26.6550002 59.419998,59.4200002 10e-4,32.763996 -26.651998,59.417992 -59.419998,59.417992 z"
     id="path3" /></svg>