<?xml version="1.0" encoding="utf-8"?>
<!-- Generator: Adobe Illustrator 15.0.2, SVG Export Plug-In . SVG Version: 6.00 Build 0)  -->
<!DOCTYPE svg PUBLIC "-//W3C//DTD SVG 1.1//EN" "http://www.w3.org/Graphics/SVG/1.1/DTD/svg11.dtd">
<svg version="1.1" id="Ebene_1" xmlns="http://www.w3.org/2000/svg" xmlns:xlink="http://www.w3.org/1999/xlink" x="0px" y="0px"
	 width="125px" height="125px" viewBox="0 0 125 125" enable-background="new 0 0 125 125" xml:space="preserve">
<path fill="#E84C25" d="M62.544,0.333c-34.309,0-62.22,27.915-62.22,62.224c0,34.31,27.911,62.223,62.22,62.223
	c34.308,0,62.226-27.913,62.226-62.223C124.771,28.248,96.853,0.333,62.544,0.333z M62.544,121.976
	c-32.764,0-59.416-26.653-59.416-59.418c0-32.766,26.651-59.42,59.416-59.42c32.767,0,59.42,26.655,59.42,59.42
	C121.965,95.322,95.312,121.976,62.544,121.976z"/>
<g>
	<polygon fill="#FFFFFF" points="26.925,88.967 61.565,88.967 61.565,85.26 32.526,85.26 32.526,37.462 61.565,37.462 
		61.565,33.757 26.925,33.757 	"/>
	<polygon fill="#FFFFFF" points="64.371,37.462 93.41,37.462 93.41,85.26 85.698,85.26 85.698,88.967 99.009,88.967 99.009,33.757 
		64.371,33.757 	"/>
	<rect x="64.371" y="85.26" fill="#FFFFFF" width="9.197" height="3.707"/>
	<path fill="#FFFFFF" d="M35.33,82.458h26.235V40.265H35.33V82.458z M40.816,51.001V49.6h15.045v1.401v1.402H40.816V51.001z
		 M40.816,58.276V56.88h15.045v1.396v1.403H40.816V58.276z M40.816,65.555v-1.4h15.045v1.4v1.402H40.816V65.555z"/>
	<path fill="#FFFFFF" d="M90.604,82.458V40.265H64.371v42.193h9.197h1.402h9.331h1.396H90.604z M70.072,51.001V49.6h15.045v1.401
		v1.402H70.072V51.001z M70.072,58.276V56.88h15.045v1.396v1.403H70.072V58.276z M70.072,66.957v-1.402v-1.4h15.045v1.4v1.402
		H70.072z"/>
	<polygon fill="#F5B19E" points="26.925,88.967 61.565,88.967 61.565,85.26 32.526,85.26 32.526,37.462 61.565,37.462 
		61.565,33.757 26.925,33.757 	"/>
	<polygon fill="#F5B19E" points="64.371,37.462 93.41,37.462 93.41,85.26 85.698,85.26 85.698,88.967 99.009,88.967 99.009,33.757 
		64.371,33.757 	"/>
	<rect x="64.371" y="85.26" fill="#F5B19E" width="9.197" height="3.707"/>
	<path fill="#E84C25" d="M24.122,91.77h49.447v9.342l6.225-6.228l5.905,6.447V91.77h16.117V30.952H24.122V91.77z M99.009,88.967
		H85.698V85.26h7.712V37.462H64.371v-3.705h34.638V88.967z M74.971,82.458h-1.402h-9.197V40.265h26.233v42.193h-4.906h-1.396H74.971
		z M61.565,82.458H35.33V40.265h26.235V82.458z M64.371,85.26h9.197v3.707h-9.197V85.26z M26.925,33.757h34.64v3.705h-29.04V85.26
		h29.04v3.707h-34.64V33.757z"/>
	<polygon fill="#E84C25" points="55.861,51.001 55.861,49.6 40.816,49.6 40.816,51.001 40.816,52.403 55.861,52.403 	"/>
	<polygon fill="#E84C25" points="55.861,58.276 55.861,56.88 40.816,56.88 40.816,58.276 40.816,59.68 55.861,59.68 	"/>
	<polygon fill="#E84C25" points="55.861,65.555 55.861,64.154 40.816,64.154 40.816,65.555 40.816,66.957 55.861,66.957 	"/>
	<polygon fill="#E84C25" points="85.117,51.001 85.117,49.6 70.072,49.6 70.072,51.001 70.072,52.403 85.117,52.403 	"/>
	<polygon fill="#E84C25" points="85.117,58.276 85.117,56.88 70.072,56.88 70.072,58.276 70.072,59.68 85.117,59.68 	"/>
	<polygon fill="#E84C25" points="85.117,65.555 85.117,64.154 70.072,64.154 70.072,65.555 70.072,66.957 85.117,66.957 	"/>
</g>
</svg>
