<?xml version="1.0" encoding="utf-8"?>
<!-- Generator: Adobe Illustrator 15.0.2, SVG Export Plug-In . SVG Version: 6.00 Build 0)  -->
<!DOCTYPE svg PUBLIC "-//W3C//DTD SVG 1.1//EN" "http://www.w3.org/Graphics/SVG/1.1/DTD/svg11.dtd">
<svg version="1.1" id="Ebene_1" xmlns="http://www.w3.org/2000/svg" xmlns:xlink="http://www.w3.org/1999/xlink" x="0px" y="0px"
	 width="125px" height="125px" viewBox="0 0 125 125" enable-background="new 0 0 125 125" xml:space="preserve">
<path fill="#E84C25" d="M62.544,0.333c-34.309,0-62.22,27.915-62.22,62.224c0,34.31,27.911,62.223,62.22,62.223
	c34.308,0,62.226-27.913,62.226-62.223C124.771,28.248,96.853,0.333,62.544,0.333z M62.544,121.976
	c-32.764,0-59.416-26.653-59.416-59.418c0-32.766,26.651-59.42,59.416-59.42c32.767,0,59.42,26.655,59.42,59.42
	C121.965,95.322,95.312,121.976,62.544,121.976z"/>
<g>
	<polygon fill="#FFFFFF" points="85.202,85.569 82.561,86.491 80.688,85.84 80.688,99.801 85.202,99.801 	"/>
	<polygon fill="#FFFFFF" points="39.574,84.908 39.574,98.872 44.091,98.872 44.091,84.638 41.445,85.56 	"/>
	<path fill="#FFFFFF" d="M42.619,82.185c-0.677-0.668-1.268-1.437-1.733-2.292c-0.236-0.425-0.443-0.874-0.615-1.341
		c-0.253-0.689-0.419-1.418-0.501-2.213c-2.233-1.145-3.911-3.032-4.771-5.388c-1.495-4.062-0.113-8.616,3.217-11.232
		c-0.426-0.62-0.771-1.287-1.034-1.994c-1.74-4.753,0.708-10.043,5.454-11.786c1.534-0.565,3.194-0.692,4.808-0.391
		c0.181-2.547,1.271-4.916,3.002-6.713l-8.999-12.43L25.685,48.181l8.006,1.734l-9.645,11.007l10.272,3.093L23.933,76.493
		l14.241,4.959l3.271,1.142L42.619,82.185z"/>
	<path fill="#FFFFFF" d="M58.427,91.998v9.741h4.517v-9.676c-0.665,0.094-1.338,0.176-2.012,0.176
		C60.079,92.239,59.246,92.14,58.427,91.998z"/>
	<path fill="#FFFFFF" d="M49.277,82.269l0.804,0.039l0.107,0.208l0.264,0.509c1.169,2.264,3.002,4.013,5.17,5.115
		c0.456,0.231,0.919,0.434,1.402,0.602c0.458,0.162,0.921,0.292,1.402,0.397c0.813,0.181,1.648,0.298,2.505,0.298
		c0.676,0,1.349-0.061,2.012-0.179c0.474-0.082,0.937-0.23,1.4-0.372c0.209-0.064,0.426-0.096,0.632-0.171
		c0.266-0.099,0.514-0.237,0.769-0.352c1.9-0.857,3.551-2.166,4.771-3.876l0.552-0.772l0.925,0.226
		c1.106,0.274,2.263,0.284,3.377,0.047c0.345-0.076,0.687-0.172,1.021-0.296c0.354-0.128,0.679-0.305,1.006-0.482
		c0.512-0.28,0.997-0.6,1.433-0.985c0.165-0.151,0.306-0.324,0.46-0.485c0.266-0.286,0.52-0.587,0.741-0.914
		c0.221-0.335,0.436-0.672,0.608-1.046c0.85-1.829,0.933-3.874,0.238-5.764l-0.737-1.617l1.276-0.569
		c4.344-1.946,6.467-6.952,4.836-11.399c-1.112-3.025-3.814-5.251-7.062-5.799l-0.685-0.115l-0.71-1.361l0.359-0.894
		c1.234-1.808,1.523-4.1,0.774-6.133c-1.028-2.792-3.902-4.528-6.805-4.37c-0.634,0.031-1.265,0.124-1.883,0.352
		c-0.055,0.02-0.104,0.061-0.16,0.082c-0.854,0.338-1.643,0.857-2.339,1.576l-1.494,1.546l-0.057-0.137l-0.755-1.856
		c-1.228-3.001-4.108-4.943-7.337-4.943c-0.927,0-1.84,0.163-2.722,0.486c-0.382,0.142-0.743,0.314-1.091,0.507
		c-0.409,0.229-0.796,0.49-1.16,0.784c-0.367,0.301-0.698,0.645-1.001,1.005c-1.32,1.555-2.043,3.603-1.881,5.74l0.051,0.74
		l-1.203,0.951l-1.079,0.018c-0.751-0.278-1.518-0.415-2.288-0.415c-0.726,0-1.442,0.125-2.119,0.376
		c-3.301,1.213-4.998,4.883-3.792,8.191c0.315,0.842,0.806,1.612,1.477,2.278l1.322,1.33l-1.652,0.893
		c-3.109,1.674-4.543,5.431-3.328,8.728c0.689,1.885,2.113,3.352,4.008,4.129l0.839,0.343l0.031,0.91
		c0.027,0.838,0.157,1.568,0.396,2.218c0.324,0.887,0.858,1.635,1.471,2.305c0.348,0.382,0.7,0.755,1.118,1.055
		c0.082,0.056,0.184,0.085,0.268,0.142c0.567,0.367,1.18,0.653,1.833,0.846C48.137,82.097,48.69,82.237,49.277,82.269z"/>
	<path fill="#F5B19E" d="M25.685,48.181l8.006,1.734l-9.645,11.007l10.272,3.093L23.933,76.493l14.241,4.959l3.271,1.142
		l1.174-0.409c-0.677-0.668-1.268-1.437-1.733-2.292c-0.236-0.425-0.443-0.874-0.615-1.341c-0.253-0.689-0.419-1.418-0.501-2.213
		c-2.233-1.145-3.911-3.032-4.771-5.388c-1.495-4.062-0.113-8.616,3.217-11.232c-0.426-0.62-0.771-1.287-1.034-1.994
		c-1.74-4.753,0.708-10.043,5.454-11.786c1.534-0.565,3.194-0.692,4.808-0.391c0.181-2.547,1.271-4.916,3.002-6.713l-8.999-12.43
		L25.685,48.181z"/>
	<path fill="#F5B19E" d="M58.427,101.739h4.517v-9.676c-0.665,0.094-1.338,0.176-2.012,0.176c-0.853,0-1.686-0.1-2.505-0.241
		V101.739z"/>
	<path fill="#E84C25" d="M95.562,52.576l7.542-1.631L82.561,22.558L70.567,39.126c-0.434,0.094-0.87,0.197-1.29,0.351
		c-0.745,0.272-1.451,0.64-2.114,1.104c-1.938-3.094-5.326-5.012-9.065-5.012c-1.259,0-2.497,0.229-3.686,0.659
		c-0.628,0.228-1.209,0.534-1.768,0.871L41.445,21.627L20.897,50.015l7.546,1.633l-9.374,10.703l10.382,3.126L19.19,77.808
		l17.579,6.125v17.74h10.126v-16.98c0.469,0.135,0.952,0.239,1.442,0.302c1.693,2.894,4.273,5.051,7.284,6.229v13.318h10.122V91.397
		c0.064-0.02,0.131-0.027,0.193-0.049c2.485-0.914,4.644-2.461,6.302-4.504c0.517,0.078,1.029,0.115,1.551,0.115
		c1.215,0,2.417-0.21,3.567-0.635c0.186-0.068,0.346-0.172,0.525-0.256v16.535h10.125v-18.01l16.81-5.856L94.551,66.413l10.38-3.125
		L95.562,52.576z M76.389,83.691c-0.334,0.124-0.676,0.22-1.021,0.296c-1.114,0.237-2.271,0.228-3.377-0.047l-0.925-0.226
		l-0.552,0.772c-1.22,1.71-2.87,3.019-4.771,3.876c-0.255,0.114-0.503,0.253-0.769,0.352c-0.206,0.075-0.423,0.106-0.632,0.171
		c-0.464,0.142-0.927,0.29-1.4,0.372c-0.663,0.118-1.336,0.179-2.012,0.179c-0.856,0-1.691-0.117-2.505-0.298
		c-0.481-0.105-0.944-0.235-1.402-0.397c-0.483-0.168-0.946-0.37-1.402-0.602c-2.168-1.103-4.001-2.852-5.17-5.115l-0.264-0.509
		l-0.107-0.208l-0.804-0.039c-0.587-0.031-1.141-0.172-1.684-0.334c-0.653-0.192-1.266-0.479-1.833-0.846
		c-0.084-0.057-0.186-0.086-0.268-0.142c-0.418-0.3-0.771-0.673-1.118-1.055c-0.612-0.67-1.146-1.418-1.471-2.305
		c-0.238-0.649-0.368-1.38-0.396-2.218l-0.031-0.91l-0.839-0.343c-1.895-0.777-3.318-2.244-4.008-4.129
		c-1.215-3.297,0.219-7.054,3.328-8.728l1.652-0.893l-1.322-1.33c-0.671-0.666-1.161-1.437-1.477-2.278
		c-1.206-3.309,0.491-6.979,3.792-8.191c0.677-0.251,1.394-0.376,2.119-0.376c0.771,0,1.537,0.137,2.288,0.415l1.079-0.018
		l1.203-0.951l-0.051-0.74c-0.162-2.138,0.561-4.186,1.881-5.74c0.303-0.36,0.634-0.704,1.001-1.005
		c0.364-0.294,0.751-0.556,1.16-0.784c0.348-0.192,0.709-0.365,1.091-0.507c0.882-0.323,1.795-0.486,2.722-0.486
		c3.229,0,6.109,1.942,7.337,4.943l0.755,1.856l0.057,0.137l1.494-1.546c0.696-0.719,1.484-1.238,2.339-1.576
		c0.057-0.021,0.105-0.062,0.16-0.082c0.618-0.228,1.249-0.32,1.883-0.352c2.902-0.158,5.776,1.578,6.805,4.37
		c0.749,2.033,0.46,4.325-0.774,6.133l-0.359,0.894l0.71,1.361l0.685,0.115c3.248,0.548,5.95,2.773,7.062,5.799
		c1.631,4.447-0.492,9.453-4.836,11.399l-1.276,0.569l0.737,1.617c0.694,1.89,0.611,3.935-0.238,5.764
		c-0.173,0.374-0.388,0.711-0.608,1.046c-0.222,0.327-0.476,0.628-0.741,0.914c-0.154,0.161-0.295,0.334-0.46,0.485
		c-0.436,0.386-0.921,0.705-1.433,0.985C77.067,83.387,76.743,83.563,76.389,83.691z M62.943,101.739h-4.517v-9.741
		c0.819,0.142,1.652,0.241,2.505,0.241c0.674,0,1.347-0.082,2.012-0.176V101.739z M34.318,64.015l-10.272-3.093l9.645-11.007
		l-8.006-1.734l15.761-21.775l8.999,12.43c-1.73,1.797-2.821,4.166-3.002,6.713c-1.613-0.302-3.273-0.175-4.808,0.391
		c-4.746,1.743-7.194,7.033-5.454,11.786c0.264,0.707,0.608,1.374,1.034,1.994c-3.33,2.616-4.712,7.17-3.217,11.232
		c0.86,2.355,2.538,4.243,4.771,5.388c0.082,0.795,0.248,1.523,0.501,2.213c0.172,0.467,0.379,0.916,0.615,1.341
		c0.466,0.855,1.057,1.624,1.733,2.292l-1.174,0.409l-3.271-1.142l-14.241-4.959L34.318,64.015z M39.574,84.908l1.871,0.651
		l2.646-0.922v14.234h-4.517V84.908z M85.202,99.801h-4.515V85.84l1.873,0.651l2.642-0.922V99.801z"/>
</g>
</svg>
