<?xml version="1.0" encoding="utf-8"?>
<!-- Generator: Adobe Illustrator 15.0.2, SVG Export Plug-In . SVG Version: 6.00 Build 0)  -->
<!DOCTYPE svg PUBLIC "-//W3C//DTD SVG 1.1//EN" "http://www.w3.org/Graphics/SVG/1.1/DTD/svg11.dtd">
<svg version="1.1" id="Ebene_1" xmlns="http://www.w3.org/2000/svg" xmlns:xlink="http://www.w3.org/1999/xlink" x="0px" y="0px"
	 width="125px" height="125px" viewBox="0 0 125 125" enable-background="new 0 0 125 125" xml:space="preserve">
<path fill="#E84C25" d="M62.544,0.333c-34.309,0-62.22,27.915-62.22,62.224c0,34.31,27.911,62.223,62.22,62.223
	c34.308,0,62.226-27.913,62.226-62.223C124.771,28.248,96.853,0.333,62.544,0.333z M62.544,121.976
	c-32.764,0-59.416-26.653-59.416-59.418c0-32.766,26.651-59.42,59.416-59.42c32.767,0,59.42,26.655,59.42,59.42
	C121.965,95.322,95.312,121.976,62.544,121.976z"/>
<g>
	<rect x="36.971" y="42.229" fill="#FFFFFF" width="4.557" height="31.207"/>
	<rect x="60.312" y="42.229" fill="#FFFFFF" width="4.551" height="31.207"/>
	<rect x="83.649" y="42.229" fill="#FFFFFF" width="4.55" height="31.207"/>
	<rect x="28.436" y="76.284" fill="#FFFFFF" width="68.303" height="8.743"/>
	<polygon fill="#FFFFFF" points="62.132,19.078 29.263,39.386 94.99,39.381 	"/>
	<rect x="28.436" y="76.284" fill="#F5B19E" width="68.303" height="8.743"/>
	<polygon fill="#F5B19E" points="62.132,19.078 29.263,39.386 94.99,39.381 	"/>
	<path fill="#E84C25" d="M34.169,73.482h-8.536v11.545h-3.33v12.124h80.564V85.027h-3.324V73.482h-8.544V42.184h13.864l-42.731-26.4
		L19.39,42.189h14.779V73.482z M62.132,19.078L94.99,39.381l-65.728,0.005L62.132,19.078z M96.738,85.027H28.436v-8.743h68.303
		V85.027z M44.331,42.188h13.178v31.295H44.331V42.188z M80.845,73.482h-13.18V42.188h13.18V73.482z M60.312,42.229h4.551v31.207
		h-4.551V42.229z M88.199,73.436h-4.55V42.229h4.55V73.436z M36.971,42.229h4.557v31.207h-4.557V42.229z"/>
</g>
</svg>
